<svg width="106" height="106" viewBox="0 0 106 106" fill="none" xmlns="http://www.w3.org/2000/svg">
<g filter="url(#filter0_d_98_643)">
<circle cx="53" cy="53" r="23" fill="white"/>
</g>
<path d="M59.6825 46.1825C59.9995 45.8808 60.4212 45.7139 60.8588 45.7172C61.2964 45.7206 61.7157 45.8937 62.028 46.2002C62.3404 46.5068 62.5214 46.9226 62.533 47.3601C62.5445 47.7976 62.3857 48.2224 62.09 48.545L53.1125 59.7725C52.9581 59.9388 52.7718 60.0722 52.5647 60.1648C52.3576 60.2574 52.1339 60.3073 51.9071 60.3115C51.6802 60.3157 51.4549 60.2742 51.2445 60.1893C51.034 60.1044 50.8429 59.9779 50.6825 59.8175L44.729 53.864C44.5632 53.7095 44.4302 53.5232 44.338 53.3162C44.2458 53.1092 44.1962 52.8858 44.1922 52.6592C44.1882 52.4326 44.2299 52.2075 44.3147 51.9974C44.3996 51.7873 44.5259 51.5964 44.6862 51.4362C44.8464 51.2759 45.0373 51.1496 45.2474 51.0647C45.4575 50.9799 45.6826 50.9382 45.9092 50.9422C46.1358 50.9462 46.3592 50.9958 46.5662 51.088C46.7732 51.1802 46.9595 51.3132 47.114 51.479L51.8255 56.1883L59.6398 46.232C59.6538 46.2147 59.6688 46.1982 59.6847 46.1825H59.6825Z" fill="#F28003"/>
<defs>
<filter id="filter0_d_98_643" x="0" y="0" width="106" height="106" filterUnits="userSpaceOnUse" color-interpolation-filters="sRGB">
<feFlood flood-opacity="0" result="BackgroundImageFix"/>
<feColorMatrix in="SourceAlpha" type="matrix" values="0 0 0 0 0 0 0 0 0 0 0 0 0 0 0 0 0 0 127 0" result="hardAlpha"/>
<feOffset/>
<feGaussianBlur stdDeviation="15"/>
<feComposite in2="hardAlpha" operator="out"/>
<feColorMatrix type="matrix" values="0 0 0 0 0.94902 0 0 0 0 0.501961 0 0 0 0 0.0117647 0 0 0 0.25 0"/>
<feBlend mode="normal" in2="BackgroundImageFix" result="effect1_dropShadow_98_643"/>
<feBlend mode="normal" in="SourceGraphic" in2="effect1_dropShadow_98_643" result="shape"/>
</filter>
</defs>
</svg>
