<svg width="189" height="29" viewBox="0 0 189 29" fill="none" xmlns="http://www.w3.org/2000/svg">
<path d="M8.12374 13.1999C8.88576 12.7504 9.74644 12.529 10.7024 12.529C11.5835 12.529 12.4033 12.7538 13.1551 13.1999C13.907 13.6461 14.5329 14.3443 15.033 15.2912L19.3636 12.8628C18.6492 11.2211 17.5368 9.95752 16.0366 9.07539C14.5329 8.19326 12.7673 7.75049 10.7398 7.75049C8.71227 7.75049 6.81401 8.19326 5.1913 9.07539C3.56859 9.95752 2.29628 11.1802 1.37777 12.7333C0.459257 14.2898 0 16.0745 0 18.0908C0 20.0833 0.459257 21.8612 1.37777 23.4279C2.29628 24.9946 3.56859 26.2207 5.1913 27.1063C6.81401 27.9884 8.66464 28.4312 10.7398 28.4312C12.7673 28.4312 14.5329 27.9884 16.0366 27.1063C17.5402 26.2242 18.6492 24.9708 19.3636 23.3564L15.033 20.8905C14.5329 21.8612 13.907 22.5662 13.1551 22.9988C12.4033 23.4347 11.5869 23.6527 10.7024 23.6527C9.74644 23.6527 8.88917 23.4279 8.12374 22.9817C7.36171 22.5356 6.75617 21.8986 6.31733 21.0778C5.87508 20.257 5.65396 19.2625 5.65396 18.0908C5.65396 16.9226 5.87508 15.9247 6.31733 15.1039C6.75958 14.283 7.36171 13.6495 8.12374 13.1999Z" fill="white"/>
<path d="M35.5092 9.07539C33.9103 8.19326 32.0971 7.75049 30.0696 7.75049C28.0182 7.75049 26.1982 8.19326 24.6129 9.07539C23.0243 9.95752 21.7724 11.1802 20.8538 12.7333C19.9353 14.2898 19.4761 16.0745 19.4761 18.0908C19.4761 20.0833 19.9353 21.8544 20.8538 23.4109C21.7724 24.9674 23.0243 26.1901 24.6129 27.0893C26.1982 27.985 28.0182 28.4346 30.0696 28.4346C32.0971 28.4346 33.9103 27.985 35.5092 27.0893C37.1081 26.1935 38.36 24.9674 39.2683 23.4109C40.1766 21.8544 40.6291 20.0833 40.6291 18.0908C40.6291 16.0507 40.1766 14.2592 39.2683 12.7163C38.36 11.1734 37.1081 9.96093 35.5092 9.07539ZM34.3288 21.0574C33.9001 21.8918 33.315 22.5321 32.5734 22.9783C31.8352 23.4279 30.9983 23.6493 30.0696 23.6493C29.1375 23.6493 28.304 23.4245 27.5658 22.9783C26.8242 22.5321 26.2357 21.8918 25.7934 21.0574C25.3512 20.2229 25.13 19.2352 25.13 18.0908C25.13 16.9226 25.3512 15.9247 25.7934 15.1039C26.2357 14.283 26.8242 13.6495 27.5658 13.1999C28.304 12.7504 29.1409 12.529 30.0696 12.529C31.0017 12.529 31.8352 12.7538 32.5734 13.1999C33.315 13.6461 33.9001 14.283 34.3288 15.1039C34.7574 15.9247 34.9717 16.9226 34.9717 18.0908C34.9717 19.2352 34.7574 20.2263 34.3288 21.0574Z" fill="white"/>
<path d="M57.5229 9.07539C55.924 8.19326 54.1108 7.75049 52.0833 7.75049C50.0319 7.75049 48.2119 8.19326 46.6266 9.07539C45.0379 9.95752 43.786 11.1802 42.8675 12.7333C41.949 14.2898 41.4897 16.0745 41.4897 18.0908C41.4897 20.0833 41.949 21.8544 42.8675 23.4109C43.786 24.9674 45.0379 26.1901 46.6266 27.0893C48.2119 27.985 50.0319 28.4346 52.0833 28.4346C54.1108 28.4346 55.924 27.985 57.5229 27.0893C59.1218 26.1935 60.3737 24.9674 61.282 23.4109C62.1903 21.8544 62.6428 20.0833 62.6428 18.0908C62.6428 16.0507 62.1903 14.2592 61.282 12.7163C60.3737 11.1734 59.1218 9.96093 57.5229 9.07539ZM56.3424 21.0574C55.9138 21.8918 55.3287 22.5321 54.5871 22.9783C53.8489 23.4279 53.012 23.6493 52.0833 23.6493C51.1511 23.6493 50.3177 23.4245 49.5795 22.9783C48.8379 22.5321 48.2493 21.8918 47.8071 21.0574C47.3648 20.2229 47.1437 19.2352 47.1437 18.0908C47.1437 16.9226 47.3648 15.9247 47.8071 15.1039C48.2493 14.283 48.8379 13.6495 49.5795 13.1999C50.3177 12.7504 51.1545 12.529 52.0833 12.529C53.0154 12.529 53.8489 12.7538 54.5871 13.1999C55.3287 13.6461 55.9138 14.283 56.3424 15.1039C56.7711 15.9247 56.9854 16.9226 56.9854 18.0908C56.9854 19.2352 56.7711 20.2263 56.3424 21.0574Z" fill="white"/>
<path d="M105.006 10.1623C104.561 9.65145 104.064 9.2155 103.503 8.8715C102.285 8.12561 100.866 7.75096 99.2437 7.75096C97.4304 7.75096 95.7941 8.17329 94.3415 9.01796C92.8855 9.86603 91.7323 11.0581 90.8886 12.601C90.0415 14.1439 89.6163 15.9728 89.6163 18.0879C89.6163 20.1791 90.0415 21.9945 90.8886 23.5374C91.7357 25.0802 92.8855 26.2825 94.3415 27.1408C95.7975 27.9991 97.4304 28.4282 99.2437 28.4282C100.938 28.4282 102.387 28.0536 103.591 27.3077C104.224 26.916 104.775 26.4085 105.255 25.7989V28.1285H110.589V0.435059H105.003V10.1623H105.006ZM104.452 21.0613C104.01 21.8957 103.418 22.536 102.68 22.9822C101.938 23.4318 101.115 23.6532 100.21 23.6532C99.2777 23.6532 98.4442 23.4284 97.706 22.9822C96.9644 22.536 96.3759 21.8957 95.9336 21.0613C95.4914 20.2268 95.2702 19.2391 95.2702 18.0947C95.2702 16.9265 95.4914 15.9286 95.9336 15.1077C96.3759 14.2869 96.9644 13.6534 97.706 13.2038C98.4442 12.7542 99.2811 12.5329 100.21 12.5329C101.118 12.5329 101.938 12.7576 102.68 13.2038C103.418 13.65 104.01 14.2869 104.452 15.1077C104.894 15.9286 105.112 16.9265 105.112 18.0947C105.112 19.2391 104.891 20.2302 104.452 21.0613Z" fill="white"/>
<path d="M127.673 9.07539C126.074 8.19326 124.261 7.75049 122.234 7.75049C120.182 7.75049 118.362 8.19326 116.777 9.07539C115.188 9.95752 113.936 11.1802 113.018 12.7333C112.099 14.2898 111.64 16.0745 111.64 18.0908C111.64 20.0833 112.099 21.8544 113.018 23.4109C113.936 24.9674 115.188 26.1901 116.777 27.0893C118.362 27.985 120.182 28.4346 122.234 28.4346C124.261 28.4346 126.074 27.985 127.673 27.0893C129.272 26.1935 130.524 24.9674 131.432 23.4109C132.341 21.8544 132.793 20.0833 132.793 18.0908C132.793 16.0507 132.341 14.2592 131.432 12.7163C130.524 11.1734 129.272 9.96093 127.673 9.07539ZM126.493 21.0574C126.064 21.8918 125.479 22.5321 124.737 22.9783C123.999 23.4279 123.162 23.6493 122.234 23.6493C121.302 23.6493 120.468 23.4245 119.73 22.9783C118.988 22.5321 118.4 21.8918 117.957 21.0574C117.515 20.2229 117.294 19.2352 117.294 18.0908C117.294 16.9465 117.515 15.9247 117.957 15.1039C118.4 14.283 118.988 13.6495 119.73 13.1999C120.468 12.7504 121.305 12.529 122.234 12.529C123.162 12.529 123.999 12.7538 124.737 13.1999C125.479 13.6461 126.064 14.283 126.493 15.1039C126.921 15.9247 127.136 16.9226 127.136 18.0908C127.136 19.2352 126.921 20.2263 126.493 21.0574Z" fill="white"/>
<path d="M162.566 8.70414C161.386 8.07064 160.032 7.75389 158.505 7.75389C156.668 7.75389 155.038 8.21369 153.619 9.13329C152.806 9.66121 152.133 10.3083 151.575 11.0474C151.126 10.2811 150.561 9.64418 149.86 9.15032C148.537 8.2171 146.989 7.75049 145.224 7.75049C143.648 7.75049 142.247 8.1047 141.015 8.81313C140.304 9.22525 139.695 9.75998 139.172 10.3935V8.05021H133.837V28.1349H139.423V18.0534C139.423 16.8579 139.6 15.877 139.961 15.1039C140.318 14.3341 140.821 13.7551 141.464 13.3702C142.107 12.9854 142.835 12.7912 143.648 12.7912C144.819 12.7912 145.717 13.1761 146.353 13.9492C146.986 14.7224 147.302 15.9145 147.302 17.5323V28.1349H152.888V18.0534C152.888 16.8579 153.065 15.877 153.426 15.1039C153.783 14.3341 154.286 13.7551 154.929 13.3702C155.572 12.9854 156.3 12.7912 157.113 12.7912C158.283 12.7912 159.188 13.1761 159.835 13.9492C160.478 14.7224 160.801 15.9145 160.801 17.5323V28.1349H166.387V16.6365C166.387 14.5964 166.047 12.9207 165.366 11.6162C164.686 10.3083 163.757 9.33764 162.573 8.70414H162.566Z" fill="white"/>
<path d="M184.42 19.0138C184.111 19.8721 183.672 20.6146 183.104 21.2345C182.539 21.8578 181.791 22.3857 180.859 22.8182C179.821 23.3019 178.824 23.5267 177.875 23.4892C176.923 23.4517 176.062 23.1554 175.286 22.5968C174.868 22.2937 174.497 21.9225 174.17 21.4899L187.366 15.3286C187.281 15.0936 187.193 14.8416 187.091 14.5691C186.992 14.3 186.894 14.065 186.802 13.8607C185.887 11.8989 184.703 10.4003 183.247 9.36148C181.791 8.32608 180.199 7.75048 178.474 7.63468C176.749 7.52228 175.031 7.86287 173.323 8.65986C171.548 9.48749 170.146 10.6285 169.112 12.0862C168.078 13.5439 167.486 15.1651 167.333 16.9533C167.176 18.7414 167.527 20.5499 168.377 22.3755C169.217 24.1806 170.377 25.5975 171.854 26.6226C173.334 27.6478 175.011 28.2166 176.895 28.3256C178.777 28.4346 180.712 28.0259 182.702 27.0961C184.281 26.3604 185.557 25.4544 186.533 24.3815C187.509 23.3087 188.176 22.1132 188.533 20.7917L184.42 19.0036V19.0138ZM173.201 14.3035C173.677 13.6018 174.347 13.0467 175.211 12.6448C176.076 12.2395 176.926 12.0828 177.759 12.1748C178.593 12.2667 179.355 12.5767 180.049 13.1046C180.369 13.3464 180.648 13.6563 180.913 13.9901L172.568 17.958C172.473 17.5254 172.415 17.0963 172.432 16.6808C172.47 15.7986 172.725 15.0085 173.201 14.3035Z" fill="white"/>
<path d="M80.1827 3.4561L69.6675 14.2426V0.435059H64.4456V28.1353H69.6675V21.8106L71.6882 19.8419H72.025C72.8857 19.8419 73.6715 20.0122 74.4335 20.3596C75.2092 20.7139 75.893 21.1975 76.4645 21.7901C77.0394 22.3896 77.5055 23.1082 77.8524 23.929C78.196 24.7465 78.3627 25.5945 78.3627 26.5175V28.1353H83.5846V26.5175C83.5846 24.9712 83.3159 23.4829 82.7784 22.1001C82.2477 20.7275 81.5027 19.4809 80.557 18.4012C79.6044 17.3148 78.4716 16.4224 77.1857 15.7548C76.8013 15.5539 76.4066 15.3768 76.0018 15.2235L83.8194 7.25369L80.1827 3.46291V3.4561Z" fill="white"/>
</svg>
