<svg width="189" height="29" viewBox="0 0 189 29" fill="none" xmlns="http://www.w3.org/2000/svg">
<path d="M8.12374 12.9636C8.88576 12.5071 9.74644 12.2823 10.7024 12.2823C11.5835 12.2823 12.4033 12.5105 13.1551 12.9636C13.907 13.4167 14.5329 14.1258 15.033 15.0874L19.3636 12.6212C18.6492 10.9541 17.5368 9.67085 16.0366 8.77501C14.5329 7.87918 12.7673 7.42953 10.7398 7.42953C8.71227 7.42953 6.81401 7.87918 5.1913 8.77501C3.56859 9.67085 2.29628 10.9126 1.37777 12.4898C0.459257 14.0705 0 15.8829 0 17.9305C0 19.9539 0.459257 21.7594 1.37777 23.3505C2.29628 24.9415 3.56859 26.1867 5.1913 27.086C6.81401 27.9818 8.66464 28.4315 10.7398 28.4315C12.7673 28.4315 14.5329 27.9818 16.0366 27.086C17.5402 26.1901 18.6492 24.9173 19.3636 23.2778L15.033 20.7736C14.5329 21.7594 13.907 22.4754 13.1551 22.9147C12.4033 23.3574 11.5869 23.5787 10.7024 23.5787C9.74644 23.5787 8.88917 23.3505 8.12374 22.8974C7.36171 22.4443 6.75617 21.7975 6.31733 20.9639C5.87508 20.1303 5.65396 19.1203 5.65396 17.9305C5.65396 16.7441 5.87508 15.7307 6.31733 14.8971C6.75958 14.0635 7.36171 13.4202 8.12374 12.9636Z" fill="black"/>
<path d="M35.509 8.77501C33.9102 7.87918 32.0969 7.42953 30.0694 7.42953C28.0181 7.42953 26.198 7.87918 24.6128 8.77501C23.0241 9.67085 21.7722 10.9126 20.8537 12.4898C19.9351 14.0705 19.4759 15.8829 19.4759 17.9305C19.4759 19.9539 19.9351 21.7525 20.8537 23.3332C21.7722 24.9138 23.0241 26.1556 24.6128 27.0687C26.198 27.9784 28.0181 28.4349 30.0694 28.4349C32.0969 28.4349 33.9102 27.9784 35.509 27.0687C37.1079 26.159 38.3598 24.9138 39.2682 23.3332C40.1765 21.7525 40.6289 19.9539 40.6289 17.9305C40.6289 15.8587 40.1765 14.0393 39.2682 12.4725C38.3598 10.9056 37.1079 9.67431 35.509 8.77501ZM34.3286 20.9431C33.9 21.7905 33.3148 22.4408 32.5732 22.8939C31.835 23.3505 30.9981 23.5753 30.0694 23.5753C29.1373 23.5753 28.3038 23.347 27.5656 22.8939C26.824 22.4408 26.2355 21.7905 25.7932 20.9431C25.351 20.0957 25.1299 19.0927 25.1299 17.9305C25.1299 16.7441 25.351 15.7307 25.7932 14.8971C26.2355 14.0635 26.824 13.4202 27.5656 12.9636C28.3038 12.5071 29.1407 12.2823 30.0694 12.2823C31.0015 12.2823 31.835 12.5105 32.5732 12.9636C33.3148 13.4167 33.9 14.0635 34.3286 14.8971C34.7572 15.7307 34.9715 16.7441 34.9715 17.9305C34.9715 19.0927 34.7572 20.0992 34.3286 20.9431Z" fill="black"/>
<path d="M57.5227 8.77501C55.9238 7.87918 54.1106 7.42953 52.083 7.42953C50.0317 7.42953 48.2117 7.87918 46.6264 8.77501C45.0377 9.67085 43.7858 10.9126 42.8673 12.4898C41.9488 14.0705 41.4895 15.8829 41.4895 17.9305C41.4895 19.9539 41.9488 21.7525 42.8673 23.3332C43.7858 24.9138 45.0377 26.1556 46.6264 27.0687C48.2117 27.9784 50.0317 28.4349 52.083 28.4349C54.1106 28.4349 55.9238 27.9784 57.5227 27.0687C59.1216 26.159 60.3735 24.9138 61.2818 23.3332C62.1901 21.7525 62.6425 19.9539 62.6425 17.9305C62.6425 15.8587 62.1901 14.0393 61.2818 12.4725C60.3735 10.9056 59.1216 9.67431 57.5227 8.77501ZM56.3422 20.9431C55.9136 21.7905 55.3284 22.4408 54.5868 22.8939C53.8486 23.3505 53.0117 23.5753 52.083 23.5753C51.1509 23.5753 50.3174 23.347 49.5792 22.8939C48.8376 22.4408 48.2491 21.7905 47.8068 20.9431C47.3646 20.0957 47.1435 19.0927 47.1435 17.9305C47.1435 16.7441 47.3646 15.7307 47.8068 14.8971C48.2491 14.0635 48.8376 13.4202 49.5792 12.9636C50.3174 12.5071 51.1543 12.2823 52.083 12.2823C53.0151 12.2823 53.8486 12.5105 54.5868 12.9636C55.3284 13.4167 55.9136 14.0635 56.3422 14.8971C56.7708 15.7307 56.9852 16.7441 56.9852 17.9305C56.9852 19.0927 56.7708 20.0992 56.3422 20.9431Z" fill="black"/>
<path d="M105.006 9.87837C104.561 9.35955 104.064 8.91682 103.503 8.56748C102.285 7.81 100.866 7.42953 99.2437 7.42953C97.4304 7.42953 95.7941 7.85843 94.3415 8.71621C92.8855 9.57746 91.7323 10.788 90.8886 12.3549C90.0415 13.9217 89.6163 15.7791 89.6163 17.927C89.6163 20.0507 90.0415 21.8943 90.8886 23.4611C91.7357 25.028 92.8855 26.2489 94.3415 27.1206C95.7975 27.9922 97.4304 28.428 99.2437 28.428C100.938 28.428 102.387 28.0475 103.591 27.29C104.224 26.8923 104.775 26.3769 105.255 25.7578V28.1236H110.589V0H105.003V9.87837H105.006ZM104.452 20.9466C104.01 21.794 103.418 22.4442 102.68 22.8974C101.938 23.3539 101.115 23.5787 100.21 23.5787C99.2777 23.5787 98.4442 23.3505 97.706 22.8974C96.9644 22.4442 96.3759 21.794 95.9336 20.9466C95.4914 20.0992 95.2702 19.0961 95.2702 17.934C95.2702 16.7476 95.4914 15.7341 95.9336 14.9006C96.3759 14.067 96.9644 13.4237 97.706 12.9671C98.4442 12.5105 99.2811 12.2857 100.21 12.2857C101.118 12.2857 101.938 12.514 102.68 12.9671C103.418 13.4202 104.01 14.067 104.452 14.9006C104.894 15.7341 105.112 16.7476 105.112 17.934C105.112 19.0961 104.891 20.1026 104.452 20.9466Z" fill="black"/>
<path d="M127.673 8.77501C126.074 7.87918 124.261 7.42953 122.234 7.42953C120.182 7.42953 118.362 7.87918 116.777 8.77501C115.188 9.67085 113.936 10.9126 113.018 12.4898C112.099 14.0705 111.64 15.8829 111.64 17.9305C111.64 19.9539 112.099 21.7525 113.018 23.3332C113.936 24.9138 115.188 26.1556 116.777 27.0687C118.362 27.9784 120.182 28.4349 122.234 28.4349C124.261 28.4349 126.074 27.9784 127.673 27.0687C129.272 26.159 130.524 24.9138 131.432 23.3332C132.341 21.7525 132.793 19.9539 132.793 17.9305C132.793 15.8587 132.341 14.0393 131.432 12.4725C130.524 10.9056 129.272 9.67431 127.673 8.77501ZM126.493 20.9431C126.064 21.7905 125.479 22.4408 124.737 22.8939C123.999 23.3505 123.162 23.5753 122.234 23.5753C121.302 23.5753 120.468 23.347 119.73 22.8939C118.988 22.4408 118.4 21.7905 117.957 20.9431C117.515 20.0957 117.294 19.0927 117.294 17.9305C117.294 16.7683 117.515 15.7307 117.957 14.8971C118.4 14.0635 118.988 13.4202 119.73 12.9636C120.468 12.5071 121.305 12.2823 122.234 12.2823C123.162 12.2823 123.999 12.5105 124.737 12.9636C125.479 13.4167 126.064 14.0635 126.493 14.8971C126.921 15.7307 127.136 16.7441 127.136 17.9305C127.136 19.0927 126.921 20.0992 126.493 20.9431Z" fill="black"/>
<path d="M162.567 8.398C161.386 7.75466 160.032 7.43299 158.505 7.43299C156.668 7.43299 155.038 7.89993 153.62 8.83381C152.807 9.36993 152.133 10.0271 151.575 10.7777C151.126 9.99943 150.561 9.35264 149.861 8.85111C148.537 7.90339 146.989 7.42953 145.224 7.42953C143.649 7.42953 142.247 7.78925 141.016 8.50869C140.305 8.9272 139.696 9.47024 139.172 10.1136V7.73391H133.838V28.1305H139.424V17.8924C139.424 16.6784 139.6 15.6823 139.961 14.8971C140.318 14.1154 140.822 13.5274 141.465 13.1366C142.108 12.7457 142.836 12.5486 143.649 12.5486C144.819 12.5486 145.717 12.9394 146.353 13.7246C146.986 14.5097 147.302 15.7203 147.302 17.3633V28.1305H152.888V17.8924C152.888 16.6784 153.065 15.6823 153.426 14.8971C153.783 14.1154 154.286 13.5274 154.929 13.1366C155.572 12.7457 156.3 12.5486 157.113 12.5486C158.284 12.5486 159.189 12.9394 159.835 13.7246C160.478 14.5097 160.801 15.7203 160.801 17.3633V28.1305H166.387V16.4536C166.387 14.3818 166.047 12.68 165.366 11.3553C164.686 10.0271 163.757 9.04134 162.573 8.398H162.567Z" fill="black"/>
<path d="M184.42 18.8678C184.111 19.7395 183.672 20.4935 183.104 21.123C182.539 21.756 181.791 22.2921 180.859 22.7313C179.821 23.2225 178.824 23.4508 177.875 23.4127C176.923 23.3747 176.062 23.0738 175.286 22.5065C174.868 22.1987 174.497 21.8217 174.17 21.3824L187.366 15.1254C187.281 14.8867 187.193 14.6308 187.091 14.3541C186.992 14.0808 186.894 13.8422 186.802 13.6347C185.887 11.6424 184.703 10.1205 183.247 9.06556C181.791 8.01408 180.199 7.42954 178.474 7.31194C176.749 7.1978 175.031 7.54369 173.323 8.35305C171.548 9.19354 170.146 10.3522 169.112 11.8326C168.078 13.313 167.486 14.9594 167.333 16.7753C167.176 18.5911 167.527 20.4278 168.377 22.2817C169.217 24.1149 170.377 25.5537 171.854 26.5948C173.334 27.6359 175.011 28.2136 176.895 28.3242C178.777 28.4349 180.712 28.0199 182.702 27.0756C184.281 26.3285 185.557 25.4085 186.533 24.3189C187.509 23.2294 188.176 22.0154 188.533 20.6733L184.42 18.8575V18.8678ZM173.201 14.0843C173.677 13.3718 174.347 12.808 175.211 12.3999C176.076 11.9883 176.926 11.8292 177.759 11.9225C178.593 12.0159 179.355 12.3307 180.049 12.8668C180.369 13.1124 180.648 13.4271 180.913 13.7661L172.568 17.7956C172.473 17.3563 172.415 16.9205 172.432 16.4986C172.47 15.6027 172.725 14.8003 173.201 14.0843Z" fill="black"/>
<path d="M80.1827 3.06797L69.6675 14.022V0H64.4456V28.1305H69.6675V21.7075L71.6882 19.7083H72.025C72.8857 19.7083 73.6715 19.8813 74.4335 20.2341C75.2092 20.5938 75.893 21.0849 76.4645 21.6868C77.0394 22.2955 77.5055 23.0253 77.8524 23.8589C78.196 24.689 78.3627 25.5503 78.3627 26.4876V28.1305H83.5846V26.4876C83.5846 24.9173 83.3159 23.4058 82.7784 22.0015C82.2477 20.6076 81.5027 19.3417 80.557 18.2452C79.6044 17.1419 78.4716 16.2357 77.1857 15.5577C76.8013 15.3537 76.4066 15.1738 76.0018 15.0182L83.8194 6.92455L80.1827 3.07489V3.06797Z" fill="black"/>
</svg>
