<svg width="320" height="320" viewBox="0 0 320 320" fill="none" xmlns="http://www.w3.org/2000/svg">
<rect x="0.5" y="0.5" width="319" height="319" rx="159.5" fill="white" stroke="black"/>
<path d="M132.229 206.19C133.257 207.402 133.753 208.962 134.083 210.504C134.267 211.366 134.303 212.027 134.468 213.036C135.441 219.406 133.459 223.388 131.33 225.811C128.907 228.583 124.043 229.978 120.519 229.133C110.002 226.6 109.727 214.927 115.618 209.549C120.611 204.997 121.73 199.729 121.987 197.417C122.042 196.94 122.63 196.756 122.942 197.086C130.761 205.107 128.632 212.559 130.192 211.99C130.577 211.843 130.596 211.807 131.348 209.329C131.55 208.686 131.734 207.934 131.825 206.649C131.825 206.649 131.789 205.676 132.229 206.19Z" fill="white"/>
<path d="M122.758 230.546C121.896 230.546 121.051 230.454 120.262 230.27C115.49 229.132 112.113 225.994 111.011 221.662C109.837 217.092 111.379 211.897 114.848 208.722C119.601 204.372 120.629 199.306 120.849 197.324C120.923 196.663 121.363 196.113 121.987 195.892C122.611 195.672 123.309 195.837 123.768 196.314C128.503 201.178 129.788 205.932 130.302 208.814C130.467 208.208 130.614 207.566 130.687 206.575C130.632 205.528 131.22 205.125 131.568 204.996C131.77 204.923 132.486 204.721 133.11 205.473C134.395 206.997 134.927 208.942 135.221 210.301C135.35 210.888 135.405 211.384 135.478 211.953C135.515 212.246 135.551 212.558 135.606 212.907C136.451 218.45 135.313 223.057 132.211 226.618C130.082 229.059 126.282 230.582 122.758 230.582V230.546ZM122.942 198.774C122.446 201.49 120.941 206.263 116.389 210.411C113.526 213.017 112.26 217.312 113.232 221.075C114.132 224.599 116.83 227.058 120.794 228.013C123.988 228.784 128.412 227.425 130.467 225.058C133.11 222.029 134.065 218.046 133.331 213.201C133.275 212.815 133.239 212.503 133.184 212.191C133.11 211.696 133.055 211.255 132.945 210.741C132.835 210.19 132.688 209.677 132.541 209.236C132.505 209.383 132.468 209.511 132.431 209.64C131.605 212.375 131.495 212.705 130.577 213.054C130.137 213.219 129.678 213.182 129.293 212.962C128.54 212.522 128.412 211.696 128.21 210.319C127.824 207.896 127.145 203.509 122.924 198.756L122.942 198.774Z" fill="#231815"/>
<path d="M117.913 221.038C117.216 220.855 116.665 220.8 116.334 221.258C116.004 221.717 116.041 222.341 116.133 222.892C116.702 226.159 118.097 228.857 121.474 229.298C122.722 229.463 124.869 229.334 126.154 228.398C126.631 228.05 127.072 227.371 127.219 226.82C127.751 224.764 127.457 222.525 126.429 220.653C125.732 219.368 124.649 218.12 124.833 216.67C124.906 216.083 125.493 215.422 125.255 214.889C125.108 214.559 124.943 214.614 124.759 214.614C124.667 214.614 124.521 214.651 124.429 214.669C122.887 215 120.428 216.523 119.62 217.863C118.886 219.074 120.06 219.533 119.345 220.781C119.29 220.873 119.088 221.222 118.464 221.185" fill="white"/>
<path d="M118.225 219.919C117.344 219.698 116.371 219.607 115.655 220.304C114.939 221.001 114.884 222.048 115.013 222.984C115.233 224.47 115.692 225.994 116.481 227.279C118.243 230.124 121.602 230.986 124.759 230.234C126.521 229.812 127.989 228.692 128.411 226.875C128.852 224.966 128.668 222.91 127.934 221.093C127.585 220.231 127.072 219.46 126.613 218.652C126.227 217.991 125.842 217.294 126.117 216.523C126.411 215.679 126.741 214.963 126.191 214.119C125.64 213.274 124.667 213.403 123.859 213.641C122.189 214.119 120.427 215.201 119.271 216.505C118.684 217.165 118.206 217.955 118.28 218.872C118.298 219.203 118.482 219.588 118.482 219.882C118.482 219.772 118.445 220.304 118.39 220.194C118.39 220.194 118.684 220.01 118.5 220.029C117.032 220.047 117.013 222.341 118.5 222.323C119.565 222.323 120.354 221.717 120.666 220.689C120.813 220.157 120.776 219.662 120.666 219.129C120.592 218.817 120.501 218.707 120.666 218.432C121.088 217.661 122.024 217.074 122.758 216.651C123.401 216.266 124.318 215.679 125.089 215.77L124.502 215.605L124.63 215.679L124.227 215.275C124.172 215.165 124.373 215.018 124.227 215.165C124.208 215.183 124.19 215.312 124.172 215.348C124.08 215.569 123.97 215.77 123.896 215.991C123.713 216.523 123.713 217.074 123.804 217.624C123.97 218.634 124.502 219.533 125.034 220.396C126.117 222.176 126.723 224.158 126.246 226.233C125.842 228.013 123.676 228.233 122.134 228.16C120.592 228.086 119.363 227.426 118.555 226.159C118.078 225.407 117.784 224.581 117.564 223.736C117.454 223.314 117.325 222.855 117.289 222.415C117.289 222.231 117.399 221.827 117.215 221.956C117.087 222.066 117.472 222.048 117.656 222.084C119.087 222.433 119.711 220.212 118.261 219.864L118.225 219.919Z" fill="#231815"/>
<path d="M169.489 206.191C170.517 207.402 171.012 208.962 171.343 210.504C171.526 211.366 171.563 212.027 171.728 213.037C172.701 219.406 170.719 223.389 168.59 225.811C166.167 228.583 161.303 229.978 157.779 229.134C147.262 226.601 146.986 214.927 152.878 209.549C157.871 204.997 158.99 199.73 159.247 197.417C159.302 196.94 159.89 196.756 160.202 197.087C168.021 205.108 165.892 212.56 167.452 211.991C167.837 211.844 167.855 211.807 168.608 209.329C168.81 208.687 168.993 207.934 169.085 206.649C169.085 206.649 169.048 205.677 169.489 206.191Z" fill="white"/>
<path d="M160.037 230.546C159.174 230.546 158.33 230.454 157.54 230.271C152.768 229.133 149.391 225.994 148.29 221.662C147.115 217.092 148.657 211.898 152.126 208.722C156.88 204.391 157.908 199.307 158.128 197.324C158.201 196.663 158.642 196.113 159.266 195.893C159.908 195.672 160.587 195.838 161.046 196.315C165.782 201.179 167.066 205.932 167.58 208.814C167.746 208.208 167.892 207.566 167.966 206.575C167.911 205.529 168.498 205.125 168.847 204.996C169.049 204.923 169.765 204.721 170.389 205.474C171.673 206.979 172.206 208.943 172.499 210.283C172.628 210.87 172.683 211.347 172.756 211.898C172.793 212.191 172.83 212.503 172.885 212.87C173.729 218.414 172.591 223.021 169.489 226.581C167.36 229.022 163.561 230.546 160.037 230.546ZM160.22 198.774C159.725 201.491 158.201 206.263 153.668 210.411C150.804 213.017 149.538 217.312 150.511 221.075C151.41 224.599 154.108 227.059 158.073 228.013C161.248 228.784 165.69 227.426 167.746 225.058C170.389 222.029 171.343 218.046 170.609 213.201C170.554 212.815 170.499 212.485 170.462 212.173C170.407 211.677 170.352 211.255 170.242 210.741C170.113 210.191 169.985 209.677 169.838 209.236C169.801 209.383 169.765 209.512 169.709 209.658C168.884 212.393 168.773 212.724 167.874 213.072C167.434 213.238 166.975 213.201 166.589 212.981C165.837 212.54 165.708 211.714 165.506 210.338C165.121 207.915 164.442 203.528 160.22 198.774Z" fill="#231815"/>
<path d="M155.191 221.038C154.493 220.855 153.943 220.8 153.612 221.259C153.282 221.718 153.319 222.342 153.41 222.892C153.979 226.159 155.374 228.858 158.752 229.298C160 229.463 162.147 229.335 163.432 228.399C163.909 228.05 164.35 227.371 164.497 226.82C165.029 224.764 164.735 222.525 163.707 220.653C163.01 219.368 161.927 218.12 162.11 216.67C162.184 216.083 162.771 215.422 162.533 214.89C162.386 214.559 162.221 214.614 162.037 214.614C161.945 214.614 161.798 214.651 161.707 214.669C160.165 215 157.705 216.523 156.898 217.863C156.164 219.075 157.338 219.533 156.622 220.782C156.567 220.873 156.366 221.222 155.741 221.185" fill="white"/>
<path d="M155.485 219.919C154.604 219.699 153.631 219.607 152.915 220.304C152.199 221.002 152.144 222.048 152.273 222.984C152.493 224.471 152.952 225.994 153.741 227.279C155.503 230.124 158.862 230.987 162.019 230.234C163.781 229.812 165.25 228.692 165.672 226.875C166.112 224.966 165.929 222.911 165.194 221.094C164.846 220.231 164.332 219.46 163.873 218.652C163.487 217.992 163.102 217.294 163.377 216.523C163.671 215.679 164.001 214.963 163.451 214.119C162.9 213.274 161.927 213.403 161.12 213.642C159.449 214.119 157.687 215.202 156.531 216.505C155.944 217.166 155.467 217.955 155.54 218.873C155.558 219.203 155.742 219.588 155.742 219.882C155.742 219.772 155.705 220.304 155.65 220.194C155.65 220.194 155.944 220.011 155.76 220.029C154.292 220.047 154.274 222.342 155.76 222.323C156.825 222.323 157.614 221.718 157.926 220.69C158.073 220.157 158.036 219.662 157.926 219.13C157.853 218.818 157.761 218.707 157.926 218.432C158.348 217.661 159.284 217.074 160.018 216.652C160.661 216.266 161.579 215.679 162.349 215.771L161.762 215.606L161.891 215.679L161.487 215.275C161.432 215.165 161.634 215.018 161.487 215.165C161.468 215.183 161.45 215.312 161.432 215.349C161.34 215.569 161.23 215.771 161.156 215.991C160.973 216.523 160.973 217.074 161.065 217.625C161.23 218.634 161.762 219.533 162.294 220.396C163.377 222.176 163.983 224.159 163.506 226.233C163.102 228.013 160.936 228.233 159.394 228.16C157.853 228.087 156.623 227.426 155.815 226.159C155.338 225.407 155.044 224.581 154.824 223.737C154.714 223.314 154.586 222.856 154.549 222.415C154.549 222.231 154.659 221.828 154.475 221.956C154.347 222.066 154.732 222.048 154.916 222.085C156.348 222.433 156.972 220.212 155.522 219.864L155.485 219.919Z" fill="#231815"/>
<path d="M205.777 206.191C206.804 207.402 207.3 208.962 207.63 210.504C207.814 211.366 207.851 212.027 208.016 213.037C208.989 219.406 207.006 223.389 204.877 225.811C202.454 228.583 197.59 229.978 194.066 229.134C183.549 226.601 183.274 214.927 189.166 209.549C194.158 204.997 195.278 199.73 195.535 197.417C195.59 196.94 196.177 196.756 196.489 197.087C204.308 205.108 202.179 212.56 203.739 211.991C204.125 211.844 204.143 211.807 204.896 209.329C205.097 208.687 205.281 207.934 205.373 206.649C205.373 206.649 205.336 205.677 205.777 206.191Z" fill="white"/>
<path d="M196.305 230.546C195.443 230.546 194.598 230.454 193.809 230.271C189.037 229.114 185.66 225.976 184.558 221.662C183.384 217.092 184.925 211.898 188.394 208.722C193.148 204.372 194.176 199.307 194.396 197.324C194.47 196.663 194.91 196.113 195.553 195.893C196.177 195.672 196.874 195.838 197.333 196.315C202.069 201.179 203.335 205.932 203.867 208.814C204.032 208.208 204.179 207.566 204.253 206.575C204.198 205.529 204.785 205.125 205.134 204.996C205.336 204.923 206.051 204.721 206.675 205.474C207.96 206.997 208.493 208.943 208.786 210.301C208.915 210.888 208.97 211.365 209.043 211.916C209.08 212.21 209.117 212.522 209.172 212.889C210.016 218.432 208.878 223.039 205.776 226.6C203.647 229.041 199.848 230.564 196.324 230.564L196.305 230.546ZM196.489 198.793C195.993 201.509 194.488 206.281 189.936 210.429C187.073 213.036 185.806 217.331 186.779 221.093C187.679 224.617 190.377 227.077 194.341 228.031C197.535 228.784 201.958 227.444 204.014 225.076C206.657 222.048 207.612 218.065 206.877 213.219C206.822 212.834 206.767 212.503 206.731 212.191C206.657 211.696 206.62 211.274 206.51 210.76C206.382 210.209 206.253 209.695 206.106 209.255C206.07 209.401 206.033 209.53 205.996 209.658C205.17 212.393 205.06 212.724 204.143 213.072C203.702 213.238 203.243 213.201 202.858 212.981C202.105 212.54 201.977 211.714 201.775 210.338C201.389 207.915 200.71 203.528 196.489 198.774V198.793Z" fill="#231815"/>
<path d="M191.459 221.038C190.761 220.855 190.211 220.8 189.88 221.259C189.55 221.718 189.587 222.342 189.678 222.892C190.247 226.159 191.642 228.858 195.02 229.298C196.268 229.463 198.415 229.335 199.7 228.399C200.177 228.05 200.618 227.371 200.765 226.82C201.297 224.764 201.003 222.525 199.975 220.653C199.278 219.368 198.195 218.12 198.379 216.67C198.452 216.083 199.039 215.422 198.801 214.89C198.654 214.559 198.489 214.614 198.305 214.614C198.213 214.614 198.066 214.651 197.975 214.669C196.433 215 193.973 216.523 193.166 217.863C192.432 219.075 193.606 219.533 192.891 220.782C192.835 220.873 192.634 221.222 192.01 221.185" fill="white"/>
<path d="M191.753 219.919C190.872 219.699 189.899 219.607 189.183 220.304C188.468 221.002 188.412 222.048 188.541 222.984C188.761 224.471 189.22 225.994 190.009 227.279C191.771 230.124 195.13 230.987 198.287 230.234C200.049 229.812 201.518 228.692 201.94 226.875C202.38 224.966 202.197 222.911 201.463 221.094C201.114 220.231 200.6 219.46 200.141 218.652C199.756 217.992 199.37 217.294 199.645 216.523C199.939 215.679 200.269 214.963 199.719 214.119C199.168 213.274 198.195 213.403 197.388 213.642C195.718 214.119 193.956 215.202 192.799 216.505C192.212 217.166 191.735 217.955 191.808 218.873C191.826 219.203 192.01 219.588 192.01 219.882C192.01 219.772 191.973 220.304 191.918 220.194C191.918 220.194 192.212 220.011 192.028 220.029C190.56 220.047 190.542 222.342 192.028 222.323C193.093 222.323 193.882 221.718 194.194 220.69C194.341 220.157 194.304 219.662 194.194 219.13C194.121 218.818 194.029 218.707 194.194 218.432C194.616 217.661 195.552 217.074 196.287 216.652C196.929 216.266 197.847 215.679 198.618 215.771L198.03 215.606L198.159 215.679L197.755 215.275C197.7 215.165 197.902 215.018 197.755 215.165C197.737 215.183 197.718 215.312 197.7 215.349C197.608 215.569 197.498 215.771 197.425 215.991C197.241 216.523 197.241 217.074 197.333 217.625C197.498 218.634 198.03 219.533 198.562 220.396C199.645 222.176 200.251 224.159 199.774 226.233C199.37 228.013 197.204 228.233 195.662 228.16C194.121 228.087 192.891 227.426 192.083 226.159C191.606 225.407 191.312 224.581 191.092 223.737C190.982 223.314 190.854 222.856 190.817 222.415C190.817 222.231 190.927 221.828 190.743 221.956C190.615 222.066 191 222.048 191.184 222.085C192.616 222.433 193.24 220.212 191.79 219.864L191.753 219.919Z" fill="#231815"/>
<path d="M86.2534 190.005C86.3068 185.664 86.6804 172.942 87.7124 168.832C89.6519 161.234 92.3208 155.861 97.552 148.654C99.4736 146.021 105.577 140.719 107.979 139.046C122.765 128.691 144.241 126.2 161.963 126.431C180.147 126.431 200.929 131.093 214.968 142.445C217.246 144.295 222.993 149.989 224.719 152.747C229.452 160.291 232.299 165.753 233.17 173.547C233.491 176.322 233.793 185.13 233.562 189.472" fill="white"/>
<path d="M230.389 90.0056C230.041 89.9505 228.682 90.3176 228.132 90.4461C196.323 98.6138 166.02 103.68 133.441 104.652C132.266 104.708 131.275 105.937 131.128 107.094C130.871 109.241 131.422 111.462 132.67 113.242C133.037 113.775 133.808 114.435 134.377 114.747C134.854 115.004 135.386 115.243 135.9 115.316C140.544 115.977 147.354 116.142 152.089 115.83H152.291C153.282 115.739 153.411 115.757 153.447 116.308V124.879C153.484 125.356 153.869 125.742 154.347 125.742L169.306 125.962C169.783 125.962 170.719 126.623 170.756 126.146V116.069C170.756 116.069 170.737 116.032 170.737 116.014V115.665C170.737 115.17 170.811 115.115 171.288 115.115H173.27C192.928 115.115 210.401 110.82 229.196 106.451C229.343 106.415 230.004 106.194 230.114 106.084C231.013 105.277 231.27 104.212 231.619 103.313C232.353 101.422 232.39 99.0911 232.5 97.0721C232.61 95.0531 232.28 92.2999 231.16 90.6113" fill="#231815"/>
<path d="M85.4621 189.982C85.4254 183.852 85.2235 177.318 86.5083 171.297C88.1602 163.607 91.721 155.788 96.7318 149.694C106.056 138.314 119.877 132.331 133.973 129.431C142.93 127.595 152.071 126.879 161.193 126.806C163.083 126.806 163.102 123.851 161.193 123.851H160.587V126.806C176.335 126.549 192.744 129.229 206.73 136.736C218.863 143.252 229.251 154.613 232.867 168.104C234.666 174.785 234.721 182.292 234.519 189.175C234.464 191.084 237.419 191.065 237.474 189.175C237.676 182.787 237.529 176.033 236.281 169.737C234.813 162.322 230.885 154.742 226.131 148.905C216.66 137.286 203.059 130.348 188.669 126.861C179.492 124.64 170.021 123.686 160.587 123.851C158.697 123.888 158.678 126.806 160.587 126.806H161.193V123.851C144.582 123.979 127.127 126.035 112.168 133.689C98.7875 140.535 88.7108 152.649 84.5444 167.113C82.4152 174.473 82.452 182.365 82.507 189.982C82.507 191.873 85.4621 191.891 85.4621 189.982Z" fill="#231815"/>
<path d="M92.3638 189.982C92.1802 183.136 92.7676 175.849 94.8233 169.297C97.191 161.698 101.541 155.292 107.359 149.933C113.435 144.353 121.144 140.774 129.018 138.535C133.46 137.268 138.011 136.387 142.6 135.818C144.564 135.579 146.546 135.378 148.529 135.249C149.703 135.157 152.365 134.552 153.282 135.194C153.796 135.561 154.255 136.607 154.604 137.121L156.935 140.498C157.798 141.747 158.587 143.288 159.651 144.39C163.194 148.061 166.681 140.535 168.223 138.296C168.792 137.47 169.324 136.552 169.967 135.763C170.793 134.754 171.141 135.01 172.628 135.084C176.996 135.323 181.365 135.8 185.641 136.681C193.956 138.388 201.757 141.728 208.658 146.684C215.523 151.621 220.845 158.192 224.039 166.048C227.049 173.482 227.875 181.998 227.655 189.982C227.618 191.616 230.169 191.616 230.206 189.982C230.408 182.806 229.747 175.152 227.563 168.287C225.104 160.615 220.754 153.989 214.88 148.519C209.062 143.086 201.94 139.012 194.415 136.424C190.322 135.01 186.064 134.056 181.787 133.432C179.75 133.138 177.694 132.9 175.638 132.735C173.876 132.588 171.251 131.964 169.581 132.679C168.003 133.359 166.956 135.69 166.039 137.011L163.8 140.26C163.414 140.811 162.772 142.279 162.184 142.609C161.23 143.142 159.743 140.04 159.174 139.214C157.944 137.433 156.788 135.524 155.448 133.817C153.521 131.358 149.024 132.643 146.326 132.881C141.756 133.304 137.185 133.964 132.689 134.974C123.952 136.956 115.362 140.352 108.24 145.876C101.633 150.997 96.6587 157.623 93.5385 165.387C90.4733 173.004 89.6106 181.814 89.8308 190.001C89.8676 191.634 92.4188 191.652 92.3821 190.001L92.3638 189.982Z" fill="#231815"/>
<path d="M160.018 191.672H70.4483C69.9895 191.672 69.5673 191.397 69.3838 190.975L60.0964 169.151C59.8394 168.564 60.1147 167.885 60.7021 167.646C61.2894 167.408 61.9686 167.665 62.2072 168.252L71.1825 189.36H160.018C160.661 189.36 161.175 189.874 161.175 190.516C161.175 191.158 160.661 191.672 160.018 191.672Z" fill="#231815"/>
<path d="M249.589 191.671H160.019C159.376 191.671 158.862 191.157 158.862 190.514C158.862 189.872 159.376 189.358 160.019 189.358H248.818L257.793 168.25C258.05 167.663 258.729 167.388 259.298 167.645C259.886 167.902 260.161 168.562 259.904 169.15L250.616 190.955C250.433 191.377 250.011 191.652 249.552 191.652L249.589 191.671Z" fill="#231815"/>
<path d="M196.139 181.118L197.57 182.568C197.864 182.862 198.378 182.752 198.506 182.367L199.369 179.999L200.122 177.925C200.287 177.466 199.846 177.025 199.387 177.191L197.295 177.925L194.927 178.751C194.523 178.898 194.413 179.393 194.707 179.687L196.139 181.137V181.118Z" fill="#231815"/>
<path d="M196.377 180.972C196.377 180.972 195 183.909 190.026 186.331L196.377 180.972Z" fill="#DF6764"/>
<path d="M190.027 187.231C189.696 187.231 189.384 187.048 189.237 186.736C189.017 186.295 189.201 185.763 189.641 185.543C194.23 183.303 195.57 180.624 195.588 180.587C195.808 180.146 196.322 179.963 196.763 180.165C197.203 180.367 197.387 180.899 197.185 181.339C197.13 181.468 195.625 184.588 190.412 187.121C190.284 187.176 190.155 187.213 190.027 187.213V187.231Z" fill="#231815"/>
<path d="M202.949 163.185L204.931 162.744C205.335 162.653 205.518 162.157 205.261 161.827L203.719 159.844L202.361 158.101C202.068 157.715 201.462 157.862 201.352 158.321L200.856 160.487L200.287 162.946C200.195 163.35 200.562 163.717 200.966 163.625L202.949 163.185Z" fill="#231815"/>
<path d="M201.976 171.959C201.866 171.959 201.738 171.941 201.628 171.886C201.169 171.702 200.967 171.17 201.15 170.729C202.307 167.994 202.399 164.195 202.086 163.424C201.793 163.13 201.719 162.672 201.958 162.304C202.215 161.882 202.766 161.772 203.188 162.029C204.638 162.947 203.995 168.545 202.802 171.408C202.655 171.739 202.325 171.959 201.976 171.959Z" fill="#231815"/>
<path d="M192.248 146.996L192.798 145.051C192.908 144.647 192.56 144.261 192.156 144.335L189.678 144.757L187.494 145.124C187.017 145.197 186.852 145.803 187.219 146.115L188.889 147.565L190.798 149.217C191.11 149.492 191.605 149.346 191.715 148.942L192.266 146.996H192.248Z" fill="#231815"/>
<path d="M198.507 152.448C198.195 152.448 197.902 152.282 197.736 151.989C195.699 148.281 191.606 147.73 191.551 147.712C191.074 147.657 190.725 147.217 190.78 146.721C190.835 146.225 191.294 145.877 191.771 145.95C191.973 145.968 196.8 146.592 199.297 151.126C199.535 151.548 199.37 152.099 198.948 152.337C198.819 152.411 198.673 152.448 198.526 152.448H198.507Z" fill="#231815"/>
<path d="M175.179 150.135L173.545 148.942C173.215 148.685 172.719 148.887 172.646 149.29L172.169 151.768L171.746 153.952C171.655 154.43 172.15 154.797 172.572 154.558L174.518 153.512L176.739 152.319C177.106 152.117 177.143 151.603 176.812 151.346L175.179 150.153V150.135Z" fill="#231815"/>
<path d="M174.83 151.512C174.683 151.512 174.554 151.475 174.426 151.42C173.985 151.2 173.82 150.65 174.04 150.227C174.132 150.044 176.427 145.749 181.529 145.015C181.988 144.96 182.465 145.272 182.539 145.767C182.612 146.244 182.263 146.703 181.786 146.777C177.565 147.382 175.637 151.017 175.619 151.053C175.454 151.365 175.16 151.531 174.83 151.531V151.512Z" fill="#231815"/>
<path d="M171.544 170.637L169.984 171.921C169.654 172.197 169.727 172.711 170.112 172.876L172.388 173.94L174.389 174.876C174.83 175.078 175.307 174.693 175.178 174.216L174.628 172.068L174.004 169.627C173.893 169.223 173.416 169.058 173.086 169.333L171.526 170.618L171.544 170.637Z" fill="#231815"/>
<path d="M171.93 171.976C171.728 171.976 171.508 171.903 171.342 171.756C171.196 171.628 167.58 168.361 168.112 163.221C168.167 162.744 168.608 162.377 169.085 162.432C169.58 162.487 169.929 162.909 169.874 163.405C169.434 167.608 172.48 170.398 172.517 170.435C172.884 170.765 172.921 171.316 172.591 171.683C172.407 171.885 172.168 171.976 171.93 171.976Z" fill="#231815"/>
<path d="M123.878 181.118L122.446 182.568C122.152 182.862 121.638 182.752 121.51 182.366L120.647 179.999L119.895 177.925C119.73 177.466 120.17 177.025 120.629 177.19L122.721 177.925L125.089 178.751C125.493 178.897 125.603 179.393 125.309 179.687L123.878 181.137V181.118Z" fill="#231815"/>
<path d="M123.658 180.973C123.658 180.973 125.034 183.91 130.008 186.332L123.658 180.973Z" fill="#DF6764"/>
<path d="M130.009 187.231C129.88 187.231 129.752 187.195 129.623 187.14C124.429 184.607 122.924 181.487 122.85 181.358C122.648 180.918 122.85 180.385 123.272 180.183C123.713 179.981 124.245 180.165 124.447 180.606C124.447 180.642 125.805 183.322 130.394 185.561C130.835 185.781 131.018 186.314 130.798 186.754C130.651 187.066 130.321 187.25 130.009 187.25V187.231Z" fill="#231815"/>
<path d="M117.068 163.185L115.086 162.744C114.682 162.653 114.499 162.157 114.756 161.827L116.298 159.844L117.656 158.101C117.949 157.715 118.555 157.862 118.665 158.321L119.161 160.487L119.73 162.946C119.822 163.35 119.455 163.717 119.051 163.625L117.068 163.185Z" fill="#231815"/>
<path d="M118.059 171.959C117.71 171.959 117.38 171.757 117.233 171.408C116.022 168.545 115.398 162.947 116.848 162.029C117.252 161.772 117.802 161.882 118.078 162.304C118.298 162.671 118.243 163.13 117.949 163.424C117.637 164.195 117.729 167.976 118.885 170.729C119.069 171.188 118.867 171.702 118.408 171.885C118.298 171.941 118.188 171.959 118.059 171.959Z" fill="#231815"/>
<path d="M127.769 146.996L127.219 145.051C127.109 144.647 127.457 144.261 127.861 144.335L130.339 144.757L132.523 145.124C133 145.197 133.166 145.803 132.799 146.115L131.128 147.565L129.219 149.217C128.907 149.492 128.412 149.346 128.302 148.942L127.751 146.996H127.769Z" fill="#231815"/>
<path d="M121.51 152.448C121.363 152.448 121.216 152.411 121.088 152.338C120.665 152.099 120.5 151.567 120.739 151.127C123.235 146.611 128.044 145.987 128.264 145.951C128.741 145.877 129.182 146.244 129.255 146.721C129.31 147.199 128.962 147.639 128.484 147.713C128.448 147.713 124.355 148.263 122.299 151.989C122.134 152.283 121.84 152.448 121.528 152.448H121.51Z" fill="#231815"/>
<path d="M144.857 150.135L146.491 148.942C146.821 148.685 147.317 148.887 147.39 149.29L147.867 151.768L148.289 153.952C148.381 154.43 147.886 154.797 147.463 154.558L145.518 153.512L143.297 152.319C142.93 152.117 142.893 151.603 143.224 151.346L144.857 150.153V150.135Z" fill="#231815"/>
<path d="M145.205 151.512C144.893 151.512 144.581 151.347 144.416 151.035C144.398 150.998 142.434 147.364 138.249 146.758C137.772 146.685 137.423 146.244 137.497 145.749C137.57 145.253 138.047 144.941 138.506 144.996C143.627 145.73 145.903 150.025 145.995 150.209C146.215 150.649 146.05 151.182 145.609 151.402C145.481 151.475 145.334 151.512 145.205 151.512Z" fill="#231815"/>
<path d="M148.473 170.637L150.033 171.921C150.364 172.197 150.29 172.711 149.905 172.876L147.629 173.94L145.628 174.876C145.188 175.078 144.711 174.693 144.839 174.216L145.39 172.068L146.014 169.627C146.124 169.223 146.601 169.058 146.932 169.333L148.492 170.618L148.473 170.637Z" fill="#231815"/>
<path d="M148.088 171.976C147.849 171.976 147.592 171.885 147.427 171.683C147.097 171.316 147.133 170.765 147.501 170.435C147.537 170.398 150.584 167.608 150.144 163.405C150.089 162.909 150.456 162.487 150.933 162.432C151.41 162.377 151.851 162.744 151.906 163.221C152.438 168.36 148.84 171.628 148.675 171.756C148.51 171.903 148.29 171.976 148.088 171.976Z" fill="#231815"/>
</svg>
