<svg width="320" height="320" viewBox="0 0 320 320" fill="none" xmlns="http://www.w3.org/2000/svg">
<rect x="0.5" y="0.5" width="319" height="319" rx="159.5" fill="white" stroke="black"/>
<g clip-path="url(#clip0_44_903)">
<path d="M84.9424 189.009C84.9974 184.531 85.3829 171.408 86.4474 167.168C88.4479 159.331 91.201 153.788 96.597 146.355C98.5792 143.639 104.874 138.169 107.352 136.444C122.604 125.762 144.757 123.193 163.037 123.431C181.795 123.431 203.232 128.24 217.713 139.95C220.062 141.859 225.99 147.732 227.771 150.577C232.653 158.359 235.589 163.993 236.489 172.032C236.819 174.895 237.131 183.98 236.892 188.459" fill="white"/>
<path d="M86.4291 189.009C86.5025 183.173 86.686 177.3 87.2917 171.481C88.0258 164.415 90.9441 157.698 94.7249 151.751C102.764 139.106 115.887 131.746 130.203 128.222C145.693 124.404 162.78 123.725 178.565 126.001C194.349 128.277 209.49 133.563 220.668 144.667C226.596 150.558 231.423 157.863 233.809 165.939C235.901 173.041 235.828 181.135 235.443 188.477C235.351 190.367 238.306 190.367 238.397 188.477C238.746 181.759 238.746 174.546 237.351 167.939C235.773 160.396 231.698 152.559 226.669 146.741C216.079 134.517 201.598 127.598 185.924 124.312C170.25 121.027 151.933 121.082 135.525 124.074C120.769 126.772 105.664 132.884 95.9546 144.85C90.6321 151.421 86.117 159.919 84.7589 168.343C83.6577 175.115 83.5842 182.163 83.5108 189.009C83.4925 190.918 86.4474 190.918 86.4658 189.009H86.4291Z" fill="black"/>
<path d="M232.359 89C232.011 88.9449 230.653 89.312 230.102 89.4405C198.295 97.6079 167.993 102.673 135.415 103.646C134.241 103.701 133.25 104.931 133.103 106.087C132.846 108.235 133.396 110.455 134.644 112.236C135.012 112.768 135.782 113.429 136.351 113.741C136.829 113.998 137.361 114.236 137.875 114.31C142.518 114.97 149.327 115.136 154.063 114.824H154.265C155.256 114.732 155.384 114.75 155.421 115.301V123.872C155.458 124.349 155.843 124.735 156.32 124.735L171.278 124.955C171.756 124.955 172.692 125.616 172.728 125.138V115.062C172.728 115.062 172.71 115.026 172.71 115.007V114.658C172.71 114.163 172.783 114.108 173.261 114.108H175.243C194.9 114.108 212.372 109.813 231.166 105.445C231.313 105.408 231.974 105.188 232.084 105.078C232.983 104.27 233.24 103.206 233.589 102.306C234.323 100.416 234.36 98.0851 234.47 96.0662C234.562 94.0473 234.25 91.2942 233.13 89.6057" fill="black"/>
<path d="M160.009 191.102H70.4435C69.9846 191.102 69.5625 190.826 69.379 190.404L60.092 168.582C59.835 167.994 60.1103 167.315 60.6977 167.077C61.285 166.82 61.9641 167.095 62.2027 167.682L71.1776 188.789H160.009C160.652 188.789 161.166 189.303 161.166 189.945C161.166 190.588 160.652 191.102 160.009 191.102Z" fill="black"/>
<path d="M249.575 191.102H160.009C159.367 191.102 158.853 190.588 158.853 189.945C158.853 189.303 159.367 188.789 160.009 188.789H248.823L257.798 167.682C258.055 167.095 258.734 166.82 259.303 167.077C259.89 167.334 260.165 167.994 259.908 168.582L250.621 190.386C250.438 190.808 250.016 191.083 249.557 191.083L249.575 191.102Z" fill="black"/>
<path d="M158.926 136.738C158.302 135.361 157.66 133.966 156.541 132.682C155.421 131.415 153.751 130.259 151.897 129.874C152.026 129.874 149.364 129.58 149.493 129.58C148.208 129.507 148.887 129.543 147.602 129.451C146.042 129.36 144.445 129.25 143.106 129.617C141.766 129.984 140.756 130.92 141.032 132.094C141.178 132.7 141.619 133.287 141.894 133.875C141.968 134.04 142.004 134.205 142.041 134.37C137.6 133.196 132.13 133.067 128.882 134.958C126.624 136.114 124.33 138.757 124.458 140.886C124.587 143.015 126.239 145.015 128.606 145.915C130.111 146.484 132.002 146.741 132.773 147.915C133.69 149.329 132.369 151.127 132.846 152.687C133.231 153.954 134.718 154.761 136.168 155.312C137.618 155.862 139.196 156.34 140.224 157.331C141.142 158.23 141.454 159.46 142.427 160.322C143.363 161.185 144.831 161.57 146.262 161.625C147.694 161.681 149.126 161.442 150.521 161.203C148.832 160.928 147.327 159.735 147.345 158.322C147.345 157.276 148.116 156.34 148.428 155.33C148.777 154.174 148.502 152.907 147.676 151.935C146.978 151.127 145.95 150.54 145.216 149.751C144.482 148.961 144.115 147.768 144.904 146.979C145.547 146.319 146.703 146.19 147.657 145.86C149.915 145.052 150.924 142.831 150.576 140.867C150.796 140.867 151.016 140.867 151.236 140.831C152.319 140.684 153.292 140.317 154.393 140.188C155.274 140.097 156.247 140.152 157.146 140.078C158.046 140.005 158.926 139.748 159.294 139.179C159.734 138.5 159.349 137.564 158.963 136.701L158.926 136.738Z" fill="#F2F2F2"/>
<path d="M156.816 141.198C158.229 140.702 159.183 139.528 159.532 138.078C159.881 136.628 159.587 135.38 158.89 134.095C157.807 132.094 156.118 130.791 154.063 129.947C152.117 129.158 150.007 128.699 147.914 128.515C146.097 128.35 144.005 128.369 142.371 129.268C140.334 130.406 140.169 132.7 140.995 134.682C141.233 135.233 141.729 135.618 142.353 135.453C142.867 135.325 143.344 134.646 143.124 134.095C142.959 133.691 142.812 133.269 142.72 132.847C142.683 132.682 142.702 132.774 142.683 132.535C142.683 132.443 142.72 131.984 142.683 132.186C142.757 131.782 142.702 131.929 142.904 131.617C142.867 131.672 142.904 131.581 143.05 131.452C143.234 131.269 143.05 131.415 143.234 131.287C143.748 130.956 144.188 130.828 144.886 130.718C145.473 130.626 146.409 130.608 147.143 130.644C148.832 130.736 150.502 131.085 152.117 131.581C152.833 131.801 153.439 132.021 154.044 132.333C154.301 132.461 154.577 132.608 154.815 132.755C154.925 132.829 155.035 132.902 155.146 132.994C154.925 132.829 155.513 133.342 155.568 133.398C156.375 134.168 157.311 135.306 157.44 136.463C157.532 137.417 157.183 138.702 156.192 139.05C154.87 139.528 155.439 141.657 156.779 141.179L156.816 141.198Z" fill="#040000"/>
<path d="M149.878 160.139C149.07 159.992 148.281 159.698 147.786 159.038C147.786 159.038 147.602 158.762 147.565 158.652C147.62 158.781 147.51 158.248 147.51 158.432C147.492 158.028 147.657 157.643 147.822 157.294C148.281 156.321 148.758 155.367 148.74 154.266C148.722 153.091 148.244 152.045 147.51 151.164C147.125 150.705 146.354 150.778 145.95 151.164C145.491 151.623 145.565 152.265 145.95 152.724C146.501 153.385 146.666 154.247 146.427 155.037C146.097 156.119 145.381 157 145.308 158.175C145.161 160.377 147.345 161.919 149.291 162.268C149.878 162.378 150.484 162.103 150.649 161.497C150.796 160.965 150.465 160.249 149.878 160.139Z" fill="#040000"/>
<path d="M138.737 158.285C138.902 158.377 139.049 158.469 139.196 158.597L138.976 158.432C139.159 158.579 139.325 158.744 139.471 158.927L139.306 158.707C139.471 158.927 139.6 159.148 139.692 159.405L139.581 159.148C139.728 159.496 139.857 159.845 140.022 160.194C140.187 160.543 140.426 160.873 140.719 161.13C141.142 161.515 141.857 161.589 142.279 161.13C142.665 160.708 142.738 159.992 142.279 159.57C142.188 159.496 142.114 159.405 142.041 159.313L142.206 159.533C142.059 159.35 141.949 159.129 141.857 158.909L141.967 159.166C141.784 158.707 141.637 158.23 141.362 157.808C140.995 157.202 140.462 156.725 139.838 156.395C139.343 156.119 138.609 156.266 138.333 156.798C138.058 157.331 138.187 158.01 138.737 158.303V158.285Z" fill="#040000"/>
<path d="M142.041 133.306C141.729 133.287 142.133 133.342 141.802 133.269C141.637 133.232 141.454 133.214 141.289 133.177C140.848 133.086 140.408 132.975 139.967 132.865C138.994 132.627 138.022 132.388 137.031 132.205C134.7 131.764 132.259 131.562 129.928 132.149C127.303 132.829 125.174 134.609 123.889 136.976C123.137 138.353 122.237 140.243 122.403 141.859C122.605 143.877 124.348 145.419 126.018 146.337C127.689 147.255 130.331 147.255 130.864 149.292C131.323 151.072 131.378 153.054 132.901 154.339C133.984 155.238 135.544 153.697 134.461 152.779C133.286 151.806 133.341 150.081 132.993 148.704C132.571 147.089 131.561 146.135 130.038 145.548C128.294 144.869 126.477 144.465 125.229 142.941C124.11 141.565 124.88 139.913 125.596 138.5C126.624 136.426 128.257 134.866 130.533 134.278C132.516 133.765 134.626 133.985 136.627 134.352C138.444 134.701 140.224 135.325 142.078 135.49C143.491 135.618 143.473 133.416 142.078 133.287L142.041 133.306Z" fill="#040000"/>
<path d="M184.144 137.637C184.053 137.766 183.979 137.894 183.906 138.023C187.668 137.968 192 138.995 194.129 141.253C195.634 142.703 196.864 145.382 196.295 147.144C195.726 148.906 193.982 150.228 191.908 150.485C190.605 150.65 189.063 150.466 188.182 151.292C187.154 152.283 187.797 154.064 187.063 155.275C186.475 156.248 185.136 156.615 183.869 156.78C182.603 156.945 181.263 157 180.235 157.624C179.317 158.193 178.785 159.148 177.849 159.662C176.913 160.176 175.683 160.212 174.545 159.955C173.408 159.698 172.343 159.203 171.297 158.707C172.692 158.836 174.123 158.138 174.435 156.964C174.656 156.101 174.27 155.147 174.252 154.229C174.233 153.183 174.729 152.192 175.592 151.549C176.326 151.017 177.262 150.742 178.014 150.228C178.767 149.714 179.317 148.796 178.877 147.97C178.51 147.273 177.629 146.943 176.968 146.465C175.371 145.309 175.059 143.253 175.775 141.675C175.61 141.62 175.426 141.565 175.261 141.51C174.435 141.161 173.775 140.647 172.93 140.317C172.251 140.042 173.316 139.399 172.637 139.161" fill="#F2F2F2"/>
<path d="M178.95 157.716C178.73 157.991 178.473 158.23 178.216 158.45C178.18 158.487 178.143 158.505 178.106 158.542C177.941 158.671 178.326 158.377 178.143 158.505C178.069 158.56 177.996 158.615 177.904 158.671C177.721 158.799 177.537 158.909 177.354 159.019C177.005 159.239 176.638 159.423 176.252 159.588C176.05 159.68 176.509 159.478 176.307 159.57C176.271 159.57 176.216 159.607 176.179 159.625C176.087 159.662 175.995 159.698 175.904 159.717C175.738 159.772 175.573 159.808 175.39 159.845C174.821 159.955 174.454 160.671 174.619 161.203C174.821 161.809 175.371 162.084 175.977 161.974C176.858 161.809 177.702 161.369 178.455 160.91C179.207 160.451 179.941 159.937 180.474 159.258C180.657 159.019 180.804 158.799 180.804 158.487C180.804 158.212 180.676 157.9 180.474 157.716C180.07 157.349 179.299 157.239 178.914 157.716H178.95Z" fill="#040000"/>
<path d="M196.533 145.768C200.993 141.235 191.89 137.454 188.733 136.628C185.576 135.802 182.254 135.527 179.042 136.059C175.83 136.591 171.278 138.537 172.71 142.538C173.077 143.547 173.811 144.428 174.619 145.126C175.004 145.456 175.408 145.786 175.83 146.08C176.252 146.374 177.133 146.686 177.409 147.144C177.592 147.438 177.445 146.832 177.464 147.071C177.464 147.199 177.225 147.438 177.17 147.53C176.876 147.915 176.528 148.282 176.197 148.631C175.628 149.255 174.949 149.879 174.582 150.632C173.958 151.898 175.867 153.018 176.491 151.751C177.078 150.54 178.345 149.696 179.115 148.594C180.107 147.199 179.648 145.988 178.29 145.034C177.041 144.153 174.784 143.107 174.692 141.326C174.619 139.803 176.289 139.161 177.482 138.738C182.382 137.05 188.788 138.114 193.174 140.794C193.982 141.29 194.9 141.932 195.322 142.776C195.432 143.015 195.505 143.217 195.45 143.529C195.45 143.437 195.395 143.676 195.377 143.731C195.248 143.951 195.175 144.061 194.991 144.226C194 145.236 195.56 146.796 196.551 145.786L196.533 145.768Z" fill="#040000"/>
<path d="M194.808 147.677C194.716 147.842 194.624 148.025 194.532 148.191C194.477 148.282 194.422 148.356 194.367 148.448C194.331 148.484 194.165 148.704 194.257 148.594C194.349 148.466 194.165 148.686 194.147 148.723C194.092 148.778 194.037 148.833 193.982 148.888C193.853 149.017 194.165 148.796 193.927 148.925C193.853 148.961 193.762 149.017 193.688 149.053C193.523 149.145 193.872 149.017 193.596 149.09C193.505 149.108 193.431 149.145 193.339 149.163C193.229 149.2 193.119 149.218 193.009 149.237C193.211 149.2 192.881 149.237 192.807 149.237C192.165 149.292 191.522 149.237 190.898 149.182C190.219 149.108 189.467 148.888 188.824 149.237C188.347 149.494 188.035 149.971 187.907 150.503C187.778 151.035 187.778 151.568 187.778 152.082C187.778 152.339 187.778 152.595 187.778 152.852C187.778 152.999 187.778 153.128 187.778 153.256C187.778 153.311 187.742 153.642 187.778 153.476C187.76 153.623 187.723 153.752 187.686 153.88C187.686 153.935 187.65 153.972 187.631 154.027C187.576 154.156 187.76 153.862 187.595 154.064C187.411 154.302 187.228 154.468 186.971 154.614C186.273 155 185.429 155.147 184.658 155.238C184.071 155.312 183.74 156.083 183.887 156.597C184.071 157.239 184.658 157.441 185.245 157.367C186.806 157.147 188.494 156.67 189.43 155.293C190.109 154.302 189.981 152.981 189.999 151.843C189.999 151.604 189.999 151.384 190.036 151.146C189.999 151.384 190.054 151.09 190.072 151.035C190.091 150.889 190.072 150.98 190.072 150.98C190.091 150.98 190.072 150.999 190.036 151.035C190.017 151.054 189.779 151.219 189.889 151.164C189.999 151.109 189.779 151.219 189.779 151.219C189.632 151.292 189.632 151.219 189.852 151.256C190.293 151.311 190.715 151.366 191.155 151.402C192.348 151.513 193.633 151.513 194.734 150.98C195.67 150.54 196.258 149.677 196.716 148.796C197.377 147.548 195.468 146.429 194.808 147.677Z" fill="#040000"/>
<path d="M132.093 206.519C133.121 207.73 133.635 209.308 133.966 210.85C134.149 211.713 134.186 212.373 134.351 213.401C135.324 219.807 133.342 223.789 131.213 226.23C128.771 229.02 123.889 230.415 120.347 229.552C109.775 227.001 109.5 215.292 115.428 209.896C120.439 205.326 121.558 200.04 121.815 197.709C121.87 197.232 122.458 197.03 122.788 197.378C130.644 205.417 128.496 212.924 130.075 212.337C130.46 212.19 130.478 212.153 131.231 209.657C131.433 209.015 131.616 208.244 131.708 206.959C131.708 206.959 131.671 205.986 132.112 206.5L132.093 206.519Z" fill="white"/>
<path d="M122.586 230.984C121.723 230.984 120.879 230.892 120.072 230.69C115.281 229.534 111.886 226.396 110.785 222.046C109.61 217.457 111.152 212.227 114.639 209.051C119.429 204.683 120.439 199.581 120.659 197.599C120.732 196.938 121.173 196.387 121.815 196.167C122.458 195.947 123.137 196.112 123.614 196.589C128.386 201.471 129.652 206.243 130.166 209.143C130.331 208.537 130.478 207.895 130.552 206.886C130.515 205.839 131.084 205.436 131.433 205.307C131.634 205.234 132.35 205.032 132.974 205.784C134.259 207.308 134.791 209.272 135.085 210.63C135.213 211.217 135.268 211.713 135.342 212.263C135.379 212.557 135.415 212.869 135.47 213.236C136.333 218.797 135.177 223.422 132.057 227.001C129.928 229.442 126.092 230.984 122.568 230.984H122.586ZM122.77 199.085C122.274 201.802 120.751 206.61 116.199 210.758C113.317 213.383 112.051 217.696 113.024 221.477C113.941 225.019 116.639 227.497 120.622 228.451C123.816 229.222 128.276 227.864 130.35 225.478C132.993 222.431 133.965 218.43 133.213 213.566C133.158 213.181 133.103 212.851 133.066 212.539C133.011 212.043 132.956 211.603 132.846 211.089C132.717 210.52 132.589 210.024 132.442 209.584C132.405 209.73 132.369 209.859 132.314 210.006C131.488 212.759 131.377 213.089 130.46 213.438C130.001 213.603 129.56 213.566 129.157 213.346C128.404 212.906 128.276 212.08 128.074 210.703C127.688 208.262 127.009 203.857 122.77 199.085Z" fill="black"/>
<path d="M117.722 221.422C117.007 221.238 116.474 221.183 116.144 221.642C115.814 222.101 115.85 222.725 115.942 223.275C116.511 226.561 117.924 229.259 121.301 229.718C122.568 229.883 124.715 229.754 126.018 228.818C126.496 228.47 126.954 227.79 127.083 227.221C127.615 225.166 127.321 222.908 126.294 221.036C125.578 219.752 124.513 218.485 124.679 217.035C124.752 216.448 125.358 215.787 125.119 215.237C124.972 214.906 124.807 214.961 124.623 214.961C124.532 214.961 124.385 214.998 124.293 215.016C122.751 215.347 120.274 216.888 119.466 218.21C118.714 219.421 119.925 219.88 119.191 221.146C119.136 221.238 118.934 221.587 118.31 221.55" fill="white"/>
<path d="M118.034 220.321C117.135 220.1 116.162 220.009 115.447 220.706C114.731 221.403 114.657 222.468 114.804 223.386C115.024 224.872 115.483 226.414 116.272 227.699C118.053 230.562 121.43 231.424 124.587 230.672C126.349 230.25 127.817 229.112 128.257 227.295C128.698 225.368 128.533 223.312 127.78 221.477C127.413 220.614 126.918 219.843 126.44 219.036C126.055 218.375 125.67 217.678 125.926 216.907C126.22 216.062 126.551 215.328 126 214.502C125.449 213.676 124.477 213.787 123.651 214.025C121.962 214.502 120.2 215.585 119.044 216.907C118.457 217.567 117.979 218.357 118.053 219.293C118.071 219.623 118.255 220.009 118.255 220.302C118.255 220.192 118.218 220.724 118.163 220.614C118.163 220.614 118.457 220.431 118.291 220.449C116.805 220.467 116.805 222.78 118.291 222.762C119.356 222.762 120.163 222.156 120.457 221.128C120.604 220.596 120.567 220.1 120.457 219.568C120.384 219.256 120.292 219.146 120.457 218.852C120.879 218.081 121.834 217.494 122.549 217.054C123.192 216.668 124.109 216.081 124.899 216.173L124.311 216.007L124.44 216.081L124.018 215.659C123.963 215.549 124.165 215.402 124.018 215.549C123.999 215.567 123.981 215.695 123.963 215.732C123.871 215.952 123.761 216.154 123.687 216.374C123.504 216.907 123.504 217.476 123.596 218.026C123.761 219.054 124.311 219.953 124.844 220.816C125.927 222.596 126.532 224.597 126.055 226.689C125.651 228.488 123.485 228.708 121.925 228.635C120.365 228.561 119.136 227.901 118.328 226.634C117.851 225.882 117.557 225.056 117.319 224.193C117.209 223.771 117.08 223.312 117.043 222.872C117.043 222.688 117.153 222.284 116.97 222.413C116.841 222.523 117.227 222.505 117.41 222.541C118.86 222.89 119.466 220.669 118.016 220.321H118.034Z" fill="black"/>
<path d="M169.535 206.519C170.563 207.73 171.077 209.308 171.407 210.85C171.591 211.713 171.627 212.373 171.792 213.401C172.765 219.807 170.783 223.789 168.654 226.23C166.213 229.02 161.331 230.415 157.789 229.552C147.217 227.001 146.942 215.292 152.87 209.896C157.88 205.326 159 200.04 159.257 197.709C159.312 197.232 159.899 197.03 160.23 197.378C168.085 205.417 165.938 212.924 167.516 212.337C167.901 212.19 167.92 212.153 168.672 209.657C168.874 209.015 169.058 208.244 169.149 206.959C169.149 206.959 169.113 205.986 169.553 206.5L169.535 206.519Z" fill="white"/>
<path d="M160.027 230.984C159.165 230.984 158.321 230.892 157.513 230.69C152.723 229.534 149.327 226.396 148.226 222.046C147.051 217.457 148.593 212.227 152.08 209.051C156.871 204.683 157.88 199.581 158.1 197.599C158.174 196.938 158.614 196.387 159.257 196.167C159.899 195.947 160.578 196.112 161.055 196.589C165.827 201.471 167.094 206.243 167.608 209.143C167.773 208.537 167.92 207.877 167.993 206.886C167.956 205.839 168.525 205.436 168.874 205.307C169.076 205.234 169.792 205.032 170.416 205.784C171.7 207.308 172.233 209.272 172.526 210.63C172.655 211.217 172.71 211.713 172.783 212.263C172.82 212.557 172.857 212.869 172.912 213.236C173.774 218.797 172.618 223.441 169.498 227.001C167.369 229.442 163.533 230.984 160.009 230.984H160.027ZM160.211 199.085C159.715 201.802 158.192 206.61 153.64 210.758C150.759 213.383 149.492 217.696 150.465 221.477C151.383 225.019 154.081 227.497 158.064 228.451C161.257 229.222 165.717 227.864 167.791 225.478C170.434 222.431 171.407 218.43 170.654 213.566C170.599 213.181 170.544 212.851 170.507 212.539C170.452 212.043 170.397 211.603 170.287 211.089C170.159 210.52 170.03 210.024 169.883 209.584C169.847 209.73 169.81 209.859 169.755 210.006C168.929 212.759 168.819 213.089 167.901 213.438C167.461 213.603 167.002 213.566 166.598 213.346C165.846 212.906 165.717 212.08 165.497 210.703C165.111 208.262 164.432 203.857 160.193 199.085H160.211Z" fill="black"/>
<path d="M155.163 221.422C154.448 221.238 153.915 221.183 153.585 221.642C153.255 222.101 153.291 222.725 153.383 223.275C153.952 226.561 155.365 229.259 158.742 229.718C160.009 229.883 162.156 229.754 163.459 228.818C163.936 228.47 164.395 227.79 164.524 227.221C165.056 225.166 164.762 222.908 163.735 221.036C163.019 219.752 161.954 218.485 162.119 217.035C162.193 216.448 162.799 215.787 162.56 215.237C162.413 214.906 162.248 214.961 162.064 214.961C161.973 214.961 161.826 214.998 161.734 215.016C160.192 215.347 157.715 216.888 156.907 218.21C156.154 219.421 157.366 219.88 156.632 221.146C156.577 221.238 156.375 221.587 155.751 221.55" fill="white"/>
<path d="M155.457 220.321C154.558 220.1 153.585 220.009 152.869 220.706C152.154 221.403 152.08 222.468 152.227 223.386C152.447 224.872 152.906 226.414 153.695 227.699C155.476 230.562 158.853 231.424 162.01 230.672C163.771 230.25 165.24 229.112 165.68 227.295C166.121 225.368 165.956 223.312 165.203 221.477C164.836 220.614 164.34 219.843 163.863 219.036C163.478 218.375 163.092 217.678 163.349 216.907C163.643 216.062 163.973 215.328 163.423 214.502C162.872 213.676 161.899 213.787 161.073 214.025C159.385 214.502 157.623 215.585 156.467 216.907C155.879 217.567 155.402 218.357 155.476 219.293C155.494 219.623 155.678 220.009 155.678 220.302C155.678 220.192 155.641 220.724 155.586 220.614C155.586 220.614 155.879 220.431 155.714 220.449C154.228 220.467 154.228 222.78 155.714 222.762C156.779 222.762 157.586 222.156 157.88 221.128C158.027 220.596 157.99 220.1 157.88 219.568C157.807 219.256 157.715 219.146 157.88 218.852C158.302 218.081 159.256 217.494 159.972 217.054C160.615 216.668 161.532 216.081 162.322 216.173L161.734 216.007L161.863 216.081L161.441 215.659C161.386 215.549 161.587 215.402 161.441 215.549C161.422 215.567 161.404 215.695 161.386 215.732C161.294 215.952 161.184 216.154 161.11 216.374C160.927 216.907 160.927 217.476 161.018 218.026C161.184 219.054 161.734 219.953 162.266 220.816C163.349 222.596 163.955 224.597 163.478 226.689C163.074 228.488 160.908 228.708 159.348 228.635C157.788 228.561 156.558 227.901 155.751 226.634C155.274 225.882 154.98 225.056 154.741 224.193C154.631 223.771 154.503 223.312 154.466 222.872C154.466 222.688 154.576 222.284 154.393 222.413C154.264 222.523 154.65 222.505 154.833 222.541C156.283 222.89 156.889 220.669 155.439 220.321H155.457Z" fill="black"/>
<path d="M205.948 206.519C206.976 207.73 207.49 209.308 207.821 210.85C208.004 211.713 208.041 212.373 208.206 213.401C209.179 219.807 207.197 223.789 205.067 226.23C202.626 229.02 197.744 230.415 194.202 229.552C183.63 227.001 183.355 215.292 189.283 209.896C194.294 205.326 195.413 200.04 195.67 197.709C195.725 197.232 196.313 197.03 196.643 197.378C204.499 205.417 202.351 212.924 203.93 212.337C204.315 212.19 204.333 212.153 205.086 209.657C205.288 209.015 205.471 208.244 205.563 206.959C205.563 206.959 205.526 205.986 205.967 206.5L205.948 206.519Z" fill="white"/>
<path d="M196.441 230.984C195.578 230.984 194.734 230.892 193.927 230.69C189.136 229.534 185.741 226.396 184.64 222.046C183.465 217.457 185.007 212.227 188.494 209.051C193.266 204.683 194.294 199.581 194.514 197.599C194.587 196.938 195.028 196.387 195.67 196.167C196.313 195.947 196.992 196.112 197.469 196.589C202.222 201.471 203.507 206.243 204.021 209.143C204.186 208.537 204.333 207.895 204.407 206.886C204.351 205.839 204.939 205.436 205.288 205.307C205.489 205.234 206.205 205.032 206.829 205.784C208.114 207.308 208.665 209.272 208.94 210.63C209.068 211.217 209.123 211.713 209.197 212.263C209.234 212.557 209.27 212.869 209.325 213.236C210.188 218.797 209.032 223.441 205.912 227.001C203.783 229.442 199.965 230.984 196.423 230.984H196.441ZM196.625 199.085C196.129 201.82 194.606 206.61 190.054 210.758C187.172 213.383 185.906 217.696 186.879 221.477C187.796 225.019 190.494 227.497 194.477 228.451C197.671 229.222 202.131 227.864 204.186 225.478C206.829 222.431 207.802 218.43 207.049 213.566C206.994 213.181 206.939 212.851 206.903 212.539C206.829 212.043 206.793 211.603 206.664 211.089C206.536 210.538 206.407 210.024 206.26 209.584C206.224 209.73 206.187 209.859 206.132 210.006C205.306 212.759 205.196 213.089 204.278 213.438C203.838 213.603 203.36 213.566 202.975 213.346C202.222 212.906 202.094 212.08 201.874 210.703C201.488 208.262 200.809 203.857 196.57 199.104L196.625 199.085Z" fill="black"/>
<path d="M191.577 221.422C190.862 221.238 190.329 221.183 189.999 221.642C189.669 222.101 189.705 222.725 189.797 223.275C190.366 226.561 191.779 229.259 195.156 229.718C196.423 229.883 198.57 229.754 199.873 228.818C200.351 228.47 200.809 227.79 200.938 227.221C201.47 225.166 201.176 222.908 200.149 221.036C199.433 219.752 198.368 218.485 198.533 217.035C198.607 216.448 199.213 215.787 198.974 215.237C198.827 214.906 198.662 214.961 198.478 214.961C198.387 214.961 198.24 214.998 198.148 215.016C196.606 215.347 194.129 216.888 193.321 218.21C192.569 219.421 193.78 219.88 193.046 221.146C192.991 221.238 192.789 221.587 192.165 221.55" fill="white"/>
<path d="M191.889 220.321C190.99 220.1 190.017 220.009 189.302 220.706C188.586 221.403 188.512 222.468 188.659 223.386C188.879 224.872 189.338 226.414 190.127 227.699C191.908 230.562 195.285 231.424 198.442 230.672C200.204 230.25 201.672 229.112 202.112 227.295C202.553 225.368 202.388 223.312 201.635 221.477C201.268 220.614 200.773 219.843 200.295 219.036C199.91 218.375 199.525 217.678 199.781 216.907C200.075 216.062 200.406 215.328 199.855 214.502C199.304 213.676 198.332 213.787 197.506 214.025C195.817 214.502 194.055 215.585 192.899 216.907C192.312 217.567 191.834 218.357 191.908 219.293C191.926 219.623 192.11 220.009 192.11 220.302C192.11 220.192 192.073 220.724 192.018 220.614C192.018 220.614 192.312 220.431 192.146 220.449C190.66 220.467 190.66 222.78 192.146 222.762C193.211 222.762 194.018 222.156 194.312 221.128C194.459 220.596 194.422 220.1 194.312 219.568C194.239 219.256 194.147 219.146 194.312 218.852C194.734 218.081 195.689 217.494 196.404 217.054C197.047 216.668 197.964 216.081 198.754 216.173L198.166 216.007L198.295 216.081L197.873 215.659C197.818 215.549 198.02 215.402 197.873 215.549C197.854 215.567 197.836 215.695 197.818 215.732C197.726 215.952 197.616 216.154 197.542 216.374C197.359 216.907 197.359 217.476 197.451 218.026C197.616 219.054 198.166 219.953 198.699 220.816C199.781 222.596 200.387 224.597 199.91 226.689C199.506 228.488 197.34 228.708 195.78 228.635C194.22 228.561 192.991 227.901 192.183 226.634C191.706 225.882 191.412 225.056 191.174 224.193C191.063 223.771 190.935 223.312 190.898 222.872C190.898 222.688 191.008 222.284 190.825 222.413C190.696 222.523 191.082 222.505 191.265 222.541C192.715 222.89 193.321 220.669 191.871 220.321H191.889Z" fill="black"/>
<path d="M135.47 168.27C143.491 166.911 152.025 165.865 160.119 167.315C165.644 168.306 171.021 170.307 176.234 172.326C177.757 172.913 179.372 173.445 180.822 174.216C181.079 174.363 181.483 174.418 181.74 174.216C182.859 173.372 184.034 172.564 185.209 171.793C187.081 170.564 189.1 169.187 191.265 168.6C191.559 168.508 191.908 168.416 192.22 168.453C192.293 168.453 192.458 168.526 192.367 168.471C193.229 169.004 193.211 170.435 193.082 171.28C192.844 172.931 192.055 174.418 191.431 175.941C191.118 176.712 190.972 177.575 191.798 178.089C192.532 178.529 193.56 178.639 194.367 178.97C195.285 179.355 196.166 179.869 196.955 180.456C198.368 181.521 199.561 183.008 199.561 184.861L200.938 184.072H200.901C200.534 183.778 199.836 183.962 199.653 184.366C198.258 187.467 192.807 185.65 190.513 184.935C188.219 184.219 185.245 183.264 183.722 181.301C183.465 180.97 182.933 180.989 182.602 181.154C181.391 181.778 179.959 182.108 178.675 182.494C177.023 182.989 175.353 183.448 173.683 183.907C170.232 184.861 166.818 185.926 163.258 186.421C159.165 186.99 155.054 187.009 150.924 186.899C146.592 186.788 142.261 186.623 137.948 186.091L138.829 186.77C138.04 181.044 137.25 175.336 136.461 169.609L136.113 167.113C135.947 165.957 134.185 166.453 134.351 167.609C135.14 173.335 135.929 179.043 136.718 184.769L137.067 187.266C137.122 187.688 137.581 187.89 137.948 187.945C142.408 188.495 146.868 188.66 151.346 188.771C155.494 188.862 159.624 188.807 163.735 188.22C167.406 187.706 170.929 186.605 174.49 185.595C177.445 184.769 180.767 184.164 183.52 182.751L182.401 182.604C182.914 183.264 183.685 183.778 184.364 184.219C186.438 185.559 188.843 186.421 191.21 187.064C194.239 187.89 199.561 188.991 201.213 185.302L199.965 185.632H200.002C200.589 186.091 201.378 185.504 201.378 184.861C201.397 181.356 198.387 178.786 195.45 177.446C194.808 177.153 193.541 176.4 192.825 176.492L192.642 176.437C192.844 176.584 192.954 176.749 192.972 176.951C192.972 176.951 193.082 176.639 193.064 176.676C193.229 176.474 193.339 176.051 193.449 175.813C194.202 174.161 194.936 172.362 194.954 170.509C194.954 168.82 194.092 166.618 192.128 166.581C189.907 166.544 187.558 168.104 185.759 169.224C184.052 170.27 182.382 171.39 180.785 172.601H181.703C180.437 171.904 179.023 171.445 177.684 170.912C175.041 169.866 172.361 168.894 169.663 167.994C166.965 167.095 164.065 166.196 161.184 165.627C157.458 164.874 153.604 164.727 149.823 164.837C144.831 164.984 139.857 165.627 134.938 166.453C133.782 166.654 134.277 168.416 135.433 168.214L135.47 168.27Z" fill="#040000"/>
<path d="M137.948 187.045C131.377 186.605 118.787 184.88 119.576 178.199C119.576 178.199 125.302 175.813 125.467 175.593C125.633 175.372 119.796 173.794 119.796 173.794C119.796 173.794 119.998 171.757 127.67 169.426C130.313 168.618 135.746 166.709 138.058 167.48C142.078 168.82 142.555 174.583 142.004 184.237C141.912 185.907 140.059 187.174 137.948 187.027V187.045Z" fill="white"/>
<path d="M138.26 187.963C138.132 187.963 138.003 187.963 137.875 187.963C131.451 187.523 123.137 186.201 119.943 182.365C118.897 181.117 118.475 179.667 118.658 178.089C118.695 177.758 118.915 177.483 119.209 177.355C120.567 176.786 121.999 176.18 123.1 175.703C122.072 175.391 120.751 175.024 119.558 174.693C119.117 174.583 118.842 174.161 118.879 173.721C118.934 173.097 119.741 170.894 127.395 168.563L128.478 168.233C132.46 166.985 136.204 165.92 138.352 166.636C142.922 168.159 143.491 174.271 142.922 184.311C142.867 185.228 142.426 186.091 141.674 186.752C140.793 187.541 139.563 187.981 138.278 187.981L138.26 187.963ZM138.003 186.128C138.939 186.183 139.857 185.907 140.444 185.375C140.719 185.137 141.05 184.733 141.068 184.201C141.582 175.281 141.197 169.518 137.746 168.361C136.003 167.774 131.451 169.206 129.01 169.976L127.909 170.325C123.963 171.518 122.146 172.601 121.338 173.28C126.092 174.602 126.165 174.803 126.33 175.299C126.422 175.593 126.367 175.923 126.183 176.18C126.018 176.4 125.871 176.565 120.457 178.841C120.457 179.704 120.769 180.475 121.375 181.209C123.504 183.778 129.579 185.577 138.021 186.146L138.003 186.128Z" fill="#040000"/>
<path d="M136.26 177.079C136.26 177.079 136.131 177.079 136.076 177.061L129.047 175.244C128.661 175.134 128.423 174.748 128.514 174.345C128.606 173.959 129.01 173.721 129.414 173.812L136.443 175.629C136.828 175.739 137.067 176.125 136.975 176.529C136.884 176.859 136.59 177.079 136.26 177.079Z" fill="#040000"/>
<path d="M129.744 178.181C129.487 178.181 129.23 178.034 129.102 177.795C128.9 177.446 129.028 176.988 129.395 176.804L135.36 173.5C135.709 173.317 136.168 173.427 136.351 173.794C136.553 174.143 136.425 174.602 136.058 174.785L130.093 178.089C129.983 178.144 129.854 178.181 129.744 178.181Z" fill="#040000"/>
<path d="M148.869 173.445C151.75 175.391 154.356 177.758 156.467 180.53C156.669 180.805 157.018 180.952 157.348 180.768C157.623 180.603 157.789 180.163 157.587 179.887C155.329 176.951 152.613 174.418 149.529 172.344C148.85 171.885 148.19 172.986 148.887 173.445H148.869Z" fill="#040000"/>
<path d="M155.237 172.344C158.119 174.29 160.725 176.657 162.836 179.429C163.038 179.704 163.386 179.851 163.717 179.667C163.992 179.502 164.157 179.061 163.955 178.786C161.698 175.85 158.981 173.317 155.898 171.243C155.219 170.784 154.558 171.885 155.256 172.344H155.237Z" fill="#040000"/>
<path d="M148.52 176.62C153.493 175.409 158.577 174.712 163.698 174.436C164.524 174.4 164.524 173.115 163.698 173.152C158.467 173.427 153.273 174.143 148.189 175.391C147.382 175.593 147.73 176.822 148.538 176.62H148.52Z" fill="#040000"/>
<path d="M150.373 180.163C152.741 179.374 155.237 178.97 157.697 178.566C160.303 178.125 162.946 177.813 165.589 178.107C166.415 178.199 166.396 176.914 165.589 176.822C162.927 176.529 160.284 176.859 157.66 177.281C155.035 177.703 152.521 178.089 150.043 178.915C149.272 179.172 149.603 180.42 150.392 180.144L150.373 180.163Z" fill="#040000"/>
</g>
<defs>
<clipPath id="clip0_44_903">
<rect width="200" height="141.984" fill="white" transform="translate(60 89)"/>
</clipPath>
</defs>
</svg>
