<svg width="458" height="395" viewBox="0 0 458 395" fill="none" xmlns="http://www.w3.org/2000/svg">
<rect x="0.5" y="0.5" width="319" height="319" rx="159.5" fill="white" stroke="black"/>
<path d="M132.223 206.179C133.251 207.39 133.746 208.95 134.077 210.492C134.26 211.355 134.297 212.015 134.462 213.025C135.435 219.393 133.453 223.376 131.324 225.798C128.901 228.569 124.038 229.964 120.514 229.12C109.998 226.587 109.722 214.915 115.614 209.538C120.606 204.986 121.725 199.719 121.982 197.406C122.037 196.929 122.624 196.746 122.936 197.076C130.755 205.096 128.626 212.547 130.186 211.978C130.571 211.832 130.59 211.795 131.342 209.317C131.544 208.675 131.727 207.923 131.819 206.638C131.819 206.638 131.782 205.665 132.223 206.179V206.179Z" fill="white"/>
<path d="M122.753 230.515C121.891 230.515 121.046 230.423 120.257 230.239C115.486 229.101 112.109 225.963 111.007 221.632C109.833 217.062 111.375 211.868 114.843 208.693C119.597 204.362 120.624 199.278 120.845 197.296C120.918 196.635 121.358 196.085 121.982 195.865C122.606 195.644 123.304 195.809 123.763 196.287C128.498 201.15 129.764 205.904 130.296 208.785C130.461 208.179 130.608 207.537 130.682 206.546C130.627 205.5 131.214 205.096 131.563 204.968C131.765 204.894 132.48 204.692 133.104 205.445C134.389 206.968 134.921 208.932 135.215 210.271C135.343 210.859 135.398 211.336 135.472 211.887C135.509 212.18 135.545 212.492 135.6 212.859C136.445 218.402 135.307 223.008 132.205 226.569C130.076 229.01 126.277 230.533 122.772 230.533L122.753 230.515ZM122.937 198.764C122.441 201.48 120.918 206.252 116.385 210.4C113.522 213.006 112.255 217.301 113.21 221.063C114.109 224.587 116.807 227.046 120.771 228C123.946 228.771 128.388 227.413 130.443 225.046C133.086 222.017 134.04 218.035 133.306 213.19C133.251 212.804 133.196 212.474 133.159 212.162C133.104 211.666 133.049 211.244 132.939 210.73C132.829 210.18 132.682 209.666 132.535 209.225C132.499 209.372 132.462 209.501 132.425 209.629C131.599 212.364 131.489 212.694 130.59 213.043C130.131 213.208 129.691 213.171 129.305 212.951C128.553 212.511 128.424 211.685 128.222 210.308C127.837 207.886 127.158 203.499 122.937 198.746V198.764Z" fill="#231815"/>
<path d="M117.908 221.026C117.211 220.842 116.66 220.787 116.33 221.246C116 221.705 116.036 222.329 116.128 222.88C116.697 226.146 118.092 228.844 121.469 229.285C122.717 229.45 124.864 229.321 126.149 228.385C126.626 228.037 127.066 227.358 127.213 226.807C127.746 224.752 127.452 222.513 126.424 220.641C125.727 219.356 124.644 218.108 124.827 216.658C124.901 216.071 125.488 215.41 125.25 214.878C125.103 214.547 124.938 214.602 124.754 214.602C124.662 214.602 124.515 214.639 124.424 214.658C122.882 214.988 120.423 216.511 119.615 217.851C118.881 219.062 120.056 219.521 119.34 220.769C119.285 220.861 119.083 221.209 118.459 221.173" fill="white"/>
<path d="M118.22 219.907C117.34 219.686 116.367 219.595 115.651 220.292C114.935 220.989 114.88 222.036 115.009 222.972C115.229 224.458 115.688 225.981 116.477 227.266C118.239 230.111 121.597 230.973 124.754 230.221C126.516 229.799 127.984 228.679 128.406 226.862C128.847 224.954 128.663 222.898 127.929 221.081C127.58 220.219 127.067 219.448 126.608 218.64C126.222 217.98 125.837 217.282 126.112 216.511C126.406 215.667 126.736 214.951 126.186 214.107C125.635 213.263 124.662 213.391 123.855 213.63C122.185 214.107 120.423 215.19 119.267 216.493C118.679 217.154 118.202 217.943 118.276 218.861C118.294 219.191 118.477 219.576 118.477 219.87C118.477 219.76 118.441 220.292 118.386 220.182C118.386 220.182 118.679 219.998 118.496 220.017C117.028 220.035 117.009 222.329 118.496 222.311C119.56 222.311 120.349 221.705 120.661 220.677C120.808 220.145 120.771 219.65 120.661 219.117C120.588 218.805 120.496 218.695 120.661 218.42C121.083 217.649 122.019 217.062 122.754 216.64C123.396 216.254 124.314 215.667 125.084 215.759L124.497 215.594L124.626 215.667L124.222 215.263C124.167 215.153 124.369 215.006 124.222 215.153C124.203 215.172 124.185 215.3 124.167 215.337C124.075 215.557 123.965 215.759 123.891 215.979C123.708 216.511 123.708 217.062 123.8 217.613C123.965 218.622 124.497 219.521 125.029 220.384C126.112 222.164 126.718 224.146 126.241 226.22C125.837 228 123.671 228.22 122.13 228.147C120.588 228.074 119.358 227.413 118.551 226.147C118.074 225.394 117.78 224.568 117.56 223.724C117.45 223.302 117.321 222.843 117.284 222.403C117.284 222.219 117.395 221.815 117.211 221.944C117.083 222.054 117.468 222.036 117.652 222.072C119.083 222.421 119.707 220.2 118.257 219.852L118.22 219.907Z" fill="#231815"/>
<path d="M169.48 206.179C170.508 207.39 171.003 208.95 171.333 210.492C171.517 211.354 171.554 212.015 171.719 213.024C172.692 219.393 170.709 223.375 168.581 225.798C166.158 228.569 161.294 229.964 157.771 229.12C147.255 226.587 146.979 214.915 152.87 209.537C157.862 204.986 158.982 199.719 159.239 197.406C159.294 196.929 159.881 196.745 160.193 197.076C168.012 205.096 165.883 212.547 167.443 211.978C167.828 211.831 167.846 211.795 168.599 209.317C168.801 208.675 168.984 207.922 169.076 206.638C169.076 206.638 169.039 205.665 169.48 206.179V206.179Z" fill="white"/>
<path d="M160.028 230.533C159.165 230.533 158.321 230.441 157.532 230.239C152.76 229.101 149.383 225.963 148.282 221.632C147.107 217.062 148.649 211.868 152.118 208.693C156.871 204.343 157.899 199.278 158.119 197.296C158.192 196.635 158.633 196.085 159.257 195.864C159.881 195.644 160.578 195.809 161.037 196.286C165.772 201.15 167.057 205.903 167.571 208.785C167.736 208.179 167.883 207.537 167.956 206.546C167.901 205.5 168.488 205.096 168.837 204.967C169.039 204.894 169.755 204.692 170.379 205.426C171.663 206.949 172.196 208.913 172.489 210.253C172.618 210.84 172.673 211.336 172.746 211.905C172.783 212.198 172.82 212.51 172.875 212.859C173.719 218.402 172.581 223.008 169.479 226.569C167.35 229.01 163.551 230.533 160.046 230.533H160.028ZM160.211 198.764C159.716 201.48 158.211 206.252 153.659 210.4C150.796 213.006 149.53 217.3 150.503 221.063C151.402 224.587 154.1 227.046 158.064 228C161.257 228.771 165.68 227.413 167.736 225.045C170.379 222.017 171.333 218.035 170.599 213.189C170.544 212.804 170.507 212.492 170.452 212.18C170.379 211.684 170.324 211.244 170.214 210.73C170.103 210.18 169.957 209.666 169.81 209.225C169.773 209.372 169.736 209.5 169.7 209.629C168.874 212.364 168.764 212.694 167.846 213.043C167.406 213.208 166.947 213.171 166.561 212.951C165.809 212.51 165.68 211.684 165.479 210.308C165.093 207.885 164.414 203.499 160.193 198.746L160.211 198.764Z" fill="#231815"/>
<path d="M155.183 221.026C154.485 220.842 153.935 220.787 153.604 221.246C153.274 221.705 153.311 222.329 153.403 222.879C153.972 226.146 155.366 228.844 158.743 229.285C159.991 229.45 162.139 229.321 163.423 228.385C163.9 228.037 164.341 227.357 164.488 226.807C165.02 224.751 164.726 222.512 163.699 220.64C163.001 219.356 161.918 218.108 162.102 216.658C162.175 216.071 162.763 215.41 162.524 214.878C162.377 214.547 162.212 214.602 162.028 214.602C161.937 214.602 161.79 214.639 161.698 214.657C160.156 214.988 157.697 216.511 156.89 217.851C156.156 219.062 157.33 219.521 156.614 220.769C156.559 220.861 156.357 221.209 155.733 221.173" fill="white"/>
<path d="M155.476 219.906C154.595 219.686 153.623 219.594 152.907 220.292C152.191 220.989 152.136 222.035 152.265 222.971C152.485 224.458 152.944 225.981 153.733 227.266C155.495 230.111 158.853 230.973 162.01 230.221C163.772 229.799 165.24 228.679 165.662 226.862C166.103 224.954 165.919 222.898 165.185 221.081C164.836 220.218 164.322 219.448 163.864 218.64C163.478 217.979 163.093 217.282 163.368 216.511C163.662 215.667 163.992 214.951 163.441 214.107C162.891 213.263 161.918 213.391 161.111 213.63C159.441 214.107 157.679 215.19 156.522 216.493C155.935 217.154 155.458 217.943 155.531 218.86C155.55 219.191 155.733 219.576 155.733 219.87C155.733 219.76 155.697 220.292 155.641 220.182C155.641 220.182 155.935 219.998 155.752 220.017C154.283 220.035 154.265 222.329 155.752 222.311C156.816 222.311 157.605 221.705 157.917 220.677C158.064 220.145 158.027 219.65 157.917 219.117C157.844 218.805 157.752 218.695 157.917 218.42C158.339 217.649 159.275 217.062 160.009 216.64C160.652 216.254 161.569 215.667 162.34 215.759L161.753 215.594L161.881 215.667L161.478 215.263C161.423 215.153 161.625 215.006 161.478 215.153C161.459 215.171 161.441 215.3 161.423 215.337C161.331 215.557 161.221 215.759 161.147 215.979C160.964 216.511 160.964 217.062 161.056 217.612C161.221 218.622 161.753 219.521 162.285 220.384C163.368 222.164 163.974 224.146 163.496 226.22C163.093 228 160.927 228.22 159.385 228.147C157.844 228.073 156.614 227.413 155.807 226.146C155.329 225.394 155.036 224.568 154.816 223.724C154.705 223.302 154.577 222.843 154.54 222.402C154.54 222.219 154.65 221.815 154.467 221.944C154.338 222.054 154.724 222.035 154.907 222.072C156.339 222.421 156.963 220.2 155.513 219.851L155.476 219.906Z" fill="#231815"/>
<path d="M205.763 206.179C206.791 207.39 207.286 208.95 207.617 210.492C207.8 211.354 207.837 212.015 208.002 213.024C208.975 219.393 206.993 223.375 204.864 225.798C202.441 228.569 197.578 229.964 194.054 229.12C183.538 226.587 183.262 214.915 189.154 209.537C194.146 204.986 195.265 199.719 195.522 197.406C195.577 196.929 196.164 196.745 196.476 197.076C204.295 205.096 202.166 212.547 203.726 211.978C204.111 211.831 204.13 211.795 204.882 209.317C205.084 208.675 205.267 207.922 205.359 206.638C205.359 206.638 205.323 205.665 205.763 206.179V206.179Z" fill="white"/>
<path d="M196.293 230.533C195.431 230.533 194.587 230.441 193.797 230.239C189.026 229.101 185.649 225.963 184.548 221.632C183.373 217.062 184.915 211.85 188.383 208.693C193.137 204.343 194.164 199.278 194.385 197.296C194.458 196.635 194.899 196.085 195.523 195.864C196.165 195.644 196.844 195.809 197.303 196.286C202.038 201.15 203.304 205.903 203.836 208.785C204.002 208.179 204.148 207.537 204.222 206.546C204.167 205.5 204.754 205.096 205.103 204.967C205.305 204.894 206.02 204.692 206.644 205.445C207.929 206.968 208.461 208.913 208.755 210.271C208.883 210.859 208.938 211.336 209.012 211.886C209.049 212.18 209.085 212.492 209.14 212.859C209.985 218.402 208.847 223.008 205.745 226.569C203.616 229.01 199.817 230.533 196.312 230.533H196.293ZM196.477 198.782C195.981 201.499 194.458 206.27 189.925 210.418C187.062 213.024 185.796 217.319 186.768 221.081C187.668 224.605 190.365 227.064 194.33 228.018C197.505 228.789 201.946 227.431 204.002 225.064C206.644 222.035 207.599 218.053 206.865 213.208C206.809 212.822 206.754 212.492 206.718 212.18C206.644 211.684 206.608 211.262 206.498 210.748C206.369 210.198 206.241 209.684 206.094 209.244C206.057 209.39 206.02 209.519 205.965 209.647C205.139 212.382 205.048 212.712 204.13 213.061C203.671 213.226 203.231 213.189 202.845 212.969C202.093 212.529 201.964 211.703 201.762 210.326C201.377 207.904 200.698 203.517 196.477 198.764V198.782Z" fill="#231815"/>
<path d="M191.448 221.026C190.751 220.842 190.2 220.787 189.87 221.246C189.54 221.705 189.576 222.329 189.668 222.879C190.237 226.146 191.632 228.844 195.009 229.285C196.257 229.45 198.404 229.321 199.689 228.385C200.166 228.037 200.607 227.357 200.753 226.807C201.286 224.751 200.992 222.512 199.964 220.64C199.267 219.356 198.184 218.108 198.367 216.658C198.441 216.071 199.028 215.41 198.79 214.878C198.643 214.547 198.478 214.602 198.294 214.602C198.202 214.602 198.055 214.639 197.964 214.657C196.422 214.988 193.963 216.511 193.155 217.851C192.421 219.062 193.596 219.521 192.88 220.769C192.825 220.861 192.623 221.209 191.999 221.173" fill="white"/>
<path d="M191.742 219.906C190.861 219.686 189.888 219.594 189.173 220.292C188.457 220.989 188.402 222.035 188.53 222.971C188.75 224.458 189.209 225.981 189.998 227.266C191.76 230.111 195.119 230.973 198.276 230.221C200.037 229.799 201.506 228.679 201.928 226.862C202.368 224.954 202.185 222.898 201.451 221.081C201.102 220.218 200.588 219.448 200.129 218.64C199.744 217.979 199.358 217.282 199.634 216.511C199.927 215.667 200.258 214.951 199.707 214.107C199.156 213.263 198.184 213.391 197.376 213.63C195.706 214.107 193.944 215.19 192.788 216.493C192.201 217.154 191.724 217.943 191.797 218.86C191.815 219.191 191.999 219.576 191.999 219.87C191.999 219.76 191.962 220.292 191.907 220.182C191.907 220.182 192.201 219.998 192.017 220.017C190.549 220.035 190.531 222.329 192.017 222.311C193.082 222.311 193.871 221.705 194.183 220.677C194.33 220.145 194.293 219.65 194.183 219.117C194.109 218.805 194.018 218.695 194.183 218.42C194.605 217.649 195.541 217.062 196.275 216.64C196.917 216.254 197.835 215.667 198.606 215.759L198.019 215.594L198.147 215.667L197.743 215.263C197.688 215.153 197.89 215.006 197.743 215.153C197.725 215.171 197.707 215.3 197.688 215.337C197.596 215.557 197.486 215.759 197.413 215.979C197.229 216.511 197.229 217.062 197.321 217.612C197.486 218.622 198.019 219.521 198.551 220.384C199.634 222.164 200.239 224.146 199.762 226.22C199.358 228 197.193 228.22 195.651 228.147C194.109 228.073 192.88 227.413 192.072 226.146C191.595 225.394 191.301 224.568 191.081 223.724C190.971 223.302 190.843 222.843 190.806 222.402C190.806 222.219 190.916 221.815 190.733 221.944C190.604 222.054 190.989 222.035 191.173 222.072C192.605 222.421 193.229 220.2 191.779 219.851L191.742 219.906Z" fill="#231815"/>
<path d="M230.373 90.0056C230.025 89.9505 228.667 90.3176 228.116 90.4461C196.311 98.6131 166.01 103.678 133.434 104.651C132.259 104.706 131.268 105.936 131.121 107.092C130.864 109.239 131.415 111.46 132.663 113.24C133.03 113.772 133.801 114.433 134.37 114.745C134.847 115.002 135.379 115.241 135.893 115.314C140.536 115.975 147.345 116.14 152.08 115.828H152.282C153.273 115.736 153.402 115.755 153.438 116.305V124.876C153.475 125.353 153.86 125.739 154.338 125.739L169.295 125.959C169.772 125.959 170.708 126.619 170.745 126.142V116.067C170.745 116.067 170.727 116.03 170.727 116.012V115.663C170.727 115.167 170.8 115.112 171.277 115.112H173.259C192.915 115.112 210.387 110.818 229.18 106.45C229.327 106.413 229.988 106.193 230.098 106.083C230.997 105.275 231.254 104.211 231.603 103.311C232.337 101.421 232.374 99.0902 232.484 97.0714C232.594 95.0526 232.264 92.2997 231.144 90.6112" fill="#231815"/>
<path d="M85.4604 189.973C85.4237 183.844 85.2218 177.31 86.5065 171.29C88.1582 163.6 91.7187 155.782 96.729 149.689C106.052 138.31 119.872 132.327 133.967 129.427C142.923 127.592 152.063 126.876 161.184 126.803C163.074 126.803 163.093 123.848 161.184 123.848H160.578V126.803C176.325 126.546 192.733 129.225 206.717 136.732C218.849 143.247 229.236 154.607 232.852 168.097C234.65 174.777 234.706 182.284 234.504 189.166C234.449 191.075 237.403 191.056 237.458 189.166C237.66 182.779 237.514 176.025 236.266 169.73C234.797 162.316 230.87 154.736 226.116 148.9C216.646 137.282 203.047 130.345 188.658 126.858C179.482 124.637 170.012 123.683 160.578 123.848C158.688 123.885 158.67 126.803 160.578 126.803H161.184V123.848C144.575 123.977 127.121 126.032 112.164 133.685C98.7845 140.531 88.7088 152.644 84.5427 167.106C82.4138 174.465 82.4505 182.357 82.5056 189.973C82.5056 191.864 85.4604 191.882 85.4604 189.973V189.973Z" fill="#231815"/>
<path d="M91.0946 189.974C90.9661 186.175 91.6085 177.512 92.3426 173.86C93.7191 167.143 95.848 162.316 100.124 155.801C101.684 153.415 106.823 148.533 108.86 146.955C121.138 137.448 137.582 134.328 152.925 133.722C153.458 133.704 153.953 133.943 154.265 134.383L160.56 143.486C161.184 144.349 162.469 144.349 163.111 143.486L169.406 134.383C169.718 133.961 170.214 133.704 170.746 133.722C186.089 134.328 198.881 137.448 211.159 146.955C213.196 148.533 218.316 153.415 219.895 155.801C224.171 162.316 226.3 167.143 227.676 173.86C228.429 177.512 229.071 186.175 228.924 189.974" fill="#E4E4E5"/>
<path d="M92.3606 189.973C92.1771 183.128 92.7644 175.842 94.8199 169.29C97.1874 161.692 101.537 155.287 107.355 149.928C113.43 144.348 121.138 140.769 129.011 138.53C133.453 137.264 138.004 136.383 142.592 135.814C144.556 135.576 146.538 135.374 148.52 135.245C149.695 135.153 152.356 134.548 153.274 135.19C153.788 135.557 154.246 136.603 154.595 137.117L156.926 140.494C157.788 141.742 158.578 143.284 159.642 144.385C163.184 148.056 166.671 140.531 168.213 138.292C168.782 137.466 169.314 136.548 169.956 135.759C170.782 134.75 171.131 135.007 172.618 135.08C176.985 135.319 181.353 135.796 185.63 136.677C193.943 138.384 201.743 141.724 208.644 146.679C215.508 151.616 220.83 158.186 224.024 166.041C227.034 173.474 227.86 181.99 227.639 189.973C227.603 191.607 230.154 191.607 230.19 189.973C230.392 182.797 229.732 175.144 227.548 168.28C225.088 160.609 220.739 153.983 214.866 148.514C209.048 143.082 201.927 139.008 194.402 136.42C190.31 135.007 186.052 134.052 181.776 133.428C179.738 133.135 177.683 132.896 175.627 132.731C173.865 132.584 171.241 131.96 169.571 132.676C167.993 133.355 166.946 135.686 166.029 137.007L163.79 140.256C163.404 140.806 162.762 142.274 162.175 142.605C161.22 143.137 159.734 140.035 159.165 139.209C157.935 137.429 156.779 135.521 155.439 133.814C153.512 131.354 149.016 132.639 146.318 132.878C141.748 133.3 137.178 133.961 132.682 134.97C123.946 136.952 115.357 140.347 108.236 145.872C101.629 150.992 96.6552 157.617 93.5352 165.381C90.4152 173.144 89.6077 181.806 89.8279 189.992C89.8646 191.625 92.4156 191.643 92.3789 189.992L92.3606 189.973Z" fill="#231815"/>
<path d="M160.009 191.661H70.4474C69.9886 191.661 69.5664 191.386 69.3829 190.964L60.0964 169.142C59.8394 168.555 60.1147 167.876 60.702 167.637C61.2893 167.399 61.9684 167.656 62.207 168.243L71.1815 189.349H160.009C160.652 189.349 161.165 189.862 161.165 190.505C161.165 191.147 160.652 191.661 160.009 191.661Z" fill="#231815"/>
<path d="M249.571 191.661H160.009C159.366 191.661 158.853 191.147 158.853 190.505C158.853 189.863 159.366 189.349 160.009 189.349H248.8L257.793 168.243C258.05 167.656 258.729 167.381 259.298 167.637C259.885 167.894 260.16 168.555 259.903 169.142L250.617 190.946C250.433 191.368 250.011 191.643 249.552 191.643L249.571 191.661Z" fill="#231815"/>
<path d="M111.925 189.258H208.075V188.157C208.167 185.514 207.708 179.457 207.194 176.925C206.24 172.226 204.753 168.868 201.762 164.335C200.661 162.665 197.082 159.269 195.669 158.168C187.336 151.726 171.259 148.973 160.743 148.973C150.209 148.973 132.663 151.726 124.313 158.168C122.9 159.269 119.321 162.665 118.22 164.335C115.228 168.886 113.742 172.245 112.787 176.925C112.273 179.476 111.815 185.514 111.906 188.157" fill="#B9BABA"/>
<path d="M125.12 189.258H194.898V188.469C194.971 186.542 194.641 182.155 194.255 180.32C193.558 176.907 192.475 174.484 190.31 171.18C189.52 169.969 186.914 167.51 185.887 166.702C179.83 162.022 168.176 160.022 160.541 160.022C152.907 160.022 140.17 162.022 134.113 166.702C133.086 167.492 130.479 169.969 129.69 171.18C127.525 174.484 126.442 176.925 125.744 180.32C125.359 182.174 125.047 186.56 125.102 188.469" fill="#8D8D8E"/>
<rect x="238.5" y="175.5" width="219" height="219" rx="109.5" fill="white" stroke="black"/>
<path d="M304.063 335.39C304.018 335.151 304.271 334.214 304.375 333.826C310.003 311.899 313.501 291.028 314.171 268.564C314.215 267.76 315.064 267.075 315.853 266.971C317.327 266.793 318.875 267.18 320.081 268.028C320.438 268.281 320.914 268.817 321.123 269.204C321.301 269.532 321.465 269.904 321.51 270.246C321.956 273.447 322.09 278.136 321.867 281.396V281.53C321.808 282.2 321.822 282.289 322.195 282.334H328.105C328.432 282.364 328.7 282.617 328.7 282.959L328.849 293.261C328.849 293.588 329.295 294.243 328.968 294.258H322.031H322.001H321.763C321.42 294.258 321.376 294.303 321.376 294.645V296.015C321.376 309.562 318.413 321.605 315.406 334.556C315.391 334.645 315.228 335.122 315.153 335.196C314.588 335.821 313.858 336 313.233 336.238C311.938 336.744 310.315 336.774 308.931 336.834C307.531 336.893 305.641 336.67 304.48 335.911" fill="#231815"/>
<path d="M373.225 337.071C397.222 274.965 374.699 232.345 374.699 232.345C371.617 232.166 365.35 232.389 363.385 232.613C357.847 233.238 353.962 235.248 348.603 238.612C346.638 239.847 342.589 243.926 341.279 245.549C333.21 255.538 329.891 270.305 329.891 283.242C329.727 295.836 331.483 311.109 338.852 321.619C340.043 323.331 343.809 327.678 345.685 329.032C350.806 332.754 354.632 334.659 360.021 336.029C362.953 336.773 370.144 337.041 373.225 337.071" fill="white"/>
<path d="M373.225 338.337C369.876 338.292 362.745 338.024 359.723 337.25C354.275 335.866 350.27 333.915 344.956 330.045C342.931 328.571 339.061 324.09 337.825 322.334C329.95 311.08 328.476 294.853 328.64 283.212C328.64 267.953 332.898 253.93 340.296 244.745C341.651 243.063 345.804 238.865 347.933 237.54C353.694 233.923 357.639 231.973 363.251 231.348C365.335 231.109 371.692 230.886 374.788 231.065C375.235 231.094 375.622 231.348 375.83 231.735C376.069 232.181 381.591 242.795 384.226 261.225C386.653 278.18 386.921 305.185 374.431 337.518C374.237 338.009 373.776 338.322 373.255 338.322L373.225 338.337ZM371.93 233.551C368.849 233.551 364.978 233.714 363.519 233.878C358.398 234.459 354.692 236.29 349.273 239.699C347.457 240.83 343.512 244.805 342.261 246.353C335.309 254.957 331.156 268.757 331.156 283.242C331.007 294.526 332.392 310.186 339.894 320.89C341.041 322.512 344.703 326.755 346.444 328.006C351.536 331.712 355.183 333.484 360.348 334.809C362.745 335.419 368.551 335.732 372.377 335.806C384.331 304.396 384.077 278.225 381.74 261.731C379.537 246.189 375.116 236.126 373.91 233.58C373.329 233.566 372.66 233.551 371.945 233.551H371.93Z" fill="#231815"/>
<path d="M378.287 232.27L374.327 232.33C373.97 232.33 373.747 232.702 373.911 233.014C376.694 238.642 394.93 279.207 373.062 336.446C372.943 336.758 373.166 337.086 373.509 337.086H377.245C377.439 337.086 377.617 336.967 377.692 336.773C401.48 274.831 378.287 232.255 378.287 232.255" fill="white"/>
<path d="M377.23 337.994H373.509C373.062 337.994 372.63 337.771 372.377 337.399C372.124 337.027 372.065 336.55 372.228 336.119C381.369 312.166 384.599 288.407 381.83 265.482C379.686 247.782 374.61 236.468 373.092 233.417C372.883 232.985 372.898 232.494 373.151 232.092C373.404 231.69 373.836 231.437 374.312 231.437L378.272 231.377C378.555 231.333 378.912 231.556 379.076 231.854C379.314 232.285 402.195 275.516 378.525 337.116C378.317 337.652 377.796 338.009 377.23 338.009V337.994ZM374.119 336.193H376.947C389.05 304.544 388.574 278.136 386.028 261.522C383.602 245.624 378.868 235.441 377.736 233.178L374.997 233.223C376.813 237.049 381.562 248.288 383.616 265.274C386.4 288.303 383.2 312.166 374.119 336.193V336.193Z" fill="#231815"/>
<path d="M407.553 338.054H288.447C288.201 338.054 288 337.652 288 337.16C288 336.669 288.201 336.267 288.447 336.267H407.553C407.799 336.267 408 336.669 408 337.16C408 337.652 407.799 338.054 407.553 338.054Z" fill="#231815"/>
</svg>
