<svg width="120" height="120" viewBox="0 0 120 120" fill="none" xmlns="http://www.w3.org/2000/svg">
<rect x="0.5" y="0.5" width="119" height="119" rx="59.5" fill="white" stroke="black"/>
<g clip-path="url(#clip0_530_324)">
<path d="M32.3535 70.3316C32.3741 68.6599 32.5187 63.7614 32.9179 62.1788C33.6681 59.2534 34.7005 57.1843 36.724 54.4096C37.4673 53.3957 39.828 51.3541 40.7572 50.7101C46.4766 46.7227 54.784 45.7636 61.6391 45.8526C68.6731 45.8526 76.712 47.6476 82.1424 52.0186C83.0234 52.7311 85.2465 54.9235 85.9141 55.9854C87.7449 58.8903 88.8461 60.9935 89.1834 63.9943C89.3072 65.0631 89.4242 68.4544 89.3348 70.126" fill="white"/>
<path d="M32.911 70.3316C32.9385 68.1529 33.0073 65.9606 33.2345 63.7888C33.5098 61.1511 34.6041 58.6436 36.0219 56.4239C39.0365 51.7035 43.9576 48.9562 49.3261 47.6408C55.135 46.2157 61.5427 45.9623 67.4618 46.8118C73.3808 47.6613 79.059 49.6344 83.2505 53.7793C85.4736 55.9785 87.2837 58.7053 88.1785 61.7198C88.9631 64.3711 88.9356 67.3925 88.791 70.1329C88.7566 70.8385 89.8647 70.8385 89.8991 70.1329C90.0299 67.6254 90.0299 64.9329 89.5068 62.4665C88.9149 59.6507 87.387 56.7253 85.5011 54.5535C81.5299 49.9907 76.0995 47.4078 70.2217 46.1815C64.3439 44.9551 57.4751 44.9757 51.322 46.0924C45.7884 47.0995 40.124 49.3809 36.4831 53.8479C34.4871 56.3005 32.794 59.4726 32.2847 62.6172C31.8717 65.1453 31.8442 67.7761 31.8166 70.3316C31.8098 71.0441 32.9179 71.0441 32.9248 70.3316H32.911Z" fill="black"/>
<path d="M87.6348 33C87.504 32.9794 86.9947 33.1165 86.7882 33.1644C74.8606 36.2131 63.4974 38.104 51.2807 38.4672C50.8402 38.4877 50.4686 38.9467 50.4135 39.3783C50.3172 40.1799 50.5236 41.0089 50.9916 41.6735C51.1293 41.8721 51.4184 42.1188 51.6317 42.2352C51.8107 42.3312 52.0103 42.4202 52.203 42.4476C53.9443 42.6943 56.4978 42.7559 58.2735 42.6395H58.3492C58.7208 42.6052 58.769 42.6121 58.7828 42.8176V46.017C58.7966 46.1952 58.9411 46.3391 59.12 46.3391L64.7294 46.4213C64.9083 46.4213 65.2593 46.6679 65.2731 46.4898V42.7285C65.2731 42.7285 65.2662 42.7148 65.2662 42.708V42.5778C65.2662 42.3928 65.2937 42.3723 65.4727 42.3723H66.216C73.5873 42.3723 80.1396 40.7691 87.1874 39.1386C87.2425 39.1249 87.4902 39.0426 87.5315 39.0015C87.8688 38.7001 87.9651 38.3027 88.0959 37.967C88.3712 37.2614 88.385 36.3913 88.4263 35.6377C88.4607 34.884 88.3437 33.8564 87.9238 33.2261" fill="black"/>
<path d="M60.5034 71.1126H26.9162C26.7442 71.1126 26.5859 71.0098 26.517 70.8522L23.0344 62.7063C22.9381 62.4871 23.0413 62.2336 23.2615 62.1445C23.4818 62.0486 23.7364 62.1514 23.8259 62.3706L27.1915 70.2493H60.5034C60.7443 70.2493 60.937 70.4412 60.937 70.681C60.937 70.9208 60.7443 71.1126 60.5034 71.1126Z" fill="black"/>
<path d="M94.0907 71.1126H60.5034C60.2625 71.1126 60.0698 70.9208 60.0698 70.681C60.0698 70.4412 60.2625 70.2493 60.5034 70.2493H93.8085L97.1741 62.3706C97.2704 62.1514 97.5251 62.0486 97.7385 62.1445C97.9587 62.2404 98.0619 62.4871 97.9656 62.7063L94.483 70.8454C94.4141 71.003 94.2558 71.1057 94.0838 71.1057L94.0907 71.1126Z" fill="black"/>
<path d="M60.0974 50.8197C59.8634 50.3058 59.6225 49.7852 59.2026 49.3056C58.7828 48.8329 58.1565 48.4012 57.4613 48.2574C57.5095 48.2574 56.5115 48.1478 56.5597 48.1478C56.0779 48.1203 56.3326 48.134 55.8508 48.0998C55.2658 48.0655 54.667 48.0244 54.1645 48.1615C53.6621 48.2985 53.2836 48.6479 53.3868 49.0863C53.4419 49.3124 53.607 49.5317 53.7103 49.7509C53.7378 49.8126 53.7516 49.8742 53.7653 49.9359C52.0998 49.4974 50.0487 49.4495 48.8305 50.1551C47.9839 50.5867 47.1236 51.5733 47.1718 52.368C47.22 53.1627 47.8394 53.9095 48.7273 54.2452C49.2916 54.4576 50.0006 54.5535 50.2896 54.992C50.6338 55.5195 50.1382 56.1909 50.3171 56.7733C50.4617 57.246 51.0192 57.5474 51.5629 57.753C52.1066 57.9585 52.6985 58.1366 53.084 58.5066C53.4281 58.8423 53.5451 59.3013 53.9099 59.6233C54.2609 59.9453 54.8115 60.0892 55.3484 60.1097C55.8852 60.1303 56.422 60.0412 56.9451 59.9522C56.3119 59.8494 55.7475 59.4041 55.7544 58.8766C55.7544 58.486 56.0435 58.1366 56.1605 57.7598C56.2913 57.3282 56.188 56.8555 55.8783 56.4924C55.6168 56.1909 55.2313 55.9717 54.956 55.6771C54.6807 55.3825 54.5431 54.9372 54.839 54.6426C55.0799 54.3959 55.5135 54.348 55.8714 54.2247C56.718 53.9232 57.0965 53.0942 56.9658 52.3612C57.0484 52.3612 57.131 52.3612 57.2135 52.3475C57.6196 52.2927 57.9844 52.1556 58.3974 52.1077C58.7277 52.0734 59.0925 52.094 59.4298 52.0666C59.767 52.0392 60.0974 51.9433 60.235 51.7309C60.4002 51.4774 60.2557 51.128 60.1111 50.806L60.0974 50.8197Z" fill="#F2F2F2"/>
<path d="M59.3059 52.4845C59.8358 52.2995 60.1937 51.861 60.3245 51.3198C60.4553 50.7786 60.3451 50.3127 60.0836 49.8331C59.6775 49.0863 59.0443 48.5999 58.2735 48.2848C57.5439 47.9902 56.7524 47.8189 55.9678 47.7504C55.2864 47.6887 54.5018 47.6956 53.8892 48.0313C53.1253 48.456 53.0633 49.3124 53.373 50.0524C53.4625 50.2579 53.6483 50.4018 53.8824 50.3401C54.0751 50.2921 54.254 50.0387 54.1714 49.8331C54.1095 49.6824 54.0544 49.5248 54.02 49.3672C54.0062 49.3056 54.0131 49.3398 54.0062 49.2508C54.0062 49.2165 54.02 49.0452 54.0062 49.1206C54.0338 48.9699 54.0131 49.0247 54.0888 48.9082C54.0751 48.9288 54.0888 48.8945 54.1439 48.8466C54.2127 48.778 54.1439 48.8329 54.2127 48.7849C54.4054 48.6616 54.5706 48.6136 54.8322 48.5725C55.0524 48.5383 55.4034 48.5314 55.6787 48.5451C56.3119 48.5794 56.9382 48.7095 57.5439 48.8945C57.8123 48.9767 58.0395 49.0589 58.2666 49.1754C58.3629 49.2234 58.4662 49.2782 58.5557 49.333C58.597 49.3604 58.6382 49.3878 58.6795 49.4221C58.597 49.3604 58.8172 49.5522 58.8378 49.5728C59.1407 49.8605 59.4917 50.2853 59.5399 50.7169C59.5743 51.0732 59.4435 51.5527 59.0719 51.6829C58.5763 51.861 58.7897 52.6558 59.2921 52.4776L59.3059 52.4845Z" fill="#040000"/>
<path d="M56.7042 59.5548C56.4014 59.5 56.1054 59.3904 55.9196 59.1437C55.9196 59.1437 55.8508 59.041 55.837 58.9999C55.8577 59.0478 55.8164 58.8491 55.8164 58.9177C55.8095 58.7669 55.8714 58.6231 55.9334 58.4929C56.1054 58.1298 56.2844 57.7735 56.2775 57.3625C56.2706 56.924 56.0917 56.5335 55.8164 56.2046C55.6718 56.0334 55.3828 56.0608 55.2313 56.2046C55.0593 56.3759 55.0868 56.6157 55.2313 56.787C55.4378 57.0336 55.4998 57.3556 55.4103 57.6502C55.2864 58.0544 55.018 58.3833 54.9905 58.8217C54.9354 59.6439 55.7544 60.2194 56.484 60.3495C56.7042 60.3906 56.9314 60.2879 56.9933 60.0618C57.0484 59.8631 56.9245 59.5959 56.7042 59.5548Z" fill="#040000"/>
<path d="M52.5265 58.8629C52.5884 58.8971 52.6435 58.9314 52.6985 58.9793L52.6159 58.9177C52.6848 58.9725 52.7467 59.0341 52.8018 59.1026L52.7398 59.0204C52.8018 59.1026 52.85 59.1849 52.8844 59.2808L52.8431 59.1849C52.8981 59.315 52.9463 59.4452 53.0083 59.5754C53.0702 59.7055 53.1597 59.8289 53.2698 59.9248C53.4281 60.0686 53.6965 60.096 53.8548 59.9248C53.9994 59.7672 54.0269 59.5 53.8548 59.3424C53.8204 59.315 53.7929 59.2808 53.7653 59.2465L53.8273 59.3287C53.7722 59.2602 53.7309 59.178 53.6965 59.0958L53.7378 59.1917C53.669 59.0204 53.6139 58.8423 53.5107 58.6847C53.373 58.4586 53.1734 58.2805 52.9394 58.1572C52.7536 58.0544 52.4783 58.1092 52.3751 58.3079C52.2718 58.5066 52.32 58.7601 52.5265 58.8697V58.8629Z" fill="#040000"/>
<path d="M53.7653 49.5385C53.6483 49.5317 53.7998 49.5522 53.6759 49.5248C53.6139 49.5111 53.5451 49.5043 53.4832 49.4906C53.318 49.4563 53.1528 49.4152 52.9876 49.3741C52.6228 49.285 52.2581 49.196 51.8864 49.1275C51.0123 48.963 50.0969 48.8877 49.2228 49.1069C48.2386 49.3604 47.4402 50.0249 46.9584 50.9087C46.6762 51.4226 46.339 52.1282 46.4009 52.7311C46.4766 53.4847 47.1305 54.0602 47.7568 54.4028C48.3831 54.7453 49.3742 54.7453 49.5738 55.5058C49.7459 56.1704 49.7665 56.9103 50.3378 57.3899C50.7439 57.7256 51.3289 57.1501 50.9228 56.8075C50.4823 56.4444 50.503 55.8004 50.3722 55.2866C50.2139 54.6837 49.8354 54.3274 49.2641 54.1082C48.6103 53.8547 47.9289 53.704 47.4609 53.1353C47.041 52.6215 47.3301 52.0049 47.5985 51.4774C47.9839 50.7032 48.5965 50.1209 49.4499 49.9016C50.1933 49.7098 50.9848 49.792 51.735 49.929C52.4164 50.0592 53.084 50.2921 53.7791 50.3538C54.3091 50.4018 54.3022 49.5796 53.7791 49.5317L53.7653 49.5385Z" fill="#040000"/>
<path d="M69.5541 51.1554C69.5197 51.2033 69.4922 51.2513 69.4646 51.2992C70.8756 51.2787 72.4999 51.6624 73.2982 52.505C73.8626 53.0463 74.3238 54.0465 74.1104 54.7042C73.897 55.3619 73.2432 55.8552 72.4655 55.9511C71.9768 56.0128 71.3986 55.9443 71.0683 56.2526C70.6828 56.6225 70.9237 57.2871 70.6484 57.7393C70.4282 58.1024 69.9258 58.2394 69.4509 58.3011C68.976 58.3627 68.4735 58.3833 68.0881 58.6162C67.744 58.8286 67.5444 59.1848 67.1934 59.3767C66.8423 59.5685 66.3812 59.5822 65.9545 59.4863C65.5278 59.3904 65.1286 59.2054 64.7363 59.0204C65.2593 59.0684 65.7962 58.808 65.9132 58.3696C65.9958 58.0476 65.8512 57.6913 65.8444 57.3488C65.8375 56.9582 66.0233 56.5883 66.3468 56.3485C66.6221 56.1498 66.9731 56.0471 67.2553 55.8552C67.5375 55.6634 67.744 55.3208 67.5788 55.0125C67.4411 54.7522 67.1108 54.6289 66.863 54.4507C66.2642 54.0191 66.1472 53.2518 66.4156 52.6626C66.3537 52.6421 66.2848 52.6215 66.2229 52.601C65.9132 52.4708 65.6654 52.279 65.3488 52.1556C65.0942 52.0529 65.4933 51.8131 65.2387 51.724" fill="#F2F2F2"/>
<path d="M67.6063 58.6505C67.5237 58.7532 67.4274 58.8423 67.331 58.9245C67.3172 58.9382 67.3035 58.9451 67.2897 58.9588C67.2278 59.0067 67.3723 58.8971 67.3035 58.9451C67.2759 58.9656 67.2484 58.9862 67.214 59.0067C67.1452 59.0547 67.0764 59.0958 67.0075 59.1369C66.8768 59.2191 66.7391 59.2876 66.5946 59.3493C66.5189 59.3835 66.6909 59.3082 66.6152 59.3424C66.6014 59.3424 66.5808 59.3561 66.567 59.363C66.5326 59.3767 66.4982 59.3904 66.4638 59.3972C66.4019 59.4178 66.3399 59.4315 66.2711 59.4452C66.0577 59.4863 65.9201 59.7535 65.982 59.9522C66.0577 60.1783 66.2642 60.281 66.4913 60.2399C66.8217 60.1783 67.1383 60.0138 67.4205 59.8426C67.7027 59.6713 67.978 59.4794 68.1776 59.226C68.2464 59.1369 68.3015 59.0547 68.3015 58.9382C68.3015 58.8354 68.2533 58.719 68.1776 58.6505C68.0262 58.5134 67.7371 58.4723 67.5925 58.6505H67.6063Z" fill="#040000"/>
<path d="M74.1999 54.1904C75.8724 52.4982 72.4586 51.0869 71.2748 50.7786C70.0909 50.4703 68.8452 50.3675 67.6407 50.5662C66.4363 50.7649 64.7294 51.4911 65.2662 52.9846C65.4039 53.3614 65.6792 53.6903 65.982 53.9506C66.1266 54.0739 66.278 54.1973 66.4363 54.3069C66.5946 54.4165 66.9249 54.533 67.0282 54.7042C67.097 54.8139 67.0419 54.5878 67.0488 54.6768C67.0488 54.7248 66.9593 54.8139 66.9387 54.8481C66.8286 54.992 66.6978 55.129 66.5739 55.2592C66.3606 55.4921 66.1059 55.7251 65.9682 56.0059C65.7342 56.4787 66.45 56.8966 66.684 56.4239C66.9043 55.9717 67.3792 55.6565 67.6683 55.2455C68.0399 54.7248 67.8679 54.2726 67.3585 53.9164C66.8905 53.5875 66.044 53.197 66.0095 52.5324C65.982 51.9638 66.6083 51.724 67.0557 51.5664C68.8934 50.9361 71.2954 51.3335 72.9404 52.3338C73.2432 52.5187 73.5873 52.7585 73.7456 53.0737C73.7869 53.1627 73.8144 53.2381 73.7938 53.3546C73.7938 53.3203 73.7732 53.4094 73.7663 53.4299C73.7181 53.5122 73.6906 53.5533 73.6217 53.6149C73.2501 53.9917 73.8351 54.5741 74.2068 54.1973L74.1999 54.1904Z" fill="#040000"/>
<path d="M73.5529 54.9029C73.5185 54.9646 73.4841 55.0331 73.4497 55.0948C73.429 55.129 73.4084 55.1564 73.3877 55.1907C73.374 55.2044 73.312 55.2866 73.3464 55.2455C73.3808 55.1975 73.312 55.2797 73.3051 55.2934C73.2845 55.314 73.2638 55.3345 73.2432 55.3551C73.195 55.4031 73.312 55.3208 73.2225 55.3688C73.195 55.3825 73.1606 55.4031 73.1331 55.4168C73.0711 55.451 73.2019 55.4031 73.0987 55.4305C73.0642 55.4373 73.0367 55.451 73.0023 55.4579C72.961 55.4716 72.9197 55.4784 72.8784 55.4853C72.9541 55.4716 72.8302 55.4853 72.8027 55.4853C72.5618 55.5058 72.3209 55.4853 72.0869 55.4647C71.8322 55.4373 71.5501 55.3551 71.3092 55.4853C71.1302 55.5812 71.0132 55.7593 70.965 55.958C70.9169 56.1567 70.9169 56.3554 70.9169 56.5472C70.9169 56.6431 70.9169 56.739 70.9169 56.8349C70.9169 56.8897 70.9169 56.9377 70.9169 56.9856C70.9169 57.0062 70.9031 57.1295 70.9169 57.0679C70.91 57.1227 70.8962 57.1706 70.8824 57.2186C70.8824 57.2391 70.8687 57.2528 70.8618 57.2734C70.8412 57.3214 70.91 57.2117 70.848 57.2871C70.7792 57.3762 70.7104 57.4378 70.614 57.4926C70.3525 57.6365 70.0359 57.6913 69.7468 57.7256C69.5266 57.753 69.4027 58.0407 69.4577 58.2325C69.5266 58.4723 69.7468 58.5477 69.9671 58.5203C70.5521 58.4381 71.1853 58.26 71.5363 57.7461C71.791 57.3762 71.7428 56.8829 71.7497 56.4581C71.7497 56.3691 71.7497 56.2868 71.7634 56.1978C71.7497 56.2868 71.7703 56.1772 71.7772 56.1567C71.7841 56.1019 71.7772 56.1361 71.7772 56.1361C71.7841 56.1361 71.7772 56.143 71.7634 56.1567C71.7565 56.1635 71.6671 56.2252 71.7084 56.2046C71.7497 56.1841 71.6671 56.2252 71.6671 56.2252C71.612 56.2526 71.612 56.2252 71.6946 56.2389C71.8598 56.2594 72.0181 56.28 72.1833 56.2937C72.6306 56.3348 73.1124 56.3348 73.5254 56.1361C73.8764 55.9717 74.0966 55.6497 74.2687 55.3208C74.5165 54.855 73.8007 54.437 73.5529 54.9029Z" fill="#040000"/>
<path d="M50.035 76.8675C50.4204 77.3197 50.6131 77.9089 50.737 78.4844C50.8058 78.8064 50.8196 79.053 50.8815 79.4367C51.2463 81.8277 50.503 83.3144 49.7046 84.2256C48.7892 85.2669 46.9584 85.7876 45.6301 85.4656C41.6657 84.5133 41.5624 80.1423 43.7855 78.1281C45.6645 76.4222 46.0843 74.4491 46.1807 73.579C46.2013 73.4009 46.4216 73.3255 46.5455 73.4557C49.4912 76.4564 48.686 79.2585 49.2779 79.0393C49.4224 78.9845 49.4293 78.9708 49.7115 78.039C49.7872 77.7993 49.856 77.5115 49.8904 77.0319C49.8904 77.0319 49.8767 76.6688 50.0418 76.8607L50.035 76.8675Z" fill="white"/>
<path d="M46.4698 86C46.1463 86 45.8297 85.9657 45.5268 85.8904C43.7305 85.4588 42.4572 84.2872 42.0442 82.6635C41.6037 80.9507 42.1819 78.9982 43.4896 77.813C45.2859 76.1824 45.6645 74.2778 45.7471 73.5379C45.7746 73.2912 45.9398 73.0857 46.1807 73.0035C46.4216 72.9213 46.6762 72.9829 46.8552 73.1611C48.6447 74.9835 49.1196 76.7647 49.3123 77.8472C49.3742 77.6211 49.4293 77.3813 49.4568 77.0045C49.4431 76.614 49.6564 76.4633 49.7872 76.4153C49.8629 76.3879 50.1313 76.3126 50.3653 76.5935C50.8471 77.1621 51.0467 77.8952 51.1568 78.4021C51.205 78.6214 51.2257 78.8064 51.2532 79.0119C51.267 79.1215 51.2807 79.238 51.3014 79.375C51.6248 81.4509 51.1912 83.1774 50.0212 84.5133C49.2228 85.4245 47.7843 86 46.4629 86H46.4698ZM46.5386 74.0928C46.3528 75.1068 45.7815 76.9018 44.0746 78.4501C42.994 79.4298 42.5191 81.0398 42.8839 82.4511C43.228 83.7734 44.2398 84.6983 45.7333 85.0546C46.9309 85.3423 48.6034 84.8353 49.3811 83.9447C50.3722 82.8074 50.737 81.3139 50.4548 79.4983C50.4342 79.3544 50.4135 79.2311 50.3997 79.1147C50.3791 78.9297 50.3584 78.7653 50.3171 78.5734C50.269 78.361 50.2208 78.1761 50.1657 78.0116C50.152 78.0664 50.1382 78.1144 50.1176 78.1692C49.8078 79.1969 49.7665 79.3202 49.4224 79.4504C49.2503 79.512 49.0852 79.4983 48.9337 79.4161C48.6516 79.2517 48.6034 78.9434 48.5277 78.4295C48.3831 77.5184 48.1285 75.8741 46.5386 74.0928Z" fill="black"/>
<path d="M44.6459 82.4306C44.3774 82.3621 44.1778 82.3415 44.054 82.5128C43.9301 82.6841 43.9438 82.917 43.9782 83.1225C44.1916 84.3489 44.7216 85.356 45.988 85.5273C46.4629 85.5889 47.2681 85.541 47.7568 85.1916C47.9358 85.0614 48.1078 84.8079 48.156 84.5955C48.3556 83.8282 48.2455 82.9855 47.8601 82.2867C47.5916 81.8071 47.1924 81.3344 47.2544 80.7932C47.2819 80.5739 47.509 80.3273 47.4196 80.1218C47.3645 79.9984 47.3026 80.019 47.2337 80.019C47.1993 80.019 47.1443 80.0327 47.1098 80.0396C46.5317 80.1629 45.6026 80.7384 45.2997 81.2316C45.0175 81.6838 45.4718 81.8551 45.1965 82.3278C45.1758 82.3621 45.1001 82.4922 44.8661 82.4785" fill="white"/>
<path d="M44.7629 82.0195C44.4256 81.9373 44.0608 81.903 43.7924 82.1634C43.524 82.4237 43.4965 82.8211 43.5515 83.1636C43.6341 83.7186 43.8062 84.2941 44.1021 84.7737C44.7698 85.8424 46.0362 86.1644 47.22 85.8835C47.8807 85.726 48.4313 85.3012 48.5965 84.6229C48.7617 83.9036 48.6997 83.1362 48.4175 82.4511C48.2799 82.1291 48.0941 81.8414 47.9151 81.5399C47.7706 81.2933 47.626 81.033 47.7224 80.7452C47.8325 80.4301 47.9564 80.156 47.7499 79.8477C47.5435 79.5394 47.1787 79.5805 46.869 79.6696C46.2358 79.8477 45.575 80.2519 45.1414 80.7452C44.9212 80.9919 44.7422 81.2864 44.7698 81.6359C44.7766 81.7592 44.8455 81.903 44.8455 82.0127C44.8455 81.9716 44.8317 82.1702 44.811 82.1291C44.811 82.1291 44.9212 82.0606 44.8592 82.0675C44.3017 82.0743 44.3017 82.9376 44.8592 82.9307C45.2584 82.9307 45.5613 82.7046 45.6714 82.321C45.7264 82.1223 45.7127 81.9373 45.6714 81.7386C45.6438 81.6222 45.6094 81.581 45.6714 81.4714C45.8297 81.1837 46.1876 80.9644 46.456 80.8C46.6969 80.6561 47.041 80.4369 47.337 80.4712L47.1167 80.4095L47.1649 80.4369L47.0066 80.2793C46.986 80.2382 47.0617 80.1834 47.0066 80.2382C46.9997 80.2451 46.9928 80.293 46.986 80.3067C46.9515 80.389 46.9103 80.4643 46.8827 80.5465C46.8139 80.7452 46.8139 80.9576 46.8483 81.1631C46.9103 81.5468 47.1167 81.8825 47.3163 82.2045C47.7224 82.8691 47.9495 83.6158 47.7706 84.3968C47.6192 85.0682 46.807 85.1505 46.222 85.1231C45.637 85.0957 45.1758 84.849 44.873 84.3763C44.694 84.0954 44.5839 83.7871 44.4944 83.4651C44.4532 83.3075 44.405 83.1362 44.3912 82.9718C44.3912 82.9033 44.4325 82.7526 44.3637 82.8005C44.3155 82.8416 44.46 82.8348 44.5289 82.8485C45.0726 82.9787 45.2997 82.1497 44.756 82.0195H44.7629Z" fill="black"/>
<path d="M64.0755 76.8675C64.461 77.3197 64.6537 77.9089 64.7776 78.4844C64.8464 78.8064 64.8601 79.053 64.9221 79.4367C65.2869 81.8277 64.5435 83.3144 63.7452 84.2256C62.8298 85.2669 60.999 85.7876 59.6706 85.4656C55.7062 84.5133 55.603 80.1423 57.8261 78.1281C59.7051 76.4222 60.1249 74.4491 60.2213 73.579C60.2419 73.4009 60.4621 73.3255 60.586 73.4557C63.5318 76.4564 62.7265 79.2585 63.3184 79.0393C63.463 78.9845 63.4699 78.9708 63.752 78.039C63.8277 77.7992 63.8966 77.5115 63.931 77.0319C63.931 77.0319 63.9172 76.6688 64.0824 76.8606L64.0755 76.8675Z" fill="white"/>
<path d="M60.5103 86C60.1868 86 59.8702 85.9657 59.5674 85.8904C57.771 85.4588 56.4978 84.2872 56.0848 82.6635C55.6443 80.9507 56.2224 78.9982 57.5301 77.813C59.3265 76.1824 59.7051 74.2778 59.7876 73.5379C59.8152 73.2912 59.9804 73.0857 60.2213 73.0035C60.4621 72.9213 60.7168 72.9829 60.8958 73.1611C62.6852 74.9835 63.1601 76.7647 63.3529 77.8472C63.4148 77.6211 63.4699 77.3745 63.4974 77.0045C63.4836 76.614 63.697 76.4633 63.8278 76.4153C63.9035 76.3879 64.1719 76.3126 64.4059 76.5935C64.8877 77.1621 65.0873 77.8952 65.1974 78.4021C65.2456 78.6214 65.2662 78.8064 65.2938 79.0119C65.3075 79.1215 65.3213 79.238 65.3419 79.375C65.6654 81.4509 65.2318 83.1842 64.0618 84.5133C63.2634 85.4245 61.8249 86 60.5034 86H60.5103ZM60.5791 74.0928C60.3933 75.1068 59.8221 76.9018 58.1152 78.4501C57.0346 79.4298 56.5597 81.0398 56.9245 82.4511C57.2686 83.7734 58.2804 84.6983 59.7739 85.0546C60.9715 85.3423 62.6439 84.8353 63.4217 83.9447C64.4128 82.8074 64.7776 81.3139 64.4954 79.4983C64.4747 79.3544 64.4541 79.2311 64.4403 79.1147C64.4197 78.9297 64.399 78.7652 64.3577 78.5734C64.3095 78.361 64.2614 78.1761 64.2063 78.0116C64.1925 78.0664 64.1788 78.1144 64.1581 78.1692C63.8484 79.1969 63.8071 79.3202 63.463 79.4504C63.2978 79.512 63.1257 79.4983 62.9743 79.4161C62.6921 79.2517 62.6439 78.9434 62.5613 78.4295C62.4168 77.5184 62.1622 75.8741 60.5723 74.0928H60.5791Z" fill="black"/>
<path d="M58.6864 82.4306C58.418 82.3621 58.2184 82.3415 58.0945 82.5128C57.9706 82.6841 57.9844 82.917 58.0188 83.1225C58.2322 84.3489 58.7621 85.356 60.0285 85.5273C60.5034 85.5889 61.3087 85.541 61.7974 85.1916C61.9763 85.0614 62.1484 84.8079 62.1966 84.5955C62.3962 83.8282 62.286 82.9855 61.9006 82.2867C61.6322 81.8071 61.233 81.3344 61.2949 80.7932C61.3225 80.5739 61.5496 80.3273 61.4601 80.1218C61.4051 79.9984 61.3431 80.019 61.2743 80.019C61.2399 80.019 61.1848 80.0327 61.1504 80.0396C60.5723 80.1629 59.6431 80.7384 59.3403 81.2316C59.0581 81.6838 59.5123 81.8551 59.237 82.3278C59.2164 82.3621 59.1407 82.4922 58.9067 82.4785" fill="white"/>
<path d="M58.7965 82.0195C58.4593 81.9373 58.0945 81.903 57.8261 82.1634C57.5577 82.4237 57.5301 82.8211 57.5852 83.1636C57.6678 83.7186 57.8399 84.2941 58.1358 84.7737C58.8034 85.8424 60.0698 86.1644 61.2536 85.8835C61.9144 85.726 62.465 85.3012 62.6302 84.6229C62.7954 83.9036 62.7334 83.1362 62.4512 82.4511C62.3136 82.1291 62.1277 81.8414 61.9488 81.5399C61.8043 81.2933 61.6597 81.033 61.7561 80.7452C61.8662 80.4301 61.9901 80.156 61.7836 79.8477C61.5771 79.5394 61.2124 79.5805 60.9026 79.6696C60.2694 79.8477 59.6087 80.2519 59.1751 80.7452C58.9549 80.9919 58.7759 81.2864 58.8034 81.6359C58.8103 81.7592 58.8791 81.903 58.8791 82.0127C58.8791 81.9716 58.8654 82.1702 58.8447 82.1291C58.8447 82.1291 58.9549 82.0606 58.8929 82.0675C58.3354 82.0743 58.3354 82.9376 58.8929 82.9307C59.2921 82.9307 59.5949 82.7046 59.7051 82.321C59.7601 82.1223 59.7464 81.9373 59.7051 81.7386C59.6775 81.6222 59.6431 81.581 59.7051 81.4714C59.8634 81.1837 60.2213 80.9644 60.4897 80.8C60.7306 80.6561 61.0747 80.4369 61.3707 80.4712L61.1504 80.4095L61.1986 80.4369L61.0403 80.2793C61.0196 80.2382 61.0953 80.1834 61.0403 80.2382C61.0334 80.2451 61.0265 80.293 61.0196 80.3067C60.9852 80.389 60.9439 80.4643 60.9164 80.5465C60.8476 80.7452 60.8476 80.9576 60.882 81.1631C60.9439 81.5468 61.1504 81.8825 61.35 82.2045C61.7561 82.8691 61.9832 83.6158 61.8043 84.3968C61.6528 85.0682 60.8407 85.1505 60.2557 85.1231C59.6706 85.0957 59.2095 84.849 58.9067 84.3763C58.7277 84.0954 58.6176 83.7871 58.5281 83.4651C58.4868 83.3075 58.4387 83.1362 58.4249 82.9718C58.4249 82.9033 58.4662 82.7526 58.3974 82.8005C58.3492 82.8416 58.4937 82.8348 58.5625 82.8485C59.1063 82.9787 59.3334 82.1497 58.7897 82.0195H58.7965Z" fill="black"/>
<path d="M77.7307 76.8675C78.1161 77.3197 78.3088 77.9089 78.4327 78.4844C78.5015 78.8064 78.5153 79.053 78.5772 79.4367C78.942 81.8277 78.1987 83.3144 77.4003 84.2256C76.4849 85.2669 74.6541 85.7876 73.3258 85.4656C69.3614 84.5133 69.2581 80.1423 71.4812 78.1281C73.3602 76.4222 73.78 74.4491 73.8764 73.579C73.897 73.4009 74.1173 73.3255 74.2412 73.4557C77.1869 76.4564 76.3817 79.2585 76.9736 79.0393C77.1181 78.9845 77.125 78.9708 77.4072 78.039C77.4829 77.7992 77.5517 77.5115 77.5861 77.0319C77.5861 77.0319 77.5724 76.6688 77.7375 76.8606L77.7307 76.8675Z" fill="white"/>
<path d="M74.1655 86C73.842 86 73.5254 85.9657 73.2225 85.8904C71.4262 85.4588 70.1529 84.2872 69.7399 82.6635C69.2994 80.9507 69.8776 78.9982 71.1853 77.813C72.9748 76.1824 73.3602 74.2778 73.4428 73.5379C73.4703 73.2912 73.6355 73.0857 73.8764 73.0035C74.1173 72.9213 74.3719 72.9829 74.5509 73.1611C76.3335 74.9835 76.8153 76.7647 77.008 77.8472C77.0699 77.6211 77.125 77.3813 77.1525 77.0045C77.1319 76.614 77.3521 76.4633 77.4829 76.4153C77.5586 76.3879 77.827 76.3126 78.061 76.5935C78.5428 77.1621 78.7493 77.8952 78.8525 78.4021C78.9007 78.6214 78.9214 78.8064 78.9489 79.0119C78.9627 79.1215 78.9764 79.238 78.9971 79.375C79.3205 81.4509 78.8869 83.1842 77.7169 84.5133C76.9185 85.4245 75.4869 86 74.1586 86H74.1655ZM74.2343 74.0928C74.0485 75.1136 73.4772 76.9018 71.7703 78.4501C70.6897 79.4298 70.2148 81.0398 70.5796 82.4511C70.9237 83.7734 71.9355 84.6983 73.429 85.0546C74.6266 85.3423 76.2991 84.8353 77.0699 83.9447C78.061 82.8074 78.4258 81.3139 78.1436 79.4983C78.123 79.3544 78.1023 79.2311 78.0886 79.1147C78.061 78.9297 78.0473 78.7652 77.9991 78.5734C77.9509 78.3679 77.9027 78.1761 77.8477 78.0116C77.8339 78.0664 77.8201 78.1144 77.7995 78.1692C77.4898 79.1969 77.4485 79.3202 77.1043 79.4504C76.9392 79.512 76.7602 79.4983 76.6157 79.4161C76.3335 79.2517 76.2853 78.9434 76.2027 78.4295C76.0582 77.5184 75.8035 75.8741 74.2136 74.0997L74.2343 74.0928Z" fill="black"/>
<path d="M72.3416 82.4306C72.0731 82.3621 71.8735 82.3415 71.7497 82.5128C71.6258 82.6841 71.6395 82.917 71.6739 83.1225C71.8873 84.3489 72.4173 85.356 73.6837 85.5273C74.1586 85.5889 74.9638 85.541 75.4525 85.1916C75.6315 85.0614 75.8035 84.8079 75.8517 84.5955C76.0513 83.8282 75.9412 82.9855 75.5558 82.2867C75.2873 81.8071 74.8881 81.3344 74.9501 80.7932C74.9776 80.5739 75.2047 80.3273 75.1153 80.1218C75.0602 79.9984 74.9983 80.019 74.9294 80.019C74.895 80.019 74.84 80.0327 74.8055 80.0396C74.2274 80.1629 73.2982 80.7384 72.9954 81.2316C72.7132 81.6838 73.1675 81.8551 72.8922 82.3278C72.8715 82.3621 72.7958 82.4922 72.5618 82.4785" fill="white"/>
<path d="M72.4586 82.0195C72.1213 81.9373 71.7565 81.903 71.4881 82.1634C71.2197 82.4237 71.1922 82.8211 71.2472 83.1636C71.3298 83.7186 71.5019 84.2941 71.7978 84.7737C72.4654 85.8424 73.7319 86.1644 74.9157 85.8835C75.5764 85.726 76.127 85.3012 76.2922 84.6229C76.4574 83.9036 76.3954 83.1362 76.1132 82.4511C75.9756 82.1291 75.7898 81.8414 75.6108 81.5399C75.4663 81.2933 75.3217 81.033 75.4181 80.7452C75.5282 80.4301 75.6521 80.156 75.4456 79.8477C75.2391 79.5394 74.8744 79.5805 74.5646 79.6696C73.9314 79.8477 73.2707 80.2519 72.8371 80.7452C72.6169 80.9919 72.4379 81.2864 72.4654 81.6359C72.4723 81.7592 72.5412 81.903 72.5412 82.0127C72.5412 81.9716 72.5274 82.1702 72.5067 82.1291C72.5067 82.1291 72.6169 82.0606 72.5549 82.0675C71.9974 82.0743 71.9974 82.9376 72.5549 82.9307C72.9541 82.9307 73.257 82.7046 73.3671 82.321C73.4221 82.1223 73.4084 81.9373 73.3671 81.7386C73.3395 81.6222 73.3051 81.581 73.3671 81.4714C73.5254 81.1837 73.8833 80.9644 74.1517 80.8C74.3926 80.6561 74.7367 80.4369 75.0327 80.4712L74.8124 80.4095L74.8606 80.4369L74.7023 80.2793C74.6817 80.2382 74.7574 80.1834 74.7023 80.2382C74.6954 80.2451 74.6885 80.293 74.6817 80.3067C74.6472 80.389 74.6059 80.4643 74.5784 80.5465C74.5096 80.7452 74.5096 80.9576 74.544 81.1631C74.6059 81.5468 74.8124 81.8825 75.012 82.2045C75.4181 82.8691 75.6452 83.6158 75.4663 84.3968C75.3149 85.0682 74.5027 85.1505 73.9177 85.1231C73.3327 85.0957 72.8715 84.849 72.5687 84.3763C72.3897 84.0954 72.2796 83.7871 72.1901 83.4651C72.1488 83.3075 72.1007 83.1362 72.0869 82.9718C72.0869 82.9033 72.1282 82.7526 72.0594 82.8005C72.0112 82.8416 72.1557 82.8348 72.2246 82.8485C72.7683 82.9787 72.9954 82.1497 72.4517 82.0195H72.4586Z" fill="black"/>
<path d="M51.3014 62.5898C54.3091 62.0829 57.5095 61.6923 60.5447 62.2336C62.6164 62.6035 64.633 63.3503 66.5877 64.1039C67.1589 64.3232 67.7646 64.5218 68.3083 64.8096C68.4047 64.8644 68.5561 64.885 68.6525 64.8096C69.0723 64.4944 69.5128 64.193 69.9533 63.9052C70.6553 63.4462 71.4124 62.9324 72.2246 62.7132C72.3347 62.6789 72.4655 62.6446 72.5825 62.6584C72.61 62.6584 72.6719 62.6858 72.6375 62.6652C72.961 62.8639 72.9541 63.3983 72.9059 63.7134C72.8165 64.33 72.5205 64.885 72.2865 65.4536C72.1695 65.7413 72.1144 66.0633 72.4242 66.2552C72.6995 66.4196 73.0849 66.4607 73.3877 66.584C73.7319 66.7279 74.0622 66.9197 74.3582 67.139C74.8881 67.5363 75.3355 68.0913 75.3355 68.7832L75.8517 68.4886H75.8379C75.7003 68.379 75.4387 68.4475 75.3699 68.5982C74.8468 69.7561 72.8027 69.0778 71.9424 68.8106C71.082 68.5434 69.9671 68.1872 69.3958 67.4541C69.2994 67.3308 69.0998 67.3376 68.976 67.3993C68.5217 67.6322 67.9849 67.7556 67.5031 67.8994C66.8836 68.0844 66.2573 68.2557 65.631 68.427C64.3371 68.7832 63.0569 69.1806 61.7217 69.3656C60.1868 69.5779 58.6451 69.5848 57.0965 69.5437C55.4722 69.5026 53.8479 69.4409 52.2305 69.2422L52.5609 69.4957C52.2649 67.3582 51.969 65.2275 51.673 63.09L51.5423 62.1582C51.4803 61.7266 50.8196 61.9116 50.8815 62.3432C51.1775 64.4807 51.4734 66.6114 51.7694 68.749L51.9002 69.6807C51.9208 69.8383 52.0929 69.9136 52.2305 69.9342C53.903 70.1397 55.5755 70.2014 57.2548 70.2425C58.8103 70.2768 60.3589 70.2562 61.9006 70.037C63.2771 69.8451 64.5986 69.4341 65.9338 69.0573C67.0419 68.749 68.2877 68.5229 69.3201 67.9953L68.9002 67.9405C69.093 68.1872 69.382 68.379 69.6367 68.5434C70.4144 69.0436 71.316 69.3656 72.2039 69.6054C73.3395 69.9136 75.3355 70.3247 75.9549 68.9476L75.4869 69.071H75.5007C75.7209 69.2422 76.0169 69.023 76.0169 68.7832C76.0238 67.4747 74.895 66.5155 73.7938 66.0154C73.5529 65.9058 73.078 65.6249 72.8096 65.6591L72.7408 65.6386C72.8165 65.6934 72.8578 65.755 72.8646 65.8304C72.8646 65.8304 72.9059 65.7139 72.8991 65.7276C72.961 65.6523 73.0023 65.4947 73.0436 65.4056C73.3258 64.789 73.6011 64.1176 73.608 63.4257C73.608 62.7954 73.2845 61.9732 72.548 61.9595C71.7152 61.9458 70.8343 62.5282 70.1598 62.9461C69.5197 63.3366 68.8934 63.7545 68.2946 64.2067H68.6387C68.1638 63.9464 67.6338 63.7751 67.1314 63.5764C66.1403 63.1859 65.1355 62.8228 64.1237 62.4871C63.112 62.1514 62.0245 61.8157 60.9439 61.6033C59.5468 61.3224 58.1014 61.2676 56.6836 61.3087C54.8115 61.3635 52.9463 61.6033 51.1018 61.9116C50.6682 61.9869 50.854 62.6446 51.2876 62.5693L51.3014 62.5898Z" fill="#040000"/>
<path d="M52.2305 69.5985C49.7665 69.4341 45.0451 68.7901 45.341 66.2963C45.341 66.2963 47.4884 65.4056 47.5503 65.3234C47.6123 65.2412 45.4236 64.652 45.4236 64.652C45.4236 64.652 45.4993 63.8915 48.3762 63.0215C49.3673 62.72 51.4046 62.0075 52.2718 62.2952C53.7791 62.7954 53.9581 64.9466 53.7516 68.5503C53.7172 69.1737 53.022 69.6465 52.2305 69.5916V69.5985Z" fill="white"/>
<path d="M52.3475 69.9411C52.2993 69.9411 52.2512 69.9411 52.203 69.9411C49.7941 69.7766 46.6762 69.2834 45.4787 67.8515C45.0864 67.3856 44.9281 66.8444 44.9969 66.2552C45.0106 66.1319 45.0932 66.0291 45.2034 65.9811C45.7127 65.7687 46.2495 65.5427 46.6625 65.3645C46.277 65.2481 45.7815 65.111 45.3341 64.9877C45.1689 64.9466 45.0657 64.789 45.0795 64.6246C45.1001 64.3917 45.403 63.5695 48.273 62.6995L48.6791 62.5761C50.1726 62.1103 51.5767 61.7129 52.3819 61.9801C54.0957 62.5487 54.3091 64.8301 54.0957 68.5777C54.0751 68.9202 53.9099 69.2422 53.6277 69.4889C53.2973 69.7835 52.8362 69.9479 52.3544 69.9479L52.3475 69.9411ZM52.2512 69.2559C52.6022 69.2765 52.9463 69.1737 53.1666 68.9751C53.2698 68.886 53.3937 68.7353 53.4006 68.5366C53.5933 65.207 53.4487 63.0557 52.1548 62.6241C51.501 62.4049 49.7941 62.9392 48.8787 63.227L48.4657 63.3572C46.986 63.8025 46.3046 64.2067 46.0017 64.4602C47.7843 64.9535 47.8119 65.0288 47.8738 65.2138C47.9082 65.3234 47.8876 65.4467 47.8188 65.5427C47.7568 65.6249 47.7018 65.6865 45.6714 66.5361C45.6714 66.8581 45.7884 67.1458 46.0155 67.4199C46.8139 68.379 49.092 69.0504 52.2581 69.2628L52.2512 69.2559Z" fill="#040000"/>
<path d="M51.5973 65.8784C51.5973 65.8784 51.5491 65.8784 51.5285 65.8715L48.8924 65.1933C48.7479 65.1521 48.6584 65.0083 48.6929 64.8575C48.7273 64.7137 48.8787 64.6246 49.0301 64.6589L51.6661 65.3371C51.8107 65.3782 51.9002 65.5221 51.8657 65.6728C51.8313 65.7961 51.7212 65.8784 51.5973 65.8784Z" fill="#040000"/>
<path d="M49.154 66.2894C49.0576 66.2894 48.9613 66.2346 48.9131 66.1456C48.8374 66.0154 48.8856 65.8441 49.0232 65.7756L51.2601 64.5424C51.3908 64.4739 51.5629 64.515 51.6317 64.652C51.7074 64.7822 51.6593 64.9535 51.5216 65.022L49.2848 66.2552C49.2435 66.2757 49.1953 66.2894 49.154 66.2894Z" fill="#040000"/>
<path d="M56.3257 64.5218C57.4063 65.2481 58.3836 66.1318 59.1751 67.1664C59.2508 67.2691 59.3816 67.3239 59.5055 67.2554C59.6087 67.1938 59.6706 67.0293 59.5949 66.9266C58.7484 65.8304 57.7297 64.885 56.5735 64.1108C56.3188 63.9395 56.071 64.3506 56.3326 64.5218H56.3257Z" fill="#040000"/>
<path d="M58.714 64.1108C59.7945 64.837 60.7719 65.7208 61.5634 66.7553C61.6391 66.8581 61.7698 66.9129 61.8937 66.8444C61.997 66.7827 62.0589 66.6183 61.9832 66.5155C61.1366 65.4193 60.118 64.4739 58.9617 63.6997C58.7071 63.5284 58.4593 63.9395 58.7208 64.1108H58.714Z" fill="#040000"/>
<path d="M56.1949 65.7071C58.0601 65.2549 59.9666 64.9946 61.8868 64.8918C62.1966 64.8781 62.1966 64.3985 61.8868 64.4122C59.9253 64.515 57.9775 64.7822 56.071 65.2481C55.7682 65.3234 55.899 65.7824 56.2018 65.7071H56.1949Z" fill="#040000"/>
<path d="M56.8901 67.0293C57.7779 66.7347 58.714 66.584 59.6362 66.4333C60.6136 66.2689 61.6047 66.1524 62.5958 66.262C62.9055 66.2963 62.8986 65.8167 62.5958 65.7824C61.5978 65.6728 60.6067 65.7961 59.6225 65.9537C58.6382 66.1113 57.6953 66.2552 56.7662 66.5635C56.4771 66.6594 56.601 67.1253 56.8969 67.0225L56.8901 67.0293Z" fill="#040000"/>
</g>
<defs>
<clipPath id="clip0_530_324">
<rect width="75" height="53" fill="white" transform="translate(23 33)"/>
</clipPath>
</defs>
</svg>
