<svg width="120" height="120" viewBox="0 0 120 120" fill="none" xmlns="http://www.w3.org/2000/svg">
<rect x="0.499969" y="0.5" width="119" height="119" rx="59.5" fill="white" stroke="black"/>
<path d="M50.086 76.8042C50.4714 77.2609 50.6573 77.8491 50.7812 78.4304C50.85 78.7556 50.8638 79.0047 50.9257 79.3853C51.2905 81.7864 50.5471 83.288 49.7487 84.2014C48.8402 85.2463 47.0162 85.7722 45.6947 85.4539C41.7508 84.4989 41.6475 80.098 43.8569 78.0705C45.7291 76.3544 46.1489 74.3685 46.2453 73.4966C46.266 73.3167 46.4862 73.2475 46.6032 73.372C49.5354 76.396 48.7369 79.2054 49.322 78.9908C49.4665 78.9355 49.4734 78.9217 49.7556 77.9875C49.8313 77.7453 49.9002 77.4616 49.9346 76.9772C49.9346 76.9772 49.9208 76.6105 50.086 76.8042Z" fill="white"/>
<path d="M46.5343 85.9859C46.2108 85.9859 45.8942 85.9513 45.5983 85.8821C43.8087 85.4531 42.5422 84.2698 42.1293 82.6368C41.6887 80.9138 42.2669 78.9555 43.5678 77.7584C45.3505 76.1184 45.7359 74.2086 45.8185 73.4613C45.846 73.2121 46.0112 73.0046 46.2453 72.9215C46.4793 72.8385 46.7408 72.9008 46.9129 73.0807C48.6887 74.9144 49.1705 76.7066 49.3632 77.793C49.4252 77.5646 49.4802 77.3224 49.5078 76.9488C49.4871 76.5544 49.7074 76.4021 49.8381 76.3537C49.9139 76.326 50.1823 76.2499 50.4163 76.5336C50.8981 77.1079 51.0977 77.8414 51.2079 78.3535C51.256 78.5749 51.2767 78.7618 51.3042 78.9763C51.318 79.087 51.3317 79.2046 51.3524 79.3361C51.669 81.4258 51.2423 83.1627 50.0791 84.5051C49.2806 85.4254 47.8559 85.9998 46.5343 85.9998V85.9859ZM46.6032 74.0079C46.4173 75.032 45.8529 76.8312 44.146 78.395C43.0722 79.3776 42.5973 80.9968 42.9621 82.4154C43.2994 83.7439 44.3111 84.6712 45.7979 85.031C46.9955 85.3216 48.6543 84.8096 49.4252 83.9169C50.4163 82.7752 50.7742 81.2736 50.4989 79.4468C50.4783 79.3015 50.4645 79.1839 50.4438 79.0662C50.4163 78.8794 50.3957 78.7133 50.3544 78.5196C50.3131 78.312 50.258 78.1182 50.2029 77.9521C50.1892 78.0075 50.1754 78.0559 50.1616 78.1044C49.8519 79.1354 49.8106 79.26 49.4665 79.3914C49.3013 79.4537 49.1292 79.4399 48.9847 79.3568C48.7025 79.1908 48.6543 78.8794 48.5786 78.3604C48.434 77.447 48.1794 75.7932 46.5963 74.001L46.6032 74.0079Z" fill="#231815"/>
<path d="M44.7174 82.4018C44.4558 82.3326 44.2494 82.3119 44.1255 82.4849C44.0016 82.6579 44.0153 82.8931 44.0498 83.1007C44.2631 84.3324 44.7862 85.3496 46.0527 85.5157C46.5207 85.578 47.326 85.5295 47.8078 85.1766C47.9868 85.0452 48.152 84.7891 48.207 84.5815C48.4067 83.8065 48.2965 82.9623 47.9111 82.2565C47.6495 81.7721 47.2434 81.3016 47.3123 80.7549C47.3398 80.5335 47.5601 80.2844 47.4706 80.0837C47.4155 79.9592 47.3536 79.9799 47.2847 79.9799C47.2503 79.9799 47.1953 79.9938 47.1608 80.0007C46.5827 80.1252 45.6604 80.6996 45.3575 81.2047C45.0822 81.6614 45.5227 81.8344 45.2543 82.305C45.2336 82.3396 45.1579 82.471 44.9239 82.4572" fill="white"/>
<path d="M44.8343 81.9797C44.504 81.8967 44.1392 81.8621 43.8707 82.1251C43.6023 82.388 43.5816 82.7824 43.6298 83.1353C43.7124 83.6958 43.8845 84.2702 44.1805 84.7545C44.8412 85.8271 46.1008 86.1523 47.2847 85.8686C47.9454 85.7095 48.4961 85.2874 48.6544 84.6023C48.8196 83.8827 48.7507 83.1076 48.4754 82.4226C48.3446 82.0974 48.1519 81.8067 47.9798 81.5023C47.8353 81.2532 47.6908 80.9902 47.794 80.6996C47.9041 80.3813 48.028 80.1114 47.8215 79.7931C47.615 79.4748 47.2503 79.5232 46.9474 79.6132C46.3211 79.7931 45.6603 80.2014 45.2267 80.6927C45.0064 80.9418 44.8275 81.2393 44.855 81.5853C44.8619 81.7099 44.9307 81.8552 44.9307 81.9659C44.9307 81.9244 44.9169 82.1251 44.8963 82.0835C44.8963 82.0835 45.0064 82.0143 44.9376 82.0213C44.3869 82.0282 44.3801 82.8931 44.9376 82.8862C45.3368 82.8862 45.6328 82.6579 45.7498 82.2704C45.8048 82.0697 45.7911 81.8829 45.7498 81.6822C45.7222 81.5646 45.6878 81.523 45.7498 81.4192C45.9081 81.1286 46.2591 80.9072 46.5344 80.748C46.7753 80.6027 47.1195 80.3813 47.4086 80.4159L47.1883 80.3536L47.2365 80.3813L47.0851 80.2291C47.0644 80.1875 47.1401 80.1322 47.0851 80.1875C47.0782 80.1945 47.0713 80.2429 47.0644 80.2567C47.03 80.3398 46.9887 80.4159 46.9612 80.4989C46.8923 80.6996 46.8923 80.9072 46.9267 81.1148C46.9887 81.4954 47.1883 81.8344 47.3879 82.1597C47.794 82.8309 48.0211 83.5782 47.8422 84.3601C47.6908 85.0313 46.8786 85.1144 46.3004 85.0867C45.7222 85.059 45.2611 84.8099 44.9582 84.3324C44.7793 84.0487 44.6691 83.7373 44.5866 83.419C44.5453 83.2599 44.4971 83.0869 44.4833 82.9208C44.4833 82.8516 44.5246 82.6994 44.4558 82.7478C44.4076 82.7893 44.5521 82.7824 44.621 82.7963C45.1578 82.9277 45.3919 82.0905 44.8481 81.959L44.8343 81.9797Z" fill="#231815"/>
<path d="M64.0584 76.8043C64.4438 77.261 64.6297 77.8492 64.7536 78.4304C64.8224 78.7556 64.8362 79.0047 64.8981 79.3853C65.2629 81.7865 64.5196 83.288 63.7211 84.2014C62.8126 85.2463 60.9886 85.7722 59.6671 85.4539C55.7232 84.499 55.6199 80.0981 57.8293 78.0706C59.7015 76.3545 60.1214 74.3685 60.2177 73.4967C60.2384 73.3167 60.4586 73.2475 60.5756 73.3721C63.5078 76.396 62.7093 79.2054 63.2944 78.9909C63.4389 78.9355 63.4458 78.9217 63.728 77.9876C63.8037 77.7454 63.8726 77.4617 63.907 76.9773C63.907 76.9773 63.8932 76.6105 64.0584 76.8043Z" fill="white"/>
<path d="M60.5137 85.9862C60.1902 85.9862 59.8736 85.9516 59.5776 85.8824C57.7881 85.4534 56.5216 84.2701 56.1086 82.6371C55.6681 80.9141 56.2463 78.9558 57.5472 77.7587C59.3298 76.1256 59.7153 74.2089 59.7979 73.4616C59.8254 73.2124 59.9906 73.0049 60.2246 72.9218C60.4655 72.8388 60.7202 72.9011 60.8923 73.081C62.6681 74.9147 63.1499 76.7069 63.3426 77.7933C63.4045 77.5649 63.4596 77.3228 63.4871 76.9491C63.4665 76.5547 63.6867 76.4024 63.8175 76.354C63.8932 76.3263 64.1617 76.2502 64.3957 76.5339C64.8775 77.1013 65.0771 77.8417 65.1872 78.3469C65.2354 78.5683 65.2561 78.7482 65.2836 78.9558C65.2974 79.0665 65.3111 79.1842 65.3318 79.3226C65.6484 81.4123 65.2216 83.1492 64.0584 84.4916C63.26 85.4119 61.8352 85.9862 60.5137 85.9862ZM60.5825 74.0082C60.3967 75.0323 59.8254 76.8315 58.1253 78.3953C57.0516 79.3779 56.5767 80.9971 56.9415 82.4157C57.2787 83.7442 58.2905 84.6715 59.7772 85.0313C60.968 85.3219 62.6337 84.8099 63.4045 83.9172C64.3957 82.7755 64.7536 81.2739 64.4783 79.4471C64.4576 79.3018 64.437 79.1772 64.4232 79.0596C64.4026 78.8728 64.3819 78.7136 64.3406 78.5199C64.2924 78.3123 64.2443 78.1185 64.1892 77.9524C64.1754 78.0078 64.1617 78.0562 64.141 78.1116C63.8313 79.1426 63.79 79.2672 63.4527 79.3987C63.2875 79.4609 63.1155 79.4471 62.9709 79.3641C62.6887 79.198 62.6405 78.8866 62.5648 78.3676C62.4203 77.4542 62.1656 75.8004 60.5825 74.0082Z" fill="#231815"/>
<path d="M58.6965 82.4021C58.435 82.3329 58.2285 82.3122 58.1046 82.4852C57.9807 82.6582 57.9945 82.8934 58.0289 83.101C58.2423 84.3327 58.7654 85.3499 60.0318 85.516C60.4999 85.5783 61.3052 85.5298 61.787 85.1769C61.9659 85.0455 62.1311 84.7894 62.1862 84.5818C62.3858 83.8068 62.2757 82.9626 61.8902 82.2568C61.6287 81.7724 61.2226 81.3019 61.2914 80.7552C61.3189 80.5338 61.5392 80.2847 61.4497 80.084C61.3946 79.9595 61.3327 79.9802 61.2639 79.9802C61.2294 79.9802 61.1744 79.9941 61.14 80.001C60.5618 80.1256 59.6395 80.6999 59.3366 81.205C59.0613 81.6617 59.5018 81.8347 59.2334 82.3053C59.2127 82.3399 59.137 82.4713 58.903 82.4575" fill="white"/>
<path d="M58.8067 81.9798C58.4764 81.8968 58.1116 81.8622 57.8431 82.1251C57.5747 82.3881 57.5541 82.7825 57.6022 83.1354C57.6848 83.6959 57.8569 84.2702 58.1529 84.7546C58.8136 85.8272 60.0732 86.1524 61.2571 85.8687C61.9178 85.7095 62.4685 85.2874 62.6268 84.6024C62.792 83.8827 62.7231 83.1077 62.4478 82.4227C62.317 82.0974 62.1243 81.8068 61.9523 81.5023C61.8077 81.2532 61.6632 80.9903 61.7664 80.6997C61.8765 80.3813 62.0004 80.1115 61.7939 79.7932C61.5875 79.4749 61.2227 79.5233 60.9198 79.6133C60.2935 79.7932 59.6327 80.2014 59.1991 80.6927C58.9788 80.9418 58.7999 81.2394 58.8274 81.5854C58.8343 81.7099 58.9031 81.8552 58.9031 81.966C58.9031 81.9244 58.8893 82.1251 58.8687 82.0836C58.8687 82.0836 58.9788 82.0144 58.91 82.0213C58.3594 82.0282 58.3525 82.8932 58.91 82.8863C59.3092 82.8863 59.6052 82.6579 59.7222 82.2704C59.7772 82.0698 59.7635 81.8829 59.7222 81.6823C59.6946 81.5646 59.6602 81.5231 59.7222 81.4193C59.8805 81.1287 60.2315 80.9072 60.5068 80.7481C60.7477 80.6028 61.0919 80.3813 61.381 80.4159L61.1607 80.3537L61.2089 80.3813L61.0575 80.2291C61.0368 80.1876 61.1125 80.1322 61.0575 80.1876C61.0506 80.1945 61.0437 80.243 61.0368 80.2568C61.0024 80.3398 60.9611 80.4159 60.9336 80.499C60.8647 80.6997 60.8647 80.9072 60.8992 81.1148C60.9611 81.4954 61.1607 81.8345 61.3603 82.1597C61.7664 82.8309 61.9935 83.5783 61.8146 84.3602C61.6632 85.0314 60.851 85.1144 60.2728 85.0867C59.6946 85.0591 59.2335 84.81 58.9306 84.3325C58.7517 84.0488 58.6416 83.7374 58.559 83.4191C58.5177 83.2599 58.4695 83.087 58.4557 82.9209C58.4557 82.8517 58.497 82.6994 58.4282 82.7479C58.38 82.7894 58.5245 82.7825 58.5934 82.7963C59.1302 82.9278 59.3643 82.0905 58.8205 81.959L58.8067 81.9798Z" fill="#231815"/>
<path d="M77.6659 76.8042C78.0514 77.2609 78.2372 77.8491 78.3611 78.4304C78.43 78.7556 78.4437 79.0047 78.5057 79.3853C78.8705 81.7864 78.1271 83.288 77.3287 84.2014C76.4201 85.2463 74.5962 85.7722 73.2746 85.4539C69.3307 84.4989 69.2275 80.098 71.4369 78.0705C73.309 76.3544 73.7289 74.3685 73.8253 73.4966C73.8459 73.3167 74.0662 73.2475 74.1832 73.372C77.1153 76.396 76.3169 79.2054 76.9019 78.9908C77.0465 78.9355 77.0534 78.9217 77.3356 77.9875C77.4113 77.7453 77.4801 77.4616 77.5145 76.9772C77.5145 76.9772 77.5008 76.6105 77.6659 76.8042Z" fill="white"/>
<path d="M74.1144 85.9862C73.7909 85.9862 73.4743 85.9516 73.1783 85.8824C71.3888 85.4465 70.1223 84.2632 69.7093 82.6371C69.2688 80.9141 69.847 78.9558 71.1479 77.7587C72.9305 76.1187 73.316 74.2089 73.3986 73.4616C73.4261 73.2124 73.5913 73.0049 73.8322 72.9218C74.0662 72.8388 74.3278 72.9011 74.4999 73.081C76.2757 74.9147 76.7506 76.7069 76.9502 77.7933C77.0121 77.5649 77.0672 77.3228 77.0947 76.9491C77.0741 76.5547 77.2943 76.4024 77.4251 76.354C77.5008 76.3263 77.7693 76.2502 78.0033 76.5339C78.4851 77.1082 78.6847 77.8417 78.7948 78.3538C78.843 78.5752 78.8636 78.7551 78.8912 78.9627C78.9049 79.0734 78.9187 79.1911 78.9394 79.3295C79.256 81.4192 78.8292 83.1561 77.666 84.4985C76.8676 85.4188 75.4428 85.9932 74.1213 85.9932L74.1144 85.9862ZM74.1832 74.0151C73.9974 75.0393 73.433 76.8384 71.726 78.4022C70.6523 79.3848 70.1774 81.004 70.5422 82.4226C70.8794 83.7512 71.8912 84.6784 73.3779 85.0382C74.5756 85.3219 76.2344 84.8168 77.0053 83.9242C77.9964 82.7824 78.3543 81.2808 78.079 79.454C78.0583 79.3087 78.0377 79.1842 78.0239 79.0665C77.9964 78.8797 77.9826 78.7205 77.9413 78.5268C77.8932 78.3192 77.845 78.1254 77.7899 77.9594C77.7761 78.0147 77.7624 78.0632 77.7486 78.1116C77.4389 79.1426 77.3976 79.2672 77.0534 79.3987C76.8882 79.4609 76.7162 79.4471 76.5716 79.3641C76.2894 79.198 76.2412 78.8866 76.1655 78.3676C76.021 77.4542 75.7663 75.8004 74.1832 74.0082V74.0151Z" fill="#231815"/>
<path d="M72.2972 82.4021C72.0357 82.3329 71.8292 82.3122 71.7053 82.4852C71.5814 82.6582 71.5952 82.8934 71.6296 83.101C71.843 84.3327 72.3661 85.3499 73.6325 85.516C74.1006 85.5783 74.9059 85.5298 75.3877 85.1769C75.5666 85.0455 75.7318 84.7894 75.7869 84.5818C75.9865 83.8068 75.8764 82.9626 75.4909 82.2568C75.2294 81.7724 74.8233 81.3019 74.8921 80.7552C74.9196 80.5338 75.1399 80.2847 75.0504 80.084C74.9953 79.9595 74.9334 79.9802 74.8646 79.9802C74.8302 79.9802 74.7751 79.9941 74.7407 80.001C74.1625 80.1256 73.2402 80.6999 72.9373 81.205C72.662 81.6617 73.1025 81.8347 72.8341 82.3053C72.8135 82.3399 72.7377 82.4713 72.5037 82.4575" fill="white"/>
<path d="M72.4073 81.9798C72.077 81.8968 71.7122 81.8622 71.4437 82.1251C71.1753 82.3881 71.1546 82.7825 71.2028 83.1354C71.2854 83.6959 71.4575 84.2702 71.7535 84.7546C72.4142 85.8272 73.6738 86.1524 74.8577 85.8687C75.5184 85.7095 76.0691 85.2874 76.2274 84.6024C76.3926 83.8827 76.3237 83.1077 76.0484 82.4227C75.9176 82.0974 75.7249 81.8068 75.5528 81.5023C75.4083 81.2532 75.2638 80.9903 75.367 80.6997C75.4771 80.3813 75.601 80.1115 75.3945 79.7932C75.188 79.4749 74.8232 79.5233 74.5204 79.6133C73.894 79.7932 73.2333 80.2014 72.7997 80.6927C72.5794 80.9418 72.4005 81.2394 72.428 81.5854C72.4349 81.7099 72.5037 81.8552 72.5037 81.966C72.5037 81.9244 72.4899 82.1251 72.4693 82.0836C72.4693 82.0836 72.5794 82.0144 72.5106 82.0213C71.9599 82.0282 71.9531 82.8932 72.5106 82.8863C72.9098 82.8863 73.2058 82.6579 73.3228 82.2704C73.3778 82.0698 73.3641 81.8829 73.3228 81.6823C73.2952 81.5646 73.2608 81.5231 73.3228 81.4193C73.4811 81.1287 73.8321 80.9072 74.1074 80.7481C74.3483 80.6028 74.6925 80.3813 74.9816 80.4159L74.7613 80.3537L74.8095 80.3813L74.6581 80.2291C74.6374 80.1876 74.7131 80.1322 74.6581 80.1876C74.6512 80.1945 74.6443 80.243 74.6374 80.2568C74.603 80.3398 74.5617 80.4159 74.5342 80.499C74.4653 80.6997 74.4653 80.9072 74.4997 81.1148C74.5617 81.4954 74.7613 81.8345 74.9609 82.1597C75.367 82.8309 75.5941 83.5783 75.4152 84.3602C75.2638 85.0314 74.4516 85.1144 73.8734 85.0867C73.2952 85.0591 72.8341 84.81 72.5312 84.3325C72.3523 84.0488 72.2421 83.7374 72.1595 83.4191C72.1183 83.2599 72.0701 83.087 72.0563 82.9209C72.0563 82.8517 72.0976 82.6994 72.0288 82.7479C71.9806 82.7894 72.1251 82.7825 72.194 82.7963C72.7308 82.9278 72.9649 82.0905 72.4211 81.959L72.4073 81.9798Z" fill="#231815"/>
<path d="M32.8449 70.7024C32.865 69.0656 33.0051 64.2694 33.3921 62.7198C34.1194 59.8555 35.1202 57.8297 37.0819 55.1129C37.8025 54.1201 40.0911 52.1212 40.9919 51.4906C46.5367 47.5865 54.5902 46.6474 61.2359 46.7346C68.0551 46.7346 75.8484 48.4921 81.113 52.7718C81.967 53.4695 84.1222 55.616 84.7694 56.6558C86.5443 59.5 87.6119 61.5593 87.9388 64.4975C88.0589 65.5439 88.1723 68.8644 88.0856 70.5011" fill="white"/>
<path d="M86.896 33.0021C86.7652 32.9813 86.2559 33.1197 86.0494 33.1682C74.1212 36.2474 62.7575 38.1573 50.5403 38.524C50.0998 38.5448 49.7281 39.0084 49.673 39.4444C49.5767 40.254 49.7832 41.0912 50.2512 41.7625C50.3889 41.9631 50.6779 42.2122 50.8913 42.3299C51.0703 42.4267 51.2699 42.5167 51.4626 42.5444C53.204 42.7935 55.7576 42.8558 57.5334 42.7381H57.6091C57.9807 42.7035 58.0289 42.7105 58.0427 42.918V46.1496C58.0565 46.3295 58.201 46.4748 58.38 46.4748L63.9896 46.5578C64.1685 46.5578 64.5195 46.8069 64.5333 46.627V42.8281C64.5333 42.8281 64.5264 42.8143 64.5264 42.8073V42.6759C64.5264 42.489 64.554 42.4683 64.7329 42.4683H65.4763C72.8479 42.4683 79.4005 40.8491 86.4486 39.2022C86.5037 39.1883 86.7514 39.1053 86.7927 39.0638C87.13 38.7593 87.2264 38.358 87.3571 38.0189C87.6325 37.3062 87.6462 36.4274 87.6875 35.6662C87.7288 34.905 87.6049 33.8671 87.1851 33.2305" fill="#231815"/>
<path d="M32.5483 70.6938C32.5345 68.3827 32.4588 65.9192 32.9406 63.6496C33.5601 60.7502 34.8954 57.8024 36.7744 55.5051C40.271 51.2148 45.4538 48.959 50.7399 47.8657C54.0988 47.1737 57.5265 46.9039 60.9473 46.8762C61.6563 46.8762 61.6632 45.7621 60.9473 45.7621H60.7202V46.8762C66.6258 46.7793 72.7791 47.7896 78.0239 50.6198C82.5735 53.0763 86.4693 57.3596 87.8252 62.4455C88.4997 64.9643 88.5204 67.7945 88.4447 70.3894C88.424 71.109 89.5322 71.1021 89.5528 70.3894C89.6285 67.9813 89.5735 65.4349 89.1054 63.0614C88.5548 60.2658 87.0819 57.408 85.2992 55.2075C81.7476 50.8273 76.6473 48.2117 71.2511 46.897C67.8096 46.0597 64.258 45.6998 60.7202 45.7621C60.0112 45.776 60.0044 46.8762 60.7202 46.8762H60.9473V45.7621C54.7183 45.8106 48.1726 46.5856 42.563 49.4711C37.5453 52.0521 33.7666 56.6191 32.2042 62.0719C31.4057 64.8467 31.4195 67.8222 31.4402 70.6938C31.4402 71.4066 32.5483 71.4135 32.5483 70.6938Z" fill="#231815"/>
<path d="M35.1363 70.6935C35.0675 68.1125 35.2877 65.3654 36.0586 62.895C36.9465 60.0303 38.5778 57.6153 40.7597 55.5947C43.0379 53.4911 45.9288 52.1418 48.8816 51.2976C50.5472 50.8201 52.2542 50.488 53.9749 50.2735C54.7114 50.1835 55.4548 50.1074 56.1981 50.059C56.6386 50.0244 57.6367 49.796 57.9808 50.0382C58.1735 50.1766 58.3456 50.571 58.4764 50.7648L59.3505 52.038C59.674 52.5085 59.97 53.0898 60.3692 53.505C61.6976 54.8889 63.0053 52.0518 63.5835 51.2076C63.7969 50.8962 63.9965 50.5503 64.2374 50.2527C64.5471 49.8721 64.6779 49.969 65.2354 49.9967C66.8736 50.0866 68.5117 50.2665 70.1154 50.5987C73.2334 51.2422 76.1587 52.5016 78.7466 54.3699C81.3209 56.2313 83.3169 58.7086 84.5145 61.6702C85.6434 64.4727 85.9531 67.6835 85.8705 70.6935C85.8567 71.3094 86.8134 71.3094 86.8272 70.6935C86.9029 67.9879 86.6551 65.1024 85.8361 62.5144C84.9138 59.622 83.2825 57.124 81.08 55.0619C78.8981 53.0137 76.2275 51.4775 73.4055 50.5018C71.8706 49.969 70.2737 49.6092 68.67 49.3739C67.906 49.2632 67.1351 49.1732 66.3642 49.111C65.7035 49.0556 64.7192 48.8203 64.0929 49.0902C63.5009 49.3462 63.1086 50.225 62.7644 50.7232L61.9247 51.948C61.7802 52.1556 61.5393 52.7092 61.319 52.8338C60.9611 53.0344 60.4036 51.865 60.1902 51.5536C59.7291 50.8824 59.2954 50.1627 58.793 49.5192C58.0703 48.592 56.384 49.0764 55.3722 49.1663C53.6583 49.3255 51.9445 49.5746 50.2581 49.9552C46.9819 50.7025 43.7606 51.9826 41.0901 54.0655C38.6122 55.9961 36.7469 58.4941 35.5768 61.4211C34.4274 64.2928 34.1039 67.6143 34.1865 70.7004C34.2002 71.3163 35.157 71.3232 35.1432 70.7004L35.1363 70.6935Z" fill="#231815"/>
<path d="M60.5068 71.3307H26.9181C26.746 71.3307 26.5877 71.227 26.5189 71.0678L23.0361 62.8403C22.9398 62.6188 23.043 62.3628 23.2633 62.2729C23.4835 62.1829 23.7382 62.2798 23.8277 62.5012L27.1934 70.4589H60.5068C60.7478 70.4589 60.9405 70.6526 60.9405 70.8948C60.9405 71.137 60.7478 71.3307 60.5068 71.3307Z" fill="#231815"/>
<path d="M94.0956 71.3302H60.5069C60.266 71.3302 60.0732 71.1365 60.0732 70.8943C60.0732 70.6521 60.266 70.4583 60.5069 70.4583H93.8065L97.1723 62.5007C97.2687 62.2792 97.5233 62.1754 97.7367 62.2723C97.9569 62.3692 98.0602 62.6183 97.9638 62.8397L94.4811 71.0603C94.4122 71.2195 94.2539 71.3233 94.0819 71.3233L94.0956 71.3302Z" fill="#231815"/>
<path d="M74.0519 67.352L74.5888 67.8986C74.6989 68.0093 74.8916 67.9678 74.9398 67.8225L75.2633 66.9299L75.5455 66.1479C75.6075 65.9749 75.4423 65.8089 75.2702 65.8712L74.4855 66.1479L73.5976 66.4593C73.4462 66.5147 73.4049 66.7015 73.515 66.8122L74.0519 67.3589V67.352Z" fill="#231815"/>
<path d="M74.1413 67.2966C74.1413 67.2966 73.6251 68.4037 71.7598 69.3171L74.1413 67.2966Z" fill="#DF6764"/>
<path d="M71.7598 69.6567C71.6359 69.6567 71.5189 69.5875 71.4639 69.4698C71.3813 69.3038 71.4501 69.1031 71.6153 69.02C73.336 68.1758 73.8385 67.1656 73.8454 67.1517C73.928 66.9856 74.1207 66.9164 74.2859 66.9926C74.4511 67.0687 74.5199 67.2694 74.4442 67.4354C74.4235 67.4839 73.8591 68.6602 71.9044 69.6151C71.8562 69.6359 71.808 69.6497 71.7598 69.6497V69.6567Z" fill="#231815"/>
<path d="M76.606 60.591L77.3494 60.4249C77.5008 60.3903 77.5697 60.2035 77.4733 60.0789L76.8951 59.3316L76.3858 58.6742C76.2757 58.5289 76.0485 58.5843 76.0072 58.7572L75.8214 59.5738L75.608 60.501C75.5736 60.6532 75.7113 60.7916 75.8627 60.757L76.606 60.591Z" fill="#231815"/>
<path d="M76.2414 63.8989C76.2001 63.8989 76.1519 63.8919 76.1106 63.8712C75.9386 63.802 75.8628 63.6013 75.9317 63.4352C76.3653 62.4042 76.3997 60.9718 76.2827 60.6812C76.1726 60.5705 76.145 60.3975 76.2345 60.2591C76.3309 60.0999 76.5374 60.0584 76.6957 60.1553C77.2394 60.5013 76.9985 62.6118 76.5511 63.6913C76.4961 63.8158 76.3722 63.8989 76.2414 63.8989Z" fill="#231815"/>
<path d="M72.593 54.4878L72.7995 53.7543C72.8408 53.6021 72.71 53.4568 72.5586 53.4844L71.6294 53.6436L70.8103 53.782C70.6314 53.8097 70.5694 54.038 70.7071 54.1556L71.3334 54.7023L72.0492 55.3251C72.1663 55.4289 72.3521 55.3735 72.3934 55.2213L72.5999 54.4878H72.593Z" fill="#231815"/>
<path d="M74.9401 56.5429C74.823 56.5429 74.7129 56.4806 74.651 56.3699C73.887 54.9721 72.3521 54.7645 72.3314 54.7576C72.1525 54.7368 72.0217 54.5707 72.0423 54.3839C72.063 54.1971 72.2351 54.0656 72.414 54.0933C72.4897 54.1002 74.2999 54.3355 75.236 56.0446C75.3255 56.2038 75.2636 56.4114 75.1052 56.5013C75.0571 56.529 75.002 56.5429 74.9469 56.5429H74.9401Z" fill="#231815"/>
<path d="M66.1919 55.6708L65.5794 55.221C65.4555 55.1242 65.2696 55.2003 65.2421 55.3525L65.0631 56.2867L64.9048 57.1101C64.8704 57.29 65.0563 57.4284 65.2146 57.3385L65.9441 56.944L66.777 56.4943C66.9146 56.4181 66.9284 56.2244 66.8045 56.1275L66.1919 55.6777V55.6708Z" fill="#231815"/>
<path d="M66.0611 56.1902C66.006 56.1902 65.9578 56.1764 65.9096 56.1556C65.7444 56.0726 65.6825 55.865 65.7651 55.7058C65.7995 55.6366 66.6599 54.0174 68.5733 53.7406C68.7454 53.7199 68.9244 53.8375 68.9519 54.0244C68.9794 54.2043 68.8486 54.3773 68.6697 54.4049C67.0866 54.6333 66.3639 56.0034 66.357 56.0172C66.2951 56.1349 66.185 56.1971 66.0611 56.1971V56.1902Z" fill="#231815"/>
<path d="M64.8288 63.4002L64.2438 63.8846C64.1199 63.9884 64.1474 64.1822 64.2919 64.2444L65.1454 64.6458L65.8957 64.9987C66.0609 65.0748 66.2398 64.9295 66.1916 64.7496L65.9851 63.94L65.7511 63.0197C65.7098 62.8674 65.5309 62.8051 65.407 62.9089L64.8219 63.3933L64.8288 63.4002Z" fill="#231815"/>
<path d="M64.9738 63.9056C64.8981 63.9056 64.8155 63.8779 64.7536 63.8225C64.6985 63.7741 63.3426 62.5424 63.5422 60.6048C63.5628 60.4249 63.728 60.2865 63.907 60.3073C64.0928 60.3281 64.2236 60.4872 64.2029 60.674C64.0377 62.2587 65.1803 63.3105 65.1941 63.3243C65.3317 63.4488 65.3455 63.6564 65.2216 63.7948C65.1528 63.871 65.0633 63.9056 64.9738 63.9056Z" fill="#231815"/>
<path d="M46.9542 67.3518L46.4174 67.8985C46.3073 68.0092 46.1145 67.9677 46.0663 67.8224L45.7429 66.9297L45.4607 66.1478C45.3987 65.9748 45.5639 65.8088 45.736 65.871L46.5206 66.1478L47.4085 66.4592C47.5599 66.5146 47.6012 66.7014 47.4911 66.8121L46.9542 67.3588V67.3518Z" fill="#231815"/>
<path d="M46.8718 67.2971C46.8718 67.2971 47.388 68.4042 49.2533 69.3176L46.8718 67.2971Z" fill="#DF6764"/>
<path d="M49.2534 69.6566C49.2053 69.6566 49.1571 69.6427 49.1089 69.622C47.161 68.6671 46.5966 67.4907 46.5691 67.4423C46.4934 67.2762 46.5691 67.0755 46.7274 66.9994C46.8926 66.9233 47.0922 66.9925 47.1679 67.1586C47.1679 67.1724 47.6772 68.1827 49.398 69.0269C49.5632 69.1099 49.632 69.3106 49.5494 69.4767C49.4943 69.5943 49.3704 69.6635 49.2534 69.6635V69.6566Z" fill="#231815"/>
<path d="M44.4007 60.5909L43.6573 60.4248C43.5059 60.3902 43.4371 60.2034 43.5335 60.0788L44.1116 59.3315L44.621 58.6741C44.7311 58.5288 44.9582 58.5842 44.9995 58.7572L45.1854 59.5737L45.3987 60.501C45.4331 60.6532 45.2955 60.7916 45.1441 60.757L44.4007 60.5909Z" fill="#231815"/>
<path d="M44.7722 63.8988C44.6414 63.8988 44.5175 63.8227 44.4625 63.6912C44.0082 62.6117 43.7742 60.5012 44.3179 60.1552C44.4693 60.0584 44.6758 60.0999 44.7791 60.259C44.8617 60.3974 44.841 60.5704 44.7309 60.6811C44.6139 60.9718 44.6483 62.3972 45.0819 63.4352C45.1507 63.6082 45.075 63.8019 44.903 63.8711C44.8617 63.8919 44.8204 63.8988 44.7722 63.8988Z" fill="#231815"/>
<path d="M48.4135 54.4877L48.207 53.7542C48.1657 53.602 48.2965 53.4567 48.4479 53.4844L49.3771 53.6435L50.1962 53.7819C50.3752 53.8096 50.4371 54.0379 50.2994 54.1556L49.6731 54.7022L48.9573 55.325C48.8403 55.4288 48.6544 55.3734 48.6131 55.2212L48.4066 54.4877H48.4135Z" fill="#231815"/>
<path d="M46.0663 56.5431C46.0113 56.5431 45.9562 56.5293 45.908 56.5016C45.7497 56.4117 45.6878 56.211 45.7773 56.0449C46.7133 54.3427 48.5167 54.1074 48.5993 54.0936C48.7782 54.0659 48.9434 54.2043 48.9709 54.3842C48.9916 54.5641 48.8608 54.7302 48.6819 54.7579C48.6681 54.7579 47.1332 54.9654 46.3623 56.3701C46.3004 56.4809 46.1902 56.5431 46.0732 56.5431H46.0663Z" fill="#231815"/>
<path d="M54.8214 55.6707L55.434 55.221C55.5579 55.1241 55.7437 55.2002 55.7712 55.3524L55.9502 56.2866L56.1085 57.1101C56.1429 57.29 55.9571 57.4284 55.7988 57.3384L55.0692 56.944L54.2363 56.4942C54.0987 56.4181 54.0849 56.2243 54.2088 56.1274L54.8214 55.6777V55.6707Z" fill="#231815"/>
<path d="M54.9521 56.1901C54.8351 56.1901 54.7181 56.1278 54.6561 56.0102C54.6492 55.9963 53.9128 54.6262 52.3435 54.3979C52.1645 54.3702 52.0337 54.2041 52.0613 54.0173C52.0888 53.8304 52.2677 53.7128 52.4398 53.7336C54.3602 54.0104 55.2136 55.6296 55.2481 55.6988C55.3306 55.8648 55.2687 56.0655 55.1035 56.1485C55.0553 56.1762 55.0003 56.1901 54.9521 56.1901Z" fill="#231815"/>
<path d="M56.1774 63.4001L56.7625 63.8845C56.8864 63.9883 56.8588 64.182 56.7143 64.2443L55.8608 64.6457L55.1106 64.9986C54.9454 65.0747 54.7664 64.9294 54.8146 64.7495L55.0211 63.9398L55.2551 63.0195C55.2964 62.8673 55.4754 62.805 55.5992 62.9088L56.1843 63.3932L56.1774 63.4001Z" fill="#231815"/>
<path d="M56.0329 63.9055C55.9434 63.9055 55.847 63.8709 55.7851 63.7948C55.6612 63.6564 55.675 63.4488 55.8126 63.3242C55.8264 63.3104 56.969 62.2586 56.8038 60.674C56.7831 60.4872 56.9208 60.328 57.0997 60.3072C57.2787 60.2865 57.4439 60.4249 57.4645 60.6048C57.6641 62.5423 56.3151 63.774 56.2531 63.8225C56.1912 63.8778 56.1086 63.9055 56.0329 63.9055Z" fill="#231815"/>
</svg>
