<svg width="164" height="152" viewBox="0 0 164 152" fill="none" xmlns="http://www.w3.org/2000/svg">
<rect x="0.5" y="0.5" width="119" height="119" rx="59.5" fill="white" stroke="black"/>
<path d="M50.0837 76.8154C50.4691 77.2722 50.655 77.8605 50.7788 78.4419C50.8477 78.7672 50.8614 79.0164 50.9234 79.3971C51.2881 81.7989 50.5448 83.3008 49.7465 84.2145C48.838 85.2596 47.0142 85.7857 45.6928 85.4673C41.7493 84.5121 41.646 80.11 43.8552 78.082C45.7272 76.3655 46.1471 74.379 46.2434 73.5069C46.2641 73.3269 46.4843 73.2577 46.6013 73.3823C49.5331 76.407 48.7348 79.2171 49.3198 79.0026C49.4643 78.9472 49.4712 78.9334 49.7534 77.999C49.8291 77.7567 49.8979 77.4729 49.9323 76.9884C49.9323 76.9884 49.9186 76.6216 50.0837 76.8154Z" fill="white"/>
<path d="M46.5326 85.9932C46.2091 85.9932 45.8926 85.9586 45.5966 85.8894C43.8072 85.4603 42.5409 84.2767 42.1279 82.6432C41.6875 80.9198 42.2656 78.961 43.5663 77.7636C45.3489 76.1301 45.7343 74.2128 45.8168 73.4653C45.8444 73.2161 46.0096 73.0085 46.2436 72.9254C46.4776 72.8424 46.7391 72.9047 46.9111 73.0846C48.6868 74.9188 49.1616 76.7115 49.3612 77.7982C49.4232 77.5698 49.4782 77.3275 49.5058 76.9537C49.4851 76.5592 49.7054 76.4069 49.8361 76.3585C49.9118 76.3308 50.1802 76.2547 50.4142 76.5385C50.896 77.1129 51.0956 77.8535 51.2057 78.3588C51.2539 78.5803 51.2745 78.7603 51.302 78.9679C51.3158 79.0787 51.3296 79.1963 51.3502 79.3347C51.6668 81.425 51.2401 83.1623 50.077 84.5051C49.2786 85.4257 47.854 86.0002 46.5395 86.0002L46.5326 85.9932ZM46.6014 74.019C46.4156 75.0434 45.8444 76.843 44.1444 78.4073C43.0708 79.3901 42.5959 81.0098 42.9538 82.4287C43.291 83.7576 44.3027 84.6851 45.7893 85.045C46.98 85.3357 48.6455 84.8235 49.4163 83.9306C50.4073 82.7886 50.7652 81.2866 50.4899 79.4593C50.4693 79.314 50.4486 79.1894 50.4349 79.0717C50.4142 78.8848 50.3936 78.7257 50.3523 78.5318C50.311 78.3242 50.2559 78.1304 50.2009 77.9643C50.1871 78.0197 50.1733 78.0681 50.1596 78.1166C49.8499 79.1479 49.8086 79.2725 49.4714 79.404C49.2993 79.4663 49.1341 79.4524 48.9896 79.3693C48.7074 79.2032 48.6592 78.8918 48.5835 78.3727C48.439 77.459 48.1844 75.8048 46.6014 74.0121V74.019Z" fill="#231815"/>
<path d="M44.7156 82.4147C44.4541 82.3455 44.2476 82.3247 44.1238 82.4977C43.9999 82.6708 44.0136 82.9061 44.048 83.1137C44.2614 84.3458 44.7845 85.3632 46.0508 85.5293C46.5188 85.5916 47.324 85.5432 47.8058 85.1902C47.9847 85.0587 48.1499 84.8026 48.205 84.5949C48.4046 83.8197 48.2944 82.9753 47.909 82.2693C47.6475 81.7848 47.2414 81.3142 47.3103 80.7674C47.3378 80.5459 47.558 80.2967 47.4686 80.096C47.4135 79.9714 47.3516 79.9921 47.2827 79.9921C47.2483 79.9921 47.1933 80.006 47.1589 80.0129C46.5807 80.1375 45.6585 80.712 45.3557 81.2173C45.0804 81.6741 45.5209 81.8471 45.2525 82.3178C45.2318 82.3524 45.1561 82.4839 44.9221 82.47" fill="white"/>
<path d="M44.8328 81.9927C44.5024 81.9096 44.1377 81.875 43.8692 82.138C43.6008 82.4011 43.5802 82.7956 43.6284 83.1486C43.711 83.7092 43.883 84.2837 44.1789 84.7682C44.8397 85.8411 46.0991 86.1664 47.2829 85.8826C47.9436 85.7234 48.4942 85.3012 48.6524 84.6159C48.8176 83.8961 48.7488 83.1209 48.4735 82.4357C48.3427 82.1104 48.15 81.8197 47.978 81.5151C47.8335 81.2659 47.6889 81.0029 47.7922 80.7122C47.9023 80.3938 48.0262 80.1239 47.8197 79.8055C47.6132 79.4871 47.2485 79.5356 46.9456 79.6255C46.3193 79.8055 45.6586 80.2139 45.2251 80.7053C45.0048 80.9545 44.8259 81.2521 44.8534 81.5982C44.8603 81.7228 44.9291 81.8681 44.9291 81.9789C44.9291 81.9373 44.9154 82.1381 44.8947 82.0965C44.8947 82.0965 45.0048 82.0273 44.936 82.0342C44.3854 82.0411 44.3785 82.9063 44.936 82.8994C45.3352 82.8994 45.6311 82.671 45.7481 82.2834C45.8032 82.0827 45.7894 81.8958 45.7481 81.6951C45.7206 81.5774 45.6862 81.5359 45.7481 81.4321C45.9064 81.1414 46.2574 80.9199 46.5327 80.7607C46.7736 80.6153 47.1177 80.3938 47.4068 80.4284L47.1865 80.3661L47.2347 80.3938L47.0833 80.2416C47.0626 80.2 47.1383 80.1447 47.0833 80.2C47.0764 80.207 47.0695 80.2554 47.0626 80.2692C47.0282 80.3523 46.9869 80.4284 46.9594 80.5115C46.8906 80.7122 46.8906 80.9199 46.925 81.1275C46.9869 81.5082 47.1865 81.8473 47.3861 82.1727C47.7922 82.844 48.0193 83.5916 47.8403 84.3737C47.6889 85.0451 46.8768 85.1281 46.2987 85.1005C45.7206 85.0728 45.2595 84.8236 44.9566 84.346C44.7777 84.0622 44.6676 83.7508 44.585 83.4324C44.5437 83.2732 44.4955 83.1001 44.4818 82.934C44.4818 82.8648 44.5231 82.7125 44.4542 82.761C44.4061 82.8025 44.5506 82.7956 44.6194 82.8094C45.1562 82.9409 45.3902 82.1034 44.8465 81.9719L44.8328 81.9927Z" fill="#231815"/>
<path d="M64.055 76.8156C64.4404 77.2724 64.6262 77.8607 64.7501 78.4421C64.8189 78.7674 64.8327 79.0166 64.8946 79.3973C65.2594 81.799 64.5161 83.301 63.7177 84.2147C62.8093 85.2598 60.9855 85.7858 59.6641 85.4674C55.7205 84.5123 55.6173 80.1102 57.8265 78.0822C59.6985 76.3657 60.1183 74.3792 60.2147 73.5071C60.2353 73.3271 60.4555 73.2579 60.5725 73.3825C63.5044 76.4072 62.706 79.2173 63.291 79.0028C63.4356 78.9474 63.4425 78.9335 63.7246 77.9991C63.8003 77.7569 63.8692 77.4731 63.9036 76.9886C63.9036 76.9886 63.8898 76.6218 64.055 76.8156Z" fill="white"/>
<path d="M60.5104 86.0001C60.187 86.0001 59.8704 85.9655 59.5745 85.8894C57.7851 85.4602 56.5187 84.2766 56.1058 82.6432C55.6653 80.9197 56.2434 78.9609 57.5442 77.7635C59.3267 76.1231 59.7121 74.2128 59.7947 73.4652C59.8222 73.2161 59.9874 73.0084 60.2214 72.9254C60.4554 72.8423 60.7169 72.9046 60.889 73.0846C62.6646 74.9188 63.1464 76.7114 63.3391 77.7981C63.401 77.5697 63.4561 77.3274 63.4836 76.9537C63.463 76.5592 63.6832 76.4069 63.814 76.3584C63.8897 76.3307 64.1581 76.2546 64.3921 76.5315C64.8738 77.106 65.0734 77.8466 65.1835 78.3518C65.2317 78.5733 65.2524 78.7602 65.2799 78.9748C65.2937 79.0855 65.3074 79.2032 65.3281 79.3347C65.6447 81.425 65.218 83.1623 64.0548 84.5051C63.2565 85.4256 61.8319 86.0001 60.5173 86.0001H60.5104ZM60.5793 74.019C60.3934 75.0433 59.8291 76.8429 58.1223 78.4072C57.0486 79.3901 56.5738 81.0097 56.9385 82.4286C57.2758 83.7575 58.2875 84.685 59.774 85.0449C60.9716 85.3356 62.6302 84.8234 63.401 83.9306C64.3921 82.7885 64.75 81.2865 64.4747 79.4593C64.454 79.3139 64.4402 79.1963 64.4196 79.0786C64.3921 78.8917 64.3714 78.7256 64.3301 78.5318C64.2888 78.3241 64.2338 78.1303 64.1787 77.9642C64.165 78.0196 64.1512 78.068 64.1374 78.1165C63.8277 79.1478 63.7864 79.2724 63.4423 79.4039C63.2771 79.4662 63.1051 79.4523 62.9606 79.3693C62.6784 79.2032 62.6302 78.8917 62.5545 78.3726C62.41 77.459 62.1553 75.8047 60.5724 74.012L60.5793 74.019Z" fill="#231815"/>
<path d="M58.6935 82.4146C58.432 82.3454 58.2255 82.3246 58.1016 82.4977C57.9777 82.6707 57.9915 82.906 58.0259 83.1137C58.2393 84.3457 58.7623 85.3632 60.0287 85.5293C60.4967 85.5916 61.3019 85.5431 61.7836 85.1901C61.9626 85.0586 62.1278 84.8025 62.1828 84.5949C62.3824 83.8197 62.2723 82.9753 61.8869 82.2693C61.6254 81.7848 61.2193 81.3141 61.2881 80.7673C61.3157 80.5458 61.5359 80.2966 61.4464 80.0959C61.3914 79.9713 61.3294 79.9921 61.2606 79.9921C61.2262 79.9921 61.1711 80.0059 61.1367 80.0128C60.5586 80.1374 59.6364 80.7119 59.3335 81.2172C59.0583 81.674 59.4987 81.847 59.2303 82.3177C59.2097 82.3523 59.134 82.4838 58.9 82.47" fill="white"/>
<path d="M58.8035 81.9928C58.4732 81.9097 58.1084 81.8751 57.84 82.1381C57.5716 82.4011 57.5509 82.7957 57.5991 83.1486C57.6817 83.7093 57.8538 84.2838 58.1497 84.7683C58.8104 85.8411 60.0699 86.1664 61.2536 85.8826C61.9143 85.7235 62.4649 85.3012 62.6232 84.616C62.7884 83.8962 62.7195 83.121 62.4443 82.4357C62.3135 82.1104 62.1208 81.8197 61.9487 81.5152C61.8042 81.266 61.6597 81.003 61.7629 80.7123C61.873 80.3939 61.9969 80.124 61.7904 79.8056C61.584 79.4872 61.2192 79.5356 60.9164 79.6256C60.2901 79.8056 59.6294 80.2139 59.1958 80.7054C58.9756 80.9545 58.7966 81.2522 58.8242 81.5982C58.831 81.7228 58.8999 81.8682 58.8999 81.9789C58.8999 81.9374 58.8861 82.1381 58.8655 82.0966C58.8655 82.0966 58.9756 82.0274 58.9067 82.0343C58.3562 82.0412 58.3493 82.9064 58.9067 82.8995C59.3059 82.8995 59.6019 82.6711 59.7189 82.2835C59.7739 82.0827 59.7602 81.8959 59.7189 81.6951C59.6913 81.5775 59.6569 81.5359 59.7189 81.4321C59.8771 81.1414 60.2281 80.9199 60.5034 80.7607C60.7443 80.6154 61.0884 80.3939 61.3775 80.4285L61.1573 80.3662L61.2054 80.3939L61.054 80.2416C61.0334 80.2001 61.1091 80.1447 61.054 80.2001C61.0471 80.207 61.0403 80.2555 61.0334 80.2693C60.999 80.3524 60.9577 80.4285 60.9301 80.5116C60.8613 80.7123 60.8613 80.9199 60.8957 81.1276C60.9577 81.5083 61.1573 81.8474 61.3568 82.1727C61.7629 82.8441 61.99 83.5916 61.8111 84.3738C61.6597 85.0451 60.8476 85.1282 60.2694 85.1005C59.6913 85.0728 59.2302 84.8237 58.9274 84.3461C58.7485 84.0623 58.6383 83.7508 58.5557 83.4324C58.5145 83.2732 58.4663 83.1002 58.4525 82.9341C58.4525 82.8649 58.4938 82.7126 58.425 82.761C58.3768 82.8026 58.5213 82.7957 58.5902 82.8095C59.127 82.941 59.361 82.1035 58.8173 81.972L58.8035 81.9928Z" fill="#231815"/>
<path d="M77.661 76.8156C78.0464 77.2724 78.2322 77.8607 78.3561 78.4421C78.4249 78.7674 78.4387 79.0166 78.5007 79.3973C78.8654 81.799 78.1221 83.301 77.3238 84.2147C76.4153 85.2598 74.5915 85.7858 73.2701 85.4674C69.3265 84.5123 69.2233 80.1102 71.4325 78.0822C73.3045 76.3657 73.7243 74.3792 73.8207 73.5071C73.8413 73.3271 74.0616 73.2579 74.1786 73.3825C77.1104 76.4072 76.3121 79.2173 76.8971 79.0028C77.0416 78.9474 77.0485 78.9335 77.3307 77.9991C77.4064 77.7569 77.4752 77.4731 77.5096 76.9886C77.5096 76.9886 77.4958 76.6218 77.661 76.8156Z" fill="white"/>
<path d="M74.1099 86.0001C73.7864 86.0001 73.4698 85.9655 73.1739 85.8894C71.3845 85.4602 70.1181 84.2766 69.7052 82.6432C69.2647 80.9197 69.8429 78.954 71.1436 77.7635C72.9261 76.1231 73.3115 74.2128 73.3941 73.4652C73.4217 73.2161 73.5868 73.0084 73.8208 72.9254C74.0617 72.8423 74.3164 72.9046 74.4884 73.0846C76.264 74.9188 76.7389 76.7114 76.9385 77.7981C77.0005 77.5697 77.0555 77.3274 77.083 76.9537C77.0624 76.5592 77.2826 76.4069 77.4134 76.3584C77.4891 76.3307 77.7575 76.2546 77.9915 76.5384C78.4733 77.1129 78.6729 77.8466 78.783 78.3587C78.8312 78.5802 78.8518 78.7602 78.8793 78.9678C78.8931 79.0786 78.9069 79.1963 78.9275 79.3347C79.2441 81.425 78.8174 83.1623 77.6543 84.5051C76.8559 85.4256 75.4313 86.0001 74.1168 86.0001H74.1099ZM74.1787 74.0259C73.9929 75.0503 73.4217 76.8499 71.7217 78.4141C70.6481 79.397 70.1732 81.0166 70.538 82.4355C70.8752 83.7644 71.8869 84.6919 73.3735 85.0518C74.5641 85.3425 76.2296 84.8304 77.0005 83.9375C77.9915 82.7954 78.3494 81.2935 78.0741 79.4662C78.0534 79.3208 78.0328 79.1963 78.019 79.0786C77.9915 78.8917 77.9777 78.7325 77.9365 78.5387C77.8883 78.3311 77.8401 78.1373 77.785 77.9711C77.7713 78.0265 77.7575 78.075 77.7369 78.1234C77.4272 79.1547 77.3927 79.2793 77.0486 79.4108C76.8766 79.4731 76.7114 79.4593 76.5669 79.3762C76.2847 79.2101 76.2365 78.8986 76.1608 78.3795C76.0163 77.4659 75.7616 75.8116 74.1787 74.019V74.0259Z" fill="#231815"/>
<path d="M72.2927 82.4147C72.0311 82.3455 71.8247 82.3248 71.7008 82.4978C71.5769 82.6708 71.5907 82.9062 71.6251 83.1138C71.8384 84.3458 72.3615 85.3633 73.6278 85.5294C74.0958 85.5917 74.901 85.5433 75.3828 85.1903C75.5617 85.0587 75.7269 84.8027 75.782 84.595C75.9816 83.8198 75.8715 82.9754 75.486 82.2694C75.2245 81.7849 74.8185 81.3142 74.8873 80.7674C74.9148 80.5459 75.135 80.2968 75.0456 80.096C74.9905 79.9714 74.9286 79.9922 74.8598 79.9922C74.8253 79.9922 74.7703 80.006 74.7359 80.013C74.1578 80.1376 73.2355 80.712 72.9327 81.2173C72.6574 81.6741 73.0979 81.8472 72.8295 82.3178C72.8088 82.3524 72.7331 82.4839 72.4991 82.4701" fill="white"/>
<path d="M72.4029 81.9928C72.0726 81.9097 71.7078 81.8751 71.4394 82.1381C71.171 82.4011 71.1504 82.7957 71.1985 83.1486C71.2811 83.7093 71.4532 84.2838 71.7491 84.7683C72.4098 85.8411 73.6693 86.1664 74.853 85.8826C75.5138 85.7235 76.0643 85.3012 76.2226 84.616C76.3878 83.8962 76.319 83.121 76.0437 82.4357C75.9129 82.1104 75.7202 81.8197 75.5482 81.5152C75.4036 81.266 75.2591 81.003 75.3623 80.7123C75.4725 80.3939 75.5963 80.124 75.3899 79.8056C75.1834 79.4872 74.8186 79.5356 74.5158 79.6256C73.8895 79.8056 73.2288 80.2139 72.7952 80.7054C72.575 80.9545 72.3961 81.2522 72.4236 81.5982C72.4305 81.7228 72.4993 81.8682 72.4993 81.9789C72.4993 81.9374 72.4855 82.1381 72.4649 82.0966C72.4649 82.0966 72.575 82.0274 72.5062 82.0343C71.9556 82.0412 71.9487 82.9064 72.5062 82.8995C72.9054 82.8995 73.2013 82.6711 73.3183 82.2835C73.3734 82.0827 73.3596 81.8959 73.3183 81.6951C73.2908 81.5775 73.2564 81.5359 73.3183 81.4321C73.4766 81.1414 73.8276 80.9199 74.1029 80.7607C74.3438 80.6154 74.6879 80.3939 74.9769 80.4285L74.7567 80.3662L74.8049 80.3939L74.6535 80.2416C74.6328 80.2001 74.7085 80.1447 74.6535 80.2001C74.6466 80.207 74.6397 80.2555 74.6328 80.2693C74.5984 80.3524 74.5571 80.4285 74.5296 80.5116C74.4608 80.7123 74.4608 80.9199 74.4952 81.1276C74.5571 81.5083 74.7567 81.8474 74.9563 82.1727C75.3623 82.8441 75.5895 83.5916 75.4105 84.3738C75.2591 85.0451 74.447 85.1282 73.8689 85.1005C73.2908 85.0728 72.8297 84.8237 72.5268 84.3461C72.3479 84.0623 72.2378 83.7508 72.1552 83.4324C72.1139 83.2732 72.0657 83.1002 72.0519 82.9341C72.0519 82.8649 72.0932 82.7126 72.0244 82.761C71.9762 82.8026 72.1208 82.7957 72.1896 82.8095C72.7264 82.941 72.9604 82.1035 72.4167 81.972L72.4029 81.9928Z" fill="#231815"/>
<path d="M86.89 33.0022C86.7592 32.9815 86.2499 33.1199 86.0434 33.1683C74.1164 36.2484 62.7537 38.1587 50.5376 38.5256C50.0971 38.5464 49.7255 39.0101 49.6704 39.4461C49.5741 40.256 49.7805 41.0935 50.2485 41.7649C50.3862 41.9656 50.6752 42.2148 50.8886 42.3324C51.0675 42.4293 51.2671 42.5193 51.4598 42.547C53.2011 42.7962 55.7544 42.8585 57.53 42.7408H57.6057C57.9774 42.7062 58.0256 42.7131 58.0393 42.9207V46.1531C58.0531 46.333 58.1976 46.4784 58.3766 46.4784L63.9856 46.5615C64.1646 46.5615 64.5156 46.8106 64.5293 46.6307V42.8308C64.5293 42.8308 64.5225 42.8169 64.5225 42.81V42.6785C64.5225 42.4916 64.55 42.4708 64.7289 42.4708H65.4722C72.8432 42.4708 79.3951 40.8512 86.4426 39.2039C86.4977 39.1901 86.7454 39.107 86.7867 39.0655C87.124 38.7609 87.2203 38.3595 87.3511 38.0203C87.6264 37.3074 87.6401 36.4284 87.6814 35.667C87.7227 34.9056 87.5988 33.8674 87.179 33.2306" fill="#231815"/>
<path d="M32.5476 70.7041C32.5339 68.3923 32.4582 65.9282 32.9399 63.658C33.5593 60.7579 34.8945 57.8093 36.7734 55.5114C40.2696 51.2201 45.452 48.9636 50.7376 47.87C54.0961 47.1779 57.5235 46.908 60.944 46.8803C61.6529 46.8803 61.6598 45.7659 60.944 45.7659H60.7169V46.8803C66.6219 46.7834 72.7747 47.7939 78.0191 50.6248C82.5683 53.0819 86.4636 57.3663 87.8195 62.4537C88.4939 64.9731 88.5146 67.804 88.4389 70.3995C88.4182 71.1194 89.5263 71.1125 89.5469 70.3995C89.6226 67.9909 89.5676 65.4437 89.0996 63.0697C88.549 60.2734 87.0762 57.4148 85.2937 55.2138C81.7424 50.8324 76.6426 48.2161 71.2469 46.901C67.8057 46.0635 64.2544 45.7036 60.7169 45.7659C60.0081 45.7797 60.0012 46.8803 60.7169 46.8803H60.944V45.7659C54.7156 45.8144 48.1705 46.5896 42.5614 49.4758C37.5442 52.0576 33.7658 56.6257 32.2035 62.0799C31.4052 64.8554 31.4189 67.8317 31.4396 70.7041C31.4396 71.417 32.5476 71.4239 32.5476 70.7041Z" fill="#231815"/>
<path d="M34.6606 70.7041C34.6124 69.2713 34.8533 66.0044 35.1286 64.627C35.6447 62.0937 36.4431 60.2734 38.0467 57.8162C38.6317 56.9164 40.5587 55.0753 41.3226 54.4801C45.9269 50.8947 52.0935 49.7181 57.8471 49.4897C58.0467 49.4827 58.2325 49.5727 58.3495 49.7388L60.7101 53.1719C60.9441 53.4972 61.4259 53.4972 61.6667 53.1719L64.0274 49.7388C64.1444 49.5796 64.3302 49.4827 64.5298 49.4897C70.2834 49.7181 75.0804 50.8947 79.6846 54.4801C80.4486 55.0753 82.3687 56.9164 82.9606 57.8162C84.5642 60.2734 85.3625 62.0937 85.8787 64.627C86.1609 66.0044 86.4018 69.2713 86.3467 70.7041" fill="#E4E4E5"/>
<path d="M35.1353 70.704C35.0665 68.1223 35.2867 65.3745 36.0576 62.9035C36.9454 60.038 38.5765 57.6224 40.7582 55.6013C43.0362 53.4972 45.9268 52.1475 48.8793 51.303C50.5448 50.8255 52.2516 50.4932 53.9722 50.2787C54.7086 50.1887 55.4519 50.1125 56.1952 50.0641C56.6357 50.0295 57.6336 49.8011 57.9777 50.0433C58.1704 50.1818 58.3425 50.5763 58.4732 50.7701L59.3473 52.0436C59.6708 52.5143 59.9667 53.0957 60.3659 53.511C61.6942 54.8953 63.0018 52.0575 63.5799 51.2131C63.7933 50.9016 63.9929 50.5555 64.2337 50.2579C64.5434 49.8772 64.6742 49.9741 65.2317 50.0018C66.8697 50.0918 68.5076 50.2717 70.1112 50.604C73.2289 51.2477 76.1539 52.5074 78.7416 54.3762C81.3156 56.2381 83.3115 58.716 84.509 61.6784C85.6377 64.4816 85.9474 67.6932 85.8648 70.704C85.8511 71.32 86.8077 71.32 86.8215 70.704C86.8972 67.9977 86.6494 65.1114 85.8304 62.5228C84.9082 59.6296 83.2771 57.1309 81.0747 55.0683C78.8931 53.0196 76.2227 51.483 73.401 50.5071C71.8662 49.9741 70.2695 49.6142 68.6659 49.3789C67.902 49.2681 67.1312 49.1781 66.3604 49.1158C65.6997 49.0605 64.7155 48.8251 64.0892 49.0951C63.4973 49.3512 63.105 50.2302 62.7609 50.7286L61.9213 51.9537C61.7768 52.1613 61.5359 52.715 61.3156 52.8396C60.9578 53.0403 60.4003 51.8706 60.1869 51.5591C59.7258 50.8877 59.2922 50.1679 58.7898 49.5242C58.0672 48.5967 56.381 49.0812 55.3693 49.1712C53.6556 49.3304 51.9419 49.5796 50.2558 49.9603C46.9798 50.7078 43.7589 51.9883 41.0885 54.0716C38.6109 56.0027 36.7458 58.5014 35.5758 61.4292C34.4058 64.357 34.103 67.624 34.1856 70.7109C34.1993 71.327 35.156 71.3339 35.1422 70.7109L35.1353 70.704Z" fill="#231815"/>
<path d="M60.5035 71.3399H26.9178C26.7457 71.3399 26.5874 71.2361 26.5186 71.0769L23.0362 62.8472C22.9398 62.6257 23.043 62.3696 23.2633 62.2797C23.4835 62.1897 23.7382 62.2866 23.8276 62.5081L27.1931 70.4678H60.5035C60.7443 70.4678 60.937 70.6616 60.937 70.9039C60.937 71.1461 60.7443 71.3399 60.5035 71.3399Z" fill="#231815"/>
<path d="M94.089 71.3403H60.5033C60.2624 71.3403 60.0697 71.1465 60.0697 70.9042C60.0697 70.662 60.2624 70.4682 60.5033 70.4682H93.7999L97.1723 62.5084C97.2686 62.287 97.5233 62.1831 97.7366 62.28C97.9568 62.3769 98.0601 62.6261 97.9637 62.8476L94.4813 71.0703C94.4125 71.2295 94.2542 71.3334 94.0821 71.3334L94.089 71.3403Z" fill="#231815"/>
<path d="M42.4717 70.4339H78.5282V70.0186C78.5626 69.0219 78.3905 66.7378 78.1978 65.7826C77.8399 64.0107 77.2825 62.7441 76.1607 61.0345C75.7477 60.4046 74.4057 59.1241 73.8757 58.7089C70.7512 56.2794 64.7223 55.2412 60.7787 55.2412C56.8282 55.2412 50.2488 56.2794 47.1173 58.7089C46.5874 59.1241 45.2453 60.4046 44.8324 61.0345C43.7106 62.751 43.1531 64.0176 42.7952 65.7826C42.6025 66.7447 42.4305 69.0219 42.4649 70.0186" fill="#B9BABA"/>
<path d="M47.4201 70.4338H73.5867V70.1361C73.6142 69.4094 73.4903 67.7551 73.3458 67.063C73.0843 65.7756 72.6782 64.862 71.8661 63.6161C71.5702 63.1593 70.5929 62.2318 70.2075 61.9272C67.9363 60.1623 63.566 59.4078 60.703 59.4078C57.84 59.4078 53.0636 60.1623 50.7925 61.9272C50.4071 62.2249 49.4298 63.1593 49.1338 63.6161C48.3217 64.862 47.9157 65.7825 47.6541 67.063C47.5096 67.7621 47.3926 69.4163 47.4133 70.1361" fill="#8D8D8E"/>
<rect x="80.5" y="68.5" width="83" height="83" rx="41.5" fill="white" stroke="black"/>
<path d="M105.157 128.874C105.14 128.783 105.237 128.425 105.277 128.277C107.434 119.901 108.775 111.929 109.032 103.348C109.049 103.041 109.374 102.78 109.677 102.74C110.242 102.672 110.835 102.82 111.298 103.144C111.435 103.24 111.617 103.445 111.697 103.593C111.765 103.718 111.828 103.86 111.845 103.991C112.017 105.214 112.068 107.005 111.982 108.25V108.301C111.96 108.557 111.965 108.591 112.108 108.608H114.373C114.499 108.62 114.602 108.716 114.602 108.847L114.659 112.782C114.659 112.907 114.83 113.157 114.704 113.163H112.045H112.034H111.942C111.811 113.163 111.794 113.18 111.794 113.311V113.834C111.794 119.008 110.658 123.609 109.506 128.556C109.5 128.59 109.437 128.772 109.409 128.8C109.192 129.039 108.912 129.107 108.673 129.198C108.176 129.392 107.554 129.403 107.023 129.426C106.487 129.448 105.762 129.363 105.317 129.073" fill="#231815"/>
<path d="M131.67 129.516C140.869 105.793 132.235 89.5134 132.235 89.5134C131.054 89.4452 128.651 89.5305 127.898 89.6158C125.775 89.8546 124.286 90.6223 122.232 91.9074C121.478 92.3793 119.926 93.9374 119.424 94.5572C116.331 98.3727 115.058 104.013 115.058 108.955C114.996 113.765 115.669 119.6 118.494 123.614C118.95 124.268 120.394 125.928 121.113 126.446C123.076 127.867 124.543 128.595 126.608 129.118C127.733 129.403 130.489 129.505 131.67 129.516Z" fill="white"/>
<path d="M131.67 130C130.386 129.983 127.653 129.881 126.494 129.585C124.406 129.056 122.871 128.311 120.833 126.833C120.057 126.27 118.574 124.558 118.1 123.887C115.081 119.588 114.516 113.39 114.579 108.944C114.579 103.115 116.211 97.7587 119.047 94.2503C119.566 93.6077 121.159 92.0042 121.975 91.4981C124.183 90.1164 125.695 89.3715 127.847 89.1327C128.645 89.0417 131.082 88.9564 132.269 89.0246C132.44 89.036 132.589 89.1327 132.669 89.2805C132.76 89.4511 134.877 93.5054 135.887 100.545C136.817 107.022 136.92 117.337 132.132 129.687C132.058 129.875 131.881 129.994 131.681 129.994L131.67 130ZM131.173 89.9742C129.992 89.9742 128.509 90.0368 127.949 90.0993C125.986 90.3211 124.565 91.0205 122.488 92.3227C121.792 92.7548 120.28 94.273 119.8 94.8644C117.135 98.1511 115.543 103.422 115.543 108.955C115.486 113.265 116.017 119.247 118.893 123.336C119.332 123.955 120.736 125.576 121.404 126.054C123.356 127.47 124.754 128.146 126.734 128.652C127.653 128.885 129.878 129.005 131.345 129.033C135.927 117.035 135.83 107.039 134.934 100.738C134.089 94.8019 132.395 90.9579 131.932 89.9856C131.71 89.9799 131.453 89.9742 131.179 89.9742H131.173Z" fill="#231815"/>
<path d="M133.61 89.485L132.093 89.5077C131.956 89.5077 131.87 89.6499 131.933 89.7693C133 91.9187 139.99 107.414 131.607 129.278C131.562 129.397 131.647 129.522 131.779 129.522H133.211C133.285 129.522 133.354 129.477 133.382 129.403C142.501 105.742 133.61 89.4793 133.61 89.4793" fill="white"/>
<path d="M133.205 129.869H131.779C131.607 129.869 131.442 129.784 131.345 129.642C131.248 129.499 131.225 129.317 131.288 129.153C134.792 120.003 136.03 110.928 134.968 102.171C134.147 95.4102 132.201 91.0886 131.619 89.923C131.539 89.758 131.545 89.5704 131.642 89.4169C131.739 89.2633 131.904 89.1667 132.087 89.1667L133.605 89.1439C133.713 89.1269 133.85 89.2122 133.913 89.3259C134.004 89.4908 142.775 106.004 133.702 129.534C133.622 129.738 133.422 129.875 133.205 129.875V129.869ZM132.013 129.181H133.097C137.736 117.092 137.554 107.005 136.578 100.659C135.648 94.5857 133.833 90.6963 133.399 89.832L132.349 89.849C133.045 91.3104 134.866 95.6035 135.653 102.092C136.72 110.888 135.493 120.003 132.013 129.181Z" fill="#231815"/>
<path d="M144.829 129.892H99.1713C99.0771 129.892 99.0001 129.738 99.0001 129.551C99.0001 129.363 99.0771 129.21 99.1713 129.21H144.829C144.923 129.21 145 129.363 145 129.551C145 129.738 144.923 129.892 144.829 129.892Z" fill="#231815"/>
</svg>
