<svg width="220" height="136" viewBox="0 0 220 136" fill="none" xmlns="http://www.w3.org/2000/svg">
<path d="M60.5123 12.8538L59.1861 11.365C58.8379 10.9741 58.238 10.9388 57.8461 11.2861L52.1325 16.3493C51.7406 16.6966 51.7051 17.2951 52.0533 17.686L53.3795 19.1748C53.7277 19.5657 54.3276 19.601 54.7196 19.2537L60.4331 14.1904C60.825 13.8431 60.8605 13.2447 60.5123 12.8538Z" fill="white"/>
<path d="M54.0981 20.6477C54.0981 20.6477 54.0163 20.6477 53.9672 20.6477C53.4107 20.615 52.887 20.3702 52.527 19.9458L51.2013 18.444C50.8249 18.0359 50.6449 17.4972 50.6776 16.9258C50.7103 16.3545 50.9558 15.8485 51.3813 15.473L57.1094 10.4126C57.5349 10.0371 58.0587 9.84125 58.6315 9.89022C59.1879 9.92287 59.7116 10.1677 60.0717 10.5922L61.4137 12.094C62.1829 12.9591 62.101 14.2814 61.2336 15.0486L55.5056 20.1253C55.1128 20.4681 54.6218 20.6477 54.1145 20.6477H54.0981ZM53.0507 17.0727L54.1145 18.2644L59.5152 13.4652L58.4514 12.2735L53.0343 17.0727H53.0507Z" fill="#231815"/>
<path d="M56.2342 8.74918L67.963 21.9164C68.6473 22.6848 69.8266 22.7542 70.5969 22.0716L72.8848 20.0441C73.6551 19.3615 73.7247 18.1853 73.0403 17.417L61.3115 4.2497C60.6272 3.48138 59.4479 3.41191 58.6776 4.09454L56.3897 6.12202C55.6194 6.80464 55.5498 7.98086 56.2342 8.74918Z" fill="white"/>
<path d="M69.3514 23.6849C69.3514 23.6849 69.2368 23.6849 69.1714 23.6849C68.3694 23.6359 67.633 23.2768 67.0929 22.6728L55.3749 9.5157C54.8348 8.91172 54.5729 8.1445 54.622 7.3283C54.6711 6.52843 55.0312 5.77753 55.6367 5.25516L57.9116 3.231C59.1554 2.12097 61.0702 2.23524 62.1831 3.47586L73.9011 16.6329C74.4412 17.2369 74.7031 18.0041 74.654 18.8203C74.6049 19.6202 74.2448 20.3711 73.6393 20.8935L71.3644 22.9176C70.808 23.4074 70.1042 23.6849 69.3514 23.6849ZM59.9082 4.78177C59.7446 4.78177 59.5646 4.84706 59.4336 4.96133L57.1588 6.9855C57.0115 7.11609 56.9296 7.27933 56.9133 7.47522C56.8969 7.6711 56.9624 7.85067 57.0933 7.99758L68.8113 21.1547C68.9422 21.3016 69.1059 21.3832 69.3023 21.3995C69.4987 21.4322 69.6787 21.3505 69.826 21.22L72.1009 19.1958C72.2482 19.0652 72.33 18.902 72.3464 18.7061C72.3627 18.5102 72.2973 18.3306 72.1663 18.1837L60.4483 5.02663C60.301 4.86339 60.1046 4.78177 59.9082 4.78177Z" fill="#231815"/>
<path d="M43.2339 20.1395L49.9081 27.6322C50.5564 28.3601 51.6736 28.4259 52.4034 27.7792L56.8935 23.8002C57.6232 23.1535 57.6892 22.0392 57.0409 21.3113L50.3666 13.8185C49.7183 13.0906 48.6011 13.0248 47.8713 13.6715L43.3812 17.6506C42.6515 18.2973 42.5855 19.4116 43.2339 20.1395Z" fill="white"/>
<path d="M51.2347 29.3831C51.2347 29.3831 51.1202 29.3831 51.0547 29.3831C50.2691 29.3342 49.5654 28.9914 49.0417 28.4037L42.3644 20.911C41.8407 20.3234 41.5788 19.5888 41.6279 18.8052C41.677 18.0217 42.0207 17.3198 42.6099 16.7974L47.1105 12.8144C48.3052 11.7533 50.1709 11.8513 51.2347 13.0592L57.912 20.5519C58.9758 21.7599 58.8776 23.6045 57.6665 24.6655L53.1659 28.6486C52.6258 29.122 51.9385 29.3831 51.2347 29.3831ZM49.058 14.3815C48.9108 14.3815 48.7635 14.4304 48.6489 14.5284L44.1483 18.5114C44.0337 18.6257 43.9519 18.7726 43.9519 18.9358C43.9519 19.0991 44.001 19.2623 44.0992 19.3766L50.7765 26.8693C50.891 26.9998 51.0383 27.0651 51.202 27.0651C51.3656 27.0651 51.5293 27.0162 51.6439 26.9182L56.1445 22.9352C56.39 22.7067 56.4227 22.3312 56.1936 22.07L49.5163 14.5773C49.4017 14.4468 49.2217 14.3815 49.058 14.3815Z" fill="#231815"/>
<path d="M5.76134 46.9456L18.7945 61.5772C21.9763 65.1492 27.4588 65.4722 31.04 62.2986L53.2826 42.5876C56.8638 39.414 57.1876 33.9456 54.0058 30.3736L40.9726 15.7419C37.7908 12.1699 32.3083 11.8469 28.7271 15.0205L6.48457 34.7315C2.90336 37.9051 2.57956 43.3736 5.76134 46.9456Z" fill="white"/>
<path d="M25.2946 65.6205C22.5778 65.6205 19.8775 64.5104 17.9299 62.3394L4.91898 47.7131C3.16783 45.7543 2.30043 43.2404 2.44773 40.6285C2.59502 38.0167 3.77337 35.6171 5.73728 33.8704L27.9786 14.1675C29.9425 12.4208 32.4629 11.5557 35.0978 11.7026C37.7163 11.8495 40.1221 13.0248 41.8733 14.9837L54.9006 29.6099C56.6517 31.5688 57.5191 34.0827 57.3718 36.6945C57.2245 39.3063 56.0462 41.7059 54.0823 43.4526L31.841 63.1556C29.9752 64.8206 27.6349 65.6205 25.311 65.6205H25.2946ZM34.4922 13.9879C32.6429 13.9879 30.8917 14.6572 29.5006 15.8815L7.27568 35.5845C5.77001 36.923 4.88625 38.7513 4.75533 40.7591C4.64076 42.767 5.31177 44.6932 6.63741 46.1787L19.6647 60.8049C22.4142 63.9065 27.193 64.184 30.2862 61.4252L52.5275 41.7222C54.0332 40.3837 54.917 38.5554 55.0479 36.5476C55.1624 34.5397 54.4914 32.6135 53.1658 31.128L40.1385 16.5018C38.7965 15 36.9635 14.1185 34.9505 13.9879C34.8032 13.9879 34.6395 13.9879 34.4922 13.9879Z" fill="#231815"/>
<path d="M176.385 50.2442C176.385 50.2442 176.319 50.2442 176.287 50.2442C175.73 50.1952 175.321 49.7055 175.37 49.1505C175.501 47.714 176.63 43.1759 180.018 41.2987C182.277 40.0417 184.993 40.205 188.119 41.7557C188.512 42.0006 195.108 46.2448 203.291 38.0992C203.912 37.4789 204.665 37.0381 205.451 36.8259C207.202 36.3688 210.59 35.6832 213.519 36.3852L213.928 36.4831C215.352 36.8259 216.711 37.1524 217.267 36.7443C217.676 36.4505 217.922 35.6016 217.971 34.3284C218.069 32.2879 217.643 30.2311 216.76 28.3538C216.514 27.8478 216.252 27.3254 215.925 26.803C215.86 26.6724 215.696 26.6561 215.565 26.6724C212.243 27.0316 202.407 26.1011 200.066 19.8654C199.87 19.343 200.132 18.7717 200.656 18.5758C201.179 18.3799 201.752 18.6411 201.949 19.1634C203.732 23.93 212.128 25.0237 215.336 24.6809C216.285 24.583 217.169 25.0074 217.643 25.7746C218.003 26.3623 218.298 26.9499 218.576 27.505C219.607 29.676 220.098 32.0757 219.984 34.4263C219.886 36.4015 219.411 37.6584 218.462 38.3604C217.136 39.3398 215.434 38.9317 213.454 38.4583L213.045 38.3604C210.541 37.7727 207.529 38.3604 205.958 38.7848C205.5 38.8991 205.074 39.1602 204.698 39.5357C195.288 48.8893 187.17 43.5677 187.088 43.5024C184.715 42.3271 182.637 42.1638 181 43.078C178.332 44.5635 177.465 48.3996 177.383 49.3627C177.334 49.885 176.892 50.2768 176.385 50.2768V50.2442Z" fill="#231815"/>
<path d="M176.205 50.2439H165.387C164.83 50.2439 164.372 49.7869 164.372 49.2319V45.3304C164.372 43.3716 164.618 41.6739 165.092 40.1394C166.958 34.2628 171.409 30.9164 173.897 29.4473C174.961 28.8106 176.074 28.3862 177.007 28.0434C184.764 25.2194 183.929 20.4691 183.88 20.2732C183.815 19.9304 183.913 19.5876 184.159 19.3591C184.404 19.1306 184.748 19.0163 185.075 19.0979C192.98 20.8935 200.606 18.5592 200.688 18.5266C201.228 18.3633 201.785 18.6572 201.948 19.1795C202.112 19.7019 201.817 20.2732 201.294 20.4365C200.983 20.5344 193.864 22.7218 185.91 21.3016C185.762 23.4401 184.519 27.4394 177.678 29.9207C176.827 30.2308 175.828 30.6226 174.895 31.1776C172.653 32.4998 168.644 35.5034 166.974 40.7434C166.549 42.082 166.336 43.5838 166.336 45.3304V48.2198H176.156C176.712 48.2198 177.17 48.6768 177.17 49.2319C177.17 49.7869 176.712 50.2439 176.156 50.2439H176.205Z" fill="#231815"/>
<path d="M196.024 8.55364C196.024 7.15625 194.892 6.02344 193.495 6.02344C192.099 6.02344 190.967 7.15625 190.967 8.55364V11.8021C190.967 13.1995 192.099 14.3323 193.495 14.3323C194.892 14.3323 196.024 13.1995 196.024 11.8021V8.55364Z" fill="white"/>
<path d="M193.504 15.3275C191.556 15.3275 189.969 13.744 189.969 11.8015V8.53671C189.969 6.59416 191.556 5.01074 193.504 5.01074C195.451 5.01074 197.039 6.59416 197.039 8.53671V11.8015C197.039 13.744 195.451 15.3275 193.504 15.3275ZM193.504 7.01858C192.669 7.01858 191.982 7.70419 191.982 8.53671V11.8015C191.982 12.634 192.669 13.3196 193.504 13.3196C194.338 13.3196 195.026 12.634 195.026 11.8015V8.53671C195.026 7.70419 194.338 7.01858 193.504 7.01858Z" fill="#231815"/>
<path d="M193.504 7.55777C196.541 7.55777 199.003 6.40303 199.003 4.97859C199.003 3.55415 196.541 2.39941 193.504 2.39941C190.467 2.39941 188.005 3.55415 188.005 4.97859C188.005 6.40303 190.467 7.55777 193.504 7.55777Z" fill="white"/>
<path d="M193.504 8.61933C189.756 8.61933 186.941 7.05224 186.941 4.9791C186.941 2.90596 189.773 1.33887 193.504 1.33887C197.236 1.33887 200.067 2.90596 200.067 4.9791C200.067 7.05224 197.236 8.61933 193.504 8.61933ZM193.504 3.44465C190.624 3.44465 189.053 4.52203 189.053 4.96278C189.053 5.40352 190.607 6.4809 193.504 6.4809C196.401 6.4809 197.956 5.40352 197.956 4.96278C197.956 4.52203 196.401 3.44465 193.504 3.44465Z" fill="#231815"/>
<path d="M176.81 9.94112C176.499 9.94112 176.188 9.94112 175.877 9.94112C174.846 9.9248 173.668 9.79421 172.882 8.97801C172.293 8.3577 172.146 7.6068 172.08 6.88855C172.015 6.15397 171.982 5.40307 171.999 4.6685C171.999 4.50526 171.999 4.34202 171.999 4.16246C171.966 3.29729 171.933 2.12197 172.702 1.2568C173.733 0.0977999 174.372 0.0488281 175.714 0.0488281H175.795C179.658 0.0488281 185.337 1.04459 189.657 2.46477L188.986 4.47261C184.829 3.1014 179.347 2.12197 175.714 2.15461C175.059 2.15461 174.579 2.32329 174.273 2.66066C174.077 2.88919 174.093 3.57479 174.11 4.08084C174.11 4.29305 174.11 4.50526 174.11 4.70115C174.11 5.37043 174.11 6.03971 174.175 6.67634C174.208 7.01914 174.257 7.34562 174.388 7.49253C174.584 7.68842 175.092 7.78637 175.894 7.80269C179.412 7.85166 183.749 7.6721 189.265 5.8275L189.936 7.83534C185.582 9.28817 181.605 9.9248 176.794 9.9248L176.81 9.94112Z" fill="#231815"/>
<path d="M210.213 9.97391C205.402 9.97391 201.425 9.33728 197.071 7.88445L197.742 5.87661C203.258 7.72121 207.595 7.90078 211.113 7.8518C211.408 7.8518 212.341 7.83548 212.619 7.54165C212.75 7.39473 212.799 7.06826 212.832 6.72545C212.897 6.0725 212.914 5.40322 212.897 4.73394C212.897 4.06466 212.815 3.39538 212.439 2.97095C211.866 2.33432 211.375 2.12211 210.524 2.12211C207.202 2.15476 202.57 3.0036 198.037 4.5054L197.366 2.49756C202.161 0.914139 206.924 0 210.459 0H210.54C212.013 0 213.044 0.473394 214.026 1.55077C214.877 2.49756 215.008 3.65656 215.025 4.68496C215.025 5.43586 215.025 6.18677 214.943 6.90502C214.877 7.62327 214.73 8.39049 214.141 8.99448C213.355 9.81068 212.193 9.94127 211.146 9.95759C210.835 9.95759 210.524 9.95759 210.213 9.95759V9.97391Z" fill="#231815"/>
<path d="M196.514 11.9804L202.701 14.2005C203.126 14.3474 203.421 14.7718 203.421 15.2452V18.9997C203.421 19.4731 203.126 19.8975 202.684 20.0444C193.077 23.3582 186.286 20.9912 184.24 20.0934C183.847 19.9138 183.602 19.5221 183.602 19.0813V15.2289C183.602 14.7555 183.896 14.3474 184.322 14.1842L190.459 11.9804C190.721 11.8825 191.015 11.8988 191.261 12.0294C191.948 12.3722 193.585 12.9435 195.712 12.0131C195.958 11.8988 196.252 11.8825 196.514 11.9641V11.9804Z" fill="white"/>
<path d="M192.98 22.82C188.283 22.82 185.042 21.6121 183.815 21.0734C183.046 20.7306 182.555 19.9634 182.555 19.0982V15.2457C182.555 14.3316 183.128 13.5154 183.979 13.2053L190.116 11.0015C190.656 10.8056 191.245 10.8383 191.752 11.0831C192.358 11.3933 193.618 11.7688 195.304 11.0505C195.811 10.822 196.384 10.8056 196.891 10.9852L203.078 13.2053C203.929 13.5154 204.501 14.3316 204.501 15.2457V19.0002C204.501 19.9307 203.929 20.7469 203.061 21.0407C199.264 22.3467 195.86 22.8037 193.013 22.8037L192.98 22.82ZM190.803 12.993L184.682 15.2131V19.0982C186.466 19.9307 193.029 22.265 202.341 19.0492V15.2457L196.171 12.9767C193.569 14.1031 191.556 13.3522 190.803 12.9767V12.993Z" fill="#231815"/>
<path d="M161.885 72.266C161.885 72.266 161.77 72.266 161.705 72.266C161.197 72.168 160.87 71.6783 160.952 71.1723L164.078 54.5056C164.176 53.9995 164.651 53.673 165.174 53.7547C165.682 53.8526 166.009 54.3423 165.927 54.8484L162.801 71.5151C162.719 71.9558 162.327 72.266 161.885 72.266Z" fill="#231815"/>
<path d="M176.368 72.9516C175.861 72.9516 175.436 72.5435 175.436 72.0211V53.9832C175.436 53.4608 175.861 53.0527 176.368 53.0527C176.876 53.0527 177.301 53.4608 177.301 53.9832V72.0211C177.301 72.5435 176.876 72.9516 176.368 72.9516Z" fill="#231815"/>
<path d="M40.417 122.071C40.4497 118.692 40.7443 110.791 41.5626 107.592C43.0683 101.666 45.1631 97.4873 49.2546 91.8718C50.7603 89.815 55.5228 85.6851 57.4048 84.3792C68.9592 76.2988 85.7507 74.3563 99.5962 74.5522C113.818 74.5522 130.053 78.1924 141.035 87.04C142.819 88.4765 147.303 92.9166 148.661 95.0713C152.36 100.948 154.586 105.208 155.257 111.281C155.502 113.452 155.748 120.324 155.551 123.687" fill="white"/>
<path d="M41.5459 122.07C41.6114 117.565 41.595 112.815 42.5279 108.407C43.7717 102.629 46.603 97.0784 50.2362 92.4261C56.8972 83.905 67.6496 79.4975 77.9602 77.4244C89.5636 75.1064 102.165 74.8289 113.834 76.8531C125.061 78.8119 135.977 83.1051 144.046 91.3487C148.366 95.7561 151.869 101.437 153.44 107.428C154.798 112.57 154.733 118.381 154.455 123.654C154.389 125.09 156.615 125.09 156.697 123.654C156.942 118.838 156.926 113.745 156.075 108.979C155.06 103.33 152.147 97.4538 148.563 92.9974C141.182 83.8397 130.609 78.4201 119.301 75.694C107.173 72.7721 94.1952 72.7068 81.888 74.4861C70.1209 76.1838 59.2375 80.2811 50.6618 88.6716C46.0957 93.128 42.8388 99.2821 41.0222 105.355C39.4347 110.709 39.3856 116.504 39.3038 122.054C39.2874 123.49 41.5296 123.49 41.5459 122.054V122.07Z" fill="#231815"/>
<path d="M152.131 48.4989C151.869 48.4499 150.838 48.7274 150.413 48.8417C126.306 55.0121 103.344 58.8483 78.6643 59.5828C77.7806 59.6318 77.0114 60.5623 76.9132 61.4274C76.7168 63.0435 77.1423 64.7412 78.0752 66.0634C78.3534 66.4552 78.9426 66.9776 79.3681 67.2061C79.7281 67.402 80.1373 67.5816 80.5137 67.6305C84.0324 68.1202 89.1876 68.2672 92.7882 68.0223H92.9354C93.6719 67.957 93.7701 67.9733 93.8192 68.3814V74.862C93.8519 75.2212 94.1302 75.515 94.5066 75.515L105.832 75.6782C106.192 75.6782 106.912 76.1679 106.928 75.8088V68.2019V68.1692V67.908C106.928 67.5326 106.977 67.4836 107.354 67.4836H108.86C123.753 67.4836 136.993 64.2352 151.231 60.9214C151.329 60.9051 151.853 60.7255 151.935 60.6439C152.622 60.0236 152.818 59.2237 153.08 58.5381C153.637 57.1179 153.669 55.3386 153.735 53.8205C153.8 52.3024 153.555 50.2129 152.72 48.9396" fill="#231815"/>
<path d="M158.595 118.577H37.4707V124.731H158.595V118.577Z" fill="white"/>
<path d="M158.595 125.596H37.4709C36.9963 125.596 36.6035 125.205 36.6035 124.731V118.577C36.6035 118.104 36.9963 117.712 37.4709 117.712H158.595C159.07 117.712 159.463 118.104 159.463 118.577V124.731C159.463 125.205 159.07 125.596 158.595 125.596ZM38.3383 123.85H157.711V119.442H38.3383V123.85Z" fill="#231815"/>
<path d="M151.886 82.388C151.558 82.3064 151.247 82.2574 150.92 82.2248C150.069 77.5072 146.419 73.4752 141.33 72.3162C136.158 71.1245 131.019 73.2303 128.204 77.2297C127.402 76.8542 126.551 76.5441 125.635 76.3318C118.876 74.7647 112.166 78.8457 110.644 85.4079C109.121 91.9865 113.36 98.5813 120.119 100.132C123.278 100.867 126.42 100.344 129.039 98.9405C130.168 101.977 132.803 104.442 136.256 105.241C141.591 106.466 146.878 103.332 148.203 98.1896C152.688 99.218 157.156 96.5245 158.154 92.166C159.152 87.8076 156.354 83.4164 151.869 82.388H151.886Z" fill="white"/>
<path d="M138.547 106.27C137.729 106.27 136.91 106.172 136.092 105.992C132.77 105.225 130.053 103.021 128.646 100.001C125.945 101.242 122.885 101.568 119.955 100.883C112.803 99.2341 108.286 92.1985 109.907 85.2282C111.527 78.2579 118.662 73.9157 125.831 75.5644C126.551 75.7277 127.271 75.9562 127.975 76.25C131.133 72.2017 136.37 70.3571 141.526 71.5487C146.583 72.7241 150.478 76.6091 151.591 81.5226C151.754 81.5553 151.918 81.5879 152.082 81.6206C156.975 82.7469 160.052 87.5462 158.955 92.3291C157.908 96.8671 153.44 99.7728 148.776 99.0708C147.319 103.397 143.129 106.253 138.58 106.253L138.547 106.27ZM129.038 98.173C129.136 98.173 129.218 98.173 129.317 98.222C129.529 98.3036 129.693 98.4669 129.775 98.6791C130.855 101.601 133.359 103.772 136.452 104.49C141.313 105.633 146.255 102.711 147.466 98.0098C147.515 97.7976 147.663 97.618 147.859 97.5201C148.056 97.4221 148.285 97.4058 148.497 97.4874C152.458 98.3852 156.517 95.953 157.433 92.0026C158.35 88.0522 155.78 84.0855 151.721 83.155C151.427 83.0897 151.132 83.0408 150.838 83.0081C150.494 82.9755 150.232 82.7143 150.167 82.3878C149.348 77.8008 145.813 74.1606 141.165 73.0832C136.436 71.9895 131.591 73.8014 128.858 77.6865C128.646 77.9967 128.236 78.0946 127.893 77.9477C127.107 77.5886 126.289 77.2948 125.487 77.1152C119.153 75.6624 112.852 79.4658 111.412 85.6199C109.988 91.7741 113.982 97.9608 120.299 99.43C123.147 100.083 126.125 99.6912 128.678 98.3036C128.793 98.2383 128.924 98.2057 129.038 98.2057V98.173Z" fill="#040000"/>
<path d="M79.433 82.5507C79.433 82.5507 79.4003 82.5507 79.3839 82.5507C79.3839 82.3874 79.433 82.2242 79.433 82.0446C79.433 77.4413 75.6852 73.7031 71.07 73.7031C66.4548 73.7031 62.707 77.4413 62.707 82.0446C62.707 86.648 66.4548 90.3862 71.07 90.3862C72.8539 90.3862 74.5069 89.8148 75.8652 88.868C76.6017 90.076 77.911 90.8922 79.433 90.8922C81.7406 90.8922 83.6063 89.0313 83.6063 86.7296C83.6063 84.4279 81.7406 82.567 79.433 82.567V82.5507Z" fill="white"/>
<path d="M79.4327 91.6584C77.9598 91.6584 76.6014 91.0218 75.6685 89.9117C74.2611 90.7279 72.6899 91.1687 71.0697 91.1687C66.029 91.1687 61.9375 87.0877 61.9375 82.0599C61.9375 77.0322 66.029 72.9512 71.0697 72.9512C76.1104 72.9512 80.0873 76.9179 80.2019 81.8477C82.575 82.2232 84.3916 84.2636 84.3916 86.7286C84.3916 89.4547 82.1658 91.6747 79.4327 91.6747V91.6584ZM75.8649 88.0998C75.8649 88.0998 75.9631 88.0998 76.0286 88.0998C76.2413 88.1487 76.4214 88.2793 76.5359 88.4589C77.1578 89.4873 78.2543 90.1076 79.4491 90.1076C81.3311 90.1076 82.8532 88.5895 82.8532 86.7122C82.8532 84.835 81.3475 83.3332 79.4818 83.3169C79.2527 83.3169 79.0563 83.2679 78.8926 83.121C78.7126 82.9577 78.6144 82.7292 78.6308 82.5007C78.6308 82.4027 78.6471 82.3211 78.6635 82.2232C78.6635 82.1579 78.6799 82.1089 78.6799 82.0436C78.6799 77.8647 75.2757 74.4693 71.0861 74.4693C66.8964 74.4693 63.4923 77.8647 63.4923 82.0436C63.4923 86.2225 66.8964 89.6179 71.0861 89.6179C72.6408 89.6179 74.1465 89.1445 75.4394 88.2304C75.5703 88.1324 75.734 88.0834 75.8813 88.0834L75.8649 88.0998Z" fill="#040000"/>
<path d="M33.919 117.858C34.2136 117.858 34.5082 117.858 34.8028 117.89C36.5375 114.92 40.6127 112.83 45.3588 112.83C50.1049 112.83 54.3273 115.001 55.9966 118.054C56.7822 117.923 57.6169 117.858 58.4515 117.858C64.7688 117.858 69.8913 121.547 69.8913 126.101C69.8913 130.656 64.7688 134.345 58.4515 134.345C55.4893 134.345 52.8053 133.529 50.7759 132.207C49.1393 134.035 46.308 135.243 43.0676 135.243C38.0759 135.243 34.0336 132.37 33.919 128.795C29.7293 128.795 26.3252 126.346 26.3252 123.326C26.3252 120.306 29.7293 117.858 33.919 117.858Z" fill="white"/>
<path d="M43.0838 135.928C37.994 135.928 33.8534 133.137 33.3133 129.464C29.0254 129.235 25.6377 126.558 25.6377 123.326C25.6377 120.094 29.3528 117.172 33.9189 117.172C34.0989 117.172 34.2625 117.172 34.4426 117.172C36.4556 114.103 40.678 112.128 45.3587 112.128C50.0393 112.128 54.3763 114.136 56.3566 117.286C57.0603 117.188 57.764 117.156 58.4678 117.156C65.1451 117.156 70.5949 121.155 70.5949 126.085C70.5949 131.015 65.1614 135.014 58.4678 135.014C55.7183 135.014 53.0506 134.328 50.9067 133.055C49.0574 134.851 46.177 135.912 43.0838 135.912V135.928ZM33.9189 118.527C30.1056 118.527 26.9961 120.682 26.9961 123.326C26.9961 125.971 30.1056 128.125 33.9189 128.125C34.2789 128.125 34.6062 128.419 34.6062 128.778C34.7044 131.978 38.5013 134.573 43.0838 134.573C46.0297 134.573 48.7137 133.529 50.2848 131.766C50.5139 131.521 50.8903 131.472 51.1686 131.651C53.1816 132.957 55.7674 133.675 58.4678 133.675C64.4086 133.675 69.2366 130.28 69.2366 126.118C69.2366 121.955 64.4086 118.56 58.4678 118.56C57.6822 118.56 56.8966 118.625 56.1111 118.739C55.8165 118.788 55.5383 118.641 55.4073 118.396C53.8035 115.491 49.7775 113.532 45.3587 113.532C40.9399 113.532 37.0611 115.393 35.3918 118.249C35.2609 118.478 35.0317 118.625 34.7535 118.592C34.4753 118.576 34.2134 118.56 33.9189 118.56V118.527Z" fill="#040000"/>
</svg>
