<svg width="200" height="116" viewBox="0 0 200 116" fill="none" xmlns="http://www.w3.org/2000/svg">
<path d="M19.426 48.7545C18.1277 48.7545 17.0891 47.7013 17.0891 46.4052C17.0891 42.8246 14.1679 39.9083 10.5813 39.9083H10.3866C10.3866 39.9083 10.273 39.9083 10.208 39.9083C8.90974 39.9083 7.87109 38.8552 7.87109 37.5753C7.87109 36.2953 8.92597 35.226 10.208 35.226C13.7946 35.226 16.7158 32.3097 16.7158 28.7291C16.7158 27.433 17.7707 26.3799 19.0528 26.3799H19.2475C19.2475 26.3799 19.3611 26.3799 19.426 26.3799C20.7243 26.3799 21.763 27.433 21.763 28.7291C21.763 32.3097 24.6842 35.226 28.2708 35.226C29.5691 35.226 30.6077 36.2791 30.6077 37.5753C30.6077 38.8714 29.5528 39.9083 28.2708 39.9083C24.6842 39.9083 21.763 42.8246 21.763 46.4052C21.763 47.7013 20.7081 48.7545 19.426 48.7545ZM10.7111 37.8345C15.3851 37.9155 19.1664 41.7229 19.1664 46.4052C19.1664 46.6968 19.6857 46.6968 19.6857 46.4052C19.6857 41.6743 23.5319 37.8345 28.2708 37.8345C28.4168 37.8345 28.5304 37.7211 28.5304 37.5753C28.5304 37.4295 28.4168 37.316 28.2708 37.316C23.5319 37.316 19.6857 33.46 19.6857 28.7453C19.6857 28.6319 19.6046 28.5185 19.491 28.4861C19.4585 28.4861 19.426 28.4861 19.3936 28.5023H19.2313L18.9879 28.4861C18.8743 28.5185 18.7931 28.6157 18.7931 28.7453C18.7931 33.4762 14.9306 37.316 10.208 37.316C10.062 37.316 9.94839 37.4295 9.94839 37.5753C9.94839 37.7211 10.062 37.8345 10.208 37.8345H10.6462H10.7274H10.7111Z" fill="#231815"/>
<path d="M6.7512 24.1777C5.9073 24.1777 5.22569 23.4973 5.22569 22.6548C5.22569 20.7268 3.65149 19.1714 1.73649 19.1714H1.52551C0.681612 19.1714 0 18.4909 0 17.6484C0 16.8059 0.681612 16.1255 1.52551 16.1255C3.45675 16.1255 5.01472 14.5539 5.01472 12.6421C5.01472 11.7996 5.69633 11.1191 6.54023 11.1191H6.67006C6.67006 11.1191 6.71875 11.1191 6.7512 11.1191C7.5951 11.1191 8.27672 11.7996 8.27672 12.6421C8.27672 14.5701 9.85091 16.1255 11.7659 16.1255C12.6098 16.1255 13.2914 16.8059 13.2914 17.6484C13.2914 18.4909 12.6098 19.1714 11.7659 19.1714C9.83469 19.1714 8.27672 20.743 8.27672 22.6548C8.27672 23.4973 7.5951 24.1777 6.7512 24.1777ZM2.3045 17.6322C4.77128 17.9077 6.71875 19.9653 6.79989 22.4927C6.79989 20.0139 8.68244 17.9725 11.1005 17.6484C8.64998 17.3244 6.73497 15.2182 6.71875 12.6907H6.524C6.58892 15.1696 4.73883 17.2596 2.32073 17.6322H2.3045Z" fill="#231815"/>
<path d="M24.749 87.7687C24.7977 83.7345 25.1385 74.3213 26.1122 70.4977C27.9136 63.4338 30.4129 58.4436 35.2815 51.7361C37.0667 49.2897 42.763 44.3643 45.0026 42.7928C58.7809 33.1527 78.7911 30.8521 95.2796 31.0627C112.223 31.0627 131.584 35.4048 144.664 45.9521C146.79 47.6695 152.129 52.9674 153.752 55.5273C158.166 62.5427 160.812 67.63 161.623 74.8722C161.915 77.4645 162.207 85.6463 161.98 89.6805" fill="white"/>
<path d="M26.0802 87.7689C26.1451 82.4223 26.1451 76.8003 27.2487 71.5347C28.693 64.5842 32.166 57.8119 36.564 52.2547C44.6135 42.0962 57.4505 36.8793 69.8007 34.449C83.5141 31.7595 98.3797 31.4355 112.158 33.8171C125.482 36.134 138.497 41.1889 148.089 50.9586C153.331 56.3051 157.599 63.1423 159.481 70.433C161.056 76.5411 160.991 83.4106 160.666 89.6807C160.585 91.3981 163.246 91.3819 163.328 89.6807C163.62 83.8643 163.62 77.6428 162.532 71.8912C161.283 65.2161 157.81 58.2493 153.525 52.9838C144.664 42.1124 132.136 35.6803 118.633 32.44C104.238 28.989 88.8209 28.908 74.2149 31.0142C66.8146 32.0836 59.4954 33.9143 52.6468 36.9765C46.7395 39.6336 41.6599 43.3438 37.0346 47.8478C31.4682 53.2754 27.5083 60.7768 25.3499 68.1972C23.5322 74.4673 23.4998 81.2882 23.4024 87.7689C23.3862 89.4863 26.0477 89.4863 26.0639 87.7689H26.0802Z" fill="#231815"/>
<path d="M157.874 0.00492517C157.55 -0.04368 156.333 0.280354 155.83 0.409968C127.088 7.76555 99.7427 12.3506 70.3198 13.2093C69.2649 13.2579 68.3561 14.3759 68.2263 15.4128C67.9991 17.3408 68.5022 19.366 69.622 20.9538C69.9628 21.4236 70.6444 22.0393 71.1637 22.3147C71.6019 22.5415 72.0725 22.7683 72.5432 22.8332C76.7302 23.4164 82.881 23.5784 87.1654 23.303H87.3439C88.2365 23.222 88.3501 23.2382 88.3988 23.7242V31.4525C88.4312 31.8737 88.772 32.2301 89.2102 32.2301L102.713 32.4246C103.151 32.4246 103.995 33.024 104.011 32.5866V23.5136C104.011 23.5136 103.995 23.4812 103.995 23.465V23.141C103.995 22.7035 104.06 22.6387 104.498 22.6387H106.283C124.037 22.6387 139.812 18.7665 156.787 14.8133C156.917 14.7809 157.517 14.5703 157.615 14.4893C158.426 13.7602 158.653 12.7881 158.978 11.978C159.643 10.2768 159.676 8.17059 159.773 6.3398C159.871 4.509 159.562 2.03014 158.556 0.507179" fill="#231815"/>
<path d="M165.584 83.5898H21.2285V90.9292H165.584V83.5898Z" fill="white"/>
<path d="M165.584 91.9816H21.2281C20.6601 91.9816 20.1895 91.5117 20.1895 90.9447V83.6053C20.1895 83.0382 20.6601 82.5684 21.2281 82.5684H165.584C166.152 82.5684 166.622 83.0382 166.622 83.6053V90.9447C166.622 91.5117 166.152 91.9816 165.584 91.9816ZM22.2667 89.8915H164.545V84.6422H22.2667V89.8915Z" fill="#231815"/>
<path d="M137.831 51.7561C135.056 53.2467 135.25 57.2323 135.883 60.3268C139.064 75.7347 143.527 90.8833 149.191 105.546C149.808 107.15 150.554 108.867 152.047 109.71C154.725 111.216 157.89 109.126 160.762 108.041C172.431 103.683 184.505 116.725 196.774 114.57C198.705 108.333 199.16 101.657 198.089 95.2253C197.634 92.4872 196.742 89.5547 194.453 87.9832C191.63 86.0552 187.021 86.3792 185.69 83.2361C188.822 82.75 191.97 82.264 195.102 81.7617C195.93 81.6321 196.774 81.4863 197.456 81.0164C198.835 80.0443 198.997 77.9705 198.283 76.4637C197.569 74.957 196.19 73.8715 194.827 72.867C181.422 62.9515 166.264 55.3691 150.278 50.6058C146.578 49.5041 140.379 48.8884 137.798 51.7561" fill="white"/>
<path d="M137.215 50.7026C134.732 52.2255 134.115 55.0122 134.293 57.7665C134.553 61.6549 135.738 65.5596 136.63 69.3346C138.724 78.1159 141.256 86.8 144.177 95.3383C145.54 99.3239 146.838 103.407 148.575 107.247C149.987 110.374 152.567 112.026 156.024 111.2C159.61 110.341 162.434 108.284 166.28 108.381C169.575 108.462 172.756 109.547 175.807 110.714C182.672 113.355 189.52 116.951 197.115 115.769C197.521 115.704 197.862 115.299 197.975 114.91C200.085 107.895 200.848 99.6804 198.787 92.5516C197.992 89.8135 196.466 87.4319 193.805 86.233C191.516 85.196 188.027 85.115 186.777 82.6362L186.047 84.4346C189.52 83.8999 193.318 83.7055 196.693 82.7172C198.868 82.0853 200.085 80.1897 199.939 77.9539C199.777 75.4426 197.878 73.6442 195.995 72.2185C193.366 70.2095 190.624 68.3463 187.849 66.5641C176.748 59.4029 164.641 53.7809 152.015 49.8763C147.439 48.4667 140.801 47.1058 136.987 50.9132C135.868 52.0311 137.604 53.7485 138.708 52.6306C142.619 48.7098 150.457 51.8691 154.774 53.3111C161.46 55.5631 167.952 58.3174 174.233 61.5253C180.383 64.6685 186.307 68.2652 191.954 72.2671C193.707 73.5146 199.663 77.0466 197.034 79.8657C195.979 80.9836 193.155 80.8864 191.695 81.1132C189.601 81.4372 187.508 81.7613 185.414 82.0853C184.587 82.2149 184.376 83.2518 184.684 83.8837C185.739 86.0061 187.816 86.8324 189.958 87.4967C192.977 88.4364 195.168 89.4409 196.255 92.6326C198.56 99.3725 197.635 107.603 195.622 114.278L196.482 113.419C184.7 115.266 174.914 104.184 163.083 106.193C161.736 106.42 160.487 106.858 159.237 107.392C157.468 108.138 155.245 109.466 153.265 108.851C151.285 108.235 150.749 106.193 150.1 104.525C149.354 102.597 148.64 100.669 147.942 98.7245C145.248 91.1907 142.862 83.5597 140.801 75.8314C139.665 71.6028 138.643 67.3255 137.701 63.0483C137.085 60.213 135.251 54.8016 138.448 52.825C139.779 51.9987 138.562 49.8925 137.215 50.7188V50.7026Z" fill="#231815"/>
<path d="M186.128 83.881C182.347 80.8188 178.549 77.7891 174.703 74.808C173.843 74.1437 172.967 73.4632 171.993 72.9772C170.24 72.1023 168.26 71.8593 166.378 71.3408C160.892 69.8827 156.267 66.2697 151.82 62.7539" fill="white"/>
<path d="M186.989 83.0056C184.165 80.705 181.309 78.4368 178.436 76.1847C175.921 74.2243 173.519 72.0047 170.403 71.0812C167.287 70.1577 164.09 69.5258 161.071 67.8408C158.069 66.1558 155.359 64.0334 152.665 61.911C151.448 60.9551 149.695 62.6563 150.945 63.6284C155.992 67.614 161.088 71.4052 167.482 72.8634C169.072 73.236 170.679 73.56 172.091 74.4187C173.632 75.3584 175.028 76.5736 176.456 77.6915C179.41 80.0083 182.347 82.3576 185.269 84.723C186.486 85.7113 188.222 83.9939 186.989 83.0056Z" fill="#231815"/>
</svg>
