<svg width="180" height="145" viewBox="0 0 180 145" fill="none" xmlns="http://www.w3.org/2000/svg">
<path d="M21.527 34.9305C30.7862 34.9305 38.2923 27.4244 38.2923 18.1652C38.2923 8.90599 30.7862 1.3999 21.527 1.3999C12.2678 1.3999 4.76172 8.90599 4.76172 18.1652C4.76172 27.4244 12.2678 34.9305 21.527 34.9305Z" fill="white"/>
<path d="M21.5266 35.9882C11.6987 35.9882 3.7207 27.9937 3.7207 18.1823C3.7207 8.37087 11.6987 0.359863 21.5266 0.359863C31.3546 0.359863 39.3325 8.35435 39.3325 18.1658C39.3325 27.9772 31.338 35.9717 21.5266 35.9717V35.9882ZM21.5266 2.44107C12.8549 2.44107 5.7854 9.49406 5.7854 18.1658C5.7854 26.8375 12.8384 33.907 21.5101 33.907C30.1818 33.907 37.2348 26.854 37.2348 18.1658C37.2348 9.47755 30.1983 2.44107 21.5266 2.44107Z" fill="#231815"/>
<path d="M20.9976 19.9168C20.4195 19.9168 19.957 19.4543 19.957 18.8762V10.0723C19.957 9.49423 20.4195 9.03174 20.9976 9.03174C21.5758 9.03174 22.0382 9.49423 22.0382 10.0723V18.8762C22.0382 19.4543 21.5758 19.9168 20.9976 19.9168Z" fill="#231815"/>
<path d="M27.6386 25.9126C27.3908 25.9126 27.143 25.83 26.9448 25.6483L20.3874 19.7681C19.9579 19.3882 19.9249 18.7275 20.3048 18.298C20.6847 17.8686 21.3454 17.8355 21.7748 18.2154L28.3323 24.0957C28.7618 24.4756 28.7948 25.1363 28.4149 25.5657C28.2167 25.797 27.9194 25.9126 27.6386 25.9126Z" fill="#231815"/>
<path d="M22.4521 104.338C22.5017 100.308 22.8486 90.9094 23.8066 87.0939C25.607 80.0409 28.0846 75.0526 32.9408 68.363C34.7247 65.9184 40.3902 60.9962 42.6201 59.4435C56.3462 49.8303 76.2828 47.5178 92.7343 47.7326C109.615 47.7326 128.908 52.0602 141.94 62.5984C144.054 64.3162 149.39 69.6018 150.992 72.162C155.385 79.1655 158.028 84.2364 158.838 91.471C159.135 94.0478 159.416 102.224 159.201 106.254" fill="white"/>
<path d="M23.7893 104.338C23.8554 98.9533 23.8388 93.2547 24.9785 87.9691C26.4651 81.1309 29.8017 74.5404 34.1127 69.04C41.9916 58.9973 54.5615 53.7282 66.7184 51.2506C80.494 48.4426 95.4754 48.0792 109.334 50.4578C122.68 52.7537 135.745 57.8081 145.358 67.603C150.479 72.8225 154.658 79.4791 156.59 86.5816C158.292 92.7922 158.209 99.8452 157.895 106.238C157.813 107.955 160.472 107.939 160.555 106.238C160.852 100.39 160.852 94.1632 159.745 88.3986C158.457 81.6264 154.906 74.5238 150.495 69.2382C141.526 58.5018 129.105 52.1756 115.61 49.0042C101.224 45.6181 85.8127 45.5686 71.2277 47.7489C63.7948 48.8556 56.4445 50.7551 49.6062 53.9265C43.9077 56.5693 38.9854 60.2692 34.5257 64.6629C29.141 69.965 25.2924 77.2823 23.1616 84.4839C21.2786 90.8432 21.2291 97.731 21.13 104.321C21.1134 106.039 23.7728 106.039 23.7893 104.321V104.338Z" fill="#231815"/>
<path d="M155.121 16.7448C154.807 16.6952 153.585 17.0256 153.089 17.1412C124.464 24.4915 97.1937 29.0503 67.8751 29.9258C66.818 29.9753 65.926 31.082 65.7939 32.1226C65.5626 34.0552 66.0581 36.0538 67.1813 37.656C67.5117 38.135 68.2054 38.7296 68.7175 39.0104C69.1469 39.2417 69.6259 39.4564 70.0884 39.5225C74.2674 40.1171 80.3954 40.2658 84.6569 39.985H84.8386C85.7305 39.9024 85.8462 39.9189 85.8792 40.4144V48.1281C85.9122 48.5576 86.2591 48.9044 86.6886 48.9044L100.15 49.1026C100.58 49.1026 101.422 49.6973 101.455 49.2678V40.1997C101.455 40.1997 101.439 40.1666 101.439 40.1501V39.8363C101.439 39.3903 101.505 39.3408 101.934 39.3408H103.718C121.408 39.3408 137.133 35.4757 154.047 31.5445C154.179 31.5115 154.774 31.3132 154.873 31.2141C155.682 30.4874 155.914 29.5294 156.227 28.72C156.888 27.0187 156.921 24.921 157.02 23.104C157.119 21.2871 156.822 18.8095 155.814 17.2899" fill="#231815"/>
<path d="M90.0083 108.617H9.40264C8.9897 108.617 8.6098 108.369 8.44462 107.989L0.0867469 88.3497C-0.144499 87.8212 0.103264 87.21 0.631826 86.9953C1.16039 86.7806 1.77154 87.0118 1.98626 87.5404L10.0633 106.536H90.0083C90.5864 106.536 91.0489 106.998 91.0489 107.576C91.0489 108.154 90.5864 108.617 90.0083 108.617Z" fill="#231815"/>
<path d="M170.614 108.615H90.0084C89.4303 108.615 88.9678 108.152 88.9678 107.574C88.9678 106.996 89.4303 106.534 90.0084 106.534H169.937L178.014 87.5386C178.245 87.01 178.856 86.7622 179.368 86.9935C179.897 87.2247 180.145 87.8194 179.913 88.3479L171.556 107.971C171.39 108.351 171.01 108.598 170.597 108.598L170.614 108.615Z" fill="#231815"/>
<path d="M162.801 100.174H18.9492V107.492H162.801V100.174Z" fill="white"/>
<path d="M162.801 108.533H18.9498C18.3717 108.533 17.9092 108.07 17.9092 107.492V100.175C17.9092 99.5968 18.3717 99.1343 18.9498 99.1343H162.801C163.379 99.1343 163.842 99.5968 163.842 100.175V107.492C163.842 108.07 163.379 108.533 162.801 108.533ZM19.9904 106.452H161.76V101.199H19.9904V106.452Z" fill="#231815"/>
<path d="M64.8854 122.503C65.8104 123.594 66.2729 125.014 66.5702 126.402C66.7354 127.178 66.7684 127.773 66.9171 128.697C67.7925 134.462 66.0086 138.046 64.0926 140.243C61.8958 142.754 57.5021 144.009 54.3142 143.233C44.8001 140.937 44.5523 130.399 49.8875 125.543C54.3968 121.43 55.4044 116.673 55.6356 114.575C55.6852 114.146 56.2137 113.964 56.511 114.278C63.5805 121.512 61.648 128.268 63.0685 127.739C63.4154 127.607 63.4319 127.574 64.1091 125.328C64.2908 124.75 64.456 124.056 64.5386 122.9C64.5386 122.9 64.5055 122.024 64.902 122.487L64.8854 122.503Z" fill="white"/>
<path d="M56.3294 144.505C55.5531 144.505 54.7933 144.422 54.0665 144.241C49.7554 143.2 46.6997 140.375 45.7086 136.461C44.6515 132.331 46.039 127.624 49.1773 124.766C53.4884 120.835 54.3968 116.243 54.595 114.459C54.6611 113.865 55.0575 113.369 55.6357 113.171C56.2138 112.973 56.8249 113.121 57.2544 113.551C61.5489 117.945 62.6886 122.239 63.1511 124.849C63.2998 124.304 63.4319 123.709 63.498 122.817C63.4484 121.876 63.977 121.512 64.2908 121.397C64.4725 121.331 65.1167 121.149 65.6783 121.826C66.8345 123.197 67.3136 124.965 67.5778 126.187C67.6935 126.715 67.743 127.161 67.8091 127.657C67.8421 127.921 67.8752 128.202 67.9247 128.532C68.6845 133.537 67.6604 137.716 64.8524 140.92C62.9364 143.117 59.4842 144.505 56.3129 144.505H56.3294ZM56.4946 115.797C56.0486 118.242 54.6776 122.57 50.5813 126.302C47.988 128.664 46.8483 132.546 47.7237 135.949C48.5496 139.137 50.9777 141.366 54.562 142.225C57.4361 142.919 61.4498 141.697 63.3163 139.55C65.6948 136.808 66.5703 133.207 65.893 128.83C65.8435 128.483 65.7939 128.185 65.7609 127.905C65.7114 127.459 65.6618 127.062 65.5627 126.6C65.4471 126.088 65.3315 125.642 65.1993 125.245C65.1663 125.377 65.1332 125.493 65.0837 125.625C64.3404 128.103 64.2413 128.4 63.4154 128.714C63.019 128.863 62.5895 128.83 62.2427 128.631C61.5654 128.235 61.4498 127.492 61.2516 126.253C60.9047 124.056 60.2936 120.092 56.478 115.797H56.4946Z" fill="#231815"/>
<path d="M51.9516 135.916C51.3074 135.751 50.8284 135.702 50.5311 136.115C50.2337 136.528 50.2668 137.089 50.3494 137.585C50.8614 140.541 52.1333 142.969 55.1725 143.382C56.3122 143.531 58.2447 143.415 59.4175 142.573C59.8469 142.259 60.2599 141.648 60.3755 141.136C60.8545 139.286 60.5902 137.254 59.6653 135.57C59.0211 134.413 58.0631 133.274 58.2117 131.969C58.2778 131.44 58.8229 130.845 58.6081 130.35C58.476 130.053 58.3273 130.102 58.1622 130.102C58.0796 130.102 57.9474 130.135 57.8648 130.152C56.4774 130.449 54.2475 131.837 53.5207 133.026C52.8435 134.116 53.9337 134.529 53.273 135.669C53.2234 135.751 53.0417 136.065 52.4801 136.032" fill="white"/>
<path d="M52.2328 134.909C51.4235 134.71 50.5481 134.628 49.9039 135.256C49.2597 135.883 49.1936 136.841 49.3258 137.667C49.524 139.005 49.9369 140.392 50.6472 141.549C52.2494 144.125 55.2886 144.902 58.1296 144.225C59.7153 143.845 61.0367 142.821 61.4331 141.185C61.8295 139.451 61.6809 137.601 61.0037 135.949C60.6733 135.173 60.2273 134.479 59.7979 133.752C59.451 133.158 59.1041 132.53 59.3354 131.836C59.5997 131.077 59.897 130.416 59.4015 129.673C58.9059 128.929 58.0305 129.028 57.2872 129.243C55.7676 129.673 54.1819 130.647 53.1413 131.836C52.6127 132.431 52.1833 133.141 52.2494 133.984C52.2659 134.281 52.4311 134.628 52.4311 134.892C52.4311 134.793 52.398 135.272 52.3485 135.173C52.3485 135.173 52.6127 135.008 52.4641 135.024C51.1262 135.041 51.1262 137.122 52.4641 137.105C53.4221 137.105 54.1489 136.56 54.4132 135.635C54.5453 135.156 54.5123 134.71 54.4132 134.231C54.3471 133.951 54.2645 133.852 54.4132 133.587C54.7931 132.894 55.652 132.365 56.2962 131.969C56.8743 131.622 57.7002 131.093 58.4104 131.176L57.8818 131.027L57.9975 131.093L57.6176 130.713C57.568 130.614 57.7497 130.482 57.6176 130.614C57.601 130.631 57.5845 130.746 57.568 130.779C57.4854 130.977 57.3863 131.159 57.3202 131.357C57.1551 131.836 57.1551 132.348 57.2377 132.844C57.3863 133.769 57.8818 134.578 58.3609 135.355C59.3354 136.957 59.8805 138.757 59.451 140.64C59.0876 142.259 57.1386 142.457 55.7346 142.391C54.3966 142.325 53.2239 141.73 52.4971 140.591C52.0677 139.913 51.8034 139.17 51.5887 138.394C51.4896 138.014 51.3739 137.601 51.3409 137.205C51.3409 137.039 51.44 136.676 51.2748 136.792C51.1592 136.891 51.5061 136.874 51.6712 136.907C52.9761 137.221 53.5212 135.222 52.2163 134.909H52.2328Z" fill="#231815"/>
<path d="M98.5808 122.503C99.5057 123.594 99.9682 125.014 100.266 126.402C100.431 127.178 100.464 127.773 100.612 128.697C101.488 134.462 99.7039 138.046 97.7879 140.243C95.5911 142.754 91.1974 144.009 88.0095 143.233C78.4954 140.937 78.2477 130.399 83.5828 125.543C88.0921 121.43 89.0997 116.673 89.3309 114.575C89.3805 114.146 89.909 113.964 90.2064 114.278C97.2759 121.512 95.3433 128.268 96.7638 127.739C97.1107 127.607 97.1272 127.574 97.8044 125.328C97.9861 124.75 98.1513 124.056 98.2339 122.9C98.2339 122.9 98.2008 122.024 98.5973 122.487L98.5808 122.503Z" fill="white"/>
<path d="M90.0247 144.505C89.2484 144.505 88.4886 144.422 87.7618 144.241C83.4507 143.2 80.395 140.375 79.4039 136.461C78.3468 132.331 79.7343 127.624 82.8726 124.766C87.1837 120.835 88.0921 116.243 88.2904 114.459C88.3564 113.865 88.7529 113.369 89.331 113.171C89.9091 112.973 90.5202 113.121 90.9497 113.551C95.2442 117.945 96.384 122.239 96.8465 124.849C96.9951 124.304 97.1272 123.709 97.1933 122.817C97.1438 121.876 97.6723 121.512 97.9862 121.397C98.1679 121.331 98.812 121.149 99.3736 121.826C100.53 123.197 101.009 124.965 101.273 126.187C101.389 126.715 101.438 127.161 101.504 127.657C101.537 127.921 101.57 128.202 101.62 128.532C102.396 133.537 101.356 137.716 98.5478 140.92C96.6317 143.117 93.1796 144.505 90.0082 144.505H90.0247ZM90.1899 115.797C89.7439 118.242 88.3729 122.57 84.2766 126.302C81.6833 128.664 80.5436 132.546 81.4191 135.949C82.2449 139.137 84.673 141.366 88.2573 142.225C91.1314 142.919 95.1451 141.697 97.0116 139.55C99.3902 136.808 100.266 133.207 99.5884 128.83C99.5388 128.483 99.4893 128.185 99.4562 127.905C99.4067 127.459 99.3571 127.062 99.258 126.6C99.1424 126.088 99.0268 125.642 98.8946 125.245C98.8616 125.377 98.8286 125.493 98.779 125.625C98.0357 128.103 97.9366 128.4 97.1107 128.714C96.6978 128.863 96.3014 128.83 95.938 128.631C95.2608 128.235 95.1451 127.492 94.9469 126.253C94.6001 124.056 93.9889 120.092 90.1734 115.797H90.1899Z" fill="#231815"/>
<path d="M85.6478 135.915C85.0037 135.75 84.5247 135.701 84.2273 136.114C83.93 136.527 83.9631 137.088 84.0456 137.584C84.5577 140.54 85.8295 142.968 88.8688 143.381C90.0085 143.53 91.941 143.414 93.1138 142.572C93.5432 142.258 93.9562 141.647 94.0718 141.135C94.5508 139.285 94.2865 137.253 93.3615 135.569C92.7174 134.412 91.7593 133.273 91.908 131.968C91.9741 131.439 92.5191 130.845 92.3044 130.349C92.1723 130.052 92.0236 130.101 91.8584 130.101C91.7759 130.101 91.6437 130.134 91.5611 130.151C90.1737 130.448 87.9438 131.836 87.217 133.025C86.5398 134.115 87.63 134.528 86.9693 135.668C86.9197 135.75 86.738 136.064 86.1764 136.031" fill="white"/>
<path d="M85.9125 134.908C85.1032 134.709 84.2277 134.627 83.5836 135.255C82.9394 135.882 82.8733 136.84 83.0054 137.666C83.2037 139.004 83.6166 140.392 84.3268 141.548C85.929 144.124 88.9683 144.901 91.8093 144.224C93.395 143.844 94.7164 142.82 95.1128 141.184C95.5092 139.45 95.3606 137.6 94.6833 135.948C94.353 135.172 93.907 134.478 93.4776 133.751C93.1307 133.157 92.7838 132.529 93.0151 131.835C93.2794 131.076 93.5767 130.415 93.0811 129.672C92.5856 128.928 91.7102 129.027 90.9669 129.242C89.4473 129.672 87.8616 130.646 86.821 131.835C86.2924 132.43 85.863 133.14 85.929 133.983C85.9456 134.28 86.1107 134.627 86.1107 134.891C86.1107 134.792 86.0777 135.271 86.0282 135.172C86.0282 135.172 86.2924 135.007 86.1438 135.023C84.8059 135.04 84.8059 137.121 86.1438 137.105C87.1018 137.105 87.8286 136.559 88.0929 135.634C88.225 135.155 88.192 134.709 88.0929 134.23C88.0268 133.95 87.9442 133.851 88.0929 133.586C88.4728 132.893 89.3317 132.364 89.9759 131.968C90.554 131.621 91.3798 131.092 92.0901 131.175L91.5615 131.026L91.6772 131.092L91.2973 130.712C91.2477 130.613 91.4294 130.481 91.2973 130.613C91.2807 130.63 91.2642 130.745 91.2477 130.778C91.1651 130.976 91.066 131.158 90.9999 131.356C90.8348 131.835 90.8348 132.347 90.9174 132.843C91.066 133.768 91.5615 134.577 92.0405 135.354C93.0151 136.956 93.5602 138.756 93.1307 140.639C92.7673 142.258 90.8182 142.456 89.4143 142.39C88.0763 142.324 86.9036 141.729 86.1768 140.59C85.7474 139.912 85.4831 139.169 85.2683 138.393C85.1692 138.013 85.0536 137.6 85.0206 137.204C85.0206 137.038 85.1197 136.675 84.9545 136.791C84.8389 136.89 85.1858 136.873 85.3509 136.906C86.6558 137.22 87.2009 135.222 85.896 134.908H85.9125Z" fill="#231815"/>
<path d="M131.352 122.503C132.277 123.594 132.74 125.014 133.037 126.402C133.202 127.178 133.235 127.773 133.384 128.697C134.259 134.462 132.475 138.046 130.559 140.243C128.363 142.754 123.969 144.009 120.781 143.233C111.267 140.937 111.019 130.399 116.354 125.543C120.864 121.43 121.871 116.673 122.102 114.575C122.152 114.146 122.681 113.964 122.978 114.278C130.047 121.512 128.115 128.268 129.535 127.739C129.882 127.607 129.899 127.574 130.576 125.328C130.758 124.75 130.923 124.056 131.005 122.9C131.005 122.9 130.972 122.024 131.369 122.487L131.352 122.503Z" fill="white"/>
<path d="M122.796 144.505C122.02 144.505 121.26 144.422 120.533 144.241C116.222 143.2 113.166 140.375 112.175 136.461C111.118 132.331 112.506 127.624 115.644 124.766C119.955 120.835 120.864 116.243 121.062 114.459C121.128 113.865 121.524 113.369 122.102 113.171C122.681 112.973 123.292 113.121 123.721 113.551C128.016 117.945 129.155 122.239 129.618 124.849C129.767 124.304 129.899 123.709 129.965 122.817C129.915 121.876 130.444 121.512 130.758 121.397C130.939 121.331 131.584 121.149 132.145 121.826C133.301 123.197 133.78 124.965 134.045 126.187C134.16 126.715 134.21 127.161 134.276 127.657C134.309 127.921 134.342 128.202 134.392 128.532C135.151 133.537 134.127 137.716 131.319 140.92C129.403 143.117 125.951 144.505 122.78 144.505H122.796ZM122.961 115.797C122.515 118.242 121.144 122.57 117.048 126.302C114.455 128.664 113.315 132.546 114.191 135.949C115.016 139.137 117.444 141.366 121.029 142.225C123.903 142.919 127.917 141.697 129.783 139.55C132.162 136.808 133.037 133.207 132.36 128.83C132.31 128.483 132.261 128.185 132.228 127.905C132.178 127.459 132.129 127.062 132.029 126.6C131.914 126.088 131.798 125.642 131.666 125.245C131.633 125.377 131.6 125.493 131.55 125.625C130.807 128.103 130.708 128.4 129.882 128.714C129.486 128.863 129.073 128.83 128.709 128.631C128.032 128.235 127.917 127.492 127.718 126.253C127.372 124.056 126.76 120.092 122.945 115.797H122.961Z" fill="#231815"/>
<path d="M118.418 135.915C117.774 135.75 117.295 135.701 116.998 136.114C116.701 136.527 116.734 137.088 116.816 137.584C117.328 140.54 118.6 142.968 121.639 143.381C122.779 143.53 124.712 143.414 125.884 142.572C126.314 142.258 126.727 141.647 126.842 141.135C127.321 139.285 127.057 137.253 126.132 135.569C125.488 134.412 124.53 133.273 124.679 131.968C124.745 131.439 125.29 130.845 125.075 130.349C124.943 130.052 124.794 130.101 124.629 130.101C124.546 130.101 124.414 130.134 124.332 130.151C122.944 130.448 120.714 131.836 119.988 133.025C119.31 134.115 120.4 134.528 119.74 135.668C119.69 135.75 119.509 136.064 118.947 136.031" fill="white"/>
<path d="M118.7 134.908C117.89 134.709 117.015 134.627 116.371 135.255C115.726 135.882 115.66 136.84 115.793 137.666C115.991 139.004 116.404 140.392 117.114 141.548C118.716 144.124 121.755 144.901 124.596 144.224C126.182 143.844 127.503 142.82 127.9 141.184C128.296 139.45 128.148 137.6 127.47 135.948C127.14 135.172 126.694 134.478 126.265 133.751C125.918 133.157 125.571 132.529 125.802 131.835C126.066 131.076 126.364 130.415 125.868 129.672C125.373 128.928 124.497 129.027 123.754 129.242C122.234 129.672 120.649 130.646 119.608 131.835C119.08 132.43 118.65 133.14 118.716 133.983C118.733 134.28 118.898 134.627 118.898 134.891C118.898 134.792 118.865 135.271 118.815 135.172C118.815 135.172 119.08 135.007 118.931 135.023C117.593 135.04 117.593 137.121 118.931 137.105C119.889 137.105 120.616 136.559 120.88 135.634C121.012 135.155 120.979 134.709 120.88 134.23C120.814 133.95 120.731 133.851 120.88 133.586C121.26 132.893 122.119 132.364 122.763 131.968C123.341 131.621 124.167 131.092 124.877 131.175L124.349 131.026L124.464 131.092L124.084 130.712C124.035 130.613 124.217 130.481 124.084 130.613C124.068 130.63 124.051 130.745 124.035 130.778C123.952 130.976 123.853 131.158 123.787 131.356C123.622 131.835 123.622 132.347 123.704 132.843C123.853 133.768 124.349 134.577 124.828 135.354C125.802 136.956 126.347 138.756 125.918 140.639C125.554 142.258 123.605 142.456 122.201 142.39C120.863 142.324 119.691 141.729 118.964 140.59C118.534 139.912 118.27 139.169 118.055 138.393C117.956 138.013 117.841 137.6 117.808 137.204C117.808 137.038 117.907 136.675 117.742 136.791C117.626 136.89 117.973 136.873 118.138 136.906C119.443 137.22 119.988 135.222 118.683 134.908H118.7Z" fill="#231815"/>
</svg>
