<svg width="190" height="147" viewBox="0 0 190 147" fill="none" xmlns="http://www.w3.org/2000/svg">
<path d="M80.9928 60.4093C80.8062 60.4093 80.6196 60.3585 80.4499 60.2736C79.9241 59.9853 79.7375 59.3067 80.0258 58.7809L80.5347 57.8818C81.1454 56.7962 81.6034 56.0158 81.7052 55.49C81.7731 55.2016 81.8409 54.8963 80.9588 53.9293C80.1785 53.0812 79.1777 52.4535 77.9733 51.7411L77.8036 51.6393C76.6501 50.9608 75.4627 50.2822 74.4449 49.2814C71.9852 46.8896 71.0862 43.3612 70.4415 40.2569L70.1192 38.6793C69.5934 36.033 69.0506 33.285 67.897 31.0967C67.1846 29.7396 66.1668 28.4843 64.7928 27.229C63.5205 26.0755 62.0617 25.0577 60.6876 24.0908C55.6495 20.6133 50.4418 17.2207 45.234 14.0146C40.0263 10.8085 34.6489 7.70423 29.2715 4.76957C27.8296 3.98926 26.286 3.17502 24.6914 2.68308C22.9951 2.15722 21.4684 2.05544 20.0095 2.36078C18.6016 2.66612 14.717 9.43449 12.851 12.6915C11.8671 14.4217 11.002 15.9145 10.3235 16.9662C9.98419 17.4751 9.30566 17.6108 8.79676 17.2885C8.28786 16.9493 8.13519 16.2707 8.47446 15.7618C9.11906 14.761 10.0012 13.2173 10.9341 11.5888C14.717 5.04098 17.3463 0.698367 19.5515 0.223394C21.3836 -0.166763 23.2835 -0.0480197 25.336 0.596587C27.1172 1.15638 28.7796 2.02151 30.3063 2.85271C35.7176 5.80433 41.1289 8.92559 46.3706 12.1486C51.6122 15.3717 56.8539 18.7813 61.9259 22.2927C63.3678 23.2935 64.8945 24.3622 66.2686 25.6006C67.8292 27.0255 68.9997 28.4843 69.8478 30.0619C71.154 32.5216 71.7308 35.4393 72.2906 38.2383L72.6129 39.7989C73.3592 43.3612 74.1905 45.9396 76.0055 47.7038C76.8367 48.5011 77.8545 49.1118 78.9402 49.7394L79.1098 49.8412C80.1955 50.4688 81.5356 51.2661 82.6043 52.4366C83.4694 53.3696 84.2158 54.4383 83.8765 55.948C83.6899 56.8131 83.198 57.6613 82.4686 58.9505L81.9766 59.8326C81.7731 60.1888 81.3999 60.3924 81.0097 60.3924L80.9928 60.4093Z" fill="#231815"/>
<path d="M78.1946 62.7677C77.7027 62.7677 77.2107 62.6829 76.7188 62.5642C75.2769 62.2419 74.0725 61.5803 72.7494 60.8169L72.5628 60.6982C71.4771 60.0875 70.4593 59.4938 69.3567 59.1715C66.914 58.476 64.2847 59.0188 60.8072 60.1554L59.2974 60.6473C56.5833 61.5633 53.7674 62.4963 50.9854 62.5981C49.2043 62.666 47.3553 62.3606 45.3366 61.699C43.5724 61.1223 41.8931 60.342 40.2985 59.5786C34.7345 56.9154 29.1875 54.0655 23.7762 51.097C18.3649 48.1284 12.9706 44.9902 7.72889 41.7502C6.30397 40.8681 4.67549 39.8333 3.30145 38.5441C1.72386 37.0683 0.672137 35.4907 0.112346 33.6926C-0.566188 31.5382 1.8935 27.1108 5.74418 20.5799C6.69412 18.9684 7.59318 17.4417 8.13601 16.373C8.40742 15.8302 9.06899 15.6266 9.61182 15.898C10.1546 16.1694 10.3582 16.831 10.0868 17.3738C9.51004 18.4934 8.64491 19.9692 7.62711 21.6825C5.72721 24.9225 1.75779 31.64 2.19884 33.014C2.65685 34.439 3.50502 35.7112 4.79423 36.9156C6.03255 38.0691 7.54229 39.036 8.88239 39.8672C14.0732 43.0903 19.4506 46.2115 24.8279 49.1462C30.2053 52.0808 35.7184 54.9137 41.2485 57.577C42.7582 58.3064 44.3867 59.0528 46.0152 59.5956C47.7793 60.1723 49.3909 60.4268 50.9176 60.3759C53.3772 60.2911 56.0405 59.409 58.602 58.5439L60.1287 58.035C63.1481 57.0511 66.6595 56.0842 69.9504 57.0341C71.3075 57.4243 72.4949 58.1028 73.6315 58.7644L73.8181 58.8831C75.0394 59.5786 76.0572 60.1384 77.1938 60.3929C78.466 60.6812 78.7035 60.4607 78.924 60.2741C79.3312 59.9179 79.7892 59.1376 80.4168 58.0689L80.9427 57.1868C81.265 56.6609 81.9266 56.4913 82.4524 56.8136C82.9783 57.1189 83.1479 57.7975 82.8256 58.3233L82.2997 59.2054C81.5364 60.4777 81.0445 61.3259 80.3998 61.9196C79.7044 62.5472 78.941 62.7508 78.1946 62.7508V62.7677Z" fill="#231815"/>
<path d="M16.5834 46.9064C16.3968 46.9064 16.2102 46.8556 16.0406 46.7538C15.5147 46.4484 15.3451 45.7869 15.6504 45.261L37.2109 8.09431C37.5162 7.56845 38.1778 7.39881 38.7036 7.70415C39.2295 8.00949 39.3991 8.67106 39.0938 9.19693L17.5334 46.3636C17.3298 46.7198 16.9566 46.9064 16.5834 46.9064Z" fill="#231815"/>
<path d="M34.853 56.7774C34.6664 56.7774 34.4798 56.7265 34.3101 56.6247C33.7843 56.3194 33.6146 55.6578 33.92 55.1319L54.4795 19.7125C54.7849 19.1866 55.4465 19.017 55.9723 19.3223C56.4982 19.6277 56.6678 20.2892 56.3625 20.8151L35.8029 56.2346C35.5993 56.5908 35.2262 56.7774 34.853 56.7774Z" fill="#231815"/>
<path d="M72.037 59.613C71.9352 59.613 71.8165 59.613 71.7147 59.5621C71.1379 59.3755 70.8156 58.7649 71.0022 58.1881C72.953 52.0304 75.9216 49.7064 76.0403 49.6216C76.5153 49.2654 77.2108 49.3502 77.567 49.8252C77.9233 50.3001 77.8384 50.9787 77.3635 51.3519C77.2956 51.4028 74.785 53.4553 73.0717 58.8497C72.9191 59.3077 72.495 59.613 72.037 59.613Z" fill="#231815"/>
<path d="M86.4218 76.3037C84.1996 76.3037 82.3337 74.5395 82.2149 72.3343C82.0792 71.6557 82.198 69.6201 85.7603 64.9722L86.4218 64.124L87.0834 64.9722C90.3234 69.213 90.7305 71.2486 90.6627 72.1138C90.6457 74.4377 88.7458 76.3207 86.4218 76.3207V76.3037ZM86.4218 66.8551C83.6738 70.6549 83.8264 72.012 83.8434 72.012L83.8943 72.1307V72.1816C83.9113 73.5387 85.0648 74.6413 86.4388 74.6413C87.8128 74.6413 89.0172 73.4878 89.0172 72.0629V71.9781C89.0172 71.9781 89.119 70.5701 86.4388 66.8382L86.4218 66.8551Z" fill="#221714"/>
<path d="M95.1407 88.8051C93.4783 89.9925 90.9168 89.9756 89.2883 88.7712L88.2705 87.7873C87.6768 87.007 87.3036 86.0401 87.2527 85.0053C87.117 84.1571 87.3375 81.7314 91.5784 76.2183L92.24 75.3701L92.9015 76.2183C97.1084 81.6974 97.3629 84.1232 97.2272 84.9883C97.1932 86.0231 96.8201 86.973 96.2433 87.7534M88.966 85.4463C89.2714 86.9561 90.6284 88.1096 92.24 88.1096C93.8515 88.1096 95.1576 87.007 95.4969 85.5312L95.5987 84.7C95.5987 84.3777 95.5139 82.5456 92.24 78.0842C88.9321 82.5965 88.8642 84.4116 88.8812 84.7L88.9491 85.4294L88.966 85.4463ZM95.6496 84.7H95.5987H95.6496Z" fill="#221714"/>
<path d="M116.633 143.513C116.209 143.513 115.819 143.275 115.632 142.868C115.378 142.308 115.632 141.664 116.175 141.409L134.563 133.046C135.123 132.792 135.768 133.046 136.022 133.589C136.277 134.149 136.022 134.794 135.479 135.048L117.091 143.411C116.939 143.479 116.786 143.513 116.633 143.513Z" fill="#231815"/>
<path d="M161.959 60.0034C146.234 60.0034 133.919 53.6592 133.919 45.5676C133.919 37.4761 146.234 31.1318 161.959 31.1318C177.684 31.1318 190 37.4761 190 45.5676C190 53.6592 177.684 60.0034 161.959 60.0034ZM161.959 33.3201C147.948 33.3201 136.124 38.918 136.124 45.5676C136.124 52.2173 147.965 57.8152 161.959 57.8152C175.954 57.8152 187.795 52.2173 187.795 45.5676C187.795 38.918 175.954 33.3201 161.959 33.3201Z" fill="#231815"/>
<path d="M161.959 146.346C154.597 146.346 147.659 144.921 142.418 142.326C136.938 139.612 133.919 135.914 133.919 131.91C133.919 131.3 134.411 130.808 135.022 130.808C135.632 130.808 136.124 131.3 136.124 131.91C136.124 135.031 138.703 138.034 143.401 140.358C148.338 142.801 154.937 144.158 161.959 144.158C168.982 144.158 175.581 142.818 180.517 140.358C185.216 138.034 187.795 135.031 187.795 131.91C187.795 131.3 188.286 130.808 188.897 130.808C189.508 130.808 190 131.3 190 131.91C190 135.914 186.98 139.612 181.501 142.326C176.259 144.921 169.321 146.346 161.959 146.346Z" fill="#231815"/>
<path d="M135.022 135.15C134.411 135.15 133.919 134.658 133.919 134.047V45.5665C133.919 44.9558 134.411 44.4639 135.022 44.4639C135.632 44.4639 136.124 44.9558 136.124 45.5665V134.047C136.124 134.658 135.632 135.15 135.022 135.15Z" fill="#231815"/>
<path d="M188.897 133.013C188.286 133.013 187.794 132.521 187.794 131.91V45.5665C187.794 44.9558 188.286 44.4639 188.897 44.4639C189.507 44.4639 189.999 44.9558 189.999 45.5665V131.91C189.999 132.521 189.507 133.013 188.897 133.013Z" fill="#231815"/>
<path d="M161.959 51.5384C154.801 51.5384 149.406 48.8243 149.406 45.2111C149.406 41.5979 154.801 38.8838 161.959 38.8838C169.118 38.8838 174.512 41.5979 174.512 45.2111C174.512 48.8243 169.118 51.5384 161.959 51.5384ZM161.959 41.0212C155.988 41.0212 151.544 43.2264 151.544 45.2111C151.544 47.1958 156.005 49.4011 161.959 49.4011C167.913 49.4011 172.375 47.1958 172.375 45.2111C172.375 43.2264 167.913 41.0212 161.959 41.0212Z" fill="#231815"/>
<path d="M113.934 55.9318C113.646 55.9318 113.375 55.83 113.154 55.6095C112.73 55.1854 112.73 54.4899 113.154 54.0489L116.173 51.0294L113.934 48.8411C113.51 48.4171 113.493 47.7216 113.934 47.2805C114.358 46.8564 115.054 46.8395 115.495 47.2805L117.734 49.5027C118.158 49.9268 118.379 50.4696 118.379 51.0464C118.379 51.6231 118.158 52.1829 117.734 52.59L114.732 55.6095C114.511 55.83 114.24 55.9318 113.951 55.9318H113.934Z" fill="#231815"/>
<path d="M116.954 60.4932C116.666 60.4932 116.394 60.3914 116.174 60.1709L113.154 57.1514C112.747 56.7443 112.51 56.1845 112.51 55.6078C112.51 55.031 112.73 54.4712 113.154 54.0641L116.157 51.0446C116.581 50.6205 117.276 50.6205 117.718 51.0446C118.142 51.4687 118.142 52.1642 117.718 52.6053L114.698 55.6247L117.701 58.6103C118.125 59.0344 118.125 59.7299 117.701 60.1709C117.48 60.3914 117.209 60.4932 116.92 60.4932H116.954Z" fill="#231815"/>
<path d="M116.954 51.419C116.666 51.419 116.394 51.3172 116.174 51.0967L113.154 48.0772C112.747 47.6701 112.51 47.1103 112.51 46.5335C112.51 45.9568 112.73 45.397 113.154 44.9899L116.174 41.9704C116.598 41.5463 117.293 41.5463 117.734 41.9704C118.159 42.3945 118.159 43.09 117.734 43.531L114.715 46.5505L117.734 49.5361C118.159 49.9601 118.159 50.6556 117.734 51.0967C117.514 51.3172 117.243 51.419 116.954 51.419Z" fill="#231815"/>
<path d="M113.783 72.5719C113.495 72.5719 113.223 72.4702 113.003 72.2496C112.579 71.8255 112.579 71.13 113.003 70.689L116.022 67.6695L113.783 65.4813C113.359 65.0572 113.342 64.3617 113.783 63.9206C114.224 63.4796 114.903 63.4796 115.344 63.9206L117.583 66.1428C118.431 66.991 118.431 68.382 117.583 69.2302L114.563 72.2496C114.343 72.4702 114.071 72.5719 113.783 72.5719Z" fill="#231815"/>
<path d="M116.803 77.1358C116.514 77.1358 116.243 77.034 116.022 76.8135L113.003 73.794C112.596 73.3869 112.358 72.8271 112.358 72.2503C112.358 71.6736 112.579 71.1138 113.003 70.7067L116.006 67.6872C116.43 67.2631 117.125 67.2631 117.566 67.6872C117.99 68.1113 117.99 68.8068 117.566 69.2478L114.547 72.2673L117.566 75.2529C117.99 75.6769 117.99 76.3724 117.566 76.8135C117.346 77.034 117.074 77.1358 116.786 77.1358H116.803Z" fill="#231815"/>
<path d="M116.803 68.0606C116.514 68.0606 116.243 67.9588 116.022 67.7383L113.003 64.7188C112.596 64.3117 112.358 63.7519 112.358 63.1752C112.358 62.5984 112.579 62.0386 113.003 61.6315L116.006 58.612C116.43 58.1879 117.125 58.1879 117.566 58.612C117.99 59.0361 117.99 59.7316 117.566 60.1726L114.547 63.1921L117.566 66.1777C117.99 66.6017 117.99 67.2972 117.566 67.7383C117.346 67.9588 117.074 68.0606 116.786 68.0606H116.803Z" fill="#231815"/>
<path d="M113.631 89.214C113.342 89.214 113.071 89.1123 112.85 88.8917C112.426 88.4677 112.426 87.7722 112.85 87.3311L115.87 84.3116L113.631 82.1234C113.207 81.6993 113.19 81.0038 113.631 80.5627C114.055 80.1387 114.75 80.1217 115.191 80.5627L117.43 82.7849C118.279 83.6331 118.279 85.0241 117.43 85.8723L114.411 88.8917C114.19 89.1123 113.919 89.214 113.631 89.214Z" fill="#231815"/>
<path d="M116.65 93.7764C116.362 93.7764 116.091 93.6746 115.87 93.4541L112.851 90.4346C112.444 90.0275 112.206 89.4677 112.206 88.891C112.206 88.3142 112.427 87.7544 112.851 87.3473L115.853 84.3278C116.277 83.9037 116.973 83.9037 117.414 84.3278C117.838 84.7519 117.838 85.4474 117.414 85.8885L114.394 88.9079L117.414 91.8935C117.838 92.3176 117.838 93.0131 117.414 93.4541C117.193 93.6746 116.922 93.7764 116.633 93.7764H116.65Z" fill="#231815"/>
<path d="M116.65 84.6846C116.362 84.6846 116.091 84.5828 115.87 84.3623L112.851 81.3428C112.444 80.9357 112.206 80.3759 112.206 79.7992C112.206 79.2224 112.427 78.6626 112.851 78.2555L115.87 75.236C116.294 74.8119 116.99 74.8119 117.431 75.236C117.855 75.6601 117.855 76.3556 117.431 76.7967L114.411 79.8161L117.431 82.8017C117.855 83.2258 117.855 83.9213 117.431 84.3623C117.21 84.5828 116.939 84.6846 116.65 84.6846Z" fill="#231815"/>
<path d="M113.477 105.839C113.189 105.839 112.917 105.737 112.697 105.517C112.273 105.093 112.273 104.397 112.697 103.956L115.716 100.937L113.477 98.7484C113.053 98.3243 113.036 97.6288 113.477 97.1877C113.901 96.7637 114.597 96.7467 115.038 97.1877L117.277 99.4099C117.701 99.834 117.922 100.377 117.922 100.954C117.922 101.53 117.701 102.09 117.277 102.497L114.275 105.517C114.054 105.737 113.783 105.839 113.494 105.839H113.477Z" fill="#231815"/>
<path d="M116.479 110.401C116.191 110.401 115.919 110.3 115.699 110.079L112.679 107.06C111.831 106.211 111.831 104.82 112.679 103.972L115.699 100.953C116.123 100.529 116.818 100.529 117.259 100.953C117.683 101.377 117.683 102.072 117.259 102.513L114.24 105.533L117.259 108.518C117.683 108.943 117.683 109.638 117.259 110.079C117.039 110.3 116.767 110.401 116.479 110.401Z" fill="#231815"/>
<path d="M116.48 101.326C116.191 101.326 115.92 101.224 115.699 101.004L112.68 97.9844C112.273 97.5773 112.035 97.0175 112.035 96.4408C112.035 95.864 112.256 95.3042 112.68 94.8971L115.699 91.8776C116.123 91.4535 116.819 91.4535 117.26 91.8776C117.684 92.3017 117.684 92.9972 117.26 93.4383L114.24 96.4577L117.26 99.4433C117.684 99.8674 117.684 100.563 117.26 101.004C117.039 101.224 116.768 101.326 116.48 101.326Z" fill="#231815"/>
<path d="M113.325 122.476C113.037 122.476 112.765 122.374 112.545 122.154C112.121 121.73 112.121 121.034 112.545 120.593L115.564 117.574L113.325 115.386C112.901 114.961 112.884 114.266 113.325 113.825C113.766 113.384 114.445 113.384 114.886 113.825L117.125 116.047C117.973 116.895 117.973 118.286 117.125 119.134L114.105 122.154C113.885 122.374 113.613 122.476 113.325 122.476Z" fill="#231815"/>
<path d="M116.328 127.04C116.04 127.04 115.768 126.938 115.548 126.718L112.528 123.698C112.121 123.291 111.884 122.731 111.884 122.155C111.884 121.578 112.104 121.018 112.528 120.611L115.531 117.592C115.955 117.167 116.65 117.167 117.092 117.592C117.516 118.016 117.516 118.711 117.092 119.152L114.072 122.172L117.092 125.157C117.516 125.581 117.516 126.277 117.092 126.718C116.871 126.938 116.6 127.04 116.311 127.04H116.328Z" fill="#231815"/>
<path d="M116.328 117.965C116.04 117.965 115.768 117.863 115.548 117.643L112.528 114.623C112.121 114.216 111.884 113.656 111.884 113.079C111.884 112.503 112.104 111.943 112.528 111.536L115.531 108.516C115.955 108.092 116.65 108.092 117.092 108.516C117.516 108.94 117.516 109.636 117.092 110.077L114.072 113.096L117.092 116.082C117.516 116.506 117.516 117.202 117.092 117.643C116.871 117.863 116.6 117.965 116.311 117.965H116.328Z" fill="#231815"/>
<path d="M113.155 139.119C112.867 139.119 112.595 139.018 112.375 138.797C111.951 138.373 111.951 137.677 112.375 137.236L115.394 134.217L113.155 132.029C112.731 131.605 112.714 130.909 113.155 130.468C113.579 130.044 114.275 130.027 114.716 130.468L116.955 132.69C117.379 133.114 117.599 133.657 117.599 134.234C117.599 134.811 117.379 135.37 116.955 135.778L113.935 138.797C113.715 139.018 113.443 139.119 113.155 139.119Z" fill="#231815"/>
<path d="M116.175 143.682C115.886 143.682 115.615 143.58 115.395 143.359L112.375 140.34C111.968 139.933 111.73 139.373 111.73 138.796C111.73 138.219 111.951 137.66 112.375 137.253L115.378 134.233C115.802 133.809 116.497 133.809 116.938 134.233C117.362 134.657 117.362 135.353 116.938 135.794L113.919 138.813L116.938 141.799C117.362 142.223 117.362 142.918 116.938 143.359C116.718 143.58 116.446 143.682 116.158 143.682H116.175Z" fill="#231815"/>
<path d="M116.174 134.606C115.886 134.606 115.614 134.505 115.394 134.284L112.374 131.265C111.526 130.417 111.526 129.026 112.374 128.177L115.394 125.158C115.818 124.734 116.513 124.734 116.955 125.158C117.379 125.582 117.379 126.277 116.955 126.719L113.935 129.738L116.955 132.724C117.379 133.148 117.379 133.843 116.955 134.284C116.734 134.505 116.463 134.606 116.174 134.606Z" fill="#231815"/>
<path d="M117.414 43.7004C116.922 43.7004 116.464 43.3611 116.345 42.8522C116.209 42.2585 116.566 41.6648 117.159 41.5291L139.907 36.0669C140.501 35.9312 141.095 36.2874 141.23 36.8811C141.366 37.4748 141.01 38.0685 140.416 38.2043L117.668 43.6664C117.584 43.6834 117.499 43.7004 117.414 43.7004Z" fill="#231815"/>
<path d="M148.675 63.4803C147.963 63.4803 147.369 62.9036 147.369 62.1741V59.9859C147.369 59.2734 147.946 58.6797 148.675 58.6797C149.405 58.6797 149.981 59.2564 149.981 59.9859V62.1741C149.981 62.8866 149.405 63.4803 148.675 63.4803Z" fill="#231815"/>
<path d="M148.675 138.188C147.963 138.188 147.369 137.611 147.369 136.881V132.725C147.369 132.013 147.946 131.419 148.675 131.419C149.405 131.419 149.981 131.996 149.981 132.725V136.881C149.981 137.594 149.405 138.188 148.675 138.188ZM148.675 129.892C147.963 129.892 147.369 129.316 147.369 128.586V124.43C147.369 123.718 147.946 123.124 148.675 123.124C149.405 123.124 149.981 123.701 149.981 124.43V128.586C149.981 129.299 149.405 129.892 148.675 129.892ZM148.675 121.597C147.963 121.597 147.369 121.021 147.369 120.291V116.135C147.369 115.423 147.946 114.829 148.675 114.829C149.405 114.829 149.981 115.406 149.981 116.135V120.291C149.981 121.004 149.405 121.597 148.675 121.597ZM148.675 113.302C147.963 113.302 147.369 112.726 147.369 111.996V107.84C147.369 107.128 147.946 106.534 148.675 106.534C149.405 106.534 149.981 107.111 149.981 107.84V111.996C149.981 112.709 149.405 113.302 148.675 113.302ZM148.675 105.007C147.963 105.007 147.369 104.431 147.369 103.701V99.5451C147.369 98.8326 147.946 98.2389 148.675 98.2389C149.405 98.2389 149.981 98.8157 149.981 99.5451V103.701C149.981 104.414 149.405 105.007 148.675 105.007ZM148.675 96.7122C147.963 96.7122 147.369 96.1354 147.369 95.406V91.25C147.369 90.5375 147.946 89.9438 148.675 89.9438C149.405 89.9438 149.981 90.5206 149.981 91.25V95.406C149.981 96.1185 149.405 96.7122 148.675 96.7122ZM148.675 88.4171C147.963 88.4171 147.369 87.8404 147.369 87.1109V82.9549C147.369 82.2425 147.946 81.6487 148.675 81.6487C149.405 81.6487 149.981 82.2255 149.981 82.9549V87.1109C149.981 87.8234 149.405 88.4171 148.675 88.4171ZM148.675 80.122C147.963 80.122 147.369 79.5453 147.369 78.8159V74.6598C147.369 73.9474 147.946 73.3537 148.675 73.3537C149.405 73.3537 149.981 73.9304 149.981 74.6598V78.8159C149.981 79.5283 149.405 80.122 148.675 80.122ZM148.675 71.827C147.963 71.827 147.369 71.2502 147.369 70.5208V66.3648C147.369 65.6523 147.946 65.0586 148.675 65.0586C149.405 65.0586 149.981 65.6353 149.981 66.3648V70.5208C149.981 71.2333 149.405 71.827 148.675 71.827Z" fill="#231815"/>
<path d="M148.675 144.515C147.963 144.515 147.369 143.939 147.369 143.209V141.021C147.369 140.309 147.946 139.715 148.675 139.715C149.405 139.715 149.981 140.292 149.981 141.021V143.209C149.981 143.922 149.405 144.515 148.675 144.515Z" fill="#231815"/>
</svg>
