<svg width="129" height="137" viewBox="0 0 129 137" fill="none" xmlns="http://www.w3.org/2000/svg">
<path d="M121.123 99.7525C111.705 99.8602 102.272 99.7833 92.854 99.7833H91.7751C91.7442 99.5527 91.698 99.4144 91.698 99.2606C91.5747 96.4936 90.3107 93.9571 88.384 92.1432V91.3131C88.4456 80.8291 88.1373 65.7333 87.2433 55.2801C86.4264 45.9183 85.1779 36.6179 83.2665 27.4098C82.7733 25.104 82.2338 22.7673 82.8041 20.4154C83.8522 16.1726 84.2068 11.8837 84.0835 7.51788C83.9601 3.4903 81.9409 1.38428 77.8562 1.38428H10.9593C10.5894 1.38428 10.204 1.38428 9.83409 1.39965C7.19829 1.55337 4.87077 3.6594 4.82453 6.27271C4.74746 9.93136 4.4546 13.59 5.36402 17.2179C6.01141 19.862 6.58173 22.5521 5.98058 25.3192C2.95944 39.3235 1.3872 53.5276 0.755229 67.824C0.154082 81.1826 0.339051 94.5567 0.971026 107.9C1.12517 111.067 2.92861 112.988 6.1039 113.465C9.47957 113.987 12.8398 114.541 16.2309 114.941C19.4679 115.309 34.4965 115.54 38.273 115.786C38.9666 118.43 40.0764 120.936 41.5716 123.288C45.8413 129.99 51.8836 134.218 59.6676 135.909C60.6387 136.124 61.6098 136.247 62.5963 136.354C63.2591 136.431 63.9219 136.523 64.5847 136.57C64.9855 136.6 65.3708 136.6 65.7716 136.585C66.8197 136.539 67.8679 136.385 68.9161 136.262C80.7694 134.802 90.4957 125.855 92.8695 114.218C92.8695 114.187 92.8695 114.157 92.8849 114.126C93.152 112.722 94.0152 112.02 95.4744 112.02C104.291 112.02 113.123 112.02 121.94 112.02C124.669 112.02 126.78 110.959 128.013 108.453C128.275 107.9 128.414 107.3 128.615 106.716V104.933C127.443 100.706 124.514 99.6911 121.108 99.7218L121.123 99.7525ZM38.7971 99.814C37.903 100.091 37.4252 100.521 37.3635 101.367C32.6777 100.706 21.0555 100.106 17.5873 99.4144C16.0614 99.1223 15.7068 98.5996 15.7685 97.0777C15.938 93.1885 16.123 89.2993 16.3234 85.4101C17.202 67.7318 18.096 50.0534 18.9746 32.3598C19.0517 30.7456 19.6682 30.1461 21.2867 30.1461C24.7703 30.1307 28.2693 30.1461 31.7528 30.1461H67.3438C69.2552 30.1461 69.8101 30.6842 69.8717 32.6057C69.9026 33.236 69.918 33.8816 69.9488 34.5119C70.5345 46.072 71.1048 57.6167 71.6906 69.1768C71.7985 71.4058 71.9218 73.6501 72.0297 75.8791C70.18 74.3726 67.8371 73.4657 65.3862 73.4964C61.0703 73.5272 57.1397 76.2173 55.66 80.1834C55.4442 80.7676 55.1051 81.075 54.5348 81.3056C51.2516 82.6123 49.1399 85.0104 48.2304 88.3923C48.0301 89.1609 47.7064 89.4838 46.9511 89.6682C43.8683 90.4369 41.5562 92.2815 40.2306 95.1562C39.5678 96.5858 39.2903 98.1692 38.7971 99.7987V99.814ZM48.662 92.8657C48.9549 92.8349 49.2478 92.8196 49.5406 92.7735C50.7737 92.5736 51.3287 92.0817 51.3595 90.8673C51.4365 87.7774 53.6099 84.9181 56.8931 84.211C58.0492 83.965 58.4037 83.1349 58.6811 82.1511C59.4673 79.3687 61.7177 77.4471 64.5847 77.0936C67.9141 76.6785 71.2282 78.8307 72.0605 82.0742C72.3996 83.3963 73.0933 84.0573 74.4035 84.3801C77.0547 85.0257 79.1664 87.6083 79.3822 90.2678C79.5517 92.2969 79.9525 92.712 81.9717 92.8811C85.2703 93.1424 88.0757 96.0785 88.1682 99.3682C88.1682 99.4758 88.1528 99.5988 88.1373 99.7525H42.6968C42.4502 96.4936 45.348 93.1731 48.662 92.8811V92.8657ZM11.0518 4.98143H77.8254C78.1645 4.98143 78.519 4.95068 78.8427 4.9968C79.7213 5.13515 80.3687 5.65782 80.3995 6.53405C80.4766 8.37874 80.4303 10.2388 80.4303 12.1757C77.4246 12.1757 74.5113 12.1604 71.6289 12.1757H8.50848C8.43141 11.9913 8.38517 11.9144 8.38517 11.8529C8.38517 10.4694 8.38517 9.08587 8.38517 7.70235C8.38517 5.45798 8.84759 4.98143 11.0672 4.98143H11.0518ZM6.6588 109.898C5.1174 109.714 4.62415 109.145 4.57791 107.623C4.40835 103.181 4.19256 98.7226 4.11549 94.28C3.85345 81.3517 4.03842 68.4389 5.17905 55.5568C5.94976 46.9021 7.07498 38.3089 8.75511 29.7926C9.35626 26.7796 10.2194 23.7973 9.71078 20.6921C9.44874 19.078 9.10963 17.4792 8.80135 15.7575H71.6135C73.6482 15.7575 75.6828 15.7575 77.702 15.7575C77.7945 15.7575 77.887 15.7575 77.9795 15.7575H80.0296C79.9525 16.1726 79.9063 16.4185 79.86 16.6799C79.2435 19.616 78.5807 22.5521 79.2126 25.5651C81.3552 35.6495 82.8195 45.8106 83.6827 56.0794C84.4996 65.8256 84.8233 79.7376 84.7925 89.9603C84.3917 89.8219 83.991 89.6836 83.5594 89.5914C82.8812 89.453 82.7579 89.0533 82.6191 88.5153C81.7251 85.0719 79.6134 82.6584 76.3148 81.321C76.1606 81.2595 76.0219 81.198 75.8986 81.1211C75.8986 80.8598 75.8678 80.5985 75.8524 80.3372C75.4978 73.3581 75.1433 66.3636 74.7888 59.3691C74.3418 50.1764 73.8948 40.9683 73.417 31.7756C73.2474 28.7165 70.9507 26.5643 67.8833 26.5643C52.2227 26.5643 36.562 26.5643 20.9168 26.5643C17.834 26.5643 15.5527 28.7165 15.3677 31.7756C15.1673 35.0653 15.044 38.355 14.8745 41.6447C14.4737 49.8382 14.0729 58.0164 13.6568 66.2099C13.1481 76.5709 12.624 86.9166 12.1308 97.2776C12.0075 100.121 13.6722 102.243 16.4621 102.904C17.9881 103.257 19.5295 103.596 21.0863 103.857C23.5526 104.241 32.9705 104.579 37.3327 104.948C37.3327 107.131 37.3635 109.314 37.5331 111.482C37.5485 111.697 37.5793 111.928 37.6102 112.143C30.7355 111.389 12.8861 110.682 6.64339 109.914L6.6588 109.898ZM122.711 108.499C122.387 108.53 122.064 108.499 121.725 108.515C111.952 108.515 102.164 108.515 92.3916 108.515C90.5728 108.515 90.0333 108.915 89.8483 110.728C89.3859 115.186 87.9524 119.276 85.2703 122.873C80.8619 128.806 74.9584 132.265 67.5442 132.865C58.8507 133.572 51.7294 130.421 46.1958 123.734C43.56 120.536 41.9723 116.831 41.2479 112.758C41.2171 112.558 41.217 112.343 41.1862 112.035L40.8779 108.515V103.319C41.2171 103.304 41.5407 103.273 41.849 103.273C68.5153 103.273 95.1662 103.273 121.832 103.273C123.929 103.273 125.116 104.257 125.085 105.948C125.054 107.285 124.052 108.376 122.711 108.484V108.499Z" fill="#231815"/>
<path d="M65.4174 137C65.1553 137 64.8779 137 64.5696 136.969C64.0301 136.938 63.4906 136.862 62.9665 136.8L62.5658 136.754C61.6101 136.646 60.6082 136.508 59.6063 136.293C51.7605 134.586 45.5949 130.282 41.2636 123.503C39.7838 121.182 38.6894 118.707 37.9804 116.155C36.3311 116.063 33.0787 115.97 29.626 115.878C24.2311 115.724 18.1271 115.555 16.1849 115.325C13.3796 114.987 10.5434 114.556 7.81513 114.126L6.04252 113.849C2.68226 113.342 0.740095 111.236 0.585954 107.931C-0.107677 93.2038 -0.184747 80.0758 0.370158 67.8086C1.04838 52.3131 2.77475 38.3857 5.61093 25.2423C6.18125 22.5828 5.64176 19.9849 4.99437 17.3101C4.20825 14.1895 4.30073 11.0074 4.39322 7.93291C4.40863 7.3795 4.42405 6.81072 4.43946 6.25731C4.4857 3.55176 6.89029 1.18441 9.80354 1.01531C10.081 0.984564 10.3893 0.999937 10.6821 0.999937H10.9596H77.8565C82.1107 0.999937 84.3304 3.18282 84.4691 7.50248C84.6078 12.1911 84.1762 16.4492 83.1743 20.5076C82.6502 22.6905 83.1281 24.9348 83.5905 27.1023L83.6367 27.3329C85.4402 35.9876 86.7349 45.1188 87.6135 55.2493C88.5538 66.1945 88.8158 81.5208 88.7542 91.313V91.974C90.7734 93.9263 91.9449 96.4935 92.0682 99.2452C92.0682 99.2913 92.0682 99.3375 92.0836 99.3989H92.8389C95.5055 99.3989 98.1876 99.3989 100.854 99.3989C107.498 99.3989 114.357 99.4297 121.108 99.3528C123.821 99.3067 127.598 99.8601 128.985 104.841V104.948V106.855C128.923 107.039 128.861 107.224 128.815 107.408C128.692 107.823 128.569 108.238 128.368 108.638C127.135 111.143 124.977 112.419 121.956 112.419H95.4901C94.2467 112.419 93.5068 113.014 93.2705 114.203C90.8351 126.178 81.0626 135.155 68.9626 136.646L68.3614 136.723C67.5291 136.831 66.6659 136.938 65.7873 136.969C65.664 136.969 65.5407 136.969 65.4019 136.969L65.4174 137ZM10.3893 1.76856C10.2043 1.76856 10.0348 1.76856 9.84978 1.78393C7.32188 1.93766 5.24099 3.95145 5.19475 6.28806C5.19475 6.85684 5.16392 7.41025 5.14851 7.96365C5.05602 10.9767 4.96354 14.1126 5.71883 17.1256C6.39704 19.8773 6.95195 22.5828 6.33539 25.396C3.51462 38.5087 1.80366 52.39 1.12545 67.8393C0.57054 80.0911 0.647611 93.1885 1.34124 107.885C1.47997 110.836 3.14468 112.635 6.15042 113.08L7.92303 113.357C10.6513 113.788 13.4721 114.233 16.262 114.556C18.1734 114.771 24.2619 114.956 29.6414 115.094C33.2945 115.202 36.7473 115.294 38.2887 115.386H38.5661L38.6432 115.678C39.306 118.246 40.4158 120.736 41.8955 123.073C46.1036 129.683 52.115 133.879 59.745 135.524C60.7161 135.739 61.7026 135.862 62.6428 135.97L63.0436 136.016C63.5677 136.078 64.0917 136.139 64.6158 136.185C65.0012 136.216 65.3711 136.216 65.7565 136.201C66.5888 136.17 67.4366 136.062 68.2535 135.955L68.8701 135.878C80.6464 134.433 90.1414 125.701 92.4998 114.141C92.9468 111.789 93.1164 111.651 95.4901 111.651H121.956C124.7 111.651 126.565 110.544 127.675 108.3C127.844 107.961 127.952 107.577 128.075 107.177C128.122 107.008 128.183 106.824 128.23 106.655V104.995C127.274 101.582 125.039 100.091 121.124 100.121V99.7371V100.121C114.372 100.198 107.498 100.183 100.87 100.168C98.203 100.168 95.521 100.168 92.8543 100.168H91.4516L91.3592 99.6295C91.3437 99.4912 91.3129 99.3989 91.3129 99.2913C91.1896 96.6934 90.0644 94.2492 88.1222 92.4352L87.9989 92.3276V91.3284C88.0606 81.5362 87.7985 66.2406 86.8583 55.3261C85.9797 45.2265 84.6695 36.126 82.8814 27.502L82.8352 27.2714C82.3574 25.0271 81.8487 22.6905 82.419 20.3385C83.4055 16.357 83.8217 12.1603 83.683 7.5486C83.5597 3.67474 81.6483 1.78393 77.8411 1.78393H10.6821C10.5897 1.78393 10.4972 1.78393 10.4047 1.78393L10.3893 1.76856ZM65.2016 133.357C57.5408 133.357 51.0669 130.205 45.9186 123.995C43.3445 120.89 41.6643 117.139 40.8782 112.85C40.8474 112.711 40.8474 112.558 40.832 112.373V112.081L40.4929 108.561V102.965L41.1865 102.935C41.4177 102.935 41.6335 102.904 41.8493 102.904H121.833C123.081 102.904 124.068 103.242 124.7 103.872C125.224 104.395 125.486 105.117 125.47 105.963C125.44 107.485 124.268 108.745 122.742 108.884C122.48 108.914 122.218 108.914 121.956 108.899H121.725H92.3919C90.7272 108.899 90.4035 109.176 90.2339 110.775C89.7561 115.463 88.1839 119.614 85.5789 123.119C81.0163 129.252 74.9586 132.665 67.5753 133.264C66.7738 133.326 65.9723 133.357 65.1861 133.357H65.2016ZM41.2636 103.688V108.515L41.6027 112.312C41.6027 112.45 41.6027 112.573 41.6335 112.696C42.3888 116.862 44.0227 120.49 46.5043 123.488C52.0071 130.144 59.0976 133.157 67.5137 132.48C74.6658 131.896 80.5385 128.591 84.9623 122.642C87.4902 119.26 89.0008 115.233 89.4632 110.682C89.6636 108.699 90.3264 108.115 92.3919 108.115H121.725H121.971C122.203 108.115 122.449 108.115 122.68 108.1C123.821 107.992 124.684 107.07 124.715 105.932C124.715 105.287 124.546 104.764 124.176 104.395C123.698 103.903 122.896 103.657 121.864 103.657H41.8493C41.6489 103.657 41.464 103.657 41.2636 103.688ZM38.042 112.558L37.5642 112.512C34.2656 112.158 28.3158 111.789 22.5664 111.451C16.3083 111.067 9.84978 110.682 6.59743 110.283C4.88647 110.083 4.22366 109.36 4.17742 107.639L4.05411 104.38C3.91538 101.075 3.77666 97.6465 3.715 94.2799C3.40672 79.4301 3.74583 67.1168 4.77857 55.5106C5.61093 46.1334 6.78239 37.694 8.35462 29.7003C8.44711 29.2084 8.55501 28.7164 8.6629 28.2399C9.2024 25.6881 9.72647 23.2746 9.31029 20.7382C9.15615 19.7851 8.97118 18.8166 8.78622 17.8481C8.6629 17.1871 8.52418 16.5107 8.40087 15.819L8.3238 15.3732H71.6138C73.0473 15.3732 74.4808 15.3732 75.8989 15.3732H80.4923L80.1686 17.0641C79.5828 19.8158 78.9971 22.6443 79.5828 25.4729C81.6792 35.3266 83.1897 45.6108 84.0529 56.0333C84.9161 66.3482 85.1936 80.7368 85.1627 89.9449V90.4829L84.6541 90.2985C84.2225 90.1447 83.8679 90.0217 83.4826 89.9449C82.5577 89.745 82.3882 89.0994 82.2495 88.5921C81.4017 85.2717 79.3516 82.9504 76.1763 81.6591C75.9914 81.5823 75.8372 81.5054 75.6985 81.4286L75.529 81.3209L74.3883 58.7388C73.9567 49.7613 73.5097 40.7684 73.0473 31.7909C72.8932 28.9317 70.766 26.9486 67.899 26.9486C57.4637 26.9486 47.013 26.9486 36.5777 26.9486H20.9325C18.0655 26.9486 15.9383 28.947 15.7688 31.8063C15.6455 33.8816 15.553 35.9415 15.4451 38.0168C15.3834 39.2312 15.3372 40.461 15.2755 41.6754L15.2139 42.7669C14.8285 50.5914 14.4432 58.416 14.0424 66.2406L13.4875 77.3549C13.1638 84.0111 12.8247 90.652 12.5164 97.3083C12.3931 99.9523 13.9037 101.92 16.5549 102.55C17.9113 102.858 19.5298 103.227 21.1483 103.503C22.5664 103.734 26.4353 103.934 30.1809 104.149C32.8167 104.287 35.545 104.441 37.3484 104.595L37.7029 104.626V104.979C37.7029 106.962 37.7338 109.253 37.9033 111.482C37.9033 111.605 37.9341 111.743 37.9496 111.866L38.0266 112.604L38.042 112.558ZM9.26405 16.1418C9.35654 16.6798 9.46443 17.2025 9.55692 17.7098C9.74189 18.6936 9.92686 19.6621 10.081 20.6305C10.5126 23.3053 9.95768 25.9033 9.43361 28.409C9.32571 28.9009 9.23322 29.3775 9.12533 29.8694C7.55309 37.8323 6.38163 46.241 5.54927 55.5875C4.51653 67.1476 4.19284 79.4455 4.4857 94.2645C4.54736 97.6157 4.68609 101.044 4.8094 104.349L4.93271 107.608C4.97895 108.961 5.33347 109.36 6.6745 109.514C9.89603 109.914 16.3545 110.298 22.5972 110.667C28.0846 111.005 33.7569 111.343 37.148 111.682C37.148 111.62 37.148 111.559 37.1326 111.482C36.9631 109.36 36.9322 107.177 36.9322 105.271C35.1442 105.133 32.6009 104.995 30.1346 104.856C26.3736 104.656 22.4739 104.441 21.0095 104.211C19.3602 103.934 17.7264 103.565 16.3545 103.257C13.3642 102.55 11.5916 100.244 11.7303 97.2468C12.054 90.5905 12.3777 83.9343 12.7014 77.278L13.2563 66.1637C13.657 58.3391 14.0424 50.5146 14.4277 42.69L14.474 41.5986C14.5356 40.3841 14.5973 39.1697 14.6435 37.9399C14.736 35.8646 14.8285 33.7894 14.9672 31.7141C15.1676 28.4397 17.603 26.1493 20.9016 26.1493H36.5469C46.9822 26.1493 57.4329 26.1493 67.8682 26.1493C71.1668 26.1493 73.6022 28.4397 73.7872 31.7294C74.2496 40.707 74.6966 49.6998 75.1282 58.6927L76.2534 80.8751C76.2534 80.8751 76.3767 80.9366 76.4384 80.952C79.8603 82.3355 82.0491 84.8412 82.9739 88.4076C83.1127 88.9303 83.1743 89.1148 83.6213 89.207C83.8834 89.2685 84.13 89.33 84.392 89.4222C84.4074 80.2141 84.13 66.1945 83.2976 56.1101C82.419 45.7184 80.9239 35.465 78.8276 25.642C78.1956 22.6597 78.8276 19.7389 79.4133 16.9104L79.5674 16.1418H75.8989C74.4654 16.1418 73.0319 16.1418 71.5984 16.1418H9.26405ZM37.7183 101.797L37.3022 101.736C35.175 101.443 31.5527 101.136 28.0383 100.859C23.7995 100.521 19.4219 100.168 17.5106 99.7833C15.8304 99.4604 15.3063 98.7994 15.3834 97.047C15.553 93.1577 15.7379 89.2685 15.9383 85.3793C16.3853 76.3403 16.8478 67.2859 17.2948 58.2469C17.7264 49.6076 18.1579 40.9683 18.5895 32.329C18.682 30.4997 19.4527 29.7464 21.287 29.7464C23.6145 29.7464 25.942 29.7464 28.2695 29.7464H67.3441C69.4558 29.7464 70.1957 30.4689 70.2574 32.5749C70.2728 32.8978 70.2882 33.236 70.3036 33.5741C70.3036 33.8816 70.319 34.1737 70.3344 34.4811C70.6273 40.2612 70.9202 46.0412 71.213 51.8059C71.5059 57.5859 71.7988 63.3659 72.0916 69.1306L72.477 76.6938L71.7988 76.1404C69.9799 74.6493 67.7295 73.8346 65.479 73.8346H65.4174C61.2401 73.8653 57.4791 76.4479 56.0456 80.2756C55.799 80.9366 55.3982 81.3363 54.7046 81.613C51.5447 82.8736 49.5101 85.1641 48.6315 88.4538C48.3849 89.3607 47.9687 89.7758 47.0747 90.0064C44.0535 90.7596 41.8801 92.5428 40.6162 95.2791C40.1846 96.2168 39.9071 97.2468 39.6297 98.3382C39.491 98.8455 39.3676 99.3682 39.1981 99.8755L39.1364 100.075L38.9361 100.137C38.1345 100.383 37.8108 100.706 37.78 101.351L37.7492 101.766L37.7183 101.797ZM24.7551 30.5304C23.5991 30.5304 22.4276 30.5304 21.2716 30.5304C19.8535 30.5304 19.4065 30.9608 19.3448 32.3751C18.9132 41.0144 18.4816 49.6537 18.05 58.293C17.603 67.3474 17.1406 76.3864 16.6936 85.4254C16.4932 89.3146 16.3083 93.2038 16.1387 97.0931C16.0771 98.4612 16.3391 98.784 17.6493 99.03C19.5144 99.3989 23.8765 99.7525 28.1 100.091C31.4294 100.367 34.8668 100.644 37.0401 100.921C37.2559 100.06 37.9187 99.691 38.489 99.4912C38.6124 99.0454 38.7357 98.5996 38.8436 98.1691C39.1364 97.047 39.4139 95.9863 39.8763 94.987C41.2173 92.0663 43.6373 90.0986 46.8589 89.2839C47.4754 89.1301 47.6912 88.9149 47.8608 88.2847C48.801 84.7644 50.9898 82.2894 54.3809 80.9366C54.8742 80.7368 55.1054 80.5062 55.2903 80.045C56.8317 75.9252 60.8856 73.1428 65.3865 73.1121C67.5907 73.1121 69.7487 73.7884 71.5984 75.0797L71.3055 69.1921C71.0126 63.4121 70.7198 57.632 70.4269 51.8673C70.134 46.0873 69.8412 40.3073 69.5483 34.5426C69.5483 34.2352 69.5175 33.9277 69.5175 33.6203C69.5175 33.2821 69.4867 32.9592 69.4712 32.621C69.4096 30.8993 69.0396 30.5304 67.3287 30.5304H28.2541C27.0981 30.5304 25.9266 30.5304 24.7706 30.5304H24.7551ZM88.4767 100.121H42.3271L42.2963 99.7679C42.0343 96.3245 45.1017 92.7888 48.6007 92.4813H48.7085C48.9552 92.4506 49.2018 92.4352 49.4484 92.3891C50.5582 92.2046 50.9282 91.8357 50.9436 90.8519C51.0361 87.4392 53.4407 84.5492 56.7855 83.8267C57.6795 83.6268 58.0032 83.0734 58.2807 82.0281C59.0976 79.1073 61.4868 77.0628 64.5079 76.6938C68.0686 76.248 71.5367 78.5693 72.3999 81.9666C72.6928 83.1349 73.2785 83.7037 74.4654 83.9958C77.2399 84.6721 79.5058 87.3469 79.737 90.2216C79.8911 92.0663 80.1532 92.3276 81.972 92.4813C85.4864 92.758 88.4151 95.8325 88.523 99.3374C88.523 99.4297 88.523 99.5219 88.5076 99.6295L88.4613 100.121H88.4767ZM43.0516 99.3528H87.7677C87.6752 96.2783 85.0086 93.4805 81.9258 93.2346C79.7062 93.0655 79.1667 92.5121 78.9817 90.2677C78.7813 87.7159 76.7621 85.3332 74.2958 84.7336C72.8315 84.3801 72.0454 83.5961 71.6754 82.1511C70.9047 79.1227 67.7911 77.0628 64.6312 77.4471C61.9184 77.7853 59.7758 79.6146 59.0514 82.2279C58.7739 83.1964 58.3731 84.2571 56.9705 84.5645C53.9647 85.2102 51.8068 87.8081 51.7297 90.8519C51.6989 92.2046 51.0515 92.881 49.5871 93.127C49.3251 93.1731 49.0477 93.1885 48.7856 93.2192H48.6777C45.6874 93.4805 43.0516 96.4013 43.0516 99.3374V99.3528ZM80.816 12.56H77.4249C75.4673 12.56 73.5405 12.56 71.6292 12.56H8.24673L8.09259 12.1911C8.04634 12.0835 8.0001 11.9759 8.0001 11.8529C8.0001 10.4694 8.0001 9.08584 8.0001 7.70232C8.0001 5.24273 8.63208 4.59709 11.0675 4.59709H78.1031C78.3651 4.59709 78.6272 4.58172 78.8892 4.61246C80.0144 4.79693 80.7389 5.51943 80.7851 6.51864C80.8468 7.85605 80.8314 9.17808 80.816 10.5923C80.816 11.115 80.816 11.653 80.816 12.1757V12.56ZM8.7708 11.7914H71.6292C73.5405 11.7914 75.4673 11.7914 77.4249 11.7914H80.0453C80.0453 11.3917 80.0453 10.992 80.0453 10.5923C80.0453 9.19345 80.0607 7.88679 80.0144 6.56476C79.9836 5.7039 79.2283 5.45794 78.7813 5.39646C78.5809 5.36571 78.3497 5.38108 78.1339 5.38108H77.8256H11.0521C9.06367 5.38108 8.75539 5.68853 8.75539 7.71769C8.75539 9.08584 8.75539 10.4386 8.75539 11.8068L8.7708 11.7914Z" fill="#FDFDFF"/>
<path d="M45.8258 74.0348C45.8258 75.4491 46.9818 76.6174 48.4153 76.6174C49.8488 76.6174 51.0049 75.4644 51.0049 74.0348C51.0049 70.8373 53.6098 68.224 56.8314 68.224C58.2495 68.224 59.4209 67.0711 59.4209 65.6415C59.4209 64.2118 58.2649 63.0589 56.8314 63.0589C53.6253 63.0589 51.0049 60.4609 51.0049 57.2481C51.0049 55.8338 49.8488 54.6655 48.4153 54.6655C48.3691 54.6655 48.3228 54.6655 48.2766 54.6655H48.0608C46.6427 54.6655 45.4712 55.8185 45.4712 57.2327C45.4712 60.4302 42.8663 63.0435 39.6447 63.0435C38.2266 63.0435 37.0552 64.1964 37.0552 65.6261C37.0552 67.0557 38.2112 68.2087 39.6447 68.2087C39.691 68.2087 39.7372 68.2087 39.7835 68.2087H39.9993C43.2054 68.2087 45.8258 70.822 45.8258 74.0194V74.0348ZM48.1687 57.4172H48.2303H48.292C48.3691 61.5678 51.4365 64.9958 55.4287 65.6415C51.8372 66.2256 49.001 69.0695 48.3999 72.6513C47.7988 69.008 44.8701 66.1334 41.1861 65.6107C45.1013 64.8882 48.0762 61.4909 48.1533 57.4018L48.1687 57.4172Z" fill="#231815"/>
<path d="M48.4154 77.0017C46.7815 77.0017 45.4405 75.6797 45.4405 74.0348C45.4405 71.0526 43.0051 68.6084 39.9994 68.6084H39.7681C39.7681 68.6084 39.7065 68.6084 39.6448 68.6084C38.0109 68.6084 36.6699 67.2863 36.6699 65.6415C36.6699 63.9966 38.0109 62.6746 39.6448 62.6746C42.6351 62.6746 45.086 60.2458 45.086 57.2481C45.086 55.6187 46.427 54.2812 48.0609 54.2812H48.2767C48.2767 54.2812 48.3383 54.2812 48.4154 54.2812C50.0493 54.2812 51.3903 55.6033 51.3903 57.2481C51.3903 60.2304 53.8257 62.6746 56.8315 62.6746C58.4654 62.6746 59.8064 63.9966 59.8064 65.6415C59.8064 67.2863 58.4808 68.6084 56.8315 68.6084C53.8257 68.6084 51.3903 71.0372 51.3903 74.0348C51.3903 75.6643 50.0647 77.0017 48.4154 77.0017ZM39.7527 67.8397H40.0148C43.4213 67.8397 46.2112 70.6222 46.2112 74.0348C46.2112 75.2493 47.1977 76.2331 48.4154 76.2331C49.6331 76.2331 50.6196 75.2493 50.6196 74.0348C50.6196 70.6222 53.4096 67.8397 56.8315 67.8397C58.0492 67.8397 59.0357 66.8559 59.0357 65.6415C59.0357 64.4271 58.0492 63.4432 56.8315 63.4432C53.4096 63.4432 50.6196 60.6608 50.6196 57.2481C50.6196 56.0337 49.6331 55.0499 48.4154 55.0499H48.3075H48.0609C46.8586 55.0499 45.8721 56.0337 45.8721 57.2481C45.8721 60.6608 43.0822 63.4432 39.6602 63.4432C38.4425 63.4432 37.456 64.4271 37.456 65.6415C37.456 66.8559 38.4425 67.8397 39.6602 67.8397C39.6911 67.8397 39.7373 67.8397 39.7527 67.8397ZM48.4154 75.034L48.0301 72.7282C47.4597 69.2694 44.6236 66.5023 41.14 66.0104L38.7971 65.6876L41.1246 65.2572C44.9164 64.5654 47.7064 61.2603 47.7834 57.4326V57.0022L48.2304 57.0637L48.6158 57.0022L48.6929 57.4326C48.7545 61.3526 51.6215 64.6576 55.5059 65.2879L57.8334 65.6722L55.5059 66.0565C52.0531 66.6253 49.3711 69.3001 48.8008 72.7435L48.4154 75.0494V75.034ZM42.7585 65.5954C45.3788 66.4562 47.4906 68.5161 48.4154 71.1141C49.3094 68.5623 51.3132 66.5485 53.8874 65.6569C51.1283 64.6884 49.0166 62.4286 48.2459 59.6309C47.4906 62.3518 45.4405 64.5962 42.7739 65.5954H42.7585Z" fill="#FDFDFF"/>
<path d="M38.4272 51.4988C38.4272 50.0077 39.6449 48.7933 41.1401 48.7933C42.2653 48.7933 43.1902 47.8709 43.1902 46.7487C43.1902 45.6265 42.2653 44.7042 41.1401 44.7042C39.6449 44.7042 38.4272 43.4898 38.4272 41.9986C38.4272 40.8764 37.5024 39.9541 36.3772 39.9541H36.1768C35.0515 39.9541 34.1267 40.8764 34.1267 41.9986C34.1267 43.4898 32.909 44.7042 31.4138 44.7042C30.2886 44.7042 29.3638 45.6265 29.3638 46.7487C29.3638 47.8709 30.2732 48.7933 31.4138 48.7933H31.6142C33.1094 48.7933 34.3271 50.0077 34.3271 51.4988C34.3271 52.621 35.2519 53.5433 36.3772 53.5433C37.5024 53.5433 38.4272 52.621 38.4272 51.4988ZM36.3772 48.947C35.8531 47.9939 35.0515 47.2099 34.0805 46.7026C35.0361 46.1646 35.7914 45.3498 36.2847 44.3814C36.7779 45.3959 37.5794 46.2261 38.5814 46.7641C37.6565 47.2714 36.8858 48.0246 36.3926 48.947H36.3772Z" fill="#231815"/>
<path d="M36.3773 53.9277C35.0362 53.9277 33.9418 52.8362 33.9418 51.4988C33.9418 50.1614 32.8937 49.1776 31.6143 49.1776H31.4139C30.0729 49.1776 28.9785 48.0862 28.9785 46.7488C28.9785 45.4114 30.0729 44.3199 31.4139 44.3199C32.755 44.3199 33.7415 43.2746 33.7415 41.9987C33.7415 40.7228 34.8358 39.5698 36.1769 39.5698H36.3618C37.7183 39.5698 38.8127 40.6613 38.8127 41.9987C38.8127 43.3361 39.8608 44.3199 41.1402 44.3199C42.4195 44.3199 43.5756 45.4114 43.5756 46.7488C43.5756 48.0862 42.4812 49.1776 41.1402 49.1776C39.7992 49.1776 38.8127 50.2229 38.8127 51.4988C38.8127 52.7747 37.7183 53.9277 36.3773 53.9277ZM36.1769 40.3384C35.2674 40.3384 34.5122 41.0763 34.5122 41.9987C34.5122 43.705 33.1249 45.0885 31.4139 45.0885C30.4891 45.0885 29.7492 45.8264 29.7492 46.7488C29.7492 47.6711 30.4891 48.409 31.4139 48.409H31.6143C33.3253 48.409 34.7125 49.7925 34.7125 51.4988C34.7125 52.4212 35.4524 53.1591 36.3773 53.1591C37.3021 53.1591 38.042 52.4212 38.042 51.4988C38.042 49.7925 39.4292 48.409 41.1402 48.409C42.0496 48.409 42.8049 47.6711 42.8049 46.7488C42.8049 45.8264 42.065 45.0885 41.1402 45.0885C39.4292 45.0885 38.042 43.705 38.042 41.9987C38.042 41.0763 37.3021 40.3384 36.3773 40.3384H36.1769ZM36.3773 49.7464L36.0381 49.1161C35.5449 48.2245 34.8204 47.502 33.911 47.0255L33.279 46.7026L33.8956 46.3491C34.7896 45.8418 35.4832 45.1039 35.9457 44.1816L36.2848 43.4744L36.6239 44.1816C37.0863 45.1193 37.8416 45.9033 38.751 46.3952L39.383 46.7334L38.751 47.0716C37.8878 47.5327 37.1788 48.2399 36.7164 49.1007L36.3773 49.731V49.7464ZM34.8204 46.6873C35.437 47.0869 35.9611 47.6096 36.3773 48.2091C36.778 47.6404 37.2713 47.1484 37.8416 46.7488C37.225 46.3183 36.6855 45.7649 36.2848 45.15C35.8994 45.7495 35.4062 46.2722 34.8204 46.6873Z" fill="#FDFDFF"/>
</svg>
