<svg width="269" height="120" viewBox="0 0 269 120" fill="none" xmlns="http://www.w3.org/2000/svg">
<path d="M17.9453 116.625C17.8954 116.359 18.1781 115.311 18.2946 114.879C24.5812 90.3807 28.4895 67.0636 29.238 41.9669C29.2879 41.0688 30.2358 40.3038 31.1173 40.1874C32.7638 39.9878 34.4935 40.4202 35.8406 41.3682C36.2397 41.6509 36.7719 42.2497 37.0048 42.6821C37.2044 43.048 37.3873 43.4638 37.4372 43.8463C37.9361 47.422 38.0858 52.6609 37.8363 56.3031V56.4528C37.7698 57.2012 37.7865 57.301 38.2022 57.3509H44.8049C45.1708 57.3842 45.4701 57.6669 45.4701 58.0494L45.6364 69.5583C45.6364 69.9242 46.1354 70.6559 45.7695 70.6726H38.0193H37.986H37.7199C37.3374 70.6726 37.2875 70.7225 37.2875 71.105V72.6351C37.2875 87.7696 33.9779 101.224 30.6184 115.694C30.6017 115.793 30.4188 116.326 30.3356 116.409C29.7036 117.107 28.8887 117.307 28.1902 117.573C26.7433 118.138 24.9304 118.172 23.3837 118.238C21.8204 118.305 19.7082 118.055 18.411 117.207" fill="#231815"/>
<path d="M95.2142 118.503C122.024 49.1177 96.8607 1.50221 96.8607 1.50221C93.418 1.30264 86.4162 1.55211 84.2209 1.80158C78.0341 2.50009 73.6933 4.74532 67.706 8.50399C65.5107 9.88439 60.987 14.4414 59.5234 16.2542C50.5092 27.4138 46.8005 43.9121 46.8005 58.3647C46.6175 72.4348 48.58 89.4985 56.8125 101.24C58.143 103.153 62.3507 108.009 64.4463 109.523C70.1675 113.68 74.4417 115.809 80.4622 117.339C83.7386 118.171 91.7715 118.47 95.2142 118.503Z" fill="white"/>
<path d="M95.2145 119.917C91.4725 119.868 83.5061 119.568 80.1299 118.703C74.0429 117.157 69.569 114.978 63.6317 110.654C61.3698 109.007 57.0457 104.001 55.6653 102.039C46.8673 89.4656 45.2208 71.3374 45.4037 58.3317C45.4037 41.2847 50.1603 25.618 58.4261 15.3564C59.9395 13.4771 64.5796 8.78706 66.9579 7.30687C73.3942 3.26546 77.8015 1.08676 84.0716 0.388247C86.3999 0.122146 93.5015 -0.127324 96.9608 0.0722518C97.4598 0.105514 97.8922 0.388247 98.125 0.820661C98.3911 1.3196 104.561 13.1777 107.505 33.7673C110.216 52.7104 110.515 82.8796 96.5617 119.003C96.3455 119.552 95.8299 119.901 95.2478 119.901L95.2145 119.917ZM93.7676 2.84968C90.3249 2.84968 86.0008 3.03263 84.3709 3.21557C78.6497 3.86419 74.5085 5.90984 68.4547 9.71841C66.4257 10.9824 62.0184 15.423 60.6214 17.1526C52.8546 26.7655 48.2144 42.1827 48.2144 58.365C48.0481 70.9715 49.5948 88.4677 57.977 100.426C59.2576 102.238 63.3489 106.978 65.2948 108.375C70.9827 112.517 75.0574 114.496 80.8284 115.976C83.5061 116.658 89.9923 117.007 94.2665 117.09C107.621 81.9981 107.339 52.7603 104.728 34.3328C102.266 16.9697 97.3267 5.7269 95.9796 2.88294C95.331 2.86631 94.5825 2.84968 93.7842 2.84968H93.7676Z" fill="#231815"/>
<path d="M100.87 1.41898L96.4459 1.4855C96.0468 1.4855 95.7973 1.90128 95.9802 2.25054C99.0903 8.53718 119.464 53.8575 95.0322 117.805C94.8992 118.154 95.1487 118.52 95.5312 118.52H99.7056C99.9218 118.52 100.121 118.387 100.205 118.171C126.781 48.9679 100.87 1.40234 100.87 1.40234" fill="white"/>
<path d="M99.6885 119.535H95.5307C95.0317 119.535 94.5494 119.285 94.2667 118.87C93.9839 118.454 93.9174 117.922 94.1004 117.439C104.312 90.6796 107.921 64.136 104.828 38.5237C102.433 18.7491 96.7614 6.10932 95.065 2.6999C94.8321 2.21759 94.8488 1.66876 95.1315 1.21971C95.4142 0.770665 95.8965 0.487932 96.4288 0.487932L100.853 0.421407C101.169 0.371513 101.568 0.620983 101.751 0.953609C102.017 1.43592 127.579 49.7332 101.135 118.554C100.903 119.152 100.32 119.552 99.6885 119.552V119.535ZM96.2125 117.522H99.3725C112.894 82.1643 112.362 52.6604 109.518 34.0998C106.807 16.3376 101.518 4.96176 100.254 2.4338L97.1938 2.48369C99.2228 6.75794 104.528 19.3146 106.823 38.2909C109.933 64.0196 106.358 90.6796 96.2125 117.522Z" fill="#231815"/>
<path d="M119.113 63.8199C119.23 64.0693 120.061 64.7678 120.394 65.0506C139.553 81.5655 156.085 98.4795 171.02 118.637C171.568 119.352 172.783 119.435 173.581 119.019C175.044 118.238 176.209 116.907 176.791 115.344C176.957 114.878 177.04 114.096 176.99 113.597C176.94 113.182 176.857 112.749 176.674 112.383C175.044 109.157 172.167 104.783 169.872 101.922L169.772 101.806C169.29 101.224 169.24 101.141 169.556 100.858L174.961 97.0825C175.261 96.8663 175.327 96.4505 175.111 96.1511L168.675 86.6048C168.475 86.3054 168.475 85.4239 168.159 85.6069L161.806 90.0474C161.806 90.0474 161.789 90.0474 161.773 90.0641L161.556 90.2138C161.24 90.43 161.174 90.4133 160.958 90.114L160.093 88.8666C151.445 76.443 141.05 67.2958 130.007 57.3336C129.924 57.2671 129.475 56.9345 129.375 56.9179C128.46 56.7017 127.678 57.0176 126.963 57.184C125.45 57.5498 123.953 58.5477 122.622 59.3793C121.309 60.2109 119.695 61.6245 119.13 63.0714" fill="#231815"/>
<path d="M176.076 13.2776C238.294 54.0243 244.631 106.829 244.631 106.829L244.963 107.278C242.286 109.44 236.448 113.315 234.519 114.396C229.08 117.439 224.241 118.138 217.189 118.57C214.611 118.737 208.275 117.672 206.029 117.04C192.209 113.232 179.569 101.989 171.154 90.2473C162.805 78.9214 154.456 63.9033 154.306 49.5671C154.273 47.2387 154.871 40.8357 155.686 38.3909C157.915 31.6718 160.144 27.4641 164.152 22.6909C166.33 20.1131 172.684 15.1736 175.461 13.1445" fill="white"/>
<path d="M216.607 120.001C213.563 120.001 207.792 119.003 205.63 118.404C192.924 114.895 179.934 104.933 169.989 91.0622C162.272 80.6177 153.042 64.9344 152.875 49.5837C152.842 47.1721 153.441 40.6028 154.322 37.9418C156.634 30.9733 158.996 26.5992 163.037 21.7928C165.282 19.1151 171.586 14.2255 174.596 12.0136C175.012 11.6976 175.544 11.6643 175.993 11.8639C176.292 11.8639 176.592 11.9138 176.858 12.0967C209.255 33.3183 226.336 57.8495 234.951 74.697C243.566 91.5445 245.661 103.985 245.994 106.296L246.11 106.463C246.543 107.078 246.426 107.91 245.844 108.375C243.15 110.554 237.229 114.496 235.2 115.627C229.695 118.703 224.839 119.502 217.272 119.984C217.072 119.984 216.856 120.001 216.623 120.001H216.607ZM175.694 14.7078C172.267 17.2691 167.012 21.4435 165.183 23.6056C161.341 28.1792 159.195 32.1541 156.983 38.8399C156.235 41.1184 155.653 47.3385 155.686 49.5671C155.852 64.1527 164.783 79.2872 172.267 89.4157C181.714 102.588 194.47 112.4 206.378 115.693C208.524 116.275 214.694 117.34 217.072 117.173C224.224 116.724 228.781 115.993 233.803 113.165C235.533 112.201 240.389 108.991 243.2 106.845C242.768 103.802 234.668 53.5253 175.677 14.7078H175.694Z" fill="#231815"/>
<path d="M178.471 10.9824L174.978 13.6933C174.662 13.9262 174.712 14.4085 175.061 14.5914C181.314 17.7514 224.822 41.767 243.682 107.56C243.782 107.926 244.214 108.059 244.513 107.843L247.84 105.348C248.023 105.215 248.089 104.983 248.039 104.766C227.749 33.468 178.471 10.9824 178.471 10.9824Z" fill="white"/>
<path d="M244.198 108.959C244.031 108.959 243.865 108.926 243.715 108.876C243.233 108.71 242.867 108.327 242.717 107.845C234.817 80.3202 221.762 56.92 203.916 38.2929C190.129 23.9234 177.988 17.221 174.612 15.508C174.146 15.2752 173.83 14.8095 173.781 14.2939C173.731 13.7617 173.947 13.2628 174.363 12.9301L177.855 10.2192C178.155 9.9864 178.554 9.9365 178.886 10.1028C179.385 10.3357 228.83 33.5862 249.004 104.519C249.17 105.134 248.954 105.799 248.455 106.182L245.129 108.677C244.863 108.876 244.53 108.976 244.214 108.976L244.198 108.959ZM176.175 14.0444C180.367 16.2398 192.141 23.1085 205.363 36.8959C223.309 55.6061 236.447 79.0729 244.464 106.631L246.992 104.735C228.132 38.9249 183.976 14.8926 178.587 12.1651L176.175 14.0444Z" fill="#231815"/>
<path d="M267.132 119.601H0.997879C0.449045 119.601 0 119.152 0 118.603C0 118.055 0.449045 117.605 0.997879 117.605H267.132C267.681 117.605 268.13 118.055 268.13 118.603C268.13 119.152 267.681 119.601 267.132 119.601Z" fill="#231815"/>
</svg>
