<svg width="180" height="131" viewBox="0 0 180 131" fill="none" xmlns="http://www.w3.org/2000/svg">
<path d="M17.8102 34.5707C27.0695 34.5707 34.5756 27.0646 34.5756 17.8054C34.5756 8.54613 27.0695 1.04004 17.8102 1.04004C8.55101 1.04004 1.04492 8.54613 1.04492 17.8054C1.04492 27.0646 8.55101 34.5707 17.8102 34.5707Z" fill="white"/>
<path d="M17.8098 35.6284C7.9984 35.6284 0.00390625 27.6339 0.00390625 17.8059C0.00390625 7.97798 7.9984 0 17.8098 0C27.6213 0 35.6158 7.9945 35.6158 17.8059C35.6158 27.6174 27.6213 35.6118 17.8098 35.6118V35.6284ZM17.8098 2.08121C9.13811 2.08121 2.08512 9.13421 2.08512 17.8059C2.08512 26.4776 9.13811 33.5472 17.8098 33.5472C26.4816 33.5472 33.5345 26.4942 33.5345 17.8059C33.5345 9.11769 26.4816 2.08121 17.8098 2.08121Z" fill="#231815"/>
<path d="M17.2974 19.5569C16.7193 19.5569 16.2568 19.0945 16.2568 18.5163V9.71248C16.2568 9.13437 16.7193 8.67188 17.2974 8.67188C17.8756 8.67188 18.338 9.13437 18.338 9.71248V18.5163C18.338 19.0945 17.8756 19.5569 17.2974 19.5569Z" fill="#231815"/>
<path d="M23.9218 25.5527C23.674 25.5527 23.4263 25.4702 23.228 25.2885L16.6706 19.4082C16.2411 19.0283 16.2081 18.3676 16.588 17.9381C16.9679 17.5087 17.6286 17.4757 18.058 17.8556L24.6155 23.7358C25.045 24.1157 25.078 24.7764 24.6981 25.2059C24.4999 25.4371 24.2026 25.5527 23.9218 25.5527Z" fill="#231815"/>
<path d="M22.4512 92.7454C22.5007 88.7151 22.8476 76.9051 23.8056 73.0895C25.606 66.0365 28.0837 61.0482 32.9398 54.3586C34.7237 51.914 40.3892 46.9918 42.6191 45.4391C56.3452 35.8259 76.2819 33.5135 92.7334 33.7282C109.614 33.7282 128.907 38.0558 141.939 48.594C144.053 50.3118 149.389 55.5974 150.991 58.1576C155.384 65.1611 158.027 70.232 158.837 77.4667C159.134 80.0434 159.415 88.2196 159.2 92.2499" fill="white"/>
<path d="M23.7895 92.7455C23.8555 87.4929 24.0207 82.2073 24.5658 76.9712C25.2265 70.6119 27.8528 64.5665 31.2554 59.2148C38.4901 47.8342 50.3001 41.2107 63.1838 38.0393C77.1246 34.6037 92.5025 33.9925 106.708 36.0407C120.5 38.0228 134.54 42.8459 144.599 52.8391C149.934 58.1412 154.278 64.7152 156.425 71.9829C158.308 78.3752 158.242 85.6594 157.895 92.2665C157.813 93.9678 160.472 93.9678 160.555 92.2665C160.869 86.221 160.869 79.7296 159.613 73.7833C158.193 66.9946 154.526 59.9416 150 54.7055C140.469 43.7049 127.437 37.4777 113.331 34.5211C98.5975 31.4488 82.7406 31.614 67.9739 34.3064C54.6938 36.7344 41.0999 42.2348 32.3621 53.0042C27.572 58.9175 23.5087 66.5651 22.2864 74.1467C21.2953 80.2417 21.2292 86.5844 21.1632 92.7455C21.1466 94.4633 23.806 94.4633 23.8225 92.7455H23.7895Z" fill="#231815"/>
<path d="M155.121 2.74233C154.807 2.69278 153.585 3.02313 153.089 3.13875C124.464 10.4891 97.1937 15.0479 67.8751 15.9233C66.818 15.9729 65.926 17.0796 65.7939 18.1202C65.5626 20.0527 66.0581 22.0514 67.1813 23.6536C67.5117 24.1326 68.2054 24.7272 68.7175 25.008C69.1469 25.2392 69.6259 25.454 70.0884 25.52C74.2674 26.1147 80.3954 26.2633 84.6569 25.9825H84.8386C85.7306 25.8999 85.8462 25.9165 85.8792 26.412V34.1257C85.9123 34.5551 86.2591 34.902 86.6886 34.902L100.15 35.1002C100.58 35.1002 101.422 35.6949 101.455 35.2654V26.1973C101.455 26.1973 101.439 26.1642 101.439 26.1477V25.8339C101.439 25.3879 101.505 25.3384 101.934 25.3384H103.718C121.408 25.3384 137.133 21.4732 154.047 17.5421C154.179 17.509 154.774 17.3108 154.873 17.2117C155.682 16.4849 155.914 15.5269 156.227 14.7176C156.888 13.0163 156.921 10.9185 157.02 9.10159C157.103 7.28466 156.822 4.80703 155.815 3.28741" fill="#231815"/>
<path d="M90.0083 94.6104H9.40265C8.98971 94.6104 8.60981 94.3627 8.44463 93.9827L0.086747 74.3434C-0.144499 73.8148 0.103265 73.2037 0.631826 72.9889C1.16039 72.7742 1.77154 73.0055 1.98627 73.534L10.0634 92.5292H90.0083C90.5864 92.5292 91.0489 92.9917 91.0489 93.5698C91.0489 94.1479 90.5864 94.6104 90.0083 94.6104Z" fill="#231815"/>
<path d="M170.614 94.6106H90.0084C89.4303 94.6106 88.9678 94.1481 88.9678 93.57C88.9678 92.9919 89.4303 92.5294 90.0084 92.5294H169.937L178.014 73.5342C178.245 73.0056 178.856 72.7578 179.368 72.9891C179.897 73.2203 180.145 73.815 179.913 74.3435L171.556 93.9664C171.39 94.3463 171.01 94.5941 170.598 94.5941L170.614 94.6106Z" fill="#231815"/>
<path d="M64.8845 108.5C65.8095 109.59 66.2719 111.011 66.5693 112.398C66.7344 113.174 66.7675 113.769 66.9161 114.694C67.7916 120.459 66.0077 124.043 64.0916 126.24C61.8948 128.751 57.5011 130.006 54.3132 129.23C44.7991 126.934 44.5514 116.395 49.8865 111.539C54.3958 107.426 55.4034 102.669 55.6346 100.572C55.6842 100.142 56.2128 99.9604 56.5101 100.274C63.5796 107.509 61.647 114.265 63.0675 113.736C63.4144 113.604 63.4309 113.571 64.1081 111.325C64.2898 110.746 64.455 110.053 64.5376 108.896C64.5376 108.896 64.5046 108.021 64.901 108.483L64.8845 108.5Z" fill="white"/>
<path d="M56.3284 130.502C55.5521 130.502 54.7923 130.42 54.0655 130.238C49.7544 129.198 46.6987 126.356 45.7076 122.458C44.6505 118.329 46.038 113.621 49.1763 110.764C53.4709 106.833 54.3959 102.241 54.5941 100.457C54.6601 99.8623 55.0566 99.3668 55.6347 99.1686C56.2128 98.9704 56.8239 99.119 57.2534 99.5485C61.548 103.942 62.6877 108.237 63.1502 110.846C63.2988 110.318 63.431 109.756 63.497 108.815C63.4475 107.873 63.976 107.51 64.2899 107.394C64.4716 107.328 65.1158 107.147 65.6774 107.824C66.8336 109.195 67.3126 110.962 67.5769 112.184C67.6925 112.713 67.742 113.159 67.8081 113.654C67.8412 113.919 67.8742 114.2 67.9237 114.53C68.7001 119.535 67.6595 123.714 64.8515 126.918C62.9189 129.115 59.4833 130.502 56.3119 130.502H56.3284ZM56.4936 101.795C56.0476 104.239 54.6767 108.567 50.5803 112.317C47.9871 114.679 46.8473 118.544 47.7228 121.963C48.5486 125.151 50.9767 127.381 54.561 128.239C57.4351 128.933 61.4489 127.711 63.3153 125.564C65.6939 122.838 66.5693 119.221 65.8921 114.844C65.8425 114.497 65.793 114.2 65.7599 113.919C65.6939 113.473 65.6443 113.076 65.5617 112.614C65.4461 112.102 65.3305 111.656 65.1983 111.243C65.1653 111.375 65.1323 111.491 65.0827 111.623C64.3394 114.1 64.2403 114.398 63.4144 114.712C63.0015 114.86 62.5886 114.827 62.2417 114.629C61.5645 114.233 61.4489 113.489 61.2507 112.25C60.9038 110.054 60.2926 106.089 56.4771 101.795H56.4936Z" fill="#231815"/>
<path d="M51.9506 121.914C51.3064 121.749 50.8274 121.699 50.5301 122.112C50.2328 122.525 50.2658 123.087 50.3484 123.582C50.8604 126.539 52.1323 128.967 55.1715 129.38C56.3112 129.529 58.2438 129.413 59.4165 128.571C59.846 128.257 60.2589 127.646 60.3745 127.134C60.8535 125.284 60.5893 123.252 59.6643 121.567C59.0201 120.411 58.0621 119.271 58.2107 117.966C58.2768 117.438 58.8219 116.843 58.6072 116.348C58.475 116.05 58.3264 116.1 58.1612 116.1C58.0786 116.1 57.9465 116.133 57.8639 116.149C56.4764 116.447 54.2465 117.834 53.5198 119.023C52.8425 120.114 53.9327 120.526 53.272 121.666C53.2224 121.749 53.0407 122.063 52.4791 122.03" fill="white"/>
<path d="M52.2319 120.906C51.4225 120.708 50.5471 120.625 49.9029 121.253C49.2587 121.881 49.1926 122.839 49.3248 123.665C49.523 125.003 49.9359 126.39 50.6462 127.546C52.2484 130.123 55.2876 130.899 58.1286 130.222C59.7143 129.842 61.0357 128.818 61.4321 127.183C61.8286 125.449 61.6799 123.599 61.0027 121.947C60.6723 121.17 60.2264 120.477 59.7969 119.75C59.45 119.155 59.1032 118.528 59.3344 117.834C59.5987 117.074 59.896 116.413 59.4005 115.67C58.905 114.927 58.0295 115.026 57.2862 115.241C55.7666 115.67 54.1809 116.645 53.1403 117.834C52.6118 118.429 52.1823 119.139 52.2484 119.981C52.2649 120.279 52.4301 120.625 52.4301 120.89C52.4301 120.791 52.397 121.27 52.3475 121.17C52.3475 121.17 52.6118 121.005 52.4631 121.022C51.1252 121.038 51.1252 123.12 52.4631 123.103C53.4211 123.103 54.1479 122.558 54.4122 121.633C54.5443 121.154 54.5113 120.708 54.4122 120.229C54.3461 119.948 54.2635 119.849 54.4122 119.585C54.7921 118.891 55.651 118.363 56.2952 117.966C56.8733 117.619 57.6992 117.091 58.4094 117.173L57.8809 117.025L57.9965 117.091L57.6166 116.711C57.567 116.612 57.7487 116.48 57.6166 116.612C57.6001 116.628 57.5836 116.744 57.567 116.777C57.4844 116.975 57.3853 117.157 57.3193 117.355C57.1541 117.834 57.1541 118.346 57.2367 118.842C57.3853 119.766 57.8809 120.576 58.3599 121.352C59.3344 122.954 59.8795 124.755 59.45 126.638C59.0867 128.257 57.1376 128.455 55.7336 128.389C54.3296 128.323 53.2229 127.728 52.4962 126.588C52.0667 125.911 51.8024 125.168 51.5877 124.391C51.4886 124.012 51.373 123.599 51.3399 123.202C51.3399 123.037 51.439 122.674 51.2739 122.789C51.1582 122.888 51.5051 122.872 51.6703 122.905C52.9752 123.219 53.5202 121.22 52.2154 120.906H52.2319Z" fill="#231815"/>
<path d="M98.5808 108.5C99.5057 109.59 99.9682 111.011 100.266 112.398C100.431 113.174 100.464 113.769 100.612 114.694C101.488 120.459 99.704 124.043 97.7879 126.24C95.5911 128.751 91.1974 130.006 88.0095 129.23C78.4954 126.934 78.2477 116.395 83.5828 111.539C88.0921 107.426 89.0997 102.669 89.3309 100.572C89.3805 100.142 89.909 99.9604 90.2064 100.274C97.2759 107.509 95.3433 114.265 96.7638 113.736C97.1107 113.604 97.1272 113.571 97.8044 111.325C97.9861 110.746 98.1513 110.053 98.2339 108.896C98.2339 108.896 98.2009 108.021 98.5973 108.483L98.5808 108.5Z" fill="white"/>
<path d="M90.0237 130.502C89.2474 130.502 88.4876 130.42 87.7608 130.238C83.4497 129.198 80.394 126.373 79.4029 122.458C78.3458 118.329 79.7333 113.621 82.8716 110.764C87.1827 106.833 88.0912 102.241 88.2894 100.457C88.3555 99.8623 88.7519 99.3668 89.33 99.1686C89.8916 98.9704 90.5193 99.119 90.9322 99.5485C95.2268 103.942 96.3665 108.237 96.829 110.846C96.9776 110.301 97.1098 109.723 97.1758 108.815C97.1263 107.873 97.6548 107.51 97.9687 107.394C98.1504 107.328 98.7946 107.147 99.3727 107.824C100.529 109.195 101.008 110.962 101.272 112.184C101.388 112.713 101.437 113.159 101.503 113.654C101.536 113.919 101.57 114.2 101.619 114.53C102.395 119.535 101.355 123.714 98.5468 126.918C96.6308 129.115 93.1786 130.502 90.0072 130.502H90.0237ZM90.1889 101.795C89.7429 104.239 88.372 108.567 84.2756 112.317C81.6824 114.679 80.5427 118.544 81.4181 121.963C82.244 125.151 84.672 127.381 88.2564 128.239C91.1304 128.933 95.1442 127.711 96.9941 125.564C99.3892 122.822 100.248 119.221 99.5874 114.844C99.5378 114.497 99.4883 114.2 99.4553 113.919C99.4057 113.473 99.3562 113.076 99.257 112.614C99.1414 112.102 99.0258 111.656 98.8937 111.259C98.8606 111.392 98.8276 111.507 98.778 111.639C98.0347 114.117 97.9356 114.414 97.1098 114.728C96.6968 114.877 96.2839 114.844 95.937 114.646C95.2598 114.249 95.1442 113.506 94.946 112.267C94.5991 110.07 93.9879 106.106 90.1724 101.811L90.1889 101.795Z" fill="#231815"/>
<path d="M85.6469 121.914C85.0027 121.749 84.5237 121.699 84.2264 122.112C83.929 122.525 83.9621 123.087 84.0447 123.582C84.5567 126.539 85.8286 128.967 88.8678 129.38C90.0075 129.529 91.9401 129.413 93.1128 128.571C93.5423 128.257 93.9552 127.646 94.0708 127.134C94.5498 125.284 94.2856 123.252 93.3606 121.567C92.7164 120.411 91.7584 119.271 91.907 117.966C91.9731 117.438 92.5182 116.843 92.3035 116.348C92.1713 116.05 92.0227 116.1 91.8575 116.1C91.7749 116.1 91.6427 116.133 91.5602 116.149C90.1727 116.447 87.9428 117.834 87.216 119.023C86.5388 120.114 87.629 120.526 86.9683 121.666C86.9187 121.749 86.737 122.063 86.1754 122.03" fill="white"/>
<path d="M85.9106 120.906C85.1012 120.708 84.2258 120.625 83.5816 121.253C82.9374 121.881 82.8713 122.839 83.0035 123.665C83.2017 125.003 83.6146 126.39 84.3249 127.546C85.9271 130.123 88.9663 130.899 91.8074 130.222C93.393 129.842 94.7144 128.818 95.1109 127.183C95.5073 125.449 95.3586 123.599 94.6814 121.947C94.3511 121.17 93.9051 120.477 93.4756 119.75C93.1288 119.155 92.7819 118.528 93.0131 117.834C93.2774 117.074 93.5747 116.413 93.0792 115.67C92.5837 114.927 91.7082 115.026 90.965 115.241C89.4453 115.67 87.8597 116.645 86.819 117.834C86.2905 118.429 85.861 119.139 85.9271 119.981C85.9436 120.279 86.1088 120.625 86.1088 120.89C86.1088 120.791 86.0758 121.27 86.0262 121.17C86.0262 121.17 86.2905 121.005 86.1418 121.022C84.8039 121.038 84.8039 123.12 86.1418 123.103C87.0998 123.103 87.8266 122.558 88.0909 121.633C88.223 121.154 88.19 120.708 88.0909 120.229C88.0248 119.948 87.9422 119.849 88.0909 119.585C88.4708 118.891 89.3297 118.363 89.9739 117.966C90.552 117.619 91.3779 117.091 92.0881 117.173L91.5596 117.025L91.6752 117.091L91.2953 116.711C91.2458 116.612 91.4274 116.48 91.2953 116.612C91.2788 116.628 91.2623 116.744 91.2458 116.777C91.1632 116.975 91.0641 117.157 90.998 117.355C90.8328 117.834 90.8328 118.346 90.9154 118.842C91.0641 119.766 91.5596 120.576 92.0386 121.352C93.0131 122.954 93.5582 124.755 93.1288 126.638C92.7654 128.257 90.8163 128.455 89.4123 128.389C88.0083 128.323 86.9016 127.728 86.1749 126.588C85.7454 125.911 85.4811 125.168 85.2664 124.391C85.1673 124.012 85.0517 123.599 85.0186 123.202C85.0186 123.037 85.1177 122.674 84.9526 122.789C84.8369 122.888 85.1838 122.872 85.349 122.905C86.6539 123.219 87.1989 121.22 85.8941 120.906H85.9106Z" fill="#231815"/>
<path d="M131.351 108.5C132.276 109.59 132.739 111.011 133.036 112.398C133.201 113.174 133.234 113.769 133.383 114.694C134.258 120.459 132.474 124.043 130.558 126.24C128.362 128.751 123.968 130.006 120.78 129.23C111.266 126.934 111.018 116.395 116.353 111.539C120.863 107.426 121.87 102.669 122.101 100.572C122.151 100.142 122.68 99.9604 122.977 100.274C130.046 107.509 128.114 114.265 129.534 113.736C129.881 113.604 129.898 113.571 130.575 111.325C130.757 110.746 130.922 110.053 131.004 108.896C131.004 108.896 130.971 108.021 131.368 108.483L131.351 108.5Z" fill="white"/>
<path d="M122.795 130.502C122.019 130.502 121.259 130.42 120.532 130.238C116.221 129.198 113.165 126.373 112.174 122.458C111.117 118.329 112.505 113.621 115.643 110.764C119.954 106.833 120.863 102.241 121.061 100.457C121.127 99.8623 121.523 99.3668 122.085 99.1686C122.663 98.9704 123.274 99.119 123.704 99.5485C127.982 103.942 129.138 108.237 129.6 110.846C129.749 110.318 129.881 109.756 129.947 108.815C129.898 107.873 130.426 107.51 130.74 107.394C130.922 107.328 131.566 107.147 132.128 107.824C133.284 109.195 133.779 110.962 134.027 112.184C134.143 112.713 134.192 113.159 134.258 113.654C134.291 113.919 134.324 114.2 134.374 114.53C135.134 119.535 134.11 123.714 131.302 126.918C129.369 129.115 125.934 130.502 122.762 130.502H122.795ZM122.96 101.795C122.514 104.256 121.143 108.567 117.047 112.3C114.454 114.662 113.314 118.527 114.19 121.946C115.015 125.134 117.444 127.364 121.028 128.223C123.902 128.917 127.916 127.694 129.782 125.547C132.161 122.805 133.036 119.204 132.359 114.827C132.309 114.48 132.276 114.183 132.227 113.902C132.161 113.456 132.111 113.06 132.029 112.597C131.913 112.085 131.797 111.639 131.665 111.243C131.632 111.375 131.599 111.491 131.55 111.623C130.806 114.1 130.707 114.398 129.881 114.712C129.468 114.86 129.055 114.827 128.708 114.629C128.031 114.233 127.916 113.489 127.734 112.25C127.387 110.054 126.776 106.089 122.96 101.811V101.795Z" fill="#231815"/>
<path d="M118.417 121.914C117.773 121.749 117.294 121.699 116.997 122.112C116.7 122.525 116.733 123.087 116.815 123.582C117.327 126.539 118.599 128.967 121.638 129.38C122.778 129.529 124.711 129.413 125.883 128.571C126.313 128.257 126.726 127.646 126.841 127.134C127.32 125.284 127.056 123.252 126.131 121.567C125.487 120.411 124.529 119.271 124.678 117.966C124.744 117.438 125.289 116.843 125.074 116.348C124.942 116.05 124.793 116.1 124.628 116.1C124.545 116.1 124.413 116.133 124.331 116.149C122.943 116.447 120.713 117.834 119.987 119.023C119.309 120.114 120.399 120.526 119.739 121.666C119.689 121.749 119.508 122.063 118.946 122.03" fill="white"/>
<path d="M118.699 120.906C117.889 120.708 117.014 120.625 116.37 121.253C115.726 121.881 115.659 122.839 115.792 123.665C115.99 125.003 116.403 126.39 117.113 127.546C118.715 130.123 121.754 130.899 124.595 130.222C126.181 129.842 127.503 128.818 127.899 127.183C128.295 125.449 128.147 123.599 127.469 121.947C127.139 121.17 126.693 120.477 126.264 119.75C125.917 119.155 125.57 118.528 125.801 117.834C126.066 117.074 126.363 116.413 125.867 115.67C125.372 114.927 124.496 115.026 123.753 115.241C122.233 115.67 120.648 116.645 119.607 117.834C119.079 118.429 118.649 119.139 118.715 119.981C118.732 120.279 118.897 120.625 118.897 120.89C118.897 120.791 118.864 121.27 118.814 121.17C118.814 121.17 119.079 121.005 118.93 121.022C117.592 121.038 117.592 123.12 118.93 123.103C119.888 123.103 120.615 122.558 120.879 121.633C121.011 121.154 120.978 120.708 120.879 120.229C120.813 119.948 120.73 119.849 120.879 119.585C121.259 118.891 122.118 118.363 122.762 117.966C123.34 117.619 124.166 117.091 124.876 117.173L124.348 117.025L124.463 117.091L124.083 116.711C124.034 116.612 124.216 116.48 124.083 116.612C124.067 116.628 124.05 116.744 124.034 116.777C123.951 116.975 123.852 117.157 123.786 117.355C123.621 117.834 123.621 118.346 123.703 118.842C123.852 119.766 124.348 120.576 124.827 121.352C125.801 122.954 126.346 124.755 125.917 126.638C125.553 128.257 123.604 128.455 122.2 128.389C120.796 128.323 119.69 127.728 118.963 126.588C118.533 125.911 118.269 125.168 118.054 124.391C117.955 124.012 117.84 123.599 117.807 123.202C117.807 123.037 117.906 122.674 117.741 122.789C117.625 122.888 117.972 122.872 118.137 122.905C119.442 123.219 119.987 121.22 118.682 120.906H118.699Z" fill="#231815"/>
<path d="M29.5546 92.2353C29.3895 86.0247 29.918 79.4342 31.7845 73.4879C33.9318 66.6001 37.8795 60.7859 43.1486 55.9462C48.4177 51.1066 55.6359 47.6379 62.7715 45.6063C66.8017 44.45 70.9311 43.6572 75.0935 43.1451C76.8774 42.9304 78.6779 42.7487 80.4618 42.6166C81.5354 42.534 83.947 41.9889 84.7728 42.567C85.2353 42.8974 85.6483 43.8389 85.9786 44.3179L88.0929 47.3736C88.8857 48.5133 89.596 49.9008 90.554 50.9084C93.7584 54.2449 96.9298 47.4067 98.3338 45.3915C98.8623 44.6317 99.3413 43.8058 99.9194 43.0956C100.663 42.1871 100.993 42.4018 102.331 42.4844C106.295 42.6992 110.243 43.1286 114.125 43.9215C121.657 45.4741 128.726 48.4968 134.986 52.9896C141.213 57.4659 146.036 63.4287 148.927 70.5478C151.669 77.2869 152.396 85.0171 152.198 92.2353C152.164 93.7219 154.477 93.7219 154.51 92.2353C154.692 85.7439 154.097 78.79 152.115 72.5794C149.885 65.609 145.937 59.6131 140.619 54.6579C135.333 49.7356 128.875 46.0522 122.069 43.6902C118.353 42.4018 114.504 41.5429 110.606 40.9813C108.756 40.7171 106.906 40.5023 105.04 40.3537C103.438 40.2215 101.059 39.6599 99.5561 40.3041C98.1356 40.9153 97.1775 43.0295 96.3351 44.2188L94.3035 47.1589C93.9566 47.6544 93.362 48.9924 92.8334 49.2897C92.3048 49.587 92.3709 49.3888 91.9745 48.9263C91.2642 48.1004 90.7192 47.0928 90.0915 46.2174C88.9683 44.5987 87.9277 42.8809 86.7054 41.3282C84.9545 39.0983 80.8747 40.2546 78.4466 40.4858C74.3007 40.8657 70.1548 41.4603 66.0915 42.3853C58.1796 44.1857 50.3833 47.258 43.9249 52.2628C37.929 56.9043 33.4363 62.9166 30.5953 69.9531C27.7542 76.9896 27.0275 84.852 27.2422 92.2518C27.2752 93.7384 29.6042 93.7384 29.5546 92.2518V92.2353Z" fill="#231815"/>
</svg>
