<svg width="180" height="166" viewBox="0 0 180 166" fill="none" xmlns="http://www.w3.org/2000/svg">
<path d="M97.4107 75.5856C95.9547 76.6296 93.6841 76.6122 92.2455 75.5508L91.3615 74.6808C90.8415 73.9847 90.5121 73.1321 90.4601 72.2099C90.3388 71.4617 90.5295 69.3214 94.2734 64.4318L94.8454 63.6836L95.4174 64.4318C99.1267 69.2866 99.352 71.4269 99.2307 72.1925C99.196 73.0973 98.884 73.95 98.364 74.6286M91.9508 72.5927C92.2281 73.9325 93.4068 74.9418 94.8281 74.9418C96.2494 74.9418 97.3934 73.9673 97.688 72.6623L97.7747 71.9315C97.7747 71.6531 97.7054 70.0348 94.8281 66.0849C91.9161 70.0696 91.8641 71.6879 91.8641 71.9489L91.9335 72.5927H91.9508ZM97.844 71.9315H97.792H97.844Z" fill="#221714"/>
<path d="M128.297 92.0641C126.841 93.1082 124.571 93.0908 123.132 92.0293L122.248 91.1593C121.728 90.4633 121.399 89.6106 121.347 88.6884C121.226 87.9402 121.416 85.7999 125.16 80.9103L125.732 80.1621L126.304 80.9103C130.013 85.7651 130.239 87.9054 130.117 88.671C130.083 89.5758 129.771 90.4285 129.251 91.1071M122.838 89.0712C123.115 90.4111 124.293 91.4203 125.715 91.4203C127.136 91.4203 128.28 90.4459 128.575 89.1408L128.661 88.41C128.661 88.1316 128.592 86.5133 125.715 82.5634C122.803 86.5481 122.751 88.1664 122.751 88.4274L122.82 89.0712H122.838ZM128.731 88.41H128.679H128.731Z" fill="#221714"/>
<path d="M84.0287 80.2156C82.8328 81.0682 80.9955 81.0508 79.8168 80.1808L79.0888 79.4673C78.6555 78.9105 78.3955 78.2145 78.3608 77.4663C78.2568 76.8573 78.4302 75.1172 81.4635 71.1325L81.9314 70.5234L82.3994 71.1325C85.4154 75.0824 85.6061 76.8225 85.5021 77.4489C85.4674 78.1971 85.2074 78.8757 84.7914 79.4325M79.5742 77.7795C79.7995 78.8757 80.7701 79.6936 81.9141 79.6936C83.0581 79.6936 84.0114 78.8931 84.2541 77.8317L84.3234 77.2401C84.3234 77.0139 84.2714 75.6914 81.9141 72.4723C79.5395 75.7262 79.5048 77.0313 79.5048 77.2401L79.5568 77.7621L79.5742 77.7795ZM84.3754 77.2401H84.3407H84.3754Z" fill="#221714"/>
<path d="M89.9562 88.5142C89.0029 89.4017 87.3736 89.6105 86.2296 88.9666L85.5016 88.4098C85.0509 87.9574 84.7389 87.3832 84.6349 86.7046C84.4789 86.1651 84.4269 84.6165 86.6629 80.7362L87.0096 80.1445L87.4949 80.6318C90.6148 83.7987 90.9788 85.3125 90.9615 85.8867C91.0135 86.548 90.8748 87.1918 90.5628 87.7312M85.7443 86.8612C86.0562 87.8008 87.0096 88.4272 88.0495 88.288C89.0895 88.1488 89.8175 87.3484 89.9042 86.3739V85.8345C89.8868 85.6257 89.6789 84.4773 87.2349 81.8846C85.5016 85.0341 85.6056 86.1999 85.6403 86.3913L85.7443 86.8612ZM89.9388 85.8345H89.9042H89.9388Z" fill="#221714"/>
<path d="M131.297 77.5512C130.24 78.3169 128.593 78.2995 127.536 77.5338L126.895 76.89C126.513 76.3854 126.271 75.759 126.236 75.0978C126.149 74.5409 126.288 72.9923 129.009 69.4426L129.425 68.8857L129.841 69.4426C132.545 72.9749 132.701 74.5409 132.615 75.0978C132.58 75.759 132.355 76.368 131.991 76.8726M127.328 75.3936C127.519 76.368 128.385 77.0988 129.425 77.0988C130.465 77.0988 131.297 76.3854 131.505 75.4458L131.575 74.9063C131.575 74.6975 131.523 73.5317 129.425 70.6432C127.311 73.5491 127.259 74.7149 127.276 74.9063L127.328 75.3762V75.3936ZM131.627 74.9237H131.592H131.627Z" fill="#221714"/>
<path d="M89.2974 129.927C57.6473 129.927 24.0039 124.916 24.0039 115.624C24.0039 106.332 57.6473 101.32 89.2974 101.32C120.948 101.32 154.574 106.332 154.574 115.624C154.574 124.916 120.93 129.927 89.2974 129.927ZM89.2974 103.374C52.0487 103.374 26.0839 109.829 26.0839 115.606C26.0839 121.383 52.0487 127.839 89.2974 127.839C126.546 127.839 152.511 121.383 152.511 115.606C152.511 109.829 126.546 103.374 89.2974 103.374Z" fill="#231815"/>
<path d="M87.8407 166C64.2851 166 46.8134 159.979 35.8936 148.112C22.6165 133.67 24.0205 116.025 24.0898 115.295C24.1418 114.72 24.6445 114.303 25.2165 114.355C25.7885 114.407 26.2045 114.912 26.1525 115.486C26.1525 115.66 24.7658 132.991 37.4363 146.738C48.1827 158.396 65.6024 164.173 89.2967 163.929C89.9033 163.929 90.3367 164.382 90.3367 164.956C90.3367 165.53 89.886 166 89.314 166C88.8114 166 88.326 166 87.8407 166Z" fill="#231815"/>
<path d="M90.7694 166C90.2841 166 89.7814 166 89.2961 166C88.7241 166 88.2734 165.53 88.2734 164.956C88.2734 164.382 88.7414 163.929 89.3134 163.929C112.956 164.138 130.445 158.396 141.174 146.738C153.844 132.991 152.475 115.66 152.458 115.486C152.406 114.912 152.822 114.407 153.394 114.355C153.948 114.303 154.468 114.72 154.52 115.295C154.59 116.043 155.994 133.687 142.716 148.112C131.797 159.997 114.308 166 90.7694 166Z" fill="#231815"/>
<path d="M146.013 120.479C154.489 117.904 132.788 108.699 123.931 108.751C115.074 108.803 106.373 111.431 97.5153 111.257C89.5595 111.1 81.8463 108.664 73.9771 107.568C64.5653 106.263 54.8934 106.855 45.7243 109.343C39.571 111.013 33.0538 114.058 30.6445 119.975C30.6445 119.975 85.7116 138.854 145.996 120.479H146.013Z" fill="#231815"/>
<path d="M43.3482 71.4268C43.1228 71.4268 42.9148 71.3224 42.7762 71.131C42.5508 70.8178 42.6202 70.3654 42.9322 70.1392C44.8215 68.7471 43.7121 62.7961 39.1016 56.4797C36.9523 53.539 34.4736 51.1203 32.1337 49.676C30.0017 48.371 28.2338 48.0056 27.2804 48.719C26.9684 48.9452 26.5178 48.8756 26.2925 48.5624C26.0671 48.2492 26.1365 47.7968 26.4485 47.5706C27.9218 46.4917 30.2097 46.8049 32.879 48.458C35.375 50.0067 37.9922 52.5471 40.2455 55.6445C45.0988 62.2915 46.6414 69.1647 43.7641 71.2876C43.6428 71.3746 43.4868 71.4268 43.3482 71.4268Z" fill="#231815"/>
<path d="M16.8983 90.3415C15.6156 90.3415 14.1076 89.8195 12.4437 88.7928C9.93038 87.2442 7.29576 84.6689 5.02514 81.5716C0.0332242 74.7331 -1.45742 67.9121 1.5412 65.7022C1.92252 65.4238 2.45985 65.5108 2.73718 65.8936C3.01451 66.2764 2.92784 66.8159 2.54651 67.0943C0.709212 68.4515 1.85319 74.2981 6.41178 80.5449C8.54374 83.4682 11.005 85.8695 13.345 87.3138C15.3903 88.584 17.1409 88.932 18.0249 88.2708C18.4062 87.9924 18.9436 88.0794 19.2209 88.4622C19.4982 88.845 19.4115 89.3844 19.0302 89.6629C18.4236 90.0979 17.7129 90.3241 16.8809 90.3241L16.8983 90.3415Z" fill="#231815"/>
<path d="M2.04335 67.2688C1.78336 67.2688 1.52336 67.147 1.35003 66.9207C1.0727 66.5379 1.15937 65.9985 1.54069 65.7201L26.3443 47.4669C26.7256 47.1885 27.2629 47.2755 27.5402 47.6583C27.8176 48.0411 27.7309 48.5805 27.3496 48.8589L2.56334 67.0948C2.40735 67.1992 2.23402 67.2688 2.06069 67.2688H2.04335Z" fill="#231815"/>
<path d="M18.5963 89.9413C18.319 89.9413 18.059 89.8021 17.8857 89.5585C17.6257 89.1583 17.7297 88.6189 18.111 88.3579L33.7974 77.6565C35.2361 76.6647 36.9174 75.9861 38.6507 75.7076L43.9026 74.8202C44.3879 74.7506 44.8212 75.0638 44.8906 75.5336C44.9772 76.0035 44.6479 76.4559 44.1799 76.5255L38.928 77.4129C37.4373 77.6565 35.9987 78.2481 34.7681 79.0834L19.0817 89.7847C18.9257 89.8891 18.7697 89.9413 18.5963 89.9413Z" fill="#231815"/>
<path d="M44.3558 75.7431L44.7024 71.7062L45.0838 67.3386C45.6904 64.2065 44.1824 59.3865 40.9065 54.8972C36.4346 48.7722 30.3853 45.6052 27.3867 47.8151C24.3881 50.025 25.5841 56.7764 30.056 62.884C31.876 65.3897 33.9733 67.3908 36.0186 68.748L40.4558 72.4718L44.3558 75.7431Z" fill="white"/>
<path d="M44.3532 76.6118C44.1625 76.6118 43.9545 76.5422 43.7985 76.403L35.4613 69.4254C33.3294 68.016 31.1801 65.9105 29.3601 63.4048C27.1242 60.3423 25.5988 57.0188 25.0789 54.0433C24.5069 50.859 25.1482 48.4055 26.8815 47.1178C30.3134 44.5947 36.7787 47.7791 41.5972 54.3913C44.9598 58.985 46.6065 64.0138 45.9305 67.5113L45.2025 75.8114C45.1678 76.1246 44.9772 76.403 44.6825 76.5248C44.5785 76.577 44.4572 76.5944 44.3532 76.5944V76.6118ZM29.7414 47.9705C29.0308 47.9705 28.4068 48.1445 27.9041 48.5273C26.7428 49.3799 26.3442 51.2766 26.7775 53.7475C27.2628 56.462 28.6668 59.5419 30.7641 62.3956C32.4801 64.7446 34.456 66.6935 36.5013 68.0508L43.6599 74.0366L44.2492 67.2851C44.8385 64.2052 43.2612 59.5941 40.2279 55.4353C36.9346 50.9112 32.6361 47.9879 29.7414 47.9879V47.9705Z" fill="#231815"/>
<path d="M147.89 66.7579L149.315 66.0787C149.687 65.9015 149.845 65.4552 149.669 65.0819L147.081 59.6118C146.905 59.2386 146.46 59.0796 146.088 59.2569L144.663 59.9361C144.292 60.1133 144.133 60.5596 144.31 60.9329L146.897 66.403C147.074 66.7763 147.518 66.9352 147.89 66.7579Z" fill="white"/>
<path d="M147.573 67.6877C146.966 67.6877 146.394 67.3397 146.117 66.7655L143.534 61.3017C143.153 60.5013 143.499 59.5268 144.297 59.144L145.718 58.4654C146.515 58.0826 147.486 58.4306 147.867 59.231L150.45 64.6948C150.831 65.4952 150.485 66.4697 149.687 66.8525L148.266 67.5311C148.041 67.6355 147.815 67.6877 147.573 67.6877ZM145.146 60.6579L147.625 65.8954L148.838 65.3212L146.359 60.0836L145.146 60.6579Z" fill="#231815"/>
<path d="M146.744 53.4139L134.186 59.3998C133.451 59.7501 133.138 60.6324 133.487 61.3703L134.513 63.5394C134.862 64.2773 135.741 64.5915 136.476 64.2411L149.034 58.2552C149.769 57.9048 150.082 57.0226 149.733 56.2847L148.707 54.1155C148.358 53.3776 147.479 53.0635 146.744 53.4139Z" fill="white"/>
<path d="M135.855 65.25C135.595 65.25 135.318 65.1978 135.075 65.1108C134.486 64.902 134.018 64.467 133.741 63.9102L132.718 61.7351C132.164 60.5692 132.666 59.1598 133.828 58.603L146.377 52.6172C146.949 52.3562 147.573 52.3214 148.162 52.5302C148.751 52.739 149.219 53.174 149.497 53.7308L150.519 55.9059C151.074 57.0717 150.571 58.4812 149.41 59.038L136.861 65.0238C136.549 65.1804 136.202 65.25 135.855 65.25ZM147.122 54.2006L134.573 60.1864C134.278 60.3256 134.14 60.691 134.278 60.9869L135.301 63.1619C135.439 63.4577 135.803 63.5969 136.098 63.4577L148.647 57.4719C148.942 57.3327 149.081 56.9673 148.942 56.6715L147.919 54.4964C147.781 54.2006 147.417 54.0614 147.122 54.218V54.2006Z" fill="#231815"/>
<path d="M151.738 63.7576L144.583 67.1685C143.891 67.4983 143.596 68.3286 143.925 69.0231L145.962 73.33C146.29 74.0245 147.118 74.3202 147.809 73.9904L154.965 70.5795C155.657 70.2497 155.951 69.4194 155.623 68.7249L153.586 64.418C153.257 63.7235 152.43 63.4278 151.738 63.7576Z" fill="white"/>
<path d="M147.208 74.9957C146.359 74.9957 145.545 74.5085 145.163 73.6906L143.135 69.3927C142.598 68.2616 143.083 66.9044 144.21 66.365L151.351 62.9544C152.478 62.415 153.83 62.9023 154.367 64.0333L156.395 68.3312C156.932 69.4623 156.447 70.8195 155.32 71.3589L148.179 74.7695C147.867 74.9087 147.538 74.9783 147.208 74.9783V74.9957ZM152.096 64.5553L144.955 67.9658C144.695 68.0876 144.591 68.4008 144.713 68.6619L146.741 72.9598C146.862 73.2208 147.174 73.3252 147.434 73.2034L154.575 69.7929C154.835 69.6711 154.939 69.3579 154.818 69.0969L152.79 64.7989C152.668 64.5379 152.356 64.4335 152.096 64.5553Z" fill="#231815"/>
<path d="M157.921 68.0732L143.97 74.7234C140.563 76.3475 139.112 80.4368 140.73 83.8572L150.782 105.109C152.4 108.529 156.473 109.985 159.88 108.361L173.831 101.711C177.238 100.087 178.689 95.9975 177.071 92.5771L167.019 71.3256C165.401 67.9052 161.328 66.4491 157.921 68.0732Z" fill="white"/>
<path d="M156.967 109.903C154.089 109.903 151.316 108.268 149.999 105.484L139.946 84.2374C138.126 80.3919 139.755 75.7634 143.603 73.9363L157.556 67.2893C159.411 66.4018 161.508 66.2974 163.449 66.9935C165.391 67.6895 166.933 69.0989 167.817 70.9608L177.87 92.2069C178.754 94.0688 178.858 96.1743 178.165 98.1231C177.472 100.072 176.068 101.621 174.213 102.508L160.26 109.155C159.203 109.66 158.076 109.903 156.967 109.903ZM160.849 68.2811C159.983 68.2811 159.116 68.4725 158.301 68.8553L144.348 75.5023C141.384 76.9118 140.102 80.4963 141.523 83.4718L151.576 104.718C152.98 107.693 156.551 108.981 159.532 107.554L173.485 100.907C174.924 100.229 176.016 99.0106 176.553 97.5141C177.09 96.0002 177.004 94.382 176.328 92.9377L166.275 71.6916C165.599 70.2474 164.385 69.1511 162.895 68.6117C162.236 68.3855 161.56 68.2637 160.884 68.2637L160.849 68.2811Z" fill="#231815"/>
<path d="M84.2893 60.2546C82.972 59.1757 80.4761 57.5053 81.4641 55.6434C82.452 53.7816 84.064 52.1807 85.1213 50.3362C87.4786 46.2123 86.508 42.0709 87.9466 37.8078C88.7959 35.3021 90.4426 32.8834 92.0719 30.5692C97.7571 22.4605 103.702 14.491 109.856 6.71293C111.589 4.53786 113.478 2.24098 115.697 1.14474C118.834 -0.403913 124.831 5.30348 126.877 6.85214" fill="white"/>
<path d="M84.4095 61.4739L83.3175 60.5864C81.8789 59.4554 79.4869 57.5587 80.7176 55.2271C81.2722 54.183 82.0002 53.226 82.7109 52.3037C83.3349 51.4859 83.9242 50.7203 84.3922 49.8851C85.6748 47.6578 85.9002 45.3957 86.1428 43.0118C86.3161 41.237 86.5068 39.3925 87.1481 37.4958C88.0148 34.9554 89.5748 32.6063 91.3774 30.0484C97.0453 21.9571 103.043 13.9354 109.196 6.15736C111.102 3.75608 113.009 1.494 115.332 0.345562C118.504 -1.20309 123.357 2.81645 126.269 5.21773C126.719 5.60054 127.118 5.91375 127.413 6.13996L128.106 6.66198L127.066 8.03663L126.373 7.51461C126.061 7.271 125.645 6.94039 125.177 6.54017C122.924 4.67831 118.261 0.815378 116.094 1.89422C114.084 2.88605 112.316 4.97412 110.548 7.2188C104.412 14.9621 98.4493 22.9663 92.7987 31.0228C91.0654 33.4763 89.5748 35.7036 88.7774 38.0353C88.2055 39.7405 88.0321 41.3936 87.8415 43.1684C87.5815 45.6219 87.3215 48.1798 85.8655 50.7203C85.3282 51.6425 84.6868 52.5126 84.0455 53.3304C83.3522 54.2352 82.7109 55.0878 82.2082 56.0101C81.6882 56.9671 82.9362 58.0633 84.3575 59.1944L85.4668 60.0992L84.3749 61.4391L84.4095 61.4739Z" fill="#231815"/>
<path d="M83.8008 59.872C85.1701 60.8812 87.4061 62.8649 88.966 61.438C90.526 60.0112 91.6353 58.0275 93.1433 56.5311C96.5232 53.1902 100.752 53.0858 104.496 50.5801C106.698 49.101 108.604 46.8911 110.407 44.7335C116.768 37.1468 122.921 29.3513 128.832 21.3819C130.496 19.1546 132.212 16.7185 132.697 14.2824C133.391 10.8371 128.156 7.8442 126.128 6.26074" fill="white"/>
<path d="M87.7187 62.8128C86.2454 62.8128 84.7548 61.6817 83.7321 60.8987L82.6055 60.0635L83.6108 58.6714L84.7721 59.5241C86.2107 60.6203 87.5801 61.5425 88.3774 60.7943C89.14 60.0809 89.7987 59.2283 90.492 58.3408C91.1333 57.523 91.792 56.6704 92.5373 55.9047C94.6173 53.8341 97.0092 52.9292 99.3145 52.0592C100.961 51.4328 102.521 50.8412 104.012 49.8493C106.057 48.4921 107.808 46.4736 109.749 44.1593C116.058 36.6249 122.263 28.7772 128.157 20.8425C129.873 18.5457 131.433 16.301 131.883 14.0911C132.351 11.742 129.041 9.37554 126.839 7.80949C126.371 7.47887 125.955 7.18306 125.626 6.92206L124.95 6.38264L126.007 5.02539L126.683 5.56481C126.995 5.80842 127.394 6.08683 127.827 6.40004C130.393 8.2271 134.241 10.9938 133.565 14.4391C133.062 16.997 131.363 19.4157 129.543 21.8866C123.633 29.8386 117.41 37.7037 111.084 45.273C109.073 47.6917 107.218 49.7971 104.982 51.2936C103.336 52.3898 101.602 53.051 99.9385 53.6775C97.7025 54.5301 95.5879 55.3305 93.7679 57.1228C93.0919 57.8014 92.5026 58.567 91.8613 59.3849C91.1507 60.3071 90.4227 61.2467 89.556 62.0646C88.984 62.604 88.36 62.8128 87.736 62.8128H87.7187Z" fill="#231815"/>
<path d="M90.822 51.9732L90.1633 51.4164C89.0194 50.4767 87.7714 49.6415 86.4541 48.9803L85.6914 48.5801L86.4714 47.0488L87.2341 47.449C88.6727 48.1799 90.0247 49.0673 91.2553 50.0939L91.914 50.6508L90.822 51.9906V51.9732Z" fill="#231815"/>
<path d="M94.3398 55.2795L93.7678 54.6357C92.7799 53.522 91.6706 52.5302 90.4746 51.6602L89.7812 51.1555L90.7866 49.7461L91.4799 50.2507C92.7799 51.1903 93.9932 52.2692 95.0505 53.4698L95.6225 54.1136L94.3398 55.2621V55.2795Z" fill="#231815"/>
<path d="M85.9526 58.5847L85.294 58.0279C84.3407 57.2275 83.266 56.5488 82.1394 55.992L81.3594 55.6266L82.0874 54.0605L82.8674 54.426C84.1327 55.035 85.3286 55.8006 86.4033 56.688L87.0619 57.2449L85.9526 58.5673V58.5847Z" fill="#231815"/>
<path d="M88.8826 61.4554L88.3279 60.7942C87.5133 59.8198 86.5946 58.9672 85.572 58.2363L84.8613 57.7317L85.8493 56.3223L86.56 56.8269C87.7039 57.6273 88.7439 58.6017 89.6452 59.6806L90.1999 60.3418L88.8826 61.4554Z" fill="#231815"/>
<path d="M4.52144 64.3795C4.22678 64.3795 3.93212 64.2055 3.79345 63.9097C3.74145 63.8053 -0.799799 53.0518 8.07471 47.3444C14.4186 43.2726 19.1158 45.4999 21.3518 47.2052C21.9758 47.675 24.2638 49.676 23.9518 50.7027C23.8478 51.0159 23.5531 51.2595 23.2238 51.2769C22.7904 51.2595 22.4265 50.9811 22.3918 50.5461C22.0278 49.9022 20.3118 47.8838 17.6599 47.0311C14.9213 46.1611 11.992 46.7005 8.92403 48.6842C1.15883 53.6782 5.19743 63.1963 5.23209 63.2833C5.40542 63.6835 5.23209 64.1533 4.83343 64.3273C4.72944 64.3795 4.62544 64.3969 4.52144 64.3969V64.3795Z" fill="#231815"/>
<path d="M6.65523 63.0756C6.29124 63.0756 5.96191 62.8494 5.84058 62.5014C5.80591 62.4144 2.77263 53.4009 9.72318 49.5727C14.4898 46.9452 17.5924 48.5635 19.0137 49.7815C19.915 50.5472 21.1283 52.0784 20.851 52.9137C20.7296 53.2443 20.4003 53.5053 20.0537 53.5053C19.603 53.5227 19.187 53.1573 19.1697 52.67V52.6352C18.979 52.235 18.1644 50.93 16.5697 50.2688C14.8538 49.5553 12.8431 49.8337 10.5725 51.0866C4.9046 54.2013 7.38322 61.614 7.48722 61.9272C7.64321 62.3796 7.40055 62.8668 6.94989 63.0234C6.86323 63.0582 6.75923 63.0756 6.67256 63.0756H6.65523Z" fill="#231815"/>
<path d="M45.913 99.9291C45.913 99.9291 45.757 99.9291 45.6703 99.8943C45.2023 99.7551 44.925 99.2678 45.0463 98.7806C47.8369 88.9319 43.3304 80.423 43.2784 80.3534C43.0357 79.9184 43.209 79.3616 43.6424 79.1353C44.0757 78.9091 44.6303 79.0657 44.8557 79.5008C45.0637 79.8662 49.7609 88.7405 46.7623 99.2852C46.6583 99.6855 46.2943 99.9465 45.8956 99.9465L45.913 99.9291Z" fill="#231815"/>
<path d="M61.2358 96.745C60.8198 96.745 60.4558 96.4491 60.3518 96.0315C57.8212 84.0947 49.3107 76.7517 49.224 76.6821C48.8427 76.3689 48.7907 75.7946 49.12 75.4118C49.4494 75.029 50.004 74.9768 50.3854 75.3074C50.7493 75.6206 59.4332 83.1029 62.1025 95.6487C62.2065 96.1359 61.8945 96.6057 61.4092 96.7101C61.3398 96.7101 61.2878 96.7276 61.2185 96.7276L61.2358 96.745Z" fill="#231815"/>
</svg>
