<svg width="220" height="129" viewBox="0 0 220 129" fill="none" xmlns="http://www.w3.org/2000/svg">
<g clip-path="url(#clip0_118_1338)">
<path d="M98.4158 93.1208C101.15 92.0767 104.282 91.2315 106.768 89.6654C107.216 89.392 107.912 89.4666 108.285 89.8643C109.776 91.4553 112.809 92.2507 114.947 92.7479C117.035 93.2202 123.15 94.7863 124.344 91.853C124.02 89.8643 122.206 88.4722 120.49 87.627C119.322 87.0304 118.054 86.6575 116.762 86.3841C116.14 86.2598 115.568 86.1355 115.22 85.5637C114.549 84.4451 115.494 82.8541 115.842 81.7852C116.364 80.1197 117.035 77.9072 115.842 76.3909C115.767 76.2914 115.643 76.2666 115.593 76.2417C115.245 76.2417 114.823 76.3909 114.499 76.54C113.132 77.1118 111.84 78.0315 110.646 78.9016C108.906 80.1694 107.241 81.5366 105.65 82.9784C105.202 83.3762 104.68 83.401 104.133 83.1773C104.606 83.3762 103.686 83.0281 103.537 82.9784C103.089 82.8293 102.617 82.6801 102.145 82.531C100.777 82.1084 99.3853 81.7106 97.9932 81.3129C94.3141 80.2937 90.6102 79.349 86.8814 78.653C85.0915 78.3298 83.3017 78.1558 81.5367 78.0315L81.835 83.5253C82.9785 83.3016 84.122 83.1027 85.2904 82.9287C85.9616 82.8293 86.6328 83.0779 86.8316 83.7988C87.0057 84.3954 86.6328 85.2406 85.9616 85.34C85.017 85.4892 84.0972 85.6383 83.1526 85.8123C83.5254 86.1355 83.9232 86.4338 84.2712 86.757C85.4396 86.5829 86.6079 86.4835 87.7763 86.5084C89.3672 86.5581 89.3672 89.044 87.7763 88.9942C87.3537 88.9942 86.9559 88.9942 86.5333 89.0191C86.9311 89.5163 86.9311 90.2123 86.4836 90.6846C86.0113 91.157 85.191 91.1818 84.7187 90.6846C84.2961 90.2372 83.8735 89.8394 83.4509 89.4168C83.0283 89.4914 82.5808 89.5909 82.1582 89.6903L82.5808 97.7197C84.2961 97.4711 86.0362 97.1728 87.7266 96.775C91.4057 95.8801 94.8859 94.4383 98.4158 93.0959V93.1208Z" fill="white"/>
<path d="M99.3107 95.4327C101.896 94.4632 104.78 93.5932 107.241 92.2508C109.702 94.2892 113.58 95.0847 116.488 95.5819C119.844 96.1288 124.791 96.5265 126.531 92.9717C126.755 92.748 126.929 92.4994 126.904 92.1265C126.556 88.4226 123.473 86.061 120.217 84.7932C119.72 84.5943 118.576 84.0723 117.781 83.9728C117.855 83.7491 117.905 83.5254 117.955 83.3762C118.576 81.5616 119.148 79.548 118.924 77.609C118.725 75.844 117.582 73.7808 115.593 73.7808C113.232 73.7808 110.795 75.7446 109.006 77.0621C107.464 78.2056 105.973 79.4486 104.531 80.7164C102.741 80.0452 100.877 79.548 99.0621 79.026C95.1593 77.9322 91.2068 76.9378 87.2045 76.2169C85.2904 75.8689 83.3763 75.6949 81.4373 75.5954L81.5616 78.0813C83.3514 78.1808 85.1412 78.3548 86.9062 78.7028C90.6599 79.3988 94.3638 80.3186 98.0181 81.3627C99.4102 81.7604 100.777 82.1582 102.169 82.5808C102.642 82.7299 103.089 82.8791 103.562 83.0282C103.711 83.0779 104.606 83.426 104.158 83.2271C104.705 83.4508 105.227 83.4508 105.675 83.0282C107.266 81.5864 108.931 80.2192 110.671 78.9514C111.864 78.0813 113.132 77.1616 114.524 76.5898C114.872 76.4406 115.295 76.2915 115.618 76.2915C115.668 76.2915 115.792 76.3412 115.867 76.4406C117.06 77.9322 116.389 80.1695 115.867 81.835C115.544 82.9039 114.574 84.4949 115.245 85.6135C115.593 86.1853 116.165 86.3096 116.786 86.4339C118.079 86.7073 119.347 87.0553 120.515 87.6768C122.206 88.5469 124.02 89.9141 124.368 91.9028C123.175 94.8361 117.06 93.27 114.972 92.7977C112.809 92.3005 109.801 91.505 108.31 89.9141C107.937 89.5163 107.266 89.4418 106.793 89.7152C104.307 91.2813 101.175 92.1514 98.4407 93.1706C94.9107 94.513 91.4305 95.9548 87.7514 96.8497C86.0362 97.2723 84.3209 97.5457 82.6057 97.7943L82.7299 100.28C84.6441 100.007 86.5333 99.6836 88.4226 99.2361C92.1763 98.3412 95.7311 96.8497 99.3356 95.4825L99.3107 95.4327Z" fill="black"/>
<path d="M84.7435 90.7344C85.191 91.2316 86.0362 91.2067 86.5085 90.7344C86.9808 90.2621 86.9559 89.566 86.5582 89.0688C85.5141 89.1186 84.4949 89.2677 83.4757 89.4666C83.8983 89.8892 84.3458 90.2869 84.7435 90.7344V90.7344Z" fill="black"/>
<path d="M83.1525 85.8372C82.7548 85.9117 82.3571 85.9615 81.9842 86.0609L82.0339 87.2044C82.7797 87.0304 83.5254 86.9061 84.2712 86.7818C83.8983 86.4586 83.5254 86.1355 83.1525 85.8372Z" fill="black"/>
<path d="M85.9616 85.3649C86.6328 85.2654 86.9808 84.4202 86.8316 83.8236C86.6328 83.1027 85.9616 82.8541 85.2904 82.9536C84.122 83.1276 82.9785 83.3265 81.835 83.5502L81.9593 86.0609C82.3571 85.9863 82.7548 85.9118 83.1277 85.8372C84.0723 85.6632 84.9921 85.4892 85.9367 85.3649H85.9616Z" fill="black"/>
<path d="M86.5582 89.069C86.9808 89.069 87.3785 89.0192 87.8011 89.0441C89.3921 89.0938 89.3921 86.6079 87.8011 86.5582C86.6328 86.5334 85.4644 86.6328 84.2961 86.8068C83.5503 86.9311 82.8045 87.0554 82.0588 87.2294L82.1831 89.7401C82.6057 89.6407 83.0531 89.5413 83.4757 89.4667C84.4949 89.2678 85.5141 89.1187 86.5582 89.069V89.069Z" fill="black"/>
<path d="M49.096 83.0779C48.6734 83.6496 48.0768 84.0971 47.4056 84.3457C49.7175 86.0858 52.0791 87.801 54.4655 89.4417C56.678 90.9581 58.9153 92.3999 61.2271 93.7423L65.8508 87.1547C65.4282 86.9558 65.0056 86.7818 64.6079 86.6078C64.6079 86.8315 64.6825 87.0553 64.6825 87.279C64.7322 87.9502 64.061 88.5219 63.4395 88.5219C62.7186 88.5219 62.2463 87.9502 62.1966 87.279C62.1469 86.6824 62.0475 86.0858 61.9729 85.514C60.4814 84.9174 58.9898 84.3705 57.4486 84.0225C55.8825 83.6496 56.5537 81.2632 58.1198 81.6361C59.2633 81.9095 60.3571 82.2824 61.4757 82.6801C61.3514 82.1581 61.2023 81.6112 61.0531 81.0892C60.0339 80.6914 58.9898 80.3186 57.9458 79.9705C56.4294 79.4734 57.0757 77.0621 58.6169 77.5841C59.0893 77.7332 59.5616 77.9321 60.0588 78.1061C59.9345 77.8078 59.835 77.4847 59.7107 77.1863C59.4373 76.5649 59.5119 75.8688 60.1582 75.496C60.6802 75.1977 61.6 75.3219 61.8486 75.9434C62.3209 77.0372 62.7186 78.131 63.0667 79.2496C63.7379 79.5231 64.3842 79.7965 65.0305 80.07C64.9311 79.8214 64.8316 79.5479 64.7322 79.2745C64.4588 78.653 64.5333 77.957 65.1797 77.5841C65.7017 77.2858 66.6215 77.4101 66.8701 78.0315C67.3672 79.1751 67.765 80.3434 68.1379 81.5366C68.5605 81.7355 68.9831 81.9344 69.4056 82.1581L72.5627 77.6338C67.7401 73.3581 62.0723 70.1265 56.2305 67.3423C57.1006 71.6428 53.3966 77.2858 49.096 83.1525V83.0779Z" fill="white"/>
<path d="M65.7763 84.4205C66.0249 84.5199 66.2486 84.6442 66.4972 84.7436C66.3729 84.2465 66.2486 83.7493 66.0994 83.2521C65.3537 82.9041 64.6079 82.5561 63.8622 82.2329C63.9864 82.7301 64.0859 83.2273 64.1853 83.7244C64.7073 83.9482 65.2294 84.1719 65.7763 84.3956V84.4205Z" fill="white"/>
<path d="M55.0621 64.7819C55.6836 65.5525 56.0316 66.3977 56.2305 67.2926C62.0723 70.0519 67.7401 73.3084 72.5627 77.5841L74.0045 75.5457C67.6904 70.0022 60.009 66.1491 52.3277 62.818C52.2531 62.7932 52.2034 62.818 52.1288 62.7683C53.3966 63.3649 54.4407 64.0112 55.0621 64.7819Z" fill="black"/>
<path d="M59.8102 95.7808L61.2271 93.7423C58.9153 92.4 56.678 90.9582 54.4655 89.4418C52.0542 87.8011 49.7175 86.1107 47.4056 84.3457C47.1073 84.47 46.7842 84.5695 46.461 84.6192C46.2124 84.644 45.9638 84.6689 45.7153 84.6689C44.5469 84.6689 43.3537 84.2712 42.3345 83.5254C45.6655 86.3096 49.1955 88.8203 52.7751 91.2565C55.087 92.8226 57.4237 94.3638 59.835 95.7559L59.8102 95.7808Z" fill="black"/>
<path d="M43.7266 81.5119C44.4475 82.0339 45.3175 82.2825 46.0633 82.1831C46.3864 82.1334 46.809 82.0091 47.0825 81.6362C52.452 74.278 55.3605 69.1322 53.0983 66.3481C51.9548 64.9311 47.2565 63.6384 44.7458 62.9424L43.5774 62.6192C40.122 61.6249 38.1085 61.426 36.8655 61.4757C39.9729 64.9808 39.9232 65.2045 39.7492 65.8509C39.6497 66.2486 39.3266 66.5966 38.9288 66.7209C38.5808 66.8452 38.3819 66.9198 32.4904 65.8509C32.1175 66.4972 31.9932 67.243 32.0927 68.0633C32.4904 71.4192 36.7164 76.3413 43.6768 81.5367L43.7266 81.5119ZM41.3401 68.3119L42.2599 68.3865L41.5141 67.591C41.0418 67.0938 41.0915 66.2983 41.5887 65.826C42.0859 65.3537 42.8814 65.4034 43.3537 65.9006L45.8644 68.6351L48.3751 68.8091C49.0712 68.8588 49.5684 69.4554 49.5186 70.1266C49.4689 70.7729 48.922 71.2701 48.3006 71.2701L48.4249 71.4192C48.8972 71.9164 48.8475 72.7119 48.3503 73.1842C48.1017 73.4079 47.8034 73.5074 47.5051 73.5074C47.1819 73.5074 46.8339 73.3831 46.5853 73.1096L44.6712 71.0464L41.1164 70.7978C40.4203 70.7481 39.9232 70.1514 39.9729 69.4803C40.0226 68.7842 40.5695 68.3119 41.2904 68.3368L41.3401 68.3119Z" fill="white"/>
<path d="M46.4362 84.6441C46.7842 84.5944 47.0825 84.4949 47.3808 84.3706C48.0768 84.0972 48.6486 83.6746 49.0712 83.1028C53.3717 77.2362 57.0757 71.5932 56.2056 67.2927C56.0316 66.3978 55.6588 65.5526 55.0373 64.7819C54.4158 64.0113 53.3966 63.3401 52.1039 62.7684C50.2644 61.9232 47.878 61.2271 45.3921 60.5311L44.2486 60.2079C36.3435 57.9209 34.1808 59.313 33.6339 60.0091C33.261 60.4814 33.2859 61.1526 33.6836 61.6249C34.3548 62.3458 35.0508 63.1661 35.6723 63.887C34.6034 63.713 33.3356 63.4893 32.1672 63.2656C31.7198 63.191 31.2723 63.3401 30.9989 63.6882C29.9051 65.0305 29.4576 66.5966 29.6565 68.3616C30.278 73.6068 36.8407 79.4983 42.235 83.5254C42.235 83.5254 42.2847 83.5503 42.3096 83.5752C43.3288 84.3209 44.522 84.7187 45.6904 84.7187C45.939 84.7187 46.1876 84.7187 46.4362 84.669V84.6441ZM32.5401 65.8509C38.4316 66.8949 38.6305 66.8452 38.9785 66.7209C39.3763 66.5966 39.6994 66.2486 39.7989 65.8509C39.9729 65.2045 40.0226 64.9808 36.9153 61.4757C38.1333 61.4509 40.1717 61.6497 43.6271 62.6192L44.7955 62.9424C47.3062 63.6384 52.0045 64.9311 53.148 66.348C55.3853 69.1571 52.5017 74.278 47.1322 81.6362C46.8588 82.0091 46.4362 82.1334 46.113 82.1831C45.3672 82.2825 44.4972 82.0339 43.7763 81.5119C36.8158 76.3164 32.5898 71.3944 32.1921 68.0384C32.0927 67.2181 32.2169 66.4972 32.5898 65.826L32.5401 65.8509Z" fill="black"/>
<path d="M43.3785 65.8757C42.9062 65.3786 42.1356 65.3288 41.6136 65.8012C41.1164 66.2735 41.0667 67.0441 41.539 67.5661L42.2847 68.3616L45.8893 68.6102L43.3785 65.8757V65.8757Z" fill="black"/>
<path d="M48.226 71.2701L44.7209 71.0215L46.635 73.0848C46.8836 73.3582 47.2068 73.4825 47.5548 73.4825C47.8531 73.4825 48.1514 73.3831 48.4 73.1593C48.8972 72.687 48.9469 71.9164 48.4746 71.3944L48.3503 71.2452C48.3254 71.2452 48.3006 71.2452 48.2508 71.2452L48.226 71.2701Z" fill="black"/>
<path d="M41.1661 70.7728L44.7209 71.0214L48.226 71.27C48.226 71.27 48.2757 71.27 48.3254 71.27C48.9718 71.27 49.5186 70.7728 49.5435 70.1265C49.5932 69.4304 49.0712 68.8587 48.4 68.8089L45.8893 68.6349L42.2847 68.3863L41.365 68.3118C40.6441 68.3118 40.0972 68.7841 40.0475 69.4553C39.9977 70.1513 40.5198 70.7231 41.191 70.7728H41.1661Z" fill="black"/>
<path d="M61.9729 85.5142C62.0475 86.1108 62.1469 86.7074 62.1966 87.2791C62.2463 87.9503 62.7186 88.5221 63.4396 88.5221C64.061 88.5221 64.7322 87.9503 64.6825 87.2791C64.6825 87.0554 64.6328 86.8317 64.6079 86.6079C64.5831 86.6079 64.5582 86.6079 64.5333 86.5831C63.6881 86.2351 62.8429 85.8622 61.9977 85.5142H61.9729Z" fill="black"/>
<path d="M63.8621 82.2328C62.9175 81.8351 61.9729 81.4373 61.0282 81.0645C61.1774 81.5865 61.3265 82.1085 61.4508 82.6554C62.3706 83.0034 63.2904 83.3515 64.1853 83.7492C64.0859 83.252 63.9864 82.7548 63.8621 82.2577V82.2328Z" fill="black"/>
<path d="M61.8237 75.8938C61.5503 75.2723 60.6554 75.148 60.1333 75.4463C59.487 75.8192 59.4124 76.5152 59.6859 77.1367C59.8102 77.435 59.9096 77.7582 60.0339 78.0565C61.0531 78.4045 62.0475 78.7774 63.0418 79.2C62.6689 78.0813 62.296 76.9875 61.8237 75.8938V75.8938Z" fill="black"/>
<path d="M66.4972 84.7435C66.7706 84.8678 67.0192 84.9672 67.2927 85.0915L67.9638 84.1469C67.3424 83.8486 66.7458 83.5503 66.1243 83.252C66.2735 83.7491 66.3977 84.2463 66.522 84.7435H66.4972Z" fill="black"/>
<path d="M66.8701 77.9819C66.5966 77.3604 65.7017 77.2361 65.1797 77.5344C64.5333 77.9073 64.4588 78.6034 64.7322 79.2248C64.8316 79.4734 64.9311 79.7469 65.0305 80.0203C66.0746 80.4678 67.1186 80.9649 68.1627 81.4621C67.7898 80.2938 67.3672 79.1254 66.8949 77.957L66.8701 77.9819Z" fill="black"/>
<path d="M65.0056 80.0204C64.3593 79.7221 63.6881 79.4487 63.0418 79.2001C62.0475 78.8023 61.0282 78.4294 60.0339 78.0566C59.5616 77.8825 59.0893 77.7085 58.5921 77.5345C57.0757 77.0374 56.4045 79.4238 57.9209 79.921C58.965 80.269 60.009 80.6419 61.0282 81.0396C61.9729 81.4125 62.9175 81.8102 63.8621 82.208C64.6079 82.5311 65.3537 82.8792 66.0994 83.2272C66.7209 83.5255 67.3424 83.7989 67.939 84.1221L69.3808 82.0588C68.9582 81.8351 68.5356 81.6611 68.113 81.4373C67.0938 80.9402 66.0497 80.443 64.9808 79.9955L65.0056 80.0204Z" fill="black"/>
<path d="M65.7763 84.4204C65.2542 84.1966 64.7322 83.9729 64.1853 83.7492C63.2904 83.3763 62.3706 83.0034 61.4508 82.6554C60.3571 82.2576 59.2384 81.8848 58.0949 81.6113C56.5288 81.2384 55.8825 83.6497 57.4237 83.9978C58.965 84.3706 60.4814 84.8927 61.948 85.4893C62.7932 85.8373 63.6384 86.1853 64.4836 86.5582C64.5085 86.5582 64.5333 86.5582 64.5582 86.5831C64.9808 86.7571 65.4034 86.9559 65.8011 87.13L67.2429 85.0667C66.9944 84.9424 66.7209 84.8181 66.4475 84.7187C66.1989 84.6192 65.9751 84.4949 65.7266 84.3955L65.7763 84.4204Z" fill="black"/>
<path d="M27.096 125.512C21.5028 125.512 16.4814 122.405 13.9706 117.408L3.05763 95.5323C2.58531 94.6126 2.63503 93.5685 3.18192 92.6736C3.72881 91.7787 4.64859 91.2815 5.6678 91.2815H146.02C147.064 91.2815 147.959 91.7787 148.506 92.6736C149.053 93.5685 149.103 94.5877 148.631 95.5323L137.742 117.383C135.256 122.405 130.21 125.512 124.617 125.512H27.096Z" fill="white"/>
<path d="M146.02 94.0407C146.02 94.0407 146.12 94.0407 146.194 94.1401C146.244 94.2396 146.219 94.2893 146.194 94.339L135.306 116.19C133.268 120.267 129.191 122.802 124.617 122.802H27.096C22.5469 122.802 18.4701 120.267 16.4316 116.215L5.49379 94.3639C5.49379 94.3639 5.44407 94.2644 5.49379 94.165C5.5435 94.0656 5.59322 94.0656 5.6678 94.0656H146.02M146.02 88.5966H5.6678C1.44181 88.5966 -1.29265 93.0215 0.596611 96.8L11.5345 118.651C14.4927 124.542 20.5085 128.271 27.096 128.271H124.617C131.205 128.271 137.245 124.542 140.179 118.626L151.067 96.7752C152.956 92.9966 150.197 88.5718 145.995 88.5718L146.02 88.5966Z" fill="black"/>
<path d="M148.879 96.0295C148.655 96.0295 148.432 96.0046 148.183 95.9549C146.518 95.582 145.473 93.9662 145.846 92.3007C145.946 91.8035 148.631 80.2939 167.225 75.3719C168.89 74.9244 170.581 75.9188 171.028 77.5843C171.476 79.2498 170.481 80.9402 168.816 81.3877C154.149 85.2657 151.986 93.295 151.912 93.6431C151.564 95.06 150.296 96.0295 148.879 96.0295Z" fill="black"/>
<path d="M214.531 71.469V83.1029H171.575V73.4079L214.531 71.469ZM216.918 65.8757L169.189 68.0384C167.498 68.0384 166.106 69.6294 166.106 71.5932V84.9921C166.106 86.956 167.498 88.5469 169.189 88.5469H216.918C218.608 88.5469 220 86.956 220 84.9921V69.4554C220 67.4916 218.608 65.9006 216.918 65.9006V65.8757Z" fill="black"/>
<path d="M119.496 45.4915C118.626 49.8169 117.905 54.4407 116.637 58.9152C116.19 60.4813 114.599 62.0474 113.107 62.9424C106.918 66.7209 100.579 70.2757 94.2644 73.8802C90.5107 76.0181 86.8565 74.9989 84.6689 71.2452C81.4622 65.7763 78.3051 60.2825 75.148 54.7887C73.0102 51.035 74.0045 47.3808 77.7582 45.1932C83.9232 41.5887 90.1379 38.0587 96.3277 34.4542C98.739 33.0621 101.175 32.8135 103.785 33.7582C107.241 35.026 110.945 35.8215 114.127 37.5864C116.414 38.8542 117.781 38.2576 119.62 37.1887C129.614 31.3469 139.681 25.5796 149.724 19.8124C150.669 19.2655 151.067 18.7683 150.992 17.5503C150.843 14.4429 152.16 11.9073 154.87 10.2915C160.016 7.23388 165.186 4.20111 170.456 1.3175C174.384 -0.845214 179.207 0.646312 181.419 4.47456C183.657 8.30281 182.563 13.2 178.685 15.5367C173.514 18.6689 168.269 21.7017 162.949 24.6102C160.215 26.1017 157.356 25.9028 154.746 24.1876C153.851 23.6158 153.279 23.6904 152.434 24.1876C141.919 30.2779 131.379 36.3683 120.838 42.409C119.67 43.0802 118.85 43.7514 119.471 45.4915H119.496ZM114.151 45.6655C114.151 43.8011 113.381 42.6328 111.79 42.061C108.533 40.8926 105.302 39.6994 101.995 38.6802C101.125 38.4068 99.8576 38.5311 99.0621 38.9785C92.8226 42.4587 86.6576 46.0881 80.4678 49.6181C79.2994 50.2892 78.9763 51.0599 79.6972 52.3028C82.8542 57.722 86.0113 63.1661 89.1186 68.6102C89.8147 69.8282 90.635 70.0271 91.8283 69.3311C97.9932 65.7514 104.208 62.1966 110.373 58.5921C111.019 58.2192 111.79 57.5231 111.939 56.8768C112.784 53.1231 113.455 49.3198 114.151 45.6655V45.6655ZM159.693 20.3344C160.016 20.2102 160.687 20.0113 161.259 19.6881C165.957 17.0034 170.655 14.2938 175.329 11.5593C177.268 10.4407 177.864 8.70055 176.945 7.10959C176.025 5.49377 174.21 5.12089 172.271 6.21467C169.412 7.83049 166.579 9.49603 163.745 11.1367C161.706 12.3299 159.618 13.4486 157.629 14.6915C156.312 15.5118 155.864 16.8045 156.386 18.296C156.859 19.6384 157.878 20.2847 159.668 20.3096L159.693 20.3344Z" fill="black"/>
<path d="M89.3175 54.739C88.6961 54.1673 87.6271 53.5955 87.4283 52.8C87.2045 51.9797 87.5277 50.4882 88.1243 50.0904C91.3062 48.0272 94.6124 46.1627 97.9684 44.3729C99.2859 43.6769 100.504 44.3729 101.125 45.6407C101.797 47.0328 101.324 48.2509 100.007 49.0464C97.0735 50.7616 94.1401 52.452 91.1819 54.1424C90.7593 54.391 90.2124 54.4656 89.3424 54.7639L89.3175 54.739Z" fill="black"/>
<path fill-rule="evenodd" clip-rule="evenodd" d="M99.7526 44.3934C99.2454 44.1658 98.6553 44.1627 98.0317 44.492C94.6778 46.2808 91.3756 48.143 88.1985 50.2031C88.0754 50.2854 87.9566 50.4315 87.8516 50.6294C87.7473 50.826 87.6615 51.0643 87.5998 51.3185C87.4757 51.8303 87.4546 52.3836 87.5585 52.7644L87.5592 52.7672C87.6476 53.1205 87.9344 53.4386 88.3018 53.7504C88.4632 53.8874 88.635 54.0191 88.8059 54.1501C88.8274 54.1666 88.8489 54.183 88.8703 54.1995C89.0478 54.3358 89.2232 54.4723 89.3762 54.6098C89.6833 54.5068 89.9505 54.4308 90.1827 54.3648C90.2559 54.344 90.3257 54.3242 90.3921 54.3048C90.6899 54.2179 90.918 54.1409 91.1135 54.0259L91.1149 54.0251C94.0726 52.335 97.0052 50.645 99.9378 48.9302C100.577 48.5442 100.998 48.0635 101.184 47.5232C101.37 46.9847 101.327 46.3693 101.004 45.6995C100.704 45.0869 100.264 44.623 99.7526 44.3934ZM89.2241 54.8364C89.0741 54.6987 88.8961 54.5597 88.7059 54.4137C88.6846 54.3973 88.6631 54.3809 88.6416 54.3643C88.4713 54.2338 88.2939 54.0979 88.127 53.9562C87.7553 53.6407 87.4085 53.2756 87.2976 52.8341C87.1782 52.3946 87.207 51.7927 87.3375 51.2548C87.4032 50.9839 87.496 50.7235 87.6131 50.5028C87.7293 50.2839 87.8744 50.0946 88.0494 49.978L88.0508 49.977C91.2373 47.9108 94.5472 46.0444 97.9048 44.2537C98.5987 43.8871 99.2767 43.8838 99.8632 44.1471C100.445 44.4084 100.926 44.9262 101.247 45.5812C101.595 46.3034 101.652 46.9937 101.44 47.6111C101.228 48.2265 100.755 48.7524 100.077 49.1618L100.075 49.1628C97.1414 50.8782 94.2079 52.5687 91.2496 54.2591C91.0227 54.3924 90.7662 54.4769 90.4677 54.564C90.3987 54.5841 90.3272 54.6045 90.2528 54.6256C90.0021 54.6969 89.7186 54.7775 89.3862 54.8915L89.3065 54.9188L89.2241 54.8364Z" fill="white"/>
<path d="M94.0655 62.818C93.5186 62.3705 92.4497 61.8982 92.2011 61.1525C91.9277 60.3321 92.1017 58.7412 92.6486 58.3683C95.9051 56.2304 99.3107 54.2914 102.766 52.4519C103.86 51.8801 105.053 52.4022 105.724 53.5457C106.395 54.6892 106.321 55.9818 105.252 56.653C101.946 58.7163 98.5153 60.5807 95.1096 62.5197C94.9107 62.6191 94.6622 62.6191 94.0407 62.7683L94.0655 62.818Z" fill="black"/>
<path fill-rule="evenodd" clip-rule="evenodd" d="M105.608 53.614C104.961 52.5121 103.84 52.0434 102.829 52.5713C99.3764 54.4095 95.9751 56.346 92.7237 58.4805C92.6189 58.5524 92.5187 58.6934 92.4342 58.897C92.3507 59.0982 92.2886 59.346 92.2509 59.6116C92.175 60.1457 92.2012 60.7259 92.3292 61.1098C92.4391 61.4394 92.7368 61.7226 93.101 61.988C93.2585 62.1028 93.4231 62.2107 93.5841 62.3161C93.607 62.3311 93.6298 62.3461 93.6526 62.361C93.7895 62.451 93.9235 62.5401 94.0426 62.6291C94.2932 62.5698 94.4829 62.5346 94.6306 62.5072C94.658 62.5022 94.684 62.4973 94.7086 62.4927C94.8728 62.4617 94.9665 62.4397 95.0461 62.4005C95.8903 61.9199 96.7356 61.4441 97.5797 60.9689C100.143 59.5261 102.696 58.0888 105.18 56.5387C105.679 56.2252 105.943 55.7707 106.007 55.2598C106.071 54.7454 105.932 54.1659 105.608 53.614ZM94.2381 62.8612L94.4685 63.3221L93.9801 62.9225C93.8496 62.8158 93.686 62.706 93.5044 62.5867C93.482 62.572 93.4593 62.5572 93.4365 62.5422C93.276 62.4371 93.1054 62.3253 92.942 62.2062C92.5728 61.9371 92.2118 61.6113 92.0731 61.1952C91.9276 60.7587 91.9041 60.1333 91.9836 59.5736C92.0235 59.2923 92.0904 59.0212 92.1848 58.7935C92.278 58.5689 92.4043 58.3715 92.5725 58.2568L92.5745 58.2554L92.5745 58.2554C95.8357 56.1145 99.2452 54.1734 102.703 52.3328L102.704 52.3323L102.704 52.3323C103.88 51.7171 105.145 52.2924 105.841 53.4774C106.188 54.069 106.347 54.7076 106.275 55.2931C106.201 55.8823 105.893 56.4096 105.324 56.7674L105.323 56.7676C102.834 58.3213 100.273 59.7629 97.7081 61.2065C96.8638 61.6818 96.0191 62.1573 95.1764 62.637L95.1701 62.6406L95.17 62.6405C95.0514 62.6998 94.9217 62.7273 94.7587 62.758C94.7333 62.7628 94.7068 62.7677 94.6791 62.7729C94.5599 62.795 94.4172 62.8214 94.2381 62.8612Z" fill="white"/>
</g>
<defs>
<clipPath id="clip0_118_1338">
<rect width="220" height="128.246" fill="white"/>
</clipPath>
</defs>
</svg>
