<svg width="221" height="129" viewBox="0 0 221 129" fill="none" xmlns="http://www.w3.org/2000/svg">
<path d="M147.02 94.0407C147.02 94.0407 147.12 94.0407 147.194 94.1401C147.244 94.2396 147.219 94.2893 147.194 94.339L136.306 116.19C134.268 120.267 130.191 122.802 125.617 122.802H28.096C23.5469 122.802 19.47 120.267 17.4316 116.215L6.49376 94.3639C6.49376 94.3639 6.44404 94.2644 6.49376 94.165C6.54347 94.0656 6.59319 94.0656 6.66777 94.0656H147.02M147.02 88.5966H6.66777C2.44178 88.5966 -0.292685 93.0215 1.59658 96.8L12.5344 118.651C15.4926 124.542 21.5084 128.271 28.096 128.271H125.617C132.204 128.271 138.245 124.542 141.179 118.626L152.067 96.7752C153.956 92.9966 151.197 88.5718 146.995 88.5718L147.02 88.5966Z" fill="black"/>
<path d="M149.879 96.0295C149.655 96.0295 149.407 96.0046 149.183 95.9549C147.517 95.582 146.473 93.9662 146.846 92.3007C146.946 91.8035 149.606 80.2939 168.225 75.3719C169.89 74.9244 171.581 75.9188 172.028 77.5843C172.476 79.2498 171.481 80.9402 169.816 81.3877C155.149 85.2657 152.986 93.3199 152.912 93.6431C152.564 95.06 151.271 96.0295 149.879 96.0295Z" fill="black"/>
<path d="M215.531 71.469V83.1029H172.575V73.4079L215.531 71.469ZM217.918 65.8757L170.189 68.0384C168.498 68.0384 167.106 69.6294 167.106 71.5932V84.9921C167.106 86.956 168.498 88.5469 170.189 88.5469H217.918C219.608 88.5469 221 86.956 221 84.9921V69.4554C221 67.4916 219.608 65.9006 217.918 65.9006V65.8757Z" fill="black"/>
<path d="M120.496 45.4915C119.626 49.8169 118.905 54.4407 117.637 58.9152C117.19 60.4813 115.599 62.0474 114.107 62.9424C107.917 66.7209 101.579 70.2757 95.2644 73.8802C91.5107 76.0181 87.8565 74.9989 85.6689 71.2452C82.4621 65.7763 79.3051 60.2825 76.148 54.7887C74.0101 51.035 75.0045 47.3808 78.7582 45.1932C84.9231 41.5887 91.1378 38.0587 97.3277 34.4542C99.739 33.0621 102.175 32.8135 104.785 33.7582C108.241 35.026 111.945 35.8215 115.127 37.5864C117.414 38.8542 118.781 38.2576 120.62 37.1887C130.614 31.3469 140.681 25.5796 150.724 19.8124C151.669 19.2655 152.067 18.7683 151.992 17.5503C151.843 14.4429 153.16 11.9073 155.87 10.2915C161.016 7.23388 166.186 4.20111 171.456 1.3175C175.384 -0.845214 180.207 0.646312 182.419 4.47456C184.656 8.30281 183.563 13.2 179.685 15.5367C174.514 18.6689 169.269 21.7017 163.949 24.6102C161.215 26.1017 158.356 25.9028 155.746 24.1876C154.851 23.6158 154.279 23.6904 153.434 24.1876C142.919 30.278 132.379 36.3683 121.838 42.409C120.67 43.0802 119.85 43.7514 120.471 45.4915H120.496ZM115.151 45.6655C115.151 43.8011 114.381 42.6328 112.79 42.061C109.533 40.8926 106.302 39.6994 102.995 38.6802C102.125 38.4068 100.858 38.5311 100.062 38.9785C93.8226 42.4587 87.6576 46.0881 81.4678 49.6181C80.2994 50.2893 79.9763 51.0599 80.6972 52.3028C83.8542 57.722 87.0113 63.1661 90.1186 68.6102C90.8147 69.8282 91.635 70.0271 92.8282 69.3311C98.9932 65.7514 105.208 62.1966 111.373 58.5921C112.019 58.2192 112.79 57.5232 112.939 56.8768C113.784 53.1232 114.455 49.3198 115.151 45.6655V45.6655ZM160.693 20.3344C161.016 20.2102 161.687 20.0113 162.259 19.6881C166.957 17.0034 171.655 14.2938 176.329 11.5593C178.268 10.4407 178.864 8.70055 177.945 7.10959C177.025 5.49377 175.21 5.12089 173.271 6.21467C170.412 7.83049 167.579 9.49603 164.745 11.1367C162.706 12.3299 160.618 13.4486 158.629 14.6915C157.312 15.5118 156.864 16.8045 157.386 18.296C157.859 19.6384 158.878 20.2847 160.668 20.3096L160.693 20.3344Z" fill="black"/>
<path d="M72.9661 17.3514C75.8497 17.7243 79.5536 20.4091 80.6971 23.3175C81.8406 26.2012 80.9209 28.5876 78.7581 30.6509C77.2915 32.043 75.9242 33.5345 74.4576 34.9266C71.7231 37.5367 68.2429 37.5616 65.4836 35.0012C64.8124 34.3797 64.1412 33.7334 63.5446 33.0373C61.4067 30.5514 61.4316 27.1209 63.6689 24.7096C65.3593 22.8949 67.0497 21.0803 68.9638 19.4893C70.0824 18.5447 71.6237 18.0723 72.9661 17.4012V17.3514ZM76.3717 25.1819C75.4519 24.461 74.6316 23.5661 73.6372 23.0938C73.2395 22.8949 72.2949 23.4418 71.7977 23.8893C70.4305 25.1322 69.1875 26.4995 67.8451 27.7673C66.6022 28.9605 67.5468 29.6814 68.3423 30.452C69.1129 31.1978 69.7841 32.2667 71.0022 30.9989C72.3943 29.5322 73.861 28.1401 75.2779 26.6983C75.5762 26.3752 75.8 25.9774 76.3468 25.1571L76.3717 25.1819Z" fill="black"/>
<path d="M43.9559 45.6159C43.583 49.991 41.122 52.0791 38.2632 53.6701C35.8768 54.9876 33.2915 54.1673 30.9299 51.8306C29.5378 50.4385 28.1457 49.0712 26.7785 47.6791C23.9446 44.7707 23.9446 41.2904 26.7785 38.3323C28.3446 36.6916 29.9356 34.8769 32.4214 35.1503C33.9378 35.3243 35.6282 35.8464 36.7966 36.7661C38.7853 38.3074 40.5751 40.1718 42.1909 42.1108C43.1356 43.2294 43.5582 44.7955 43.9559 45.6407V45.6159ZM36.4237 49.4441C37.1197 48.5243 37.9649 47.704 38.4124 46.6848C38.6113 46.2622 38.0892 45.3424 37.6666 44.8452C36.4486 43.478 35.0565 42.2599 33.8135 40.9176C32.6949 39.6995 31.9243 40.4204 31.1288 41.2904C30.383 42.1108 29.1898 42.8068 30.5322 44.0746C31.974 45.4667 33.3661 46.9085 34.8079 48.3255C35.1062 48.6238 35.5288 48.8226 36.4237 49.4441Z" fill="black"/>
<path d="M56.4102 66.1491C56.4102 70.4746 52.9797 73.9548 48.6543 74.0045C44.2791 74.0542 40.6995 70.5243 40.6995 66.174C40.6995 61.8983 44.2045 58.3435 48.4803 58.3186C52.8554 58.2689 56.4102 61.7989 56.4102 66.174V66.1491ZM48.5548 68.7842C50.0464 68.7842 51.1899 67.6904 51.2147 66.1989C51.2396 64.7571 50.1209 63.539 48.6791 63.4893C47.1876 63.4395 45.8949 64.6825 45.9198 66.174C45.9198 67.6158 47.113 68.7842 48.5797 68.7842H48.5548Z" fill="black"/>
<path d="M60.3876 50.6125C60.3627 51.1843 60.3876 51.7809 60.2633 52.3278C59.9401 53.7447 59.0452 54.5651 57.5785 54.4656C56.1118 54.3662 55.2915 53.4961 55.1921 52.0046C55.1424 51.1346 55.1424 50.2894 55.1921 49.4193C55.2418 47.704 56.261 46.5605 57.7525 46.5605C59.2192 46.5605 60.2633 47.6792 60.3876 49.3944C60.4124 49.7922 60.3876 50.1899 60.3876 50.6125C60.3876 50.6125 60.3876 50.6125 60.4124 50.6125H60.3876Z" fill="black"/>
<path d="M66.3288 11.3107C66.3288 13.9705 65.5334 15.2135 63.8181 15.2632C62.0283 15.3129 61.1334 13.9954 61.1582 11.2609C61.1582 10.8632 61.1582 10.4655 61.1582 10.0429C61.2577 8.32761 62.3017 7.28354 63.8678 7.35812C65.3345 7.40783 66.2543 8.42704 66.3288 10.0926C66.3288 10.4903 66.3288 10.8881 66.3288 11.3107V11.3107Z" fill="black"/>
<path d="M54.2723 33.3604C54.2723 33.8825 54.322 34.4045 54.2723 34.9017C54.0735 36.2938 53.2283 37.0892 51.861 37.139C50.4938 37.1887 49.4994 36.4678 49.3006 35.1005C49.1266 33.9819 49.1266 32.8135 49.226 31.67C49.3503 30.1537 50.4938 29.209 51.861 29.2339C53.2283 29.2836 54.2226 30.3028 54.3469 31.8192C54.3966 32.3412 54.3469 32.8633 54.3469 33.3604H54.322H54.2723Z" fill="black"/>
<path d="M90.3175 54.739C89.696 54.1673 88.6271 53.5955 88.4282 52.8C88.2045 51.9797 88.5277 50.4882 89.1243 50.0904C92.3062 48.0272 95.6124 46.1627 98.9684 44.3729C100.286 43.6769 101.504 44.3729 102.125 45.6407C102.797 47.0328 102.324 48.2509 101.007 49.0464C98.0734 50.7616 95.1401 52.452 92.1819 54.1424C91.7593 54.391 91.2124 54.4656 90.3424 54.7639L90.3175 54.739Z" fill="black"/>
<path d="M95.0656 62.818C94.5187 62.3705 93.4497 61.8982 93.2012 61.1525C92.9277 60.3321 93.1017 58.7412 93.6486 58.3683C96.9051 56.2304 100.311 54.2914 103.766 52.4519C104.86 51.8801 106.053 52.4022 106.724 53.5457C107.395 54.6892 107.321 55.9818 106.252 56.653C102.946 58.7163 99.5153 60.5807 96.1096 62.5197C95.9108 62.6191 95.6622 62.6191 95.0407 62.7683L95.0656 62.818Z" fill="black"/>
</svg>
