<svg width="230" height="110" viewBox="0 0 230 110" fill="none" xmlns="http://www.w3.org/2000/svg">
<g clip-path="url(#clip0_113_1127)">
<path d="M25.339 6.939L109.88 10.4475C109.984 10.7074 110.062 11.2011 109.854 11.6689L102.499 28.3277C101.174 31.3164 98.887 33.1616 96.4961 33.1616H96.3142L36.9819 30.6927C34.565 30.5887 32.304 28.5096 31.2125 25.365L25.287 8.16047C25.1051 7.66668 25.2351 7.19889 25.365 6.939M24.9752 3.17064C22.4803 3.17064 20.739 6.4712 21.7526 9.40792L27.678 26.6124C29.2893 31.2644 32.8238 34.3051 36.852 34.461L96.1842 36.9299C96.1842 36.9299 96.4181 36.9299 96.5221 36.9299C100.394 36.9299 104.033 34.2271 105.956 29.861L113.311 13.2023C114.584 10.3175 113.051 6.83505 110.478 6.73109L25.0531 3.14465C25.0531 3.14465 24.9752 3.14465 24.9232 3.14465L24.9752 3.17064Z" fill="black"/>
<path d="M39.9187 55.096C36.6181 55.096 33.5514 53.6147 31.4983 51.0418L20.3232 36.9819C19.8554 36.3842 19.7254 35.6305 19.9853 34.9028C20.2452 34.1751 20.817 33.6813 21.5706 33.5254L122.407 12.1887C122.563 12.1627 122.719 12.1367 122.875 12.1367C123.524 12.1367 124.148 12.4486 124.564 12.9943C124.798 13.3062 125.162 13.9559 124.954 14.8395L120.432 32.2C119.392 36.1763 116.247 39.191 112.245 40.0226L42.1537 54.8621C41.426 55.0181 40.6723 55.096 39.9187 55.096Z" fill="white"/>
<path d="M122.875 10.1355L123.005 14.3457L118.482 31.7061C117.651 34.9547 115.078 37.3976 111.803 38.0734L41.7119 52.9129C41.1142 53.0428 40.5164 53.0948 39.8927 53.0948C37.2159 53.0948 34.6949 51.8993 33.0317 49.7943L21.8565 35.7344C21.8565 35.7344 21.8046 35.6824 21.8565 35.6044C21.8825 35.5265 21.9085 35.5265 21.9605 35.5005L122.823 14.1637C122.823 14.1637 122.849 14.1637 122.875 14.1637V10.1355M122.875 10.1355C122.589 10.1355 122.303 10.1615 121.991 10.2395L21.1288 31.5762C18.0882 32.2259 16.8147 35.8123 18.7379 38.2553L29.913 52.3152C32.356 55.4078 36.0723 57.1491 39.9187 57.1491C40.8023 57.1491 41.6859 57.0711 42.5695 56.8632L112.661 42.0236C117.391 41.0101 121.159 37.4236 122.381 32.7197L126.903 15.3592C127.605 12.6564 125.525 10.1355 122.901 10.1355H122.875Z" fill="black"/>
<path d="M31.7841 76.3027C27.47 76.3027 23.4158 74.1716 20.9728 70.6112L8.6022 52.601C8.08243 51.8473 7.97847 50.9117 8.3683 50.0541C8.75813 49.1965 9.48582 48.6507 10.4214 48.5208L134.751 31.2643C134.751 31.2643 135.011 31.2383 135.141 31.2383C135.973 31.2383 136.752 31.6281 137.246 32.3298C137.74 33.0315 137.87 33.8891 137.61 34.6948L130.645 55.3818C129.06 60.1377 124.98 63.4903 120.016 64.1919L33.6033 76.1727C33.0056 76.2507 32.4078 76.3027 31.8101 76.3027H31.7841Z" fill="white"/>
<path d="M135.115 33.6553C135.115 33.6553 135.193 33.6813 135.245 33.7333C135.297 33.8112 135.271 33.8372 135.245 33.8892L128.28 54.5762C126.981 58.4485 123.68 61.1773 119.626 61.7491L33.2655 73.7559C32.7717 73.8338 32.2779 73.8598 31.7841 73.8598C28.2757 73.8598 24.9751 72.1186 23 69.2338L10.6293 51.2237C10.6293 51.2237 10.5774 51.1457 10.6293 51.0417C10.6813 50.9378 10.7073 50.9378 10.7593 50.9378L135.089 33.6813H135.141M135.141 28.7954C134.907 28.7954 134.673 28.7954 134.413 28.8474L10.0836 46.0779C6.34121 46.5977 4.47003 50.8598 6.6011 53.9785L18.9717 71.9886C21.9084 76.2508 26.7163 78.7457 31.8101 78.7457C32.5118 78.7457 33.2395 78.6937 33.9412 78.5898L120.328 66.609C126.175 65.8033 131.061 61.7491 132.932 56.1615L139.897 35.4745C141.015 32.148 138.494 28.7954 135.115 28.7954H135.141Z" fill="black"/>
<path d="M137.454 35.1108C137.454 35.1108 137.298 35.1108 137.22 35.1108C135.713 34.9809 134.595 33.6814 134.699 32.1741C134.725 31.7323 135.687 21.2069 151.566 14.5538C152.969 13.956 154.607 14.6317 155.204 16.0351C155.802 17.4385 155.126 19.0758 153.723 19.6735C141.196 24.9233 140.287 32.304 140.261 32.6159C140.105 34.0453 138.909 35.1368 137.506 35.1368L137.454 35.1108Z" fill="black"/>
<path d="M192.992 5.24971L194.422 15.5412L156.374 20.8169L155.179 12.2407L192.992 5.24971ZM194.759 0C194.759 0 194.551 0 194.422 0L152.398 7.77062C150.89 7.97853 149.851 9.56384 150.111 11.3051L151.748 23.1819C151.982 24.7932 153.203 25.9887 154.581 25.9887C154.685 25.9887 154.789 25.9887 154.919 25.9887L197.202 20.1152C198.71 19.9073 199.749 18.322 199.489 16.5808L197.566 2.80678C197.332 1.19548 196.111 0 194.733 0L194.759 0Z" fill="black"/>
<path d="M28.3277 94.0272C22.4803 94.0272 17.2305 90.7786 14.6057 85.5548L3.19665 62.6848C2.70286 61.7232 2.75484 60.6317 3.32659 59.6961C3.89834 58.7605 4.85992 58.2407 5.92546 58.2407H152.658C153.749 58.2407 154.685 58.7605 155.257 59.6961C155.828 60.6317 155.88 61.6972 155.387 62.6848L144.003 85.5289C141.405 90.7786 136.129 94.0272 130.281 94.0272H28.3277Z" fill="white"/>
<path d="M152.658 61.0995C152.658 61.0995 152.762 61.0995 152.84 61.2034C152.892 61.3074 152.866 61.3593 152.84 61.4113L141.457 84.2554C139.325 88.5175 135.063 91.1684 130.281 91.1684H28.3277C23.5718 91.1684 19.3096 88.5175 17.1786 84.2814L5.74354 61.4113C5.74354 61.4113 5.69157 61.3074 5.74354 61.2034C5.79552 61.0995 5.8475 61.0995 5.92546 61.0995H152.658ZM152.658 55.3819H5.92546C1.50739 55.3819 -1.35137 60.0079 0.62377 63.9582L12.0588 86.8023C15.1515 92.9616 21.4407 96.8599 28.3277 96.8599H130.281C137.168 96.8599 143.484 92.9616 146.55 86.7763L157.933 63.9322C159.909 59.9819 157.024 55.356 152.632 55.356L152.658 55.3819Z" fill="black"/>
<path d="M155.646 63.2305C155.412 63.2305 155.205 63.2305 154.971 63.1526C153.203 62.7887 152.112 61.0475 152.476 59.3062C152.58 58.7865 155.36 46.7537 174.826 41.6079C176.541 41.1402 178.334 42.1797 178.802 43.9209C179.27 45.6622 178.231 47.4294 176.489 47.8972C161.104 51.9774 158.843 60.5797 158.817 60.6577C158.479 62.191 157.154 63.2305 155.646 63.2305Z" fill="black"/>
<path d="M224.283 37.5276V49.6903H179.374V39.5547L224.283 37.5276M226.777 31.6802L176.879 33.9412C175.112 33.9412 173.656 35.6045 173.656 37.6576V51.6655C173.656 53.7186 175.112 55.3818 176.879 55.3818H226.777C228.545 55.3818 230 53.7186 230 51.6655V35.4225C230 33.3694 228.545 31.7062 226.777 31.7062V31.6802Z" fill="black"/>
<path d="M120.094 107.671C117.417 107.671 115.468 105.644 115.442 102.863C115.442 100.784 115.442 98.7311 115.442 96.652C115.442 94.2091 115.442 91.7661 115.442 89.2972C115.416 86.6983 113.7 84.3854 111.232 83.5797C110.556 83.3718 109.88 83.2418 109.178 83.2418C107.281 83.2418 105.618 84.0475 104.656 85.4769C103.929 86.5424 103.383 88.1017 103.175 89.739C102.993 91.1944 103.019 92.7277 103.071 94.339C103.071 95.0927 103.123 95.8464 103.123 96.574C103.123 100.706 100.732 102.188 98.4711 102.188C96.1581 102.136 93.7931 100.68 93.7931 96.652V76.8226C93.7931 76.3029 93.7931 75.8351 93.7151 75.6272C93.5332 75.1074 93.3253 75.1074 93.1174 75.1074C92.6496 75.1334 92.3897 75.1594 92.2598 75.913C91.5061 79.8893 89.0632 80.487 87.6858 80.487C87.5298 80.487 87.3999 80.487 87.244 80.487C85.1908 80.3051 82.9818 78.7978 82.9818 75.1334V59.6701C82.9818 58.6046 83.8394 57.7209 84.931 57.7209H122.796C123.836 57.7209 124.668 58.5266 124.746 59.5402V59.956C124.824 60.3458 124.85 60.7097 124.85 61.0995V102.11C124.85 102.473 124.85 102.681 124.85 102.889C124.694 105.67 122.796 107.593 120.198 107.593L120.094 107.671Z" fill="white"/>
<path d="M122.693 59.7221C122.719 60.1899 122.796 60.6837 122.796 61.1775C122.796 74.8475 122.796 88.5176 122.796 102.188C122.796 102.422 122.796 102.629 122.796 102.863C122.693 104.579 121.627 105.722 120.094 105.722C118.56 105.722 117.417 104.579 117.391 102.837C117.339 98.3153 117.391 93.7933 117.365 89.2712C117.313 85.8147 115.026 82.7741 111.803 81.7345C110.946 81.4487 110.036 81.3187 109.152 81.3187C106.761 81.3187 104.422 82.3583 103.019 84.3854C102.032 85.8407 101.434 87.7379 101.2 89.5051C100.888 91.8441 101.122 94.2351 101.122 96.6001C101.122 98.991 100.16 100.264 98.4191 100.264C98.4191 100.264 98.3671 100.264 98.3411 100.264C96.6259 100.238 95.6903 98.991 95.6903 96.678C95.6903 90.0769 95.6903 83.4498 95.6903 76.8486C95.6903 76.2249 95.6903 75.5752 95.5084 75.0035C95.1185 73.834 94.2609 73.1842 93.0654 73.1842C92.9615 73.1842 92.8575 73.1842 92.7536 73.1842C91.3502 73.3142 90.5445 74.1718 90.2846 75.5752C89.8948 77.6023 89.0112 78.5639 87.6078 78.5639C87.5038 78.5639 87.4259 78.5639 87.3219 78.5639C85.7106 78.434 84.827 77.2385 84.827 75.1334C84.827 70.0136 84.827 64.8938 84.827 59.6701H122.693M122.693 55.7718H84.827C82.67 55.7718 80.9287 57.5131 80.9287 59.6701V64.1922C80.9287 67.8566 80.9287 71.495 80.9287 75.1334C80.9287 80.1492 84.2033 82.2023 86.9841 82.4362C87.192 82.4362 87.3999 82.4622 87.6078 82.4622C88.3615 82.4622 90.2067 82.3063 91.792 80.8769C91.792 83.5537 91.792 86.2046 91.792 88.8814V96.652C91.792 101.746 95.0666 104.085 98.2892 104.137C98.2892 104.137 98.3931 104.137 98.4191 104.137C101.694 104.137 104.994 101.798 105.02 96.5741C105.02 95.7944 105.02 95.0407 104.968 94.2611C104.916 92.7277 104.89 91.2724 105.046 89.947C105.228 88.6215 105.644 87.3221 106.216 86.5164C106.813 85.6328 107.879 85.1131 109.152 85.1131C109.646 85.1131 110.114 85.191 110.582 85.347C112.245 85.8927 113.441 87.504 113.467 89.2453C113.493 91.6882 113.493 94.1051 113.467 96.5481C113.467 98.6272 113.467 100.706 113.467 102.785C113.493 106.632 116.325 109.516 120.042 109.516C123.654 109.516 126.435 106.762 126.643 102.967C126.643 102.733 126.643 102.474 126.643 102.214V102.058V96.652C126.643 84.7752 126.643 72.9244 126.643 61.0475C126.643 60.6057 126.617 60.1639 126.565 59.7221V59.3323C126.383 57.2792 124.694 55.6938 122.641 55.6938L122.693 55.7718Z" fill="black"/>
<path d="M65.5175 77.8363C63.0485 77.6544 61.2293 75.7053 61.2033 73.2103C61.1773 70.0137 61.1773 66.8171 61.2033 63.5685V59.6962C61.2033 58.6307 62.0869 57.7471 63.1525 57.7471H68.5321C69.5977 57.7471 70.4813 58.6307 70.4813 59.6962V63.5945C70.4813 66.9471 70.5073 70.2736 70.4553 73.6002C70.4033 75.9392 68.3502 77.8363 65.8813 77.8363C65.8813 77.8363 65.5954 77.8363 65.5434 77.8363H65.5175Z" fill="white"/>
<path d="M68.5321 59.7221C68.5321 64.3741 68.5841 68.9741 68.5061 73.5741C68.4802 74.9515 67.1807 75.9131 65.8813 75.9131C65.8033 75.9131 65.7513 75.9131 65.6734 75.9131C64.27 75.8091 63.2044 74.7436 63.1785 73.2103C63.1265 68.7662 63.1785 64.3221 63.1785 59.7221H68.5581M68.5581 55.8238H63.1785C61.0214 55.8238 59.2802 57.5651 59.2802 59.7221V63.5945C59.2802 66.843 59.2802 70.0397 59.2802 73.2363C59.3321 76.7707 61.879 79.5255 65.3875 79.7854C65.5434 79.7854 65.6994 79.7854 65.8813 79.7854C69.4158 79.7854 72.3525 77.0306 72.4045 73.6261C72.4824 70.2736 72.4564 66.869 72.4564 63.5685C72.4564 62.269 72.4564 60.9956 72.4564 59.6962C72.4564 57.5391 70.7152 55.7979 68.5581 55.7979V55.8238Z" fill="black"/>
<path d="M37.8135 25.469C36.4101 25.391 35.3446 24.3775 35.3446 23.0261C35.3446 23.0001 36.1762 6.88709 36.1762 6.88709C36.1762 6.70517 36.2022 6.54924 36.2282 6.36732C36.3322 5.7176 36.9039 5.09387 37.5536 5.09387L55.8757 6.05545C56.2135 6.05545 56.5514 6.23737 56.7853 6.49726C57.0192 6.75715 57.1231 7.095 57.1231 7.43285L56.8113 13.3843C56.7333 14.8656 55.7198 15.8532 54.2644 15.8792C52.835 15.8792 51.8734 15.0216 51.6135 13.5922L51.3277 18.3481L51.1717 21.3888C51.0938 22.9481 50.0802 23.9357 48.5988 23.9357C47.5073 23.8837 46.9356 23.4679 46.6237 23.13C46.2859 22.7662 45.922 22.1165 45.974 21.0769C45.974 20.791 46.026 20.4792 46.052 20.1933C46.1039 19.5956 46.1559 19.0498 46.1039 18.556C46.052 18.0362 45.87 17.5425 45.5842 17.1786C45.1943 16.6588 44.3627 16.347 43.4531 16.347C43.1932 16.347 42.9333 16.347 42.6994 16.4249C41.6858 16.6329 40.9582 17.2826 40.9062 18.0103C40.8542 18.9458 40.8022 19.8814 40.7503 20.791C40.6983 21.5967 40.6723 22.4023 40.6203 23.208C40.5423 24.5074 39.4508 25.469 38.0734 25.469C38.0734 25.469 37.9435 25.469 37.9175 25.469H37.8135Z" fill="white"/>
<path d="M37.5276 6.36729C43.635 6.67915 49.6644 6.99102 55.7977 7.32887C55.6937 9.33 55.5898 11.3051 55.4858 13.2803C55.4339 14.0859 54.992 14.5277 54.2124 14.5277C54.2124 14.5277 54.2124 14.5277 54.1864 14.5277C53.4327 14.5277 53.0169 14.1379 52.861 13.3063C52.757 12.7605 52.3932 12.4227 51.7175 12.3187C51.6395 12.3187 51.5615 12.3187 51.4836 12.3187C50.9638 12.3187 50.574 12.5526 50.3661 12.9684C50.2621 13.1763 50.2621 13.4362 50.2361 13.6701C50.1062 16.217 49.9762 18.7639 49.8203 21.3108C49.7683 22.1684 49.3265 22.6362 48.5468 22.6362C48.5468 22.6362 48.4949 22.6362 48.4689 22.6362C47.6113 22.6102 47.1694 22.0905 47.2214 21.1549C47.2734 20.2453 47.4293 19.3097 47.3254 18.426C47.2474 17.7503 47.0135 16.9967 46.5457 16.3989C45.87 15.5153 44.6485 15.0475 43.3751 15.0475C43.0372 15.0475 42.6994 15.0735 42.3615 15.1515C40.7762 15.4893 39.6327 16.5808 39.5288 17.9063C39.3988 19.6475 39.3468 21.3888 39.2429 23.13C39.1909 23.7797 38.6711 24.1695 37.9694 24.1695C37.9435 24.1695 37.9175 24.1695 37.8655 24.1695C37.1378 24.1436 36.618 23.6758 36.618 23.0001C36.618 22.9221 36.618 22.8181 36.618 22.7402C36.9039 17.4645 37.1638 12.2147 37.4497 6.93904C37.4497 6.75712 37.5016 6.5752 37.5276 6.39328M37.5276 3.79441C36.2282 3.79441 35.1367 4.75599 34.9548 6.02944V6.13339C34.9028 6.3413 34.8768 6.5752 34.8508 6.78311L34.0971 21.0249L34.0192 22.5582C34.0192 22.7402 34.0192 22.8701 34.0192 23.0001C34.0452 25.0532 35.6045 26.6125 37.7355 26.7164C37.7875 26.7164 37.9175 26.7164 37.9694 26.7164C40.0485 26.7164 41.6858 25.2351 41.8158 23.234C41.8678 22.4283 41.9197 21.6227 41.9457 20.817C41.9977 19.8814 42.0497 18.9718 42.1017 18.0362C42.1017 17.9842 42.3615 17.7503 42.8813 17.6204C43.0372 17.5944 43.2192 17.5684 43.3751 17.5684C44.0248 17.5684 44.3887 17.8023 44.4926 17.9063C44.6226 18.0622 44.7005 18.3481 44.7265 18.608C44.7785 18.9718 44.7265 19.4656 44.6745 19.9854C44.6485 20.2972 44.6226 20.6091 44.5966 20.921C44.5186 22.4023 45.0904 23.3639 45.5841 23.9097C46.0779 24.4294 46.9356 25.0792 48.3389 25.1311C48.3649 25.1311 48.4949 25.1311 48.5209 25.1311C50.6779 25.1311 52.2632 23.5718 52.3932 21.3628L52.5491 18.3481L52.6271 16.7888C53.0949 16.9707 53.5887 17.0746 54.1604 17.0746C56.3694 17.0486 57.9548 15.5153 58.0587 13.3582L58.2926 9.12209L58.3706 7.40684C58.3966 6.73113 58.1627 6.05543 57.6949 5.53565C57.2271 5.01588 56.5774 4.70401 55.9017 4.67802L42.8293 4.00232L37.6316 3.74243C37.6316 3.74243 37.5276 3.74243 37.5017 3.74243L37.5276 3.79441Z" fill="black"/>
</g>
<defs>
<clipPath id="clip0_113_1127">
<rect width="230" height="109.62" fill="white"/>
</clipPath>
</defs>
</svg>
