<svg width="220" height="165" viewBox="0 0 220 165" fill="none" xmlns="http://www.w3.org/2000/svg">
<g clip-path="url(#clip0_101_761)">
<path d="M110.131 102.569C109.022 102.569 108.114 101.661 108.114 100.552V22.3449C108.114 21.2357 109.022 20.3282 110.131 20.3282H126.103C126.991 8.95408 135.38 0 145.544 0C155.708 0 164.098 8.95408 164.985 20.3282H180.977C182.086 20.3282 182.994 21.2357 182.994 22.3449V74.335C182.994 75.4441 182.086 76.3516 180.977 76.3516C179.868 76.3516 178.961 75.4441 178.961 74.335V24.3615H163.049C161.94 24.3615 161.032 23.454 161.032 22.3449C161.032 12.2413 154.095 4.03337 145.544 4.03337C136.993 4.03337 130.056 12.2413 130.056 22.3449C130.056 23.454 129.148 24.3615 128.039 24.3615H112.148V100.552C112.148 101.661 111.24 102.569 110.131 102.569V102.569Z" fill="black"/>
<path d="M155.022 22.7683H136.066C134.956 22.7683 134.049 21.8608 134.049 20.7517C134.049 14.0361 139.212 8.59106 145.544 8.59106C151.876 8.59106 157.039 14.0563 157.039 20.7517C157.039 21.8608 156.132 22.7683 155.022 22.7683ZM138.304 18.735H152.764C151.937 15.226 149.013 12.6244 145.544 12.6244C142.075 12.6244 139.131 15.226 138.324 18.735H138.304Z" fill="black"/>
<path d="M119.206 92.1826V30.7141H171.882V88.5" fill="white"/>
<path d="M119.206 94.1994C118.097 94.1994 117.189 93.2919 117.189 92.1827V30.7142C117.189 29.605 118.097 28.6975 119.206 28.6975H171.882C172.991 28.6975 173.899 29.605 173.899 30.7142V82.0993C173.899 83.2085 172.991 84.116 171.882 84.116C170.773 84.116 169.865 83.2085 169.865 82.0993V32.7309H121.223V92.1827C121.223 93.2919 120.315 94.1994 119.206 94.1994Z" fill="black"/>
<path d="M23.575 79.8405C16.7385 79.8405 11.1926 74.2744 11.1926 67.4379C11.1926 60.6013 16.7586 55.0554 23.575 55.0554C30.3914 55.0554 35.9575 60.6215 35.9575 67.4379C35.9575 74.2542 30.3914 79.8405 23.575 79.8405V79.8405ZM23.575 58.7661C18.7753 58.7661 14.8831 62.6583 14.8831 67.458C14.8831 72.2577 18.7753 76.1499 23.575 76.1499C28.3747 76.1499 32.2669 72.2577 32.2669 67.458C32.2669 62.6583 28.3747 58.7661 23.575 58.7661V58.7661Z" fill="black"/>
<path d="M23.575 81.8572C15.6293 81.8572 9.1759 75.3837 9.1759 67.4379C9.1759 59.4922 15.6495 53.0388 23.575 53.0388C31.5006 53.0388 37.9741 59.5124 37.9741 67.4379C37.9741 75.3635 31.5006 81.8572 23.575 81.8572V81.8572ZM23.575 60.7829C19.9047 60.7829 16.8998 63.7676 16.8998 67.4581C16.8998 71.1486 19.8845 74.1333 23.575 74.1333C27.2656 74.1333 30.2502 71.1486 30.2502 67.4581C30.2502 63.7676 27.2656 60.7829 23.575 60.7829Z" fill="white"/>
<path d="M125.942 79.8405C119.105 79.8405 113.559 74.2744 113.559 67.4379C113.559 60.6013 119.125 55.0554 125.942 55.0554C132.758 55.0554 138.324 60.6215 138.324 67.4379C138.324 74.2542 132.758 79.8405 125.942 79.8405ZM125.942 58.7661C121.142 58.7661 117.25 62.6583 117.25 67.458C117.25 72.2577 121.142 76.1499 125.942 76.1499C130.742 76.1499 134.634 72.2577 134.634 67.458C134.634 62.6583 130.742 58.7661 125.942 58.7661Z" fill="black"/>
<path d="M125.942 81.8572C117.996 81.8572 111.543 75.3837 111.543 67.4379C111.543 59.4922 118.016 53.0388 125.942 53.0388C133.867 53.0388 140.341 59.5124 140.341 67.4379C140.341 75.3635 133.867 81.8572 125.942 81.8572ZM125.942 60.7829C122.272 60.7829 119.267 63.7676 119.267 67.4581C119.267 71.1486 122.251 74.1333 125.942 74.1333C129.632 74.1333 132.617 71.1486 132.617 67.4581C132.617 63.7676 129.632 60.7829 125.942 60.7829Z" fill="white"/>
<path d="M119.327 49.7515H29.4234V105.432H119.327V49.7515Z" fill="white"/>
<path d="M121.344 107.449H27.4067V47.7349H121.344V107.449ZM31.4401 103.415H117.31V51.7682H31.4401V103.415V103.415Z" fill="white"/>
<path d="M119.347 107.146H29.4234C28.4756 107.146 27.6891 106.38 27.6891 105.432V49.7515C27.6891 48.8037 28.4554 48.0374 29.4234 48.0374H119.347C120.295 48.0374 121.082 48.8037 121.082 49.7515V105.432C121.082 106.38 120.315 107.146 119.347 107.146ZM31.1578 103.698H117.613V51.4859H31.1578V103.718V103.698Z" fill="black"/>
<path d="M119.347 109.163H29.4234C27.3664 109.163 25.6724 107.489 25.6724 105.432V49.7516C25.6724 47.6946 27.3462 46.0208 29.4234 46.0208H119.347C121.404 46.0208 123.098 47.6946 123.098 49.7516V105.432C123.098 107.489 121.424 109.163 119.347 109.163ZM33.1744 101.681H115.596V53.4825H33.1744V101.681V101.681Z" fill="white"/>
<path d="M74.7181 63.9289C99.7226 63.9289 119.993 57.0849 119.993 48.6424C119.993 40.1999 99.7226 33.356 74.7181 33.356C49.7137 33.356 29.4436 40.1999 29.4436 48.6424C29.4436 57.0849 49.7137 63.9289 74.7181 63.9289Z" fill="white"/>
<path d="M74.7181 65.9456C51.7884 65.9456 27.4269 59.8754 27.4269 48.6425C27.4269 37.4096 51.7884 31.3394 74.7181 31.3394C97.6478 31.3394 122.009 37.4096 122.009 48.6425C122.009 59.8754 97.6478 65.9456 74.7181 65.9456ZM74.7181 35.3727C49.2272 35.3727 31.4602 42.3706 31.4602 48.6425C31.4602 54.9144 49.2272 61.9123 74.7181 61.9123C100.209 61.9123 117.976 54.9144 117.976 48.6425C117.976 42.3706 100.209 35.3727 74.7181 35.3727V35.3727Z" fill="white"/>
<path d="M74.7181 65.7841C51.8691 65.7841 27.5882 59.7744 27.5882 48.6423C27.5882 37.5102 51.8691 31.5005 74.7181 31.5005C97.5671 31.5005 121.848 37.5102 121.848 48.6423C121.848 59.7744 97.5671 65.7841 74.7181 65.7841ZM74.7181 35.2112C49.1264 35.2112 31.2989 42.2897 31.2989 48.6423C31.2989 54.9949 49.1264 62.0734 74.7181 62.0734C100.31 62.0734 118.137 54.9949 118.137 48.6423C118.137 42.2897 100.31 35.2112 74.7181 35.2112Z" fill="black"/>
<path d="M74.7181 67.8009C50.2961 67.8009 25.5715 61.2265 25.5715 48.6424C25.5715 36.0583 50.2961 29.4839 74.7181 29.4839C99.1401 29.4839 123.865 36.0583 123.865 48.6424C123.865 61.2265 99.1401 67.8009 74.7181 67.8009ZM74.7181 37.228C47.9164 37.228 33.3156 44.7704 33.3156 48.6424C33.3156 52.5144 47.9366 60.0568 74.7181 60.0568C101.5 60.0568 116.121 52.5144 116.121 48.6424C116.121 44.7704 101.5 37.228 74.7181 37.228Z" fill="white"/>
<path d="M74.7181 48.0173C65.5019 48.0173 56.1848 45.2141 56.1848 39.8497C56.1848 34.4853 65.5019 31.6821 74.7181 31.6821C83.9344 31.6821 93.2515 34.4853 93.2515 39.8497C93.2515 45.2141 83.9344 48.0173 74.7181 48.0173ZM74.7181 35.0298C65.5826 35.0298 59.5325 37.9338 59.5325 39.8497C59.5325 41.7655 65.5826 44.6696 74.7181 44.6696C83.8537 44.6696 89.9038 41.7655 89.9038 39.8497C89.9038 37.9338 83.8537 35.0298 74.7181 35.0298Z" fill="black"/>
<path d="M74.7181 50.034C64.4935 50.034 54.1681 46.888 54.1681 39.8498C54.1681 32.8116 64.4935 29.6655 74.7181 29.6655C84.9427 29.6655 95.2681 32.8116 95.2681 39.8498C95.2681 46.888 84.9427 50.034 74.7181 50.034ZM61.8719 39.8498C63.2835 40.8985 67.8009 42.653 74.7181 42.653C81.6353 42.653 86.1527 40.8985 87.5644 39.8498C86.1527 38.8011 81.6353 37.0466 74.7181 37.0466C67.8009 37.0466 63.2835 38.8011 61.8719 39.8498Z" fill="white"/>
<path d="M74.7181 39.3456C78.0261 39.3456 80.7077 36.6639 80.7077 33.356C80.7077 30.0481 78.0261 27.3665 74.7181 27.3665C71.4102 27.3665 68.7286 30.0481 68.7286 33.356C68.7286 36.6639 71.4102 39.3456 74.7181 39.3456Z" fill="white"/>
<path d="M74.7181 41.3623C70.3016 41.3623 66.7119 37.7726 66.7119 33.3561C66.7119 28.9396 70.3016 25.3499 74.7181 25.3499C79.1346 25.3499 82.7243 28.9396 82.7243 33.3561C82.7243 37.7726 79.1346 41.3623 74.7181 41.3623ZM74.7181 29.3832C72.5199 29.3832 70.7453 31.1579 70.7453 33.3561C70.7453 35.5543 72.5199 37.329 74.7181 37.329C76.9163 37.329 78.691 35.5543 78.691 33.3561C78.691 31.1579 76.9163 29.3832 74.7181 29.3832V29.3832Z" fill="white"/>
<path d="M74.7181 41.2008C70.4024 41.2008 66.8732 37.6918 66.8732 33.3559C66.8732 29.02 70.4024 25.511 74.7181 25.511C79.0338 25.511 82.563 29.02 82.563 33.3559C82.563 37.6918 79.054 41.2008 74.7181 41.2008ZM74.7181 29.2217C72.4393 29.2217 70.5839 31.077 70.5839 33.3559C70.5839 35.6347 72.4393 37.4901 74.7181 37.4901C76.997 37.4901 78.8523 35.6347 78.8523 33.3559C78.8523 31.077 76.997 29.2217 74.7181 29.2217Z" fill="black"/>
<path d="M74.7181 43.2175C69.2731 43.2175 64.8565 38.801 64.8565 33.356C64.8565 27.9109 69.2731 23.4944 74.7181 23.4944C80.1632 23.4944 84.5797 27.9109 84.5797 33.356C84.5797 38.801 80.1632 43.2175 74.7181 43.2175ZM74.7181 31.2384C73.5484 31.2384 72.6006 32.1863 72.6006 33.356C72.6006 34.5256 73.5484 35.4735 74.7181 35.4735C75.8878 35.4735 76.8356 34.5256 76.8356 33.356C76.8356 32.1863 75.8878 31.2384 74.7181 31.2384Z" fill="white"/>
<path d="M23.575 79.9414C16.6578 79.9414 11.0111 74.3148 11.0111 67.3774C11.0111 60.44 16.6376 54.8135 23.575 54.8135C30.5124 54.8135 36.139 60.44 36.139 67.3774C36.139 74.3148 30.5124 79.9414 23.575 79.9414V79.9414ZM23.575 58.867C18.8761 58.867 15.0444 62.6987 15.0444 67.3976C15.0444 72.0965 18.8761 75.9282 23.575 75.9282C28.2739 75.9282 32.1056 72.0965 32.1056 67.3976C32.1056 62.6987 28.2739 58.867 23.575 58.867Z" fill="black"/>
<path d="M125.942 79.9414C119.025 79.9414 113.378 74.3148 113.378 67.3774C113.378 60.44 119.004 54.8135 125.942 54.8135C132.879 54.8135 138.506 60.44 138.506 67.3774C138.506 74.3148 132.879 79.9414 125.942 79.9414ZM125.942 58.867C121.243 58.867 117.411 62.6987 117.411 67.3976C117.411 72.0965 121.243 75.9282 125.942 75.9282C130.641 75.9282 134.472 72.0965 134.472 67.3976C134.472 62.6987 130.641 58.867 125.942 58.867Z" fill="black"/>
<path d="M119.327 49.6912H29.4234V105.372H119.327V49.6912Z" fill="white"/>
<path d="M119.327 107.389H29.4234C28.3142 107.389 27.4067 106.481 27.4067 105.372V49.6912C27.4067 48.5821 28.3142 47.6746 29.4234 47.6746H119.327C120.436 47.6746 121.344 48.5821 121.344 49.6912V105.372C121.344 106.481 120.436 107.389 119.327 107.389ZM31.4401 103.355H117.31V51.7079H31.4401V103.355V103.355Z" fill="black"/>
<path d="M74.7181 63.8683C99.7226 63.8683 119.993 57.0244 119.993 48.5819C119.993 40.1394 99.7226 33.2954 74.7181 33.2954C49.7137 33.2954 29.4436 40.1394 29.4436 48.5819C29.4436 57.0244 49.7137 63.8683 74.7181 63.8683Z" fill="white"/>
<path d="M74.7181 65.8851C51.7884 65.8851 27.4269 59.8149 27.4269 48.582C27.4269 37.349 51.7884 31.2788 74.7181 31.2788C97.6478 31.2788 122.009 37.349 122.009 48.582C122.009 59.8149 97.6478 65.8851 74.7181 65.8851ZM74.7181 35.3122C49.2272 35.3122 31.4602 42.3101 31.4602 48.582C31.4602 54.8538 49.2272 61.8517 74.7181 61.8517C100.209 61.8517 117.976 54.8538 117.976 48.582C117.976 42.3101 100.209 35.3122 74.7181 35.3122V35.3122Z" fill="black"/>
<path d="M74.7181 48.2996C65.3405 48.2996 55.8419 45.3754 55.8419 39.7892C55.8419 34.203 65.3405 31.2788 74.7181 31.2788C84.0957 31.2788 93.5943 34.203 93.5943 39.7892C93.5943 45.3754 84.0957 48.2996 74.7181 48.2996ZM74.7181 35.3122C65.522 35.3122 59.8753 38.2162 59.8753 39.7892C59.8753 41.3622 65.5019 44.2663 74.7181 44.2663C83.9343 44.2663 89.5609 41.3622 89.5609 39.7892C89.5609 38.2162 83.9343 35.3122 74.7181 35.3122Z" fill="black"/>
<path d="M74.7181 39.285C78.0261 39.285 80.7077 36.6034 80.7077 33.2955C80.7077 29.9875 78.0261 27.3059 74.7181 27.3059C71.4102 27.3059 68.7286 29.9875 68.7286 33.2955C68.7286 36.6034 71.4102 39.285 74.7181 39.285Z" fill="white"/>
<path d="M74.7181 41.3018C70.3016 41.3018 66.7119 37.7121 66.7119 33.2955C66.7119 28.879 70.3016 25.2893 74.7181 25.2893C79.1346 25.2893 82.7243 28.879 82.7243 33.2955C82.7243 37.7121 79.1346 41.3018 74.7181 41.3018ZM74.7181 29.3227C72.5199 29.3227 70.7453 31.0974 70.7453 33.2955C70.7453 35.4937 72.5199 37.2684 74.7181 37.2684C76.9163 37.2684 78.691 35.4937 78.691 33.2955C78.691 31.0974 76.9163 29.3227 74.7181 29.3227V29.3227Z" fill="black"/>
<path d="M61.4887 121.062C56.9512 121.062 52.8775 118.541 50.8406 114.487L41.9672 96.7605C41.584 96.0144 41.6244 95.1674 42.068 94.4414C42.5117 93.7154 43.2579 93.312 44.0847 93.312H157.947C158.794 93.312 159.52 93.7154 159.963 94.4414C160.407 95.1674 160.447 95.9942 160.064 96.7605L151.231 114.487C149.214 118.561 145.121 121.082 140.583 121.082H61.4887V121.062Z" fill="white"/>
<path d="M140.603 123.078H61.4887C56.1848 123.078 51.4053 120.134 49.0458 115.395L40.1724 97.668C39.4867 96.2966 39.5674 94.6833 40.374 93.3926C41.1807 92.0818 42.5722 91.3154 44.1049 91.3154H157.967C159.5 91.3154 160.891 92.1019 161.698 93.3926C162.504 94.7035 162.585 96.2966 161.899 97.668L153.066 115.395C150.707 120.154 145.927 123.098 140.623 123.098L140.603 123.078ZM44.1049 95.3286C43.9637 95.3286 43.8629 95.369 43.8024 95.5101C43.7419 95.6513 43.7217 95.732 43.8024 95.8731L52.6758 113.6C54.3496 116.968 57.7377 119.065 61.5089 119.065H140.623C144.395 119.065 147.783 116.968 149.456 113.6L158.29 95.8731C158.35 95.7521 158.35 95.6311 158.29 95.5101C158.229 95.3891 158.128 95.3286 157.987 95.3286H44.1049V95.3286Z" fill="white"/>
<path d="M157.967 95.5302C157.967 95.5302 158.048 95.5302 158.108 95.6109C158.148 95.6915 158.128 95.7319 158.108 95.7722L149.275 113.499C147.621 116.806 144.314 118.863 140.603 118.863H61.4887C57.7982 118.863 54.4908 116.806 52.8371 113.519L43.9637 95.7924C43.9637 95.7924 43.9234 95.7117 43.9637 95.631C44.004 95.5504 44.0444 95.5504 44.1049 95.5504H157.967M157.967 91.1137H44.1049C40.6765 91.1137 38.4582 94.7034 39.9908 97.7687L48.8642 115.495C51.2641 120.275 56.1445 123.3 61.4887 123.3H140.603C145.947 123.3 150.848 120.275 153.228 115.475L162.061 97.7486C163.593 94.6832 161.355 91.0935 157.947 91.0935L157.967 91.1137Z" fill="black"/>
<path d="M140.603 125.297H61.4887C55.3378 125.297 49.8121 121.888 47.0492 116.383L38.1758 98.6562C37.1473 96.5991 37.2482 94.1791 38.4582 92.2229C39.6682 90.2668 41.7655 89.0769 44.0847 89.0769H157.947C160.246 89.0769 162.363 90.2466 163.573 92.2028C164.783 94.159 164.904 96.579 163.876 98.636L155.043 116.363C152.3 121.868 146.754 125.297 140.603 125.297V125.297ZM44.1049 93.1103C43.1974 93.1103 42.3907 93.5539 41.9067 94.3404C41.4227 95.127 41.3824 96.0345 41.7857 96.8613L50.6591 114.588C52.7161 118.722 56.8705 121.283 61.4887 121.283H140.603C145.221 121.283 149.376 118.722 151.433 114.588L160.266 96.8613C160.669 96.0345 160.629 95.127 160.145 94.3404C159.661 93.5539 158.854 93.1103 157.947 93.1103H44.1049V93.1103ZM140.603 120.86H61.4887C57.0318 120.86 53.0186 118.379 51.0221 114.386L41.6445 95.6513L42.2495 94.5421C42.6529 93.8766 43.3385 93.5136 44.1049 93.5136H159.096L160.407 95.49L159.923 96.6395L151.07 114.386C149.073 118.379 145.06 120.86 140.603 120.86V120.86ZM47.1097 97.547L54.632 112.591C55.9428 115.213 58.5645 116.826 61.4887 116.826H140.603C143.527 116.826 146.149 115.193 147.46 112.591L154.962 97.547H47.1097ZM157.967 97.547V95.8328V97.547Z" fill="white"/>
<path d="M160.286 97.1437C160.105 97.1437 159.923 97.1236 159.721 97.0832C158.37 96.7807 157.523 95.4699 157.826 94.1187C157.906 93.7154 160.084 84.3781 175.169 80.3851C176.5 80.0221 177.892 80.8288 178.255 82.1799C178.618 83.5311 177.811 84.9024 176.46 85.2655C164.561 88.4115 162.807 94.9455 162.746 95.2077C162.464 96.3572 161.436 97.1437 160.286 97.1437Z" fill="black"/>
<path d="M160.286 99.1603C159.943 99.1603 159.6 99.12 159.278 99.0393C156.837 98.4746 155.325 96.1151 155.849 93.6951C155.95 93.2514 158.37 82.7445 174.645 78.449C175.814 78.1465 177.045 78.3078 178.093 78.9128C179.142 79.5178 179.888 80.506 180.191 81.6757C180.493 82.8453 180.332 84.0755 179.727 85.1242C179.122 86.1729 178.134 86.919 176.964 87.2215C166.316 90.0449 164.743 95.4899 164.682 95.7118C164.178 97.7486 162.363 99.1603 160.266 99.1603H160.286ZM175.814 82.321C175.814 82.321 175.734 82.321 175.693 82.321C161.819 85.9914 159.883 94.1791 159.802 94.5219C159.742 94.7841 159.903 95.0261 160.185 95.1068H160.286C160.488 95.1068 160.73 94.9858 160.79 94.7236C160.992 93.9169 163.13 86.6972 175.956 83.3092C176.117 83.2688 176.218 83.1478 176.258 83.0672C176.298 82.9865 176.359 82.8453 176.319 82.684C176.278 82.5227 176.157 82.4218 176.077 82.3815C176.016 82.3613 175.935 82.3008 175.814 82.3008V82.321Z" fill="white"/>
<path d="M213.547 77.2189V86.657H178.698V78.7919L213.547 77.2189ZM215.483 72.6814L176.762 74.4359C175.391 74.4359 174.262 75.7266 174.262 77.3198V88.1897C174.262 89.7829 175.391 91.0735 176.762 91.0735H215.483C216.854 91.0735 217.983 89.7829 217.983 88.1897V75.5854C217.983 73.9922 216.854 72.7016 215.483 72.7016V72.6814Z" fill="black"/>
<path d="M215.483 93.1103H176.762C174.262 93.1103 172.245 90.9122 172.245 88.2098V77.3399C172.245 74.6375 174.262 72.4393 176.762 72.4393L215.483 70.6848C217.963 70.6848 220 72.883 220 75.5854V88.1896C220 90.892 217.983 93.0902 215.483 93.0902V93.1103ZM215.483 74.7182L176.823 76.4525C176.561 76.4525 176.238 76.7954 176.238 77.3399V88.2098C176.238 88.7543 176.561 89.077 176.722 89.077H215.442C215.604 89.077 215.926 88.7341 215.926 88.2098V75.6055C215.926 75.0812 215.644 74.7585 215.462 74.7384L215.483 74.7182ZM215.543 88.6736H176.661V76.876L215.543 75.1215V88.6736ZM180.695 84.6403H211.51V79.3364L180.695 80.7279V84.6403V84.6403Z" fill="white"/>
<path d="M61.4887 121.062C56.9512 121.062 52.8775 118.541 50.8406 114.487L41.9672 96.7605C41.584 96.0144 41.6244 95.1674 42.068 94.4414C42.5117 93.7154 43.2579 93.312 44.0847 93.312H157.947C158.794 93.312 159.52 93.7154 159.963 94.4414C160.407 95.1674 160.447 95.9942 160.064 96.7605L151.231 114.487C149.214 118.561 145.121 121.082 140.583 121.082H61.4887V121.062Z" fill="white"/>
<path d="M157.967 95.5305C157.967 95.5305 158.048 95.5305 158.108 95.6111C158.148 95.6918 158.128 95.7321 158.108 95.7725L149.275 113.499C147.621 116.806 144.314 118.863 140.603 118.863H61.4887C57.7982 118.863 54.4908 116.806 52.8371 113.519L43.9637 95.7926C43.9637 95.7926 43.9234 95.712 43.9637 95.6313C44.004 95.5506 44.0444 95.5506 44.1049 95.5506H157.967M157.967 91.1139H44.1049C40.6765 91.1139 38.4582 94.7036 39.9908 97.769L48.8642 115.496C51.2641 120.275 56.1445 123.3 61.4887 123.3H140.603C145.947 123.3 150.848 120.275 153.228 115.475L162.061 97.7488C163.593 94.6835 161.355 91.0938 157.947 91.0938L157.967 91.1139Z" fill="black"/>
<path d="M160.286 97.1437C160.105 97.1437 159.923 97.1236 159.721 97.0832C158.37 96.7807 157.523 95.4699 157.826 94.1187C157.906 93.7154 160.084 84.3781 175.169 80.3851C176.52 80.0221 177.892 80.8288 178.255 82.1799C178.618 83.5311 177.811 84.9024 176.46 85.2655C164.561 88.4115 162.807 94.9254 162.746 95.2077C162.464 96.3572 161.436 97.1437 160.286 97.1437Z" fill="black"/>
<path d="M213.547 77.2189V86.657H178.698V78.7919L213.547 77.2189ZM215.483 72.6814L176.762 74.4359C175.391 74.4359 174.262 75.7266 174.262 77.3198V88.1897C174.262 89.7829 175.391 91.0735 176.762 91.0735H215.483C216.854 91.0735 217.983 89.7829 217.983 88.1897V75.5854C217.983 73.9922 216.854 72.7016 215.483 72.7016V72.6814Z" fill="black"/>
<path d="M121.828 116.383C121.828 132.415 106.118 145.403 86.7376 145.403C67.3572 145.403 51.6473 132.415 51.6473 116.383" fill="white"/>
<path d="M86.7174 147.299C66.3287 147.299 49.7314 133.424 49.7314 116.383H53.5026C53.5026 131.347 68.4059 143.527 86.7174 143.527C105.029 143.527 119.932 131.347 119.932 116.383H123.703C123.703 133.424 107.106 147.299 86.7174 147.299V147.299Z" fill="white"/>
<path d="M86.7174 147.258C66.3489 147.258 49.7718 133.403 49.7718 116.383C49.7718 115.354 50.5986 114.527 51.6271 114.527C52.6556 114.527 53.4825 115.354 53.4825 116.383C53.4825 131.367 68.4059 143.547 86.7376 143.547C105.069 143.547 119.993 131.367 119.993 116.383C119.993 115.354 120.82 114.527 121.848 114.527C122.877 114.527 123.703 115.354 123.703 116.383C123.703 133.403 107.126 147.258 86.7577 147.258H86.7174Z" fill="black"/>
<path d="M86.7174 149.154C65.3002 149.154 47.8761 134.452 47.8761 116.383C47.8761 114.326 49.5499 112.652 51.6069 112.652C53.6639 112.652 55.3378 114.326 55.3378 116.383C55.3378 130.338 69.4143 141.672 86.6972 141.672C103.98 141.672 118.057 130.318 118.057 116.383C118.057 114.326 119.73 112.652 121.788 112.652C123.845 112.652 125.518 114.326 125.518 116.383C125.518 134.452 108.094 149.154 86.6771 149.154H86.7174Z" fill="white"/>
<path d="M51.6069 117.835C50.5381 117.835 49.5701 117.088 49.3079 115.999C49.2272 115.677 47.5534 109.647 36.502 106.723C35.2516 106.4 34.5054 105.109 34.8281 103.839C35.1508 102.588 36.4616 101.842 37.712 102.165C51.8086 105.896 53.8253 114.608 53.9059 114.971C54.1681 116.241 53.3614 117.492 52.0909 117.774C51.9296 117.814 51.7683 117.835 51.5868 117.835H51.6069Z" fill="black"/>
<path d="M51.6069 119.71C49.6104 119.71 47.9164 118.359 47.4727 116.423C47.4324 116.262 45.9602 111.18 36.018 108.538C33.7593 107.933 32.4081 105.614 33.0131 103.355C33.2954 102.266 34.0013 101.358 34.9693 100.774C35.9373 100.189 37.0868 100.048 38.1758 100.33C53.3816 104.343 55.6403 114.164 55.721 114.568C56.205 116.847 54.7529 119.105 52.4539 119.589C52.1716 119.65 51.8691 119.69 51.5666 119.69L51.6069 119.71ZM37.1271 103.98C37.0263 103.98 36.9456 104.02 36.8851 104.041C36.8045 104.081 36.7036 104.162 36.6633 104.323C36.6028 104.585 36.744 104.827 37.0061 104.908C48.9651 108.074 50.9616 114.79 51.1431 115.556C51.2238 115.879 51.5061 116 51.6876 115.939C51.9498 115.879 52.1111 115.637 52.0708 115.374C51.9901 115.052 50.1751 107.408 37.228 103.98C37.1876 103.98 37.1473 103.98 37.107 103.98H37.1271Z" fill="white"/>
<path d="M5.58622 98.7771L32.9728 100.128V107.388H5.58622V98.7569M3.87204 94.9656C2.76286 94.9656 1.87552 96.0949 1.87552 97.5066V108.558C1.87552 109.95 2.76286 111.099 3.87204 111.099H34.7071C35.8163 111.099 36.7036 109.97 36.7036 108.558V99.0393C36.7036 97.6478 35.8163 96.4983 34.7071 96.4983L3.87204 94.9656V94.9656Z" fill="black"/>
<path d="M34.7071 112.975H3.87203C1.73435 112.975 0 110.998 0 108.558V97.5066C0 95.0664 1.73435 93.0901 3.87203 93.0901H3.97287L34.808 94.6228C36.8448 94.6228 38.5792 96.5991 38.5792 99.0393V108.558C38.5792 110.998 36.8448 112.975 34.7071 112.975ZM7.4819 105.513H31.0973V101.923L7.46173 100.753V105.513H7.4819Z" fill="white"/>
<path d="M86.7174 128.16C105.964 128.16 121.566 122.481 121.566 115.475C121.566 108.47 105.964 102.791 86.7174 102.791C67.4712 102.791 51.8691 108.47 51.8691 115.475C51.8691 122.481 67.4712 128.16 86.7174 128.16Z" fill="white"/>
<path d="M86.7174 130.036C66.4699 130.036 49.9734 123.502 49.9734 115.475C49.9734 107.449 66.4497 100.915 86.7174 100.915C106.985 100.915 123.461 107.449 123.461 115.475C123.461 123.502 106.985 130.036 86.7174 130.036ZM86.7174 104.686C66.8934 104.686 53.7446 111.18 53.7446 115.475C53.7446 119.771 66.8934 126.265 86.7174 126.265C106.541 126.265 119.69 119.771 119.69 115.475C119.69 111.18 106.541 104.686 86.7174 104.686Z" fill="white"/>
<path d="M86.7174 104.646C106.864 104.646 119.731 111.059 119.731 115.475C119.731 119.892 106.864 126.305 86.7174 126.305C66.5707 126.305 53.7043 119.892 53.7043 115.475C53.7043 111.059 66.5707 104.646 86.7174 104.646ZM86.7174 100.935C66.4497 100.935 50.0138 107.449 50.0138 115.475C50.0138 123.502 66.4497 130.016 86.7174 130.016C106.985 130.016 123.421 123.502 123.421 115.475C123.421 107.449 106.985 100.935 86.7174 100.935Z" fill="black"/>
<path d="M86.7174 131.891C64.7154 131.891 48.1181 124.833 48.1181 115.475C48.1181 106.118 64.7154 99.0596 86.7174 99.0596C108.719 99.0596 125.317 106.118 125.317 115.475C125.317 124.833 108.719 131.891 86.7174 131.891ZM86.7174 106.541C66.2884 106.541 55.6 113.176 55.6 115.475C55.6 117.774 66.3086 124.409 86.7174 124.409C107.126 124.409 117.835 117.774 117.835 115.475C117.835 113.176 107.126 106.541 86.7174 106.541Z" fill="white"/>
<path d="M86.7174 105.896C106.36 105.896 119.388 112.208 119.388 116.403C119.388 120.598 106.36 126.91 86.7174 126.91C67.0749 126.91 54.0471 120.598 54.0471 116.403C54.0471 112.208 67.0749 105.896 86.7174 105.896ZM86.7174 101.863C66.4497 101.863 50.0138 108.376 50.0138 116.403C50.0138 124.429 66.4497 130.943 86.7174 130.943C106.985 130.943 123.421 124.429 123.421 116.403C123.421 108.376 106.985 101.863 86.7174 101.863V101.863Z" fill="black"/>
<path d="M86.7174 148.347C66.2481 148.347 49.6104 134.412 49.6104 117.31C49.6104 116.201 50.5179 115.294 51.6271 115.294C52.7363 115.294 53.6438 116.201 53.6438 117.31C53.6438 132.214 68.4866 144.314 86.7174 144.314C104.948 144.314 119.811 132.194 119.811 117.31C119.811 116.201 120.719 115.294 121.828 115.294C122.937 115.294 123.845 116.201 123.845 117.31C123.845 134.432 107.187 148.347 86.7174 148.347Z" fill="black"/>
<path d="M51.6069 118.42C50.6793 118.42 49.8524 117.774 49.6507 116.847C49.5701 116.524 47.8962 110.312 36.6028 107.328C35.534 107.045 34.8886 105.936 35.171 104.867C35.4533 103.778 36.5625 103.153 37.6313 103.436C51.5263 107.106 53.5026 115.637 53.5833 116C53.8253 117.089 53.1194 118.157 52.0304 118.399C51.8893 118.44 51.7481 118.44 51.6069 118.44V118.42Z" fill="black"/>
<path d="M5.90889 100.048L32.6501 101.379V107.993H5.90889V100.048ZM3.87204 95.9133C2.76286 95.9133 1.87552 97.0427 1.87552 98.4543V109.506C1.87552 110.897 2.76286 112.047 3.87204 112.047H34.7071C35.8163 112.047 36.7036 110.917 36.7036 109.506V99.987C36.7036 98.5955 35.8163 97.446 34.7071 97.446L3.87204 95.9133V95.9133Z" fill="black"/>
<path d="M185.132 128.362C184.285 124.772 180.776 122.393 177.125 123.159C172.225 124.187 167.344 125.357 162.464 126.567C159.923 127.192 158.249 128.927 157.604 131.427C157.362 132.395 156.918 132.718 156.031 132.92C146.593 135.098 137.134 137.276 127.717 139.514C125.982 139.938 124.752 140.079 123.219 138.506C121.102 136.328 118.339 134.775 115.858 132.92C114.003 131.528 111.966 131.125 109.708 131.669C103.9 133.061 98.0512 134.372 92.2431 135.763C88.6938 136.61 86.9997 139.292 87.8064 142.801C88.9761 147.964 90.2063 153.127 91.4364 158.289C92.2835 161.819 94.9656 163.513 98.4747 162.726C104.404 161.375 110.333 160.064 116.221 158.552C117.613 158.189 119.287 157.321 120.013 156.172C122.11 152.905 123.804 149.376 125.559 146.129C125.498 144.576 126.305 144.253 127.414 143.991C137.336 141.712 147.238 139.413 157.14 137.074C157.926 136.892 158.411 136.973 158.995 137.639C160.669 139.655 162.928 140.502 165.469 139.978C170.43 138.929 175.351 137.8 180.271 136.529C183.922 135.582 185.999 131.952 185.132 128.322V128.362Z" fill="white"/>
<path d="M96.8613 164.945C93.2515 164.945 90.4079 162.646 89.4803 158.774C88.2501 153.611 87.0401 148.448 85.8502 143.265C84.8016 138.687 87.1812 134.896 91.7793 133.807C94.6228 133.141 97.4663 132.476 100.29 131.81C103.274 131.125 106.259 130.419 109.244 129.713C112.107 129.027 114.749 129.572 117.068 131.306C117.835 131.871 118.601 132.415 119.388 132.94C121.203 134.17 123.058 135.461 124.651 137.094C125.438 137.901 125.74 137.901 127.233 137.538C136.671 135.299 146.109 133.101 155.567 130.943C155.587 130.943 155.607 130.943 155.627 130.943C156.555 127.575 158.774 125.397 161.98 124.591C166.013 123.603 171.317 122.312 176.702 121.162C181.401 120.174 185.979 123.119 187.088 127.858C188.217 132.617 185.434 137.276 180.755 138.486C176.036 139.696 171.035 140.865 165.872 141.954C162.686 142.62 159.721 141.612 157.543 139.05C147.541 141.39 137.699 143.689 127.858 145.947C127.737 145.968 127.636 146.008 127.575 146.028L127.596 146.593L127.333 147.077C126.849 147.964 126.365 148.892 125.881 149.819C124.591 152.28 123.28 154.821 121.707 157.261C120.618 158.975 118.42 160.044 116.726 160.488C111.684 161.799 106.521 162.968 101.52 164.098L98.9183 164.682C98.2125 164.844 97.5067 164.924 96.8412 164.924L96.8613 164.945ZM111.583 133.464C111.139 133.464 110.655 133.525 110.171 133.646C107.187 134.351 104.202 135.057 101.197 135.743C98.3537 136.409 95.5303 137.054 92.6868 137.74C90.2063 138.324 89.1979 139.938 89.7626 142.378C90.9323 147.541 92.1624 152.703 93.3725 157.846C93.9573 160.326 95.5706 161.335 98.0108 160.79L100.612 160.205C105.573 159.076 110.696 157.927 115.697 156.636C116.826 156.354 117.936 155.688 118.299 155.123C119.771 152.844 121.062 150.384 122.292 147.984C122.715 147.198 123.119 146.411 123.522 145.625C123.703 142.781 126.103 142.237 126.93 142.035C136.852 139.756 146.754 137.457 156.656 135.118C157.664 134.876 159.177 134.755 160.508 136.368C161.738 137.84 163.251 138.385 165.025 138.022C170.127 136.953 175.068 135.803 179.727 134.593C182.248 133.948 183.74 131.407 183.135 128.806C182.53 126.204 180.029 124.591 177.508 125.115C172.184 126.244 166.921 127.515 162.928 128.503C161.133 128.947 160.004 130.096 159.54 131.911C158.995 134.069 157.523 134.634 156.454 134.876C147.016 137.054 137.578 139.232 128.16 141.47C126.144 141.954 124.006 142.217 121.747 139.918C120.436 138.566 118.823 137.457 117.089 136.288C116.262 135.723 115.435 135.158 114.628 134.553C113.66 133.827 112.672 133.484 111.563 133.484L111.583 133.464Z" fill="white"/>
<path d="M185.132 128.362C184.285 124.772 180.776 122.393 177.125 123.159C172.225 124.187 167.344 125.357 162.464 126.567C159.923 127.192 158.249 128.927 157.604 131.427C157.362 132.395 156.918 132.718 156.031 132.92C146.593 135.098 137.134 137.276 127.717 139.514C125.982 139.938 124.752 140.079 123.219 138.506C121.102 136.328 118.339 134.775 115.858 132.92C114.003 131.528 111.966 131.125 109.708 131.669C103.9 133.061 98.0512 134.372 92.2431 135.763C88.6938 136.61 86.9997 139.292 87.8064 142.801C88.9761 147.964 90.2063 153.127 91.4364 158.289C92.2835 161.819 94.9656 163.513 98.4747 162.726C104.404 161.375 110.333 160.064 116.221 158.552C117.613 158.189 119.287 157.321 120.013 156.172C122.11 152.905 123.804 149.376 125.559 146.129C125.498 144.576 126.305 144.253 127.414 143.991C137.336 141.712 147.238 139.413 157.14 137.074C157.926 136.892 158.411 136.973 158.995 137.639C160.669 139.655 162.928 140.502 165.469 139.978C170.43 138.929 175.351 137.8 180.271 136.529C183.922 135.582 185.999 131.952 185.132 128.322V128.362ZM116.746 153.409C116.463 153.913 115.697 154.256 115.072 154.417C109.264 155.809 103.436 157.14 97.6277 158.511C96.5185 158.773 95.9135 158.41 95.6513 157.281C94.4816 152.159 93.2918 147.057 92.0616 141.934C91.7793 140.764 92.223 140.22 93.3321 139.978C99.1603 138.647 104.968 137.235 110.797 135.965C111.543 135.803 112.571 136.025 113.217 136.449C115.616 138.062 117.915 139.796 120.235 141.531C121.364 142.378 121.707 143.507 121.243 144.979C119.791 147.722 118.339 150.606 116.746 153.409V153.409ZM178.517 132.536C174.1 133.585 169.684 134.614 165.267 135.622C164.723 135.743 164.138 135.743 163.856 135.763C162.424 135.319 161.758 134.553 161.718 133.363C161.657 132.032 162.343 131.125 163.593 130.782C165.509 130.258 167.445 129.854 169.361 129.411C172.043 128.785 174.705 128.14 177.387 127.535C179.203 127.132 180.574 127.858 180.917 129.37C181.26 130.883 180.352 132.113 178.537 132.536H178.517Z" fill="black"/>
<path d="M96.821 163.21C93.9976 163.21 91.9003 161.456 91.1743 158.37C89.7424 152.34 88.5929 147.42 87.5443 142.882C86.6972 139.212 88.4719 136.388 92.1826 135.501C95.0261 134.835 97.8495 134.17 100.693 133.504C103.678 132.819 106.662 132.113 109.647 131.407C112.007 130.842 114.104 131.266 116.02 132.698C116.786 133.283 117.613 133.847 118.4 134.372C120.134 135.561 121.929 136.792 123.401 138.304C124.833 139.776 125.962 139.635 127.636 139.232C137.054 136.993 146.411 134.835 155.95 132.637C156.716 132.456 157.08 132.234 157.322 131.347C158.007 128.685 159.762 126.93 162.383 126.285C166.397 125.297 171.7 124.006 177.045 122.876C180.816 122.09 184.486 124.45 185.374 128.281C186.261 132.113 184.043 135.844 180.312 136.812C175.613 138.022 170.632 139.171 165.509 140.26C162.908 140.805 160.528 139.938 158.774 137.84C158.269 137.235 157.886 137.195 157.2 137.356C146.109 139.958 136.388 142.237 127.475 144.274C126.446 144.516 125.781 144.758 125.841 146.129V146.21L125.801 146.27C125.317 147.178 124.833 148.085 124.349 149.033C123.078 151.453 121.767 153.974 120.255 156.333C119.428 157.624 117.593 158.471 116.302 158.814C111.281 160.125 106.138 161.274 101.157 162.403L98.5553 162.988C97.9503 163.13 97.3857 163.19 96.8412 163.19L96.821 163.21ZM111.603 131.73C111.018 131.73 110.413 131.81 109.788 131.952C106.804 132.657 103.819 133.363 100.834 134.049C97.9907 134.714 95.1673 135.36 92.3238 136.045C88.8954 136.852 87.3224 139.373 88.1089 142.761C89.1374 147.299 90.2869 152.219 91.739 158.249C92.5456 161.657 95.0665 163.251 98.4545 162.484L101.056 161.899C106.037 160.77 111.18 159.6 116.181 158.31C117.492 157.967 119.126 157.14 119.811 156.051C121.324 153.691 122.635 151.211 123.885 148.791C124.369 147.883 124.833 146.976 125.317 146.089C125.276 144.374 126.305 143.991 127.374 143.749C136.287 141.712 146.008 139.454 157.1 136.832C157.927 136.63 158.532 136.671 159.217 137.497C160.871 139.474 163.009 140.26 165.429 139.736C170.551 138.667 175.532 137.497 180.211 136.308C183.659 135.42 185.716 131.972 184.869 128.443C184.043 124.913 180.655 122.715 177.186 123.461C171.842 124.591 166.558 125.861 162.545 126.87C160.125 127.475 158.511 129.088 157.886 131.548C157.584 132.698 157.019 133.041 156.111 133.242C146.573 135.44 137.215 137.598 127.797 139.837C126.043 140.26 124.671 140.422 123.038 138.748C121.606 137.276 119.831 136.066 118.117 134.896C117.331 134.351 116.504 133.787 115.717 133.202C114.447 132.254 113.096 131.77 111.623 131.77L111.603 131.73ZM97.0025 158.854C96.6798 158.854 96.3975 158.773 96.1757 158.632C95.7925 158.39 95.5303 157.967 95.3891 157.321C94.1993 152.098 92.9893 146.936 91.7995 141.995C91.6381 141.369 91.6986 140.885 91.9205 140.502C92.1625 140.119 92.586 139.857 93.2716 139.696C95.1875 139.252 97.1235 138.808 99.0393 138.344C102.871 137.457 106.824 136.529 110.736 135.662C111.543 135.481 112.652 135.703 113.358 136.187C115.415 137.558 117.452 139.07 119.408 140.543L120.396 141.289C121.626 142.216 122.009 143.467 121.505 145.04C121.122 145.786 120.759 146.492 120.376 147.198C119.287 149.275 118.178 151.433 116.988 153.53C116.645 154.115 115.778 154.518 115.153 154.659C111.462 155.547 107.751 156.414 104.061 157.281C101.943 157.785 99.8259 158.269 97.7083 158.773C97.4663 158.834 97.2243 158.854 97.0227 158.854H97.0025ZM111.341 136.166C111.18 136.166 110.998 136.166 110.857 136.207C106.945 137.054 102.992 137.981 99.1603 138.869C97.2445 139.312 95.3085 139.776 93.3926 140.22C92.8683 140.341 92.5456 140.522 92.3843 140.764C92.223 141.006 92.223 141.369 92.3238 141.833C93.5136 146.774 94.7035 151.937 95.9135 157.18C96.0345 157.684 96.1958 157.987 96.458 158.148C96.7 158.31 97.0832 158.33 97.5672 158.209C99.6847 157.705 101.802 157.221 103.92 156.716C107.61 155.849 111.321 155.002 115.011 154.115C115.576 153.974 116.282 153.651 116.504 153.248C117.694 151.15 118.803 149.013 119.892 146.936C120.255 146.23 120.638 145.524 121.001 144.818C121.404 143.527 121.102 142.499 120.073 141.712L119.085 140.966C117.129 139.514 115.112 138.002 113.055 136.63C112.591 136.328 111.926 136.146 111.341 136.146V136.166ZM163.815 136.025H163.755C162.242 135.541 161.476 134.674 161.415 133.363C161.355 131.911 162.101 130.863 163.493 130.5C164.844 130.137 166.215 129.834 167.546 129.532C168.111 129.411 168.696 129.269 169.26 129.148L171.721 128.564C173.576 128.12 175.431 127.696 177.287 127.273C178.235 127.051 179.102 127.132 179.787 127.495C180.473 127.858 180.957 128.503 181.139 129.33C181.522 131.004 180.493 132.375 178.557 132.839C174.262 133.847 169.805 134.896 165.308 135.924C164.884 136.025 164.44 136.045 164.138 136.045C164.037 136.045 163.936 136.045 163.856 136.045H163.795L163.815 136.025ZM178.335 127.676C178.053 127.676 177.751 127.717 177.428 127.777C175.572 128.201 173.717 128.624 171.862 129.068L169.401 129.653C168.837 129.794 168.252 129.915 167.687 130.056C166.356 130.358 164.985 130.661 163.654 131.024C162.525 131.326 161.92 132.153 161.98 133.323C162.02 134.392 162.625 135.057 163.876 135.461C163.956 135.461 164.037 135.461 164.118 135.461C164.42 135.461 164.824 135.44 165.207 135.34C169.704 134.311 174.161 133.283 178.456 132.254C180.11 131.871 180.937 130.782 180.634 129.411C180.493 128.745 180.11 128.241 179.566 127.959C179.223 127.777 178.799 127.676 178.335 127.676V127.676Z" fill="white"/>
<path d="M110.817 141.813C110.635 140.623 109.829 139.776 108.598 140.018C105.493 140.643 102.387 141.329 99.3419 142.216C98.757 142.378 98.1319 143.507 98.1117 144.213C98.1117 144.899 98.8175 145.604 99.1604 146.23C99.9469 146.23 100.391 146.27 100.794 146.189C103.557 145.564 106.34 144.939 109.103 144.253C110.353 143.951 111.018 143.084 110.817 141.813V141.813Z" fill="black"/>
<path d="M100.209 146.512C100.108 146.512 99.9872 146.512 99.8864 146.512C99.6847 146.512 99.4629 146.512 99.1805 146.512H99.0192L98.9385 146.371C98.8377 146.189 98.7167 146.008 98.5755 145.826C98.2327 145.342 97.8293 144.798 97.8495 144.213C97.8697 143.406 98.5554 142.156 99.2612 141.954C101.984 141.168 104.948 140.462 108.558 139.756C109.143 139.635 109.687 139.756 110.131 140.059C110.635 140.422 110.978 141.027 111.099 141.773C111.321 143.144 110.595 144.193 109.163 144.536C106.723 145.12 104.081 145.746 100.854 146.472C100.653 146.512 100.431 146.532 100.209 146.532V146.512ZM99.4225 145.947C99.604 145.947 99.7452 145.947 99.8864 145.947C100.249 145.947 100.512 145.947 100.733 145.907C103.96 145.181 106.582 144.576 109.022 143.971C110.171 143.689 110.696 142.942 110.534 141.833C110.454 141.228 110.192 140.744 109.808 140.482C109.486 140.26 109.103 140.18 108.659 140.28C105.069 140.986 102.125 141.692 99.4225 142.458C98.999 142.579 98.4142 143.568 98.394 144.193C98.394 144.576 98.6965 145.04 99.0192 145.463C99.12 145.625 99.241 145.766 99.3217 145.907H99.4225V145.947Z" fill="white"/>
<path d="M110.474 147.661C107.267 148.287 104.081 149.033 100.955 149.94C100.411 150.102 99.9065 151.332 99.9065 152.058C99.9065 152.703 100.673 153.349 100.996 153.833C101.52 153.873 101.722 153.933 101.903 153.893C105.089 153.167 108.296 152.501 111.442 151.654C112.45 151.372 112.833 150.364 112.571 149.275C112.309 148.186 111.482 147.48 110.474 147.661V147.661Z" fill="black"/>
<path d="M101.762 154.175C101.762 154.175 101.56 154.175 101.439 154.155C101.318 154.155 101.177 154.135 100.975 154.115H100.834L100.754 153.994C100.673 153.853 100.552 153.712 100.411 153.57C100.048 153.127 99.6242 152.643 99.604 152.078C99.604 151.292 100.128 149.9 100.834 149.698C103.758 148.851 106.884 148.085 110.393 147.399C111.523 147.178 112.511 147.924 112.813 149.214C113.136 150.505 112.591 151.634 111.482 151.917C109.103 152.562 106.662 153.107 104.303 153.631C103.516 153.812 102.73 153.974 101.943 154.155C101.883 154.155 101.822 154.175 101.742 154.175H101.762ZM101.137 153.57C101.278 153.57 101.399 153.591 101.5 153.611C101.661 153.611 101.762 153.651 101.843 153.611C102.629 153.429 103.416 153.248 104.222 153.086C106.582 152.562 109.022 152.018 111.381 151.372C112.309 151.13 112.511 150.162 112.309 149.335C112.067 148.347 111.321 147.783 110.534 147.944C107.046 148.63 103.94 149.376 101.036 150.223C100.673 150.324 100.189 151.392 100.189 152.058C100.189 152.421 100.552 152.844 100.854 153.207C100.955 153.328 101.056 153.449 101.157 153.57H101.137Z" fill="white"/>
</g>
<defs>
<clipPath id="clip0_101_761">
<rect width="220" height="164.945" fill="white"/>
</clipPath>
</defs>
</svg>
