<svg width="220" height="131" viewBox="0 0 220 131" fill="none" xmlns="http://www.w3.org/2000/svg">
<g clip-path="url(#clip0_101_1088)">
<path d="M146.02 59.0643C146.02 59.0643 146.12 59.0643 146.194 59.1638C146.244 59.2632 146.219 59.3129 146.194 59.3626L135.306 81.2135C133.268 85.2903 129.191 87.8259 124.617 87.8259H27.096C22.5469 87.8259 18.47 85.2903 16.4316 81.2384L5.49376 59.3626C5.49376 59.3626 5.44404 59.2632 5.49376 59.1638C5.54347 59.0643 5.59319 59.0643 5.66777 59.0643H146.02ZM146.02 53.5954H5.66777C1.44178 53.5954 -1.29269 58.0203 0.59658 61.7988L11.5344 83.6497C14.4926 89.5412 20.5084 93.27 27.096 93.27H124.617C131.204 93.27 137.245 89.5412 140.179 83.6248L151.067 61.7739C152.956 57.9954 150.197 53.5706 145.995 53.5706L146.02 53.5954Z" fill="black"/>
<path d="M148.879 61.1029C148.655 61.1029 148.457 61.1029 148.233 61.0284C146.542 60.6803 145.498 59.0148 145.846 57.3493C145.946 56.8521 148.606 45.3425 167.225 40.4205C168.89 39.973 170.581 40.9673 171.028 42.6329C171.476 44.2984 170.481 45.9888 168.816 46.4363C154.099 50.3391 151.937 58.5673 151.912 58.6419C151.589 60.1086 150.321 61.1029 148.879 61.1029Z" fill="black"/>
<path d="M214.531 36.5175V48.1514H171.575V38.4565L214.531 36.5175M216.918 30.9243L169.189 33.087C167.498 33.087 166.106 34.678 166.106 36.6418V50.0407C166.106 52.0045 167.498 53.5955 169.189 53.5955H216.918C218.608 53.5955 220 52.0045 220 50.0407V34.504C220 32.5401 218.608 30.9492 216.918 30.9492V30.9243Z" fill="black"/>
<path d="M53.3718 109.925C54.1921 110.895 54.6147 112.163 54.8633 113.405C55.0125 114.102 55.0373 114.624 55.1616 115.444C55.9571 120.59 54.3413 123.821 52.626 125.785C50.6622 128.022 46.7345 129.141 43.8757 128.47C35.374 126.431 35.1503 116.985 39.8983 112.635C43.9254 108.956 44.8452 104.705 45.0441 102.816C45.0938 102.443 45.5661 102.269 45.8147 102.542C52.1288 109.03 50.4136 115.071 51.6814 114.574C52.0046 114.45 52.0045 114.425 52.6012 112.411C52.7503 111.889 52.8995 111.268 52.9989 110.248C52.9989 110.248 52.974 109.478 53.3221 109.876L53.3718 109.925Z" fill="white"/>
<path d="M45.6904 130.533C44.9198 130.533 44.174 130.459 43.478 130.285C39.2768 129.265 36.2938 126.481 35.2994 122.653C34.2554 118.626 35.6226 114.052 38.6802 111.268C42.2848 107.962 43.0554 104.133 43.2294 102.642C43.3288 101.747 43.9254 101.001 44.7706 100.703C45.6158 100.404 46.5605 100.628 47.1819 101.275C49.6927 103.835 51.035 106.371 51.8057 108.484C52.0542 108.26 52.3277 108.136 52.452 108.061L53.6949 107.589L54.7639 108.707C55.9322 110.099 56.4045 111.839 56.678 113.008C56.7774 113.505 56.8271 113.928 56.9017 114.4L57.0011 115.171C57.722 119.943 56.7277 123.921 54.0429 127.003C52.1537 129.166 48.7729 130.533 45.6656 130.533H45.6904ZM46.3367 105.973C45.6158 108.285 44.174 111.317 41.2158 114.002C39.1526 115.891 38.2328 118.974 38.9288 121.708C39.5752 124.194 41.4893 125.959 44.348 126.655C46.6102 127.202 49.7921 126.233 51.2588 124.567C53.1978 122.33 53.9187 119.372 53.3469 115.742C53.0983 116.016 52.8249 116.19 52.4023 116.364L51.5819 116.687L50.5627 116.239C49.5684 115.668 49.4192 114.624 49.2203 113.43C48.9718 111.815 48.5492 109.055 46.3367 105.998V105.973ZM54.9379 110.224C54.9379 110.224 54.9379 110.273 54.9379 110.298C54.9379 110.273 54.9379 110.249 54.9379 110.224Z" fill="#231815"/>
<path d="M41.8124 121.907C41.2407 121.758 40.7932 121.708 40.5446 122.081C40.2961 122.454 40.2961 122.951 40.3955 123.399C40.8678 126.034 41.9865 128.221 44.6961 128.569C45.7153 128.694 47.4305 128.594 48.4995 127.849C48.8972 127.575 49.2452 127.028 49.3695 126.581C49.7921 124.915 49.5684 123.101 48.7232 121.609C48.1514 120.565 47.2814 119.571 47.4305 118.402C47.4802 117.93 47.9774 117.408 47.7785 116.96C47.6543 116.687 47.53 116.737 47.3808 116.737C47.3062 116.737 47.1819 116.762 47.1074 116.786C45.8644 117.06 43.8757 118.303 43.2045 119.372C42.6079 120.366 43.5774 120.714 42.9808 121.733C42.9311 121.808 42.7819 122.081 42.2848 122.056" fill="white"/>
<path d="M42.1108 120.789C41.3153 120.59 40.4452 120.54 39.7989 121.162C39.1526 121.783 39.1029 122.728 39.2272 123.548C39.4012 124.766 39.774 126.034 40.4452 127.078C41.9368 129.464 44.7458 130.21 47.4057 129.564C48.8972 129.216 50.165 128.221 50.513 126.68C50.8611 125.139 50.7368 123.374 50.1153 121.858C49.817 121.137 49.4192 120.515 49.0215 119.869C48.7481 119.397 48.4746 118.924 48.6238 118.377C48.6983 118.079 48.8724 117.83 48.9221 117.507C48.9966 117.035 48.9221 116.588 48.6735 116.19C48.1763 115.444 47.2814 115.469 46.5108 115.693C45.1187 116.09 43.652 116.985 42.6825 118.079C42.1605 118.676 41.7627 119.347 41.8125 120.167C41.8125 120.341 41.8622 120.54 41.9119 120.714C41.9119 120.789 41.9616 121.137 41.9865 120.988C41.9865 121.112 42.0113 121.087 41.9368 121.137C41.8125 121.186 42.2848 120.888 42.2351 120.888C40.7435 120.888 40.7435 123.225 42.2351 123.2C43.2046 123.2 43.9503 122.628 44.1989 121.708C44.3232 121.236 44.2983 120.789 44.1989 120.316C44.1741 120.192 44.1243 120.093 44.0995 119.968C44.0995 120.142 44.0995 120.068 44.1492 119.919C44.4475 119.397 45.1933 118.899 45.765 118.551C46.287 118.253 47.0328 117.806 47.53 117.88L46.9334 117.731L47.0328 117.806L46.6102 117.383C46.5108 117.209 46.7345 116.936 46.5605 117.209C46.4611 117.383 46.3865 117.582 46.3119 117.781C46.1627 118.253 46.1628 118.75 46.2373 119.223C46.3865 120.068 46.8339 120.814 47.2565 121.51C48.1017 122.877 48.574 124.443 48.2012 126.059C47.9029 127.376 46.2373 127.501 45.0938 127.451C43.9503 127.401 43.0057 126.879 42.4091 125.959C42.0362 125.363 41.8125 124.716 41.6385 124.045C41.5639 123.722 41.4644 123.374 41.4396 123.051C41.4147 122.703 41.5639 122.628 41.2656 122.877L41.0667 122.927C41.0667 122.927 41.4644 123.001 41.4396 123.001C42.8814 123.349 43.5029 121.112 42.0611 120.764L42.1108 120.789Z" fill="#231815"/>
<path d="M83.5255 109.925C84.3458 110.895 84.7684 112.163 85.017 113.405C85.1661 114.102 85.191 114.624 85.3153 115.444C86.1108 120.59 84.495 123.821 82.7797 125.785C80.8159 128.022 76.8882 129.141 74.0294 128.47C65.5277 126.431 65.304 116.985 70.052 112.635C74.0791 108.956 74.9989 104.705 75.1978 102.816C75.2475 102.443 75.7198 102.269 75.9684 102.542C82.2825 109.03 80.5673 115.071 81.8351 114.574C82.1582 114.45 82.1582 114.425 82.7548 112.411C82.904 111.889 83.0531 111.268 83.1526 110.248C83.1526 110.248 83.1277 109.478 83.4757 109.876L83.5255 109.925Z" fill="white"/>
<path d="M75.8193 130.533C75.0486 130.533 74.3029 130.459 73.6068 130.285C69.4057 129.265 66.4226 126.481 65.4283 122.653C64.3842 118.626 65.7515 114.052 68.8091 111.268C72.4136 107.962 73.1842 104.133 73.3582 102.642C73.4577 101.747 74.0543 101.001 74.8995 100.703C75.7447 100.404 76.6893 100.628 77.3108 101.275C79.8215 103.835 81.1639 106.346 81.9345 108.484C82.1831 108.26 82.4565 108.136 82.5808 108.061L83.8238 107.589L84.8927 108.707C86.0611 110.099 86.5334 111.839 86.8068 113.008C86.9063 113.505 86.956 113.928 87.0305 114.4L87.13 115.171C87.8509 119.943 86.8565 123.921 84.1718 127.003C82.2825 129.166 78.9017 130.533 75.7944 130.533H75.8193ZM76.4656 105.973C75.7447 108.285 74.3029 111.317 71.3447 114.002C69.2814 115.891 68.3616 118.974 69.0577 121.708C69.704 124.194 71.6181 125.959 74.4769 126.655C76.739 127.202 79.921 126.233 81.3876 124.567C83.3266 122.33 84.0475 119.372 83.4758 115.742C83.2272 116.016 82.9537 116.19 82.5311 116.364L81.7108 116.687L80.6916 116.239C79.6972 115.668 79.5481 114.624 79.3492 113.43C79.1006 111.815 78.678 109.08 76.4656 105.998V105.973ZM85.0667 110.199C85.0667 110.199 85.0667 110.273 85.0667 110.323C85.0667 110.273 85.0667 110.249 85.0667 110.199Z" fill="#231815"/>
<path d="M71.9413 121.907C71.3695 121.758 70.9221 121.708 70.6735 122.081C70.4249 122.454 70.4249 122.951 70.5243 123.399C70.9967 126.034 72.1153 128.221 74.8249 128.569C75.8441 128.694 77.5594 128.594 78.6283 127.849C79.026 127.575 79.3741 127.028 79.4984 126.581C79.9209 124.915 79.6972 123.101 78.852 121.609C78.2803 120.565 77.4102 119.571 77.5594 118.402C77.6091 117.93 78.1063 117.408 77.9074 116.96C77.7831 116.687 77.6588 116.737 77.5097 116.737C77.4351 116.737 77.3108 116.762 77.2362 116.786C75.9933 117.06 74.0046 118.303 73.3334 119.372C72.7368 120.366 73.7063 120.714 73.1097 121.733C73.0599 121.808 72.9108 122.081 72.4136 122.056" fill="white"/>
<path d="M72.2645 120.789C71.469 120.59 70.5989 120.54 69.9526 121.162C69.3063 121.783 69.2565 122.728 69.3808 123.548C69.5549 124.766 69.9277 126.034 70.5989 127.078C72.0904 129.464 74.8995 130.21 77.5594 129.564C79.0509 129.216 80.3187 128.221 80.6667 126.68C81.0147 125.139 80.8905 123.374 80.269 121.858C79.9707 121.137 79.5729 120.515 79.1752 119.869C78.9017 119.397 78.6283 118.924 78.7775 118.377C78.852 118.079 79.026 117.83 79.0758 117.507C79.1503 117.035 79.0758 116.588 78.8272 116.19C78.33 115.444 77.4351 115.469 76.6645 115.693C75.2724 116.09 73.8057 116.985 72.8362 118.079C72.3142 118.676 71.9164 119.347 71.9662 120.167C71.9662 120.341 72.0159 120.54 72.0656 120.714C72.0656 120.789 72.1153 121.137 72.1402 120.988C72.1402 121.112 72.165 121.087 72.0904 121.137C71.9662 121.186 72.4385 120.888 72.3888 120.888C70.8972 120.888 70.8972 123.225 72.3888 123.2C73.3582 123.2 74.104 122.628 74.3526 121.708C74.4769 121.236 74.452 120.789 74.3526 120.316C74.3277 120.192 74.278 120.093 74.2532 119.968C74.2532 120.142 74.2532 120.068 74.3029 119.919C74.6012 119.397 75.3469 118.899 75.9187 118.551C76.4407 118.253 77.1865 117.806 77.6837 117.88L77.0871 117.731L77.1865 117.806L76.7639 117.383C76.6645 117.209 76.8882 116.936 76.7142 117.209C76.6147 117.383 76.5402 117.582 76.4656 117.781C76.3164 118.253 76.3164 118.75 76.391 119.223C76.5402 120.068 76.9876 120.814 77.4102 121.51C78.2554 122.877 78.7277 124.443 78.3549 126.059C78.0566 127.376 76.391 127.501 75.2475 127.451C74.104 127.401 73.1594 126.879 72.5628 125.959C72.1899 125.363 71.9662 124.716 71.7921 124.045C71.7176 123.722 71.6181 123.374 71.5933 123.051C71.5684 122.703 71.7176 122.628 71.4193 122.877L71.2204 122.927C71.2204 122.927 71.6181 123.001 71.5933 123.001C73.0351 123.349 73.6565 121.112 72.2147 120.764L72.2645 120.789Z" fill="#231815"/>
<path d="M112.834 109.925C113.654 110.895 114.077 112.163 114.325 113.405C114.475 114.102 114.499 114.624 114.624 115.444C115.419 120.59 113.803 123.821 112.088 125.785C110.124 128.022 106.197 129.141 103.338 128.47C94.8362 126.431 94.6125 116.985 99.3605 112.635C103.388 108.956 104.307 104.705 104.506 102.816C104.556 102.443 105.028 102.269 105.277 102.542C111.591 109.03 109.876 115.071 111.144 114.574C111.467 114.45 111.467 114.425 112.063 112.411C112.212 111.889 112.362 111.268 112.461 110.248C112.461 110.248 112.436 109.478 112.784 109.876L112.834 109.925Z" fill="white"/>
<path d="M105.153 130.533C104.382 130.533 103.636 130.459 102.94 130.285C98.739 129.265 95.756 126.481 94.7616 122.653C93.7175 118.626 95.0848 114.052 98.1424 111.268C101.747 107.962 102.518 104.133 102.692 102.642C102.791 101.747 103.388 101.001 104.233 100.703C105.078 100.404 106.023 100.628 106.644 101.275C109.13 103.835 110.497 106.346 111.268 108.484C111.516 108.26 111.79 108.136 111.914 108.061L113.157 107.589L114.226 108.707C115.394 110.099 115.867 111.839 116.14 113.008C116.24 113.505 116.289 113.928 116.364 114.4L116.463 115.171C117.184 119.943 116.19 123.921 113.505 127.003C111.616 129.166 108.235 130.533 105.128 130.533H105.153ZM105.799 105.973C105.078 108.285 103.636 111.317 100.678 114.002C98.6147 115.891 97.6949 118.974 98.391 121.708C99.0373 124.194 100.951 125.959 103.81 126.655C106.047 127.202 109.279 126.208 110.721 124.567C112.66 122.33 113.381 119.372 112.809 115.742C112.56 116.016 112.287 116.19 111.864 116.364L111.044 116.687L110.025 116.239C109.031 115.668 108.881 114.624 108.683 113.43C108.434 111.815 108.011 109.08 105.799 105.998V105.973ZM114.4 110.224C114.4 110.224 114.4 110.273 114.4 110.298C114.4 110.273 114.4 110.249 114.4 110.224Z" fill="#231815"/>
<path d="M101.275 121.907C100.703 121.758 100.255 121.708 100.007 122.081C99.7582 122.454 99.7582 122.951 99.8577 123.399C100.33 126.034 101.449 128.221 104.158 128.569C105.177 128.694 106.893 128.594 107.962 127.849C108.359 127.575 108.707 127.028 108.832 126.581C109.254 124.915 109.031 123.101 108.185 121.609C107.614 120.565 106.744 119.571 106.893 118.402C106.942 117.93 107.44 117.408 107.241 116.96C107.116 116.687 106.992 116.737 106.843 116.737C106.768 116.737 106.644 116.762 106.57 116.786C105.327 117.06 103.338 118.303 102.667 119.372C102.07 120.366 103.04 120.714 102.443 121.733C102.393 121.808 102.244 122.081 101.747 122.056" fill="white"/>
<path d="M101.573 120.789C100.777 120.59 99.9074 120.54 99.2611 121.162C98.6147 121.783 98.565 122.728 98.6893 123.548C98.8633 124.766 99.2362 126.034 99.9074 127.078C101.399 129.464 104.208 130.21 106.868 129.564C108.359 129.216 109.627 128.221 109.975 126.68C110.323 125.139 110.199 123.374 109.577 121.858C109.279 121.137 108.881 120.515 108.484 119.869C108.21 119.397 107.937 118.924 108.086 118.377C108.16 118.079 108.335 117.83 108.384 117.507C108.459 117.035 108.384 116.588 108.136 116.19C107.638 115.444 106.744 115.469 105.973 115.693C104.581 116.09 103.114 116.985 102.145 118.079C101.623 118.676 101.225 119.347 101.275 120.167C101.275 120.341 101.324 120.54 101.374 120.714C101.374 120.789 101.424 121.137 101.449 120.988C101.449 121.112 101.473 121.087 101.399 121.137C101.275 121.186 101.747 120.888 101.697 120.888C100.206 120.888 100.206 123.225 101.697 123.2C102.667 123.2 103.412 122.628 103.661 121.708C103.785 121.236 103.761 120.789 103.661 120.316C103.636 120.192 103.586 120.093 103.562 119.968C103.562 120.142 103.562 120.068 103.611 119.919C103.91 119.397 104.655 118.899 105.227 118.551C105.749 118.253 106.495 117.806 106.992 117.88L106.396 117.731L106.495 117.806L106.072 117.383C105.973 117.209 106.197 116.936 106.023 117.209C105.923 117.383 105.849 117.582 105.774 117.781C105.625 118.253 105.625 118.75 105.699 119.223C105.849 120.068 106.296 120.814 106.719 121.51C107.564 122.877 108.036 124.443 107.663 126.059C107.365 127.376 105.699 127.501 104.556 127.451C103.412 127.401 102.468 126.879 101.871 125.959C101.498 125.363 101.275 124.716 101.101 124.045C101.026 123.722 100.927 123.374 100.902 123.051C100.877 122.703 101.026 122.628 100.728 122.877L100.529 122.927C100.529 122.927 100.927 123.001 100.902 123.001C102.344 123.349 102.965 121.112 101.523 120.764L101.573 120.789Z" fill="#231815"/>
<path d="M51.0599 5.7175C50.8859 6.1401 50.6373 7.08473 50.0904 7.80564C47.0576 12.0068 47.1322 14.4181 50.5378 18.3457C55.6836 24.2621 55.4599 33.4102 50.0407 38.6305C48.4746 40.122 46.461 40.4203 44.7955 39.3514C43.2045 38.3322 42.4836 36.2689 43.1548 34.5039C43.3785 33.957 43.7514 33.435 44.1243 32.9627C46.809 29.557 46.7344 26.4497 43.8508 23.2181C38.3819 17.0531 38.357 8.10394 43.7763 2.61016C45.1683 1.19321 46.7593 0.671173 48.5989 1.46665C50.1898 2.1627 50.9853 3.43049 51.035 5.7175H51.0599Z" fill="black"/>
<path d="M46.9333 41.0915C45.9887 41.0915 45.0689 40.8181 44.2237 40.2712C42.1604 38.9536 41.2904 36.3435 42.1604 34.1062C42.4339 33.4101 42.8814 32.8135 43.304 32.2666C45.6655 29.2587 45.591 26.7729 43.0554 23.9141C37.1638 17.2768 37.1638 7.78076 43.0305 1.81466C45.2926 -0.497204 47.5548 -0.198899 49.0712 0.447429C51.1096 1.31749 52.1288 3.03274 52.1537 5.69263V5.94121L52.0542 6.16494C52.0045 6.26438 51.9797 6.38867 51.9299 6.51296C51.7559 7.01014 51.4576 7.78076 50.9853 8.45195C48.2508 12.2305 48.3254 14.1197 51.383 17.6497C56.9265 24.0384 56.678 33.8079 50.8113 39.426C49.6678 40.5197 48.3006 41.0915 46.9333 41.0915V41.0915ZM46.9333 2.18754C46.113 2.18754 45.3424 2.58528 44.5717 3.3559C39.5254 8.50167 39.5503 16.7051 44.6712 22.4723C47.878 26.0768 47.9774 29.8305 44.9943 33.6339C44.6712 34.0565 44.348 34.4791 44.174 34.9017C43.6768 36.1695 44.1989 37.6858 45.3921 38.4316C46.635 39.2271 48.0768 39.0034 49.2701 37.835C54.2915 32.9875 54.4904 24.5604 49.7175 19.0418C45.9887 14.7412 45.8644 11.7582 49.1955 7.13443C49.4938 6.71183 49.7175 6.14008 49.8667 5.74234C49.8915 5.64291 49.9412 5.56833 49.9661 5.49376C49.8915 3.45534 49.0712 2.80901 48.2011 2.43613C47.7785 2.23726 47.3559 2.16268 46.9582 2.16268L46.9333 2.18754Z" fill="white"/>
<path d="M79.5231 5.7175C79.3491 6.1401 79.1005 7.08473 78.5536 7.80564C75.5209 12.0068 75.5954 14.4181 79.0011 18.3457C84.1469 24.2621 83.9231 33.4102 78.5039 38.6305C76.9378 40.122 74.9243 40.4203 73.2587 39.3514C71.6678 38.3322 70.9469 36.2689 71.618 34.5039C71.8418 33.957 72.2147 33.435 72.5875 32.9627C75.2723 29.557 75.1977 26.4497 72.3141 23.2181C66.8452 17.0531 66.8203 8.10394 72.2395 2.61016C73.6316 1.19321 75.2226 0.671173 77.0621 1.46665C78.6531 2.1627 79.4486 3.43049 79.4983 5.7175H79.5231Z" fill="black"/>
<path d="M75.3966 41.0915C74.452 41.0915 73.5322 40.8181 72.687 40.2712C70.6237 38.9537 69.7536 36.3435 70.6237 34.1062C70.8971 33.4102 71.3446 32.8136 71.7672 32.2915C74.1288 29.2836 74.0542 26.7978 71.5186 23.939C65.6271 17.3017 65.6271 7.80566 71.4938 1.83956C73.7559 -0.472302 76.0429 -0.173996 77.5344 0.472331C79.5729 1.34239 80.5921 3.05764 80.6169 5.71753V5.96612L80.5175 6.18984C80.4678 6.28928 80.4429 6.41357 80.3932 6.53787C80.2192 7.03504 79.9209 7.80566 79.4486 8.47685C76.7141 12.2554 76.7887 14.1446 79.8463 17.6746C85.3898 24.0633 85.1412 33.8328 79.2745 39.4509C78.131 40.5446 76.7638 41.1164 75.3966 41.1164V41.0915ZM75.3966 2.18759C74.5762 2.18759 73.8056 2.58533 73.0101 3.35595C67.9638 8.50171 68.0135 16.7051 73.1096 22.4723C76.3164 26.0768 76.4158 29.8305 73.4327 33.6339C73.0847 34.0565 72.7864 34.4791 72.6124 34.9017C72.1152 36.1695 72.6373 37.6859 73.8056 38.4565C75.0486 39.252 76.4904 39.0283 77.7084 37.8599C82.7299 33.0124 82.9288 24.5853 78.131 19.0667C74.4022 14.7661 74.2779 11.7831 77.609 7.15934C77.9073 6.73674 78.1062 6.16499 78.2802 5.76725C78.3051 5.66781 78.3548 5.59323 78.3796 5.51866C78.3051 3.48024 77.4847 2.83391 76.6147 2.46103C76.1921 2.26216 75.7695 2.18759 75.3717 2.18759H75.3966Z" fill="white"/>
<path d="M107.962 5.7175C107.788 6.1401 107.539 7.08473 106.992 7.80564C103.959 12.0068 104.034 14.4181 107.44 18.3457C112.585 24.2621 112.362 33.4102 106.942 38.6305C105.376 40.122 103.363 40.4203 101.697 39.3514C100.106 38.3322 99.3853 36.2689 100.056 34.5039C100.28 33.957 100.653 33.435 101.026 32.9627C103.711 29.557 103.636 26.4497 100.753 23.2181C95.2836 17.0531 95.2587 8.10394 100.678 2.61016C102.07 1.19321 103.661 0.671173 105.501 1.46665C107.091 2.1627 107.887 3.43049 107.937 5.7175H107.962Z" fill="black"/>
<path d="M103.835 41.0915C102.89 41.0915 101.971 40.8181 101.125 40.2712C99.0621 38.9537 98.1921 36.3435 99.0621 34.1062C99.3356 33.4102 99.783 32.8136 100.206 32.2915C102.567 29.2836 102.493 26.7978 99.957 23.939C94.0655 17.3017 94.0407 7.80566 99.9322 1.83956C102.194 -0.472302 104.481 -0.173996 105.973 0.472331C108.011 1.34239 109.03 3.05764 109.055 5.71753V5.96612L108.956 6.18984C108.906 6.28928 108.881 6.38872 108.832 6.53787C108.658 7.03504 108.359 7.80566 107.887 8.47685C105.153 12.2554 105.227 14.1446 108.285 17.6746C113.828 24.0633 113.58 33.8328 107.713 39.4509C106.569 40.5446 105.202 41.1164 103.835 41.1164V41.0915ZM103.835 2.18759C103.015 2.18759 102.244 2.58533 101.473 3.35595C96.4271 8.50171 96.452 16.7051 101.573 22.4723C104.78 26.0768 104.879 29.8305 101.896 33.6339C101.573 34.0565 101.25 34.4791 101.076 34.9017C100.579 36.1695 101.101 37.6859 102.294 38.4317C103.537 39.2271 104.979 39.0034 106.197 37.835C111.218 32.9876 111.417 24.5605 106.619 19.0418C102.89 14.7413 102.766 11.7582 106.097 7.13448C106.395 6.71188 106.619 6.14013 106.768 5.74239C106.793 5.64295 106.818 5.56838 106.868 5.4938C106.793 3.45538 105.973 2.80905 105.103 2.43617C104.68 2.2373 104.258 2.16273 103.86 2.16273L103.835 2.18759Z" fill="white"/>
</g>
<defs>
<clipPath id="clip0_101_1088">
<rect width="220" height="130.533" fill="white"/>
</clipPath>
</defs>
</svg>
