<svg width="220" height="134" viewBox="0 0 220 134" fill="none" xmlns="http://www.w3.org/2000/svg">
<g clip-path="url(#clip0_101_1000)">
<path d="M146.02 62.1967C146.02 62.1967 146.12 62.1967 146.194 62.2961C146.244 62.3955 146.219 62.4453 146.194 62.495L135.306 84.3458C133.268 88.4227 129.191 90.9583 124.617 90.9583H27.096C22.5469 90.9583 18.47 88.4227 16.4316 84.3707L5.49376 62.495C5.49376 62.495 5.44404 62.3955 5.49376 62.2961C5.54347 62.1967 5.59319 62.1967 5.66777 62.1967H146.02M146.02 56.7277H5.66777C1.44178 56.7277 -1.29269 61.1526 0.59658 64.9311L11.5344 86.782C14.4926 92.6735 20.5084 96.4023 27.096 96.4023H124.617C131.204 96.4023 137.245 92.6735 140.179 86.7571L151.067 64.9063C152.956 61.1277 150.197 56.7029 145.995 56.7029L146.02 56.7277Z" fill="black"/>
<path d="M148.879 64.1855C148.655 64.1855 148.407 64.1607 148.183 64.1109C146.517 63.7381 145.473 62.1222 145.846 60.4567C145.946 59.9595 148.606 48.4499 167.225 43.5279C168.89 43.0804 170.581 44.0748 171.028 45.7403C171.476 47.4058 170.481 49.0962 168.816 49.5437C154.149 53.4217 151.986 61.451 151.912 61.7991C151.564 63.216 150.271 64.1855 148.879 64.1855V64.1855Z" fill="black"/>
<path d="M214.531 39.625V51.2589H171.575V41.5639L214.531 39.625ZM216.918 34.0317L169.189 36.1945C167.498 36.1945 166.106 37.7854 166.106 39.7493V53.1481C166.106 55.112 167.498 56.7029 169.189 56.7029H216.918C218.608 56.7029 220 55.112 220 53.1481V37.6114C220 35.6476 218.608 34.0566 216.918 34.0566V34.0317Z" fill="black"/>
<path d="M53.3717 113.058C54.1921 114.027 54.6147 115.295 54.8632 116.538C55.0124 117.234 55.0373 117.756 55.1616 118.576C55.957 123.722 54.3412 126.954 52.626 128.917C50.6621 131.155 46.7344 132.273 43.8757 131.602C35.374 129.564 35.1502 120.117 39.8983 115.767C43.9254 112.088 44.8452 107.837 45.044 105.948C45.0938 105.575 45.5661 105.401 45.8147 105.675C52.1288 112.163 50.4135 118.203 51.6813 117.706C52.0045 117.582 52.0045 117.557 52.6011 115.543C52.7502 115.021 52.8994 114.4 52.9988 113.381C52.9988 113.381 52.974 112.61 53.322 113.008L53.3717 113.058Z" fill="white"/>
<path d="M45.6903 133.666C44.9197 133.666 44.174 133.591 43.4779 133.417C39.2768 132.398 36.2937 129.614 35.2994 125.785C34.2553 121.758 35.6225 117.184 38.6802 114.4C42.2847 111.094 43.0553 107.266 43.2293 105.774C43.3288 104.879 43.9254 104.133 44.7706 103.835C45.6158 103.537 46.5604 103.761 47.1819 104.407C49.6677 106.967 51.035 109.478 51.8056 111.616C52.0542 111.392 52.3276 111.268 52.4519 111.193L53.6949 110.721L54.7638 111.84C55.9322 113.232 56.4045 114.972 56.6779 116.14C56.7774 116.637 56.8271 117.06 56.9016 117.532L57.0011 118.303C57.722 123.076 56.7276 127.053 54.0429 130.136C52.1536 132.298 48.7728 133.641 45.6655 133.641L45.6903 133.666ZM46.3367 109.105C45.6158 111.417 44.174 114.45 41.2158 117.135C39.1525 119.024 38.2327 122.106 38.9288 124.841C39.5751 127.327 41.4892 129.092 44.348 129.788C46.635 130.335 49.792 129.365 51.2587 127.7C53.1977 125.462 53.9186 122.504 53.3468 118.875C53.0983 119.148 52.8248 119.322 52.4022 119.496L51.5819 119.819L50.5627 119.372C49.5683 118.8 49.4192 117.756 49.2203 116.563C48.9717 114.947 48.5491 112.213 46.3367 109.13V109.105ZM54.9378 113.356C54.9378 113.356 54.9378 113.406 54.9378 113.431C54.9378 113.406 54.9378 113.381 54.9378 113.356Z" fill="#231815"/>
<path d="M41.8124 125.04C41.2406 124.89 40.7932 124.841 40.5446 125.214C40.296 125.587 40.296 126.084 40.3954 126.531C40.8678 129.166 41.9864 131.354 44.696 131.702C45.7152 131.826 47.4305 131.727 48.4994 130.981C48.8971 130.707 49.2452 130.161 49.3694 129.713C49.792 128.048 49.5683 126.233 48.7231 124.741C48.1514 123.697 47.2813 122.703 47.4305 121.535C47.4802 121.062 47.9774 120.54 47.7785 120.093C47.6542 119.819 47.5299 119.869 47.3807 119.869C47.3062 119.869 47.1819 119.894 47.1073 119.919C45.8644 120.192 43.8757 121.435 43.2045 122.504C42.6079 123.498 43.5774 123.846 42.9807 124.866C42.931 124.94 42.7819 125.214 42.2847 125.189" fill="white"/>
<path d="M42.1107 123.921C41.3152 123.722 40.4452 123.672 39.7988 124.294C39.1525 124.915 39.1028 125.86 39.2271 126.68C39.4011 127.898 39.774 129.166 40.4452 130.21C41.9367 132.597 44.7457 133.342 47.4056 132.696C48.8972 132.348 50.1649 131.354 50.513 129.813C50.861 128.271 50.7367 126.506 50.1152 124.99C49.8169 124.269 49.4192 123.648 49.0214 123.001C48.748 122.529 48.4746 122.057 48.6237 121.51C48.6983 121.211 48.8723 120.963 48.922 120.64C48.9966 120.167 48.922 119.72 48.6734 119.322C48.1762 118.576 47.2813 118.601 46.5107 118.825C45.1186 119.223 43.652 120.118 42.6825 121.211C42.1604 121.808 41.7627 122.479 41.8124 123.3C41.8124 123.474 41.8621 123.672 41.9118 123.846C41.9118 123.921 41.9616 124.269 41.9864 124.12C41.9864 124.244 42.0113 124.219 41.9367 124.269C41.8124 124.319 42.2847 124.02 42.235 124.02C40.7435 124.02 40.7435 126.357 42.235 126.332C43.2045 126.332 43.9503 125.761 44.1988 124.841C44.3231 124.368 44.2983 123.921 44.1988 123.449C44.174 123.324 44.1243 123.225 44.0994 123.101C44.0994 123.275 44.0994 123.2 44.1491 123.051C44.4474 122.529 45.1932 122.032 45.7649 121.684C46.287 121.385 47.0327 120.938 47.5299 121.013L46.9333 120.863L47.0327 120.938L46.6101 120.515C46.5107 120.341 46.7344 120.068 46.5604 120.341C46.461 120.515 46.3864 120.714 46.3118 120.913C46.1627 121.385 46.1627 121.883 46.2373 122.355C46.3864 123.2 46.8339 123.946 47.2565 124.642C48.1017 126.009 48.574 127.575 48.2011 129.191C47.9028 130.509 46.2373 130.633 45.0938 130.583C43.9503 130.533 43.0056 130.011 42.409 129.092C42.0361 128.495 41.8124 127.849 41.6384 127.178C41.5638 126.854 41.4644 126.506 41.4395 126.183C41.4147 125.835 41.5638 125.761 41.2655 126.009L41.0666 126.059C41.0666 126.059 41.4644 126.133 41.4395 126.133C42.8813 126.481 43.5028 124.244 42.061 123.896L42.1107 123.921Z" fill="#231815"/>
<path d="M83.5254 113.058C84.3457 114.027 84.7683 115.295 85.0169 116.538C85.1661 117.234 85.1909 117.756 85.3152 118.576C86.1107 123.722 84.4949 126.954 82.7796 128.917C80.8158 131.155 76.8881 132.273 74.0294 131.602C65.5277 129.564 65.3039 120.117 70.052 115.767C74.0791 112.088 74.9988 107.837 75.1977 105.948C75.2474 105.575 75.7198 105.401 75.9683 105.675C82.2825 112.163 80.5672 118.203 81.835 117.706C82.1582 117.582 82.1582 117.557 82.7548 115.543C82.9039 115.021 83.0531 114.4 83.1525 113.381C83.1525 113.381 83.1277 112.61 83.4757 113.008L83.5254 113.058Z" fill="white"/>
<path d="M75.8192 133.666C75.0486 133.666 74.3028 133.591 73.6068 133.417C69.4056 132.398 66.4226 129.614 65.4282 125.785C64.3842 121.758 65.7514 117.184 68.809 114.4C72.4135 111.094 73.1842 107.266 73.3582 105.774C73.4576 104.879 74.0542 104.133 74.8994 103.835C75.7446 103.537 76.6892 103.761 77.3107 104.407C79.7966 106.967 81.1638 109.478 81.9344 111.616C82.183 111.392 82.4565 111.268 82.5808 111.193L83.8237 110.721L84.8926 111.84C86.061 113.232 86.5333 114.972 86.8068 116.14C86.9062 116.637 86.9808 117.06 87.0305 117.532L87.1299 118.278C87.8508 123.051 86.8565 127.028 84.1717 130.111C82.2825 132.274 78.9017 133.641 75.7943 133.641L75.8192 133.666ZM76.4655 109.105C75.7446 111.417 74.3028 114.45 71.3446 117.135C69.2813 119.024 68.3616 122.106 69.0576 124.841C69.7039 127.327 71.6181 129.092 74.4768 129.788C76.7141 130.335 79.9457 129.34 81.3876 127.7C83.3265 125.462 84.0474 122.504 83.4757 118.875C83.2271 119.148 82.9537 119.322 82.5311 119.496L81.7107 119.819L80.6915 119.372C79.6972 118.8 79.548 117.756 79.3491 116.563C79.1005 114.947 78.6779 112.213 76.4655 109.13V109.105ZM85.0667 113.356C85.0667 113.356 85.0667 113.406 85.0667 113.431C85.0667 113.406 85.0667 113.381 85.0667 113.356Z" fill="#231815"/>
<path d="M71.9412 125.04C71.3695 124.89 70.922 124.841 70.6734 125.214C70.4248 125.587 70.4248 126.084 70.5243 126.531C70.9966 129.166 72.1152 131.354 74.8248 131.702C75.8441 131.826 77.5593 131.727 78.6282 130.981C79.026 130.707 79.374 130.161 79.4983 129.713C79.9209 128.048 79.6972 126.233 78.852 124.741C78.2802 123.697 77.4102 122.703 77.5593 121.535C77.609 121.062 78.1062 120.54 77.9073 120.093C77.783 119.819 77.6587 119.869 77.5096 119.869C77.435 119.869 77.3107 119.894 77.2361 119.919C75.9932 120.192 74.0045 121.435 73.3333 122.504C72.7367 123.498 73.7062 123.846 73.1096 124.866C73.0599 124.94 72.9107 125.214 72.4135 125.189" fill="white"/>
<path d="M72.2644 123.921C71.4689 123.722 70.5989 123.672 69.9525 124.294C69.3062 124.915 69.2565 125.86 69.3808 126.68C69.5548 127.898 69.9277 129.166 70.5989 130.21C72.0904 132.597 74.8994 133.342 77.5593 132.696C79.0508 132.348 80.3186 131.354 80.6667 129.813C81.0147 128.271 80.8904 126.506 80.2689 124.99C79.9706 124.269 79.5729 123.648 79.1751 123.001C78.9017 122.529 78.6282 122.057 78.7774 121.51C78.852 121.211 79.026 120.963 79.0757 120.64C79.1503 120.167 79.0757 119.72 78.8271 119.322C78.3299 118.576 77.435 118.601 76.6644 118.825C75.2723 119.223 73.8056 120.118 72.8361 121.211C72.3141 121.808 71.9164 122.479 71.9661 123.3C71.9661 123.474 72.0158 123.672 72.0655 123.846C72.0655 123.921 72.1152 124.269 72.1401 124.12C72.1401 124.244 72.165 124.219 72.0904 124.269C71.9661 124.319 72.4384 124.02 72.3887 124.02C70.8972 124.02 70.8972 126.357 72.3887 126.332C73.3582 126.332 74.1039 125.761 74.3525 124.841C74.4768 124.368 74.452 123.921 74.3525 123.449C74.3277 123.324 74.278 123.225 74.2531 123.101C74.2531 123.275 74.2531 123.2 74.3028 123.051C74.6011 122.529 75.3469 122.032 75.9186 121.684C76.4407 121.385 77.1864 120.938 77.6836 121.013L77.087 120.863L77.1864 120.938L76.7638 120.515C76.6644 120.341 76.8881 120.068 76.7141 120.341C76.6147 120.515 76.5401 120.714 76.4655 120.913C76.3164 121.385 76.3164 121.883 76.391 122.355C76.5401 123.2 76.9876 123.946 77.4102 124.642C78.2554 126.009 78.7277 127.575 78.3548 129.191C78.0565 130.509 76.391 130.633 75.2474 130.583C74.1039 130.533 73.1593 130.011 72.5627 129.092C72.1898 128.495 71.9661 127.849 71.7921 127.178C71.7175 126.854 71.6181 126.506 71.5932 126.183C71.5684 125.835 71.7175 125.761 71.4192 126.009L71.2203 126.059C71.2203 126.059 71.6181 126.133 71.5932 126.133C73.035 126.481 73.6565 124.244 72.2147 123.896L72.2644 123.921Z" fill="#231815"/>
<path d="M112.834 113.058C113.654 114.027 114.077 115.295 114.325 116.538C114.475 117.234 114.499 117.756 114.624 118.576C115.419 123.722 113.803 126.954 112.088 128.917C110.124 131.155 106.197 132.273 103.338 131.602C94.8361 129.564 94.6124 120.117 99.3604 115.767C103.388 112.088 104.307 107.837 104.506 105.948C104.556 105.575 105.028 105.401 105.277 105.675C111.591 112.163 109.876 118.203 111.143 117.706C111.467 117.582 111.467 117.557 112.063 115.543C112.212 115.021 112.362 114.4 112.461 113.381C112.461 113.381 112.436 112.61 112.784 113.008L112.834 113.058Z" fill="white"/>
<path d="M105.153 133.666C104.382 133.666 103.636 133.591 102.94 133.417C98.7389 132.398 95.7559 129.614 94.7615 125.785C93.7175 121.758 95.0847 117.184 98.1423 114.4C101.747 111.094 102.517 107.266 102.691 105.774C102.791 104.879 103.388 104.133 104.233 103.835C105.078 103.537 106.023 103.761 106.644 104.407C109.155 106.967 110.497 109.478 111.268 111.616C111.516 111.392 111.79 111.268 111.914 111.193L113.157 110.721L114.226 111.84C115.394 113.232 115.867 114.972 116.14 116.14C116.24 116.637 116.289 117.06 116.364 117.532L116.463 118.303C117.184 123.076 116.19 127.053 113.505 130.136C111.616 132.298 108.235 133.666 105.128 133.666H105.153ZM105.799 109.105C105.078 111.417 103.636 114.45 100.678 117.135C98.6147 119.024 97.6949 122.106 98.3909 124.841C99.0373 127.327 100.951 129.092 103.81 129.788C106.072 130.335 109.254 129.365 110.721 127.7C112.66 125.462 113.381 122.504 112.809 118.875C112.56 119.148 112.287 119.322 111.864 119.496L111.044 119.819L110.025 119.372C109.03 118.8 108.881 117.756 108.682 116.563C108.434 114.947 108.011 112.213 105.799 109.13V109.105ZM114.4 113.331C114.4 113.331 114.4 113.406 114.4 113.455C114.4 113.406 114.4 113.381 114.4 113.331Z" fill="#231815"/>
<path d="M101.275 125.04C100.703 124.89 100.255 124.841 100.007 125.214C99.7582 125.587 99.7582 126.084 99.8576 126.531C100.33 129.166 101.449 131.354 104.158 131.702C105.177 131.826 106.893 131.727 107.962 130.981C108.359 130.707 108.707 130.161 108.832 129.713C109.254 128.048 109.03 126.233 108.185 124.741C107.614 123.697 106.743 122.703 106.893 121.535C106.942 121.062 107.44 120.54 107.241 120.093C107.116 119.819 106.992 119.869 106.843 119.869C106.768 119.869 106.644 119.894 106.569 119.919C105.327 120.192 103.338 121.435 102.667 122.504C102.07 123.498 103.04 123.846 102.443 124.866C102.393 124.94 102.244 125.214 101.747 125.189" fill="white"/>
<path d="M101.573 123.921C100.777 123.722 99.9073 123.672 99.261 124.294C98.6147 124.915 98.565 125.86 98.6893 126.68C98.8633 127.898 99.2361 129.166 99.9073 130.21C101.399 132.597 104.208 133.342 106.868 132.696C108.359 132.348 109.627 131.354 109.975 129.813C110.323 128.271 110.199 126.506 109.577 124.99C109.279 124.269 108.881 123.648 108.484 123.001C108.21 122.529 107.937 122.057 108.086 121.51C108.16 121.211 108.334 120.963 108.384 120.64C108.459 120.167 108.384 119.72 108.136 119.322C107.638 118.576 106.743 118.601 105.973 118.825C104.581 119.223 103.114 120.118 102.145 121.211C101.623 121.808 101.225 122.479 101.275 123.3C101.275 123.474 101.324 123.672 101.374 123.846C101.374 123.921 101.424 124.269 101.449 124.12C101.449 124.244 101.473 124.219 101.399 124.269C101.275 124.319 101.747 124.02 101.697 124.02C100.206 124.02 100.206 126.357 101.697 126.332C102.667 126.332 103.412 125.761 103.661 124.841C103.785 124.368 103.76 123.921 103.661 123.449C103.636 123.324 103.586 123.225 103.562 123.101C103.562 123.275 103.562 123.2 103.611 123.051C103.91 122.529 104.655 122.032 105.227 121.684C105.749 121.385 106.495 120.938 106.992 121.013L106.395 120.863L106.495 120.938L106.072 120.515C105.973 120.341 106.197 120.068 106.023 120.341C105.923 120.515 105.849 120.714 105.774 120.913C105.625 121.385 105.625 121.883 105.699 122.355C105.849 123.2 106.296 123.946 106.719 124.642C107.564 126.009 108.036 127.575 107.663 129.191C107.365 130.509 105.699 130.633 104.556 130.583C103.412 130.533 102.468 130.011 101.871 129.092C101.498 128.495 101.275 127.849 101.101 127.178C101.026 126.854 100.927 126.506 100.902 126.183C100.877 125.835 101.026 125.761 100.728 126.009L100.529 126.059C100.529 126.059 100.927 126.133 100.902 126.133C102.343 126.481 102.965 124.244 101.523 123.896L101.573 123.921Z" fill="#231815"/>
<path d="M52.2282 21.2791C53.6949 22.0497 54.9627 23.2678 55.7831 24.809C56.6282 26.052 58.0203 29.9796 55.5593 41.5638L55.1864 43.3785L53.5458 42.5333C42.9062 37.1141 40.7684 33.5593 40.3706 32.1175C39.6746 30.4768 39.5254 28.7118 39.8734 27.0463L40.7186 24.7593C42.3593 21.7017 46.3119 19.7627 49.7424 20.3842L52.2282 21.2294V21.2791ZM43.1051 31.3966C43.304 31.8689 44.7458 34.6282 53.1729 39.1774C54.9378 29.8553 53.7446 26.9717 53.4712 26.4746L52.7006 25.2813C51.0847 23.2429 48.226 22.522 45.765 23.6904C43.304 24.8587 42.0362 27.6429 42.6825 30.2282L43.1051 31.4215V31.3966ZM53.496 26.4746L53.5706 26.4L53.496 26.4746Z" fill="#221613"/>
<path d="M56.0565 45.2181L52.974 43.652C42.7074 38.4316 39.7989 34.7028 39.1526 32.4904C38.4317 30.8 38.2328 28.7864 38.6554 26.8226L39.5254 24.3616C41.5141 20.6328 45.9639 18.4701 49.9413 19.191L52.8 20.1605C54.5401 21.0802 55.9571 22.4723 56.8769 24.2124C58.0949 25.9774 59.1639 30.6011 56.7774 41.8124L56.0565 45.1932V45.2181ZM48.4 21.5028C45.8893 21.5028 43.0305 23.0938 41.7876 25.3808L41.017 27.4938C40.7684 28.7864 40.8927 30.278 41.4893 31.6452C41.7876 32.6893 43.4531 36.0203 54.0927 41.4396L54.2916 41.539L54.3413 41.3153C56.8023 29.6814 55.2859 26.2757 54.739 25.5051C53.9932 24.113 52.974 23.0938 51.7062 22.3977L49.2949 21.5774C48.9966 21.5277 48.6735 21.5028 48.3752 21.5028H48.4ZM54.0678 41.0418L52.5763 40.2463C44.2735 35.7966 42.3842 32.913 41.9368 31.8689L41.4893 30.8H41.5639L41.5142 30.626C40.669 27.3198 42.2599 23.9638 45.243 22.5469C48.1514 21.1548 51.7062 21.9751 53.6949 24.4859L54.5401 25.8034C55.1119 26.8723 56.156 30.1785 54.4158 39.4011L54.0927 41.0667L54.0678 41.0418ZM44.3232 31.0734C44.6712 31.6452 46.2125 33.8079 52.2531 37.2384C53.5458 29.3831 52.4271 27.1458 52.3774 27.0463L51.6565 25.9277C50.4633 24.4362 48.1763 23.9141 46.3119 24.809C44.3978 25.7288 43.3786 27.8667 43.8757 29.9051L44.3232 31.0734V31.0734Z" fill="#231815"/>
<path d="M21.4034 23.6656C22.7458 23.8645 24.0384 24.4611 25.0825 25.4306C26.0769 26.1515 28.1899 28.8114 29.4079 38.382L29.6068 39.8736L28.1153 39.6747C18.4949 38.3572 15.8848 36.1945 15.1887 35.2001C14.2192 34.1063 13.6226 32.7888 13.4486 31.4464V29.4577C13.9209 26.6487 16.4317 24.1131 19.2407 23.6656H21.3786H21.4034ZM17.1028 33.8826C17.3763 34.2058 19.2158 35.9459 26.9221 37.164C25.7786 29.5323 24.0882 27.6182 23.765 27.3199L22.8452 26.599C21.0554 25.4803 18.6689 25.6792 17.078 27.2453C15.487 28.8114 15.2633 31.2973 16.4565 33.0871L17.1028 33.8826ZM23.765 27.3199V27.2453V27.3199Z" fill="#221613"/>
<path d="M31.0486 41.3153L27.9661 40.8927C18.5944 39.6249 15.313 37.4871 14.1944 35.921C13.1751 34.8023 12.4542 33.2611 12.2554 31.5955V29.4328C12.8271 25.9029 15.7356 22.9695 19.0915 22.4475H21.5277H21.6271C23.2678 22.6961 24.7593 23.417 25.9774 24.5356C27.4192 25.5797 29.5074 28.8859 30.7006 38.2328L31.0983 41.3402L31.0486 41.3153ZM18.122 33.1368C18.4949 33.4599 20.2102 34.6283 25.4305 35.6227C24.3367 29.582 22.9446 28.2396 22.9198 28.2147L22.0746 27.5684C20.8565 26.7978 19.0915 26.9967 17.9729 28.1153C16.8294 29.2588 16.6305 31.0486 17.5006 32.391L18.122 33.1368V33.1368Z" fill="#231815"/>
<path d="M27.3447 1.64072C28.3639 2.03846 29.2836 2.7345 29.9548 3.70399C30.6012 4.44976 31.8192 6.93563 31.0735 14.7413L30.9492 15.9594L29.8057 15.5368C22.3978 12.7774 20.7322 10.5899 20.3593 9.6701C19.7876 8.62603 19.5639 7.48253 19.6633 6.36388L20.0362 4.79778C20.8814 2.65993 23.3424 1.09383 25.6543 1.24298L27.3695 1.61586L27.3447 1.64072ZM22.0995 8.97405C22.2486 9.27236 23.417 10.9876 29.3085 13.3243C29.7808 7.05993 28.7616 5.24524 28.5627 4.94693L27.9661 4.20117C26.748 2.98309 24.8091 2.70964 23.2927 3.67914C21.7763 4.64863 21.13 6.56275 21.7514 8.20343L22.1243 8.94919L22.0995 8.97405ZM28.5627 4.97179L28.6125 4.92207L28.5627 4.97179Z" fill="#221613"/>
<path d="M32.0181 17.6746L29.3582 16.6802C22.0746 13.9458 19.8124 11.609 19.191 10.1424C18.5695 9.04858 18.2712 7.65649 18.3955 6.2644L18.7932 4.52429C19.9367 1.69039 22.8701 -0.174016 25.7288 -4.95277e-06L27.8169 0.447453C29.1096 0.944628 30.2034 1.81468 30.9989 2.95819C31.9684 4.05197 33.0621 7.1096 32.3164 14.8158L32.0429 17.6497L32.0181 17.6746ZM23.2429 8.45197C23.4915 8.75028 24.5605 9.89378 28.165 11.5096C28.3141 6.93559 27.5435 5.66779 27.5435 5.66779L27.0215 5.02146C26.2757 4.30056 24.9582 4.15141 23.9638 4.77288C22.9446 5.4192 22.4972 6.687 22.9198 7.80565L23.2678 8.47683L23.2429 8.45197Z" fill="#231815"/>
</g>
<defs>
<clipPath id="clip0_101_1000">
<rect width="220" height="133.666" fill="white"/>
</clipPath>
</defs>
</svg>
