<svg width="36" height="36" viewBox="0 0 36 36" fill="none" xmlns="http://www.w3.org/2000/svg">
<rect width="36" height="36" rx="18" fill="#F8F8FA"/>
<path d="M22.82 20.1735L21.1267 19.9802C20.9276 19.9568 20.7258 19.9788 20.5364 20.0446C20.347 20.1105 20.175 20.2183 20.0334 20.3602L18.8067 21.5868C16.9142 20.6243 15.3759 19.086 14.4134 17.1935L15.6467 15.9602C15.9334 15.6735 16.0734 15.2735 16.0267 14.8668L15.8334 13.1868C15.7956 12.8616 15.6395 12.5617 15.3949 12.3441C15.1502 12.1265 14.8341 12.0064 14.5067 12.0068H13.3534C12.6 12.0068 11.9734 12.6335 12.02 13.3868C12.3734 19.0802 16.9267 23.6268 22.6134 23.9802C23.3667 24.0268 23.9934 23.4002 23.9934 22.6468V21.4935C24 20.8202 23.4934 20.2535 22.82 20.1735Z" fill="black"/>
</svg>
